solid bed A p2 P-023
facet normal 0.0 -0.242489116056356 -0.970154126205835
   outer loop
      vertex 19.9921531346406 18.3238650564498 8.99530471329057
      vertex 13.1921531346406 17.9439734845692 9.0902582562115
      vertex 13.1921531346406 18.3238650564498 8.99530471329057
   endloop
endfacet
facet normal 0.0 -0.242489116056356 -0.970154126205835
   outer loop
      vertex 13.1921531346406 17.9439734845692 9.0902582562115
      vertex 19.9921531346406 18.3238650564498 8.99530471329057
      vertex 19.9921531346406 17.9439734845692 9.0902582562115
   endloop
endfacet
facet normal 0.0 -0.485320864339711 -0.874336124517657
   outer loop
      vertex 19.9921531346406 18.666236351611 8.80526346000895
      vertex 13.1921531346406 18.3238650564498 8.99530471329057
      vertex 13.1921531346406 18.666236351611 8.80526346000895
   endloop
endfacet
facet normal 0.0 -0.485320864339711 -0.874336124517657
   outer loop
      vertex 13.1921531346406 18.3238650564498 8.99530471329057
      vertex 19.9921531346406 18.666236351611 8.80526346000895
      vertex 19.9921531346406 18.3238650564498 8.99530471329057
   endloop
endfacet
facet normal -0.0 0.970154126205835 -0.242489116056357
   outer loop
      vertex 13.1921531346406 16.3779926751392 8.15056766802003
      vertex 19.9921531346406 16.2830391322183 7.77067609613938
      vertex 13.1921531346406 16.2830391322183 7.77067609613938
   endloop
endfacet
facet normal -0.0 0.970154126205835 -0.242489116056357
   outer loop
      vertex 19.9921531346406 16.2830391322183 7.77067609613938
      vertex 13.1921531346406 16.3779926751392 8.15056766802003
      vertex 19.9921531346406 16.3779926751392 8.15056766802003
   endloop
endfacet
facet normal 0.0 -0.5 -0.866025403784438
   outer loop
      vertex 5.39215313464061 21.0208926526214 9.47499999999997
      vertex 2.39215313464061 17.7732973884298 11.35
      vertex 2.39215313464061 21.0208926526214 9.47499999999997
   endloop
endfacet
facet normal 0.0 -0.5 -0.866025403784438
   outer loop
      vertex 2.39215313464061 17.7732973884298 11.35
      vertex 5.39215313464061 21.0208926526214 9.47499999999997
      vertex 5.39215313464061 17.7732973884298 11.35
   endloop
endfacet
facet normal 0.0 0.499999999999999 -0.866025403784439
   outer loop
      vertex 5.39215313464061 17.7732973884298 11.35
      vertex 2.39215313464061 14.5257021242381 9.47499999999998
      vertex 2.39215313464061 17.7732973884298 11.35
   endloop
endfacet
facet normal 0.0 0.499999999999999 -0.866025403784439
   outer loop
      vertex 2.39215313464061 14.5257021242381 9.47499999999998
      vertex 5.39215313464061 17.7732973884298 11.35
      vertex 5.39215313464061 14.5257021242381 9.47499999999998
   endloop
endfacet
facet normal -0.0 1.0 -0.0
   outer loop
      vertex 2.39215313464061 14.5257021242381 9.47499999999998
      vertex 5.39215313464061 14.5257021242381 5.72499999999998
      vertex 2.39215313464061 14.5257021242381 5.72499999999998
   endloop
endfacet
facet normal -0.0 1.0 -0.0
   outer loop
      vertex 5.39215313464061 14.5257021242381 5.72499999999998
      vertex 2.39215313464061 14.5257021242381 9.47499999999998
      vertex 5.39215313464061 14.5257021242381 9.47499999999998
   endloop
endfacet
facet normal -0.0 0.999857727448581 0.0168678647540147
   outer loop
      vertex 13.1921531346406 16.2830391322183 7.77067609613938
      vertex 19.9921531346406 16.2896442266899 7.37915323036241
      vertex 13.1921531346406 16.2896442266899 7.37915323036241
   endloop
endfacet
facet normal -0.0 0.999857727448581 0.0168678647540147
   outer loop
      vertex 19.9921531346406 16.2896442266899 7.37915323036241
      vertex 13.1921531346406 16.2830391322183 7.77067609613938
      vertex 19.9921531346406 16.2830391322183 7.77067609613938
   endloop
endfacet
facet normal -8.32226454502685e-019 0.961422676908726 0.275075328456878
   outer loop
      vertex 13.1921531346406 16.2896442266899 7.37915323036241
      vertex 19.9921531346406 16.3973578322814 7.00268070696969
      vertex 13.1921531346406 16.3973578322814 7.00268070696969
   endloop
endfacet
facet normal -8.32226454502685e-019 0.961422676908726 0.275075328456878
   outer loop
      vertex 19.9921531346406 16.3973578322814 7.00268070696969
      vertex 13.1921531346406 16.2896442266899 7.37915323036241
      vertex 19.9921531346406 16.2896442266899 7.37915323036241
   endloop
endfacet
facet normal -0.0 0.857468259763639 0.51453686310887
   outer loop
      vertex 13.1921531346406 16.3973578322814 7.00268070696969
      vertex 19.9921531346406 16.5988394447768 6.66691450628019
      vertex 13.1921531346406 16.5988394447768 6.66691450628019
   endloop
endfacet
facet normal -0.0 0.857468259763639 0.51453686310887
   outer loop
      vertex 19.9921531346406 16.5988394447768 6.66691450628019
      vertex 13.1921531346406 16.3973578322814 7.00268070696969
      vertex 19.9921531346406 16.3973578322814 7.00268070696969
   endloop
endfacet
facet normal -0.0 0.695078797748956 0.718933560852369
   outer loop
      vertex 19.9921531346406 16.5988394447768 6.66691450628019
      vertex 13.1921531346406 16.8803584252485 6.394736539991
      vertex 13.1921531346406 16.5988394447768 6.66691450628019
   endloop
endfacet
facet normal -0.0 0.695078797748956 0.718933560852369
   outer loop
      vertex 13.1921531346406 16.8803584252485 6.394736539991
      vertex 19.9921531346406 16.5988394447768 6.66691450628019
      vertex 19.9921531346406 16.8803584252485 6.394736539991
   endloop
endfacet
facet normal -0.0 0.485320864339709 0.874336124517658
   outer loop
      vertex 19.9921531346406 16.8803584252485 6.394736539991
      vertex 13.1921531346406 17.2227297204097 6.20469528670938
      vertex 13.1921531346406 16.8803584252485 6.394736539991
   endloop
endfacet
facet normal -0.0 0.485320864339709 0.874336124517658
   outer loop
      vertex 13.1921531346406 17.2227297204097 6.20469528670938
      vertex 19.9921531346406 16.8803584252485 6.394736539991
      vertex 19.9921531346406 17.2227297204097 6.20469528670938
   endloop
endfacet
facet normal -8.34220402023838e-032 0.242489116056349 0.970154126205837
   outer loop
      vertex 19.9921531346406 17.2227297204097 6.20469528670938
      vertex 13.1921531346406 17.6026212922904 6.10974174378846
      vertex 13.1921531346406 17.2227297204097 6.20469528670938
   endloop
endfacet
facet normal -8.34220402023838e-032 0.242489116056349 0.970154126205837
   outer loop
      vertex 13.1921531346406 17.6026212922904 6.10974174378846
      vertex 19.9921531346406 17.2227297204097 6.20469528670938
      vertex 19.9921531346406 17.6026212922904 6.10974174378846
   endloop
endfacet
facet normal -0.0 -0.0168678647540218 0.99985772744858
   outer loop
      vertex 19.9921531346406 17.6026212922904 6.10974174378846
      vertex 13.1921531346406 17.9941441580674 6.11634683826013
      vertex 13.1921531346406 17.6026212922904 6.10974174378846
   endloop
endfacet
facet normal -0.0 -0.0168678647540218 0.99985772744858
   outer loop
      vertex 13.1921531346406 17.9941441580674 6.11634683826013
      vertex 19.9921531346406 17.6026212922904 6.10974174378846
      vertex 19.9921531346406 17.9941441580674 6.11634683826013
   endloop
endfacet
facet normal -0.0 -0.275075328456881 0.961422676908725
   outer loop
      vertex 19.9921531346406 17.9941441580674 6.11634683826013
      vertex 13.1921531346406 18.3706166814601 6.2240604438516
      vertex 13.1921531346406 17.9941441580674 6.11634683826013
   endloop
endfacet
facet normal -0.0 -0.275075328456881 0.961422676908725
   outer loop
      vertex 13.1921531346406 18.3706166814601 6.2240604438516
      vertex 19.9921531346406 17.9941441580674 6.11634683826013
      vertex 19.9921531346406 18.3706166814601 6.2240604438516
   endloop
endfacet
facet normal -0.0 -0.514536863108872 0.857468259763638
   outer loop
      vertex 19.9921531346406 18.3706166814601 6.2240604438516
      vertex 13.1921531346406 18.7063828821496 6.42554205634695
      vertex 13.1921531346406 18.3706166814601 6.2240604438516
   endloop
endfacet
facet normal -0.0 -0.514536863108872 0.857468259763638
   outer loop
      vertex 13.1921531346406 18.7063828821496 6.42554205634695
      vertex 19.9921531346406 18.3706166814601 6.2240604438516
      vertex 19.9921531346406 18.7063828821496 6.42554205634695
   endloop
endfacet
facet normal 0.0 -0.718933560852372 0.695078797748952
   outer loop
      vertex 19.9921531346406 18.9785608484388 6.70706103681874
      vertex 13.1921531346406 18.7063828821496 6.42554205634695
      vertex 19.9921531346406 18.7063828821496 6.42554205634695
   endloop
endfacet
facet normal 0.0 -0.718933560852372 0.695078797748952
   outer loop
      vertex 13.1921531346406 18.7063828821496 6.42554205634695
      vertex 19.9921531346406 18.9785608484388 6.70706103681874
      vertex 13.1921531346406 18.9785608484388 6.70706103681874
   endloop
endfacet
facet normal 0.0 -0.961422676908726 -0.275075328456877
   outer loop
      vertex 19.9921531346406 19.1492369445782 8.19731929303026
      vertex 13.1921531346406 19.2569505501696 7.82084676963755
      vertex 19.9921531346406 19.2569505501696 7.82084676963755
   endloop
endfacet
facet normal 0.0 -0.961422676908726 -0.275075328456877
   outer loop
      vertex 13.1921531346406 19.2569505501696 7.82084676963755
      vertex 19.9921531346406 19.1492369445782 8.19731929303026
      vertex 13.1921531346406 19.1492369445782 8.19731929303026
   endloop
endfacet
facet normal 0.0 -0.857468259763641 -0.514536863108867
   outer loop
      vertex 19.9921531346406 18.9477553320828 8.53308549371977
      vertex 13.1921531346406 19.1492369445782 8.19731929303026
      vertex 19.9921531346406 19.1492369445782 8.19731929303026
   endloop
endfacet
facet normal 0.0 -0.857468259763641 -0.514536863108867
   outer loop
      vertex 13.1921531346406 19.1492369445782 8.19731929303026
      vertex 19.9921531346406 18.9477553320828 8.53308549371977
      vertex 13.1921531346406 18.9477553320828 8.53308549371977
   endloop
endfacet
facet normal 0.0 -0.695078797748952 -0.718933560852372
   outer loop
      vertex 19.9921531346406 18.9477553320828 8.53308549371977
      vertex 13.1921531346406 18.666236351611 8.80526346000895
      vertex 13.1921531346406 18.9477553320828 8.53308549371977
   endloop
endfacet
facet normal 0.0 -0.695078797748952 -0.718933560852372
   outer loop
      vertex 13.1921531346406 18.666236351611 8.80526346000895
      vertex 19.9921531346406 18.9477553320828 8.53308549371977
      vertex 19.9921531346406 18.666236351611 8.80526346000895
   endloop
endfacet
facet normal -1.0 0.0 0.0
   outer loop
      vertex 5.39215313464061 17.7732973884298 11.35
      vertex 5.39215313464061 14.5257021242381 5.72499999999998
      vertex 5.39215313464061 14.5257021242381 9.47499999999998
   endloop
endfacet
facet normal -1.0 0.0 0.0
   outer loop
      vertex 5.39215313464061 14.5257021242381 5.72499999999998
      vertex 5.39215313464061 17.7732973884298 11.35
      vertex 5.39215313464061 16.4742592827531 8.34999999999997
   endloop
endfacet
facet normal -1.0 0.0 0.0
   outer loop
      vertex 5.39215313464061 14.5257021242381 5.72499999999998
      vertex 5.39215313464061 16.4742592827531 8.34999999999997
      vertex 5.39215313464061 16.3244086489962 7.98822856765376
   endloop
endfacet
facet normal -1.0 0.0 0.0
   outer loop
      vertex 5.39215313464061 14.5257021242381 5.72499999999998
      vertex 5.39215313464061 16.3244086489962 7.98822856765376
      vertex 5.39215313464061 16.2732973884298 7.59999999999998
   endloop
endfacet
facet normal -1.0 0.0 0.0
   outer loop
      vertex 5.39215313464061 16.4742592827531 8.34999999999997
      vertex 5.39215313464061 17.7732973884298 11.35
      vertex 5.39215313464061 16.71263721665 8.6606601717798
   endloop
endfacet
facet normal -1.0 0.0 0.0
   outer loop
      vertex 5.39215313464061 16.71263721665 8.6606601717798
      vertex 5.39215313464061 17.7732973884298 11.35
      vertex 5.39215313464061 17.0232973884298 8.89903810567663
   endloop
endfacet
facet normal -1.0 0.0 0.0
   outer loop
      vertex 5.39215313464061 17.0232973884298 8.89903810567663
      vertex 5.39215313464061 17.7732973884298 11.35
      vertex 5.39215313464061 17.385068820776 9.04888873943358
   endloop
endfacet
facet normal -1.0 0.0 0.0
   outer loop
      vertex 5.39215313464061 17.385068820776 9.04888873943358
      vertex 5.39215313464061 17.7732973884298 11.35
      vertex 5.39215313464061 17.7732973884298 9.09999999999997
   endloop
endfacet
facet normal -1.0 0.0 0.0
   outer loop
      vertex 5.39215313464061 17.7732973884298 9.09999999999997
      vertex 5.39215313464061 17.7732973884298 11.35
      vertex 5.39215313464061 21.0208926526214 9.47499999999997
   endloop
endfacet
facet normal -1.0 0.0 0.0
   outer loop
      vertex 5.39215313464061 17.7732973884298 9.09999999999997
      vertex 5.39215313464061 21.0208926526214 9.47499999999997
      vertex 5.39215313464061 18.1615259560836 9.04888873943358
   endloop
endfacet
facet normal -1.0 0.0 0.0
   outer loop
      vertex 5.39215313464061 18.1615259560836 9.04888873943358
      vertex 5.39215313464061 21.0208926526214 9.47499999999997
      vertex 5.39215313464061 18.5232973884298 8.89903810567663
   endloop
endfacet
facet normal -1.0 0.0 0.0
   outer loop
      vertex 5.39215313464061 18.5232973884298 8.89903810567663
      vertex 5.39215313464061 21.0208926526214 9.47499999999997
      vertex 5.39215313464061 18.8339575602096 8.66066017177979
   endloop
endfacet
facet normal -1.0 0.0 0.0
   outer loop
      vertex 5.39215313464061 18.8339575602096 8.66066017177979
      vertex 5.39215313464061 21.0208926526214 9.47499999999997
      vertex 5.39215313464061 19.0723354941064 8.34999999999997
   endloop
endfacet
facet normal -1.0 0.0 0.0
   outer loop
      vertex 5.39215313464061 19.0723354941064 8.34999999999997
      vertex 5.39215313464061 21.0208926526214 9.47499999999997
      vertex 5.39215313464061 19.2221861278634 7.98822856765376
   endloop
endfacet
facet normal -1.0 0.0 0.0
   outer loop
      vertex 5.39215313464061 19.2221861278634 7.98822856765376
      vertex 5.39215313464061 21.0208926526214 9.47499999999997
      vertex 5.39215313464061 19.2732973884298 7.59999999999998
   endloop
endfacet
facet normal -1.0 0.0 0.0
   outer loop
      vertex 5.39215313464061 19.2732973884298 7.59999999999998
      vertex 5.39215313464061 21.0208926526214 9.47499999999997
      vertex 5.39215313464061 21.0208926526214 5.72499999999998
   endloop
endfacet
facet normal -1.0 0.0 0.0
   outer loop
      vertex 5.39215313464061 14.5257021242381 5.72499999999998
      vertex 5.39215313464061 16.4742592827531 6.84999999999998
      vertex 5.39215313464061 17.7732973884298 3.84999999999998
   endloop
endfacet
facet normal -1.0 0.0 0.0
   outer loop
      vertex 5.39215313464061 16.4742592827531 6.84999999999998
      vertex 5.39215313464061 14.5257021242381 5.72499999999998
      vertex 5.39215313464061 16.3244086489962 7.2117714323462
   endloop
endfacet
facet normal -1.0 0.0 0.0
   outer loop
      vertex 5.39215313464061 16.3244086489962 7.2117714323462
      vertex 5.39215313464061 14.5257021242381 5.72499999999998
      vertex 5.39215313464061 16.2732973884298 7.59999999999998
   endloop
endfacet
facet normal -1.0 0.0 0.0
   outer loop
      vertex 5.39215313464061 17.7732973884298 3.84999999999998
      vertex 5.39215313464061 16.4742592827531 6.84999999999998
      vertex 5.39215313464061 16.71263721665 6.53933982822016
   endloop
endfacet
facet normal -1.0 0.0 0.0
   outer loop
      vertex 5.39215313464061 17.7732973884298 3.84999999999998
      vertex 5.39215313464061 16.71263721665 6.53933982822016
      vertex 5.39215313464061 17.0232973884298 6.30096189432332
   endloop
endfacet
facet normal -1.0 0.0 0.0
   outer loop
      vertex 5.39215313464061 17.7732973884298 3.84999999999998
      vertex 5.39215313464061 17.0232973884298 6.30096189432332
      vertex 5.39215313464061 17.385068820776 6.15111126056638
   endloop
endfacet
facet normal -1.0 0.0 0.0
   outer loop
      vertex 5.39215313464061 17.7732973884298 3.84999999999998
      vertex 5.39215313464061 17.385068820776 6.15111126056638
      vertex 5.39215313464061 17.7732973884298 6.09999999999998
   endloop
endfacet
facet normal -1.0 0.0 0.0
   outer loop
      vertex 5.39215313464061 17.7732973884298 3.84999999999998
      vertex 5.39215313464061 17.7732973884298 6.09999999999998
      vertex 5.39215313464061 18.1615259560836 6.15111126056638
   endloop
endfacet
facet normal -1.0 0.0 0.0
   outer loop
      vertex 5.39215313464061 17.7732973884298 3.84999999999998
      vertex 5.39215313464061 18.1615259560836 6.15111126056638
      vertex 5.39215313464061 21.0208926526214 5.72499999999998
   endloop
endfacet
facet normal -1.0 0.0 0.0
   outer loop
      vertex 5.39215313464061 21.0208926526214 5.72499999999998
      vertex 5.39215313464061 18.1615259560836 6.15111126056638
      vertex 5.39215313464061 18.5232973884298 6.30096189432332
   endloop
endfacet
facet normal -1.0 0.0 0.0
   outer loop
      vertex 5.39215313464061 21.0208926526214 5.72499999999998
      vertex 5.39215313464061 18.5232973884298 6.30096189432332
      vertex 5.39215313464061 18.8339575602096 6.53933982822016
   endloop
endfacet
facet normal -1.0 0.0 0.0
   outer loop
      vertex 5.39215313464061 21.0208926526214 5.72499999999998
      vertex 5.39215313464061 18.8339575602096 6.53933982822016
      vertex 5.39215313464061 19.0723354941064 6.84999999999998
   endloop
endfacet
facet normal -1.0 0.0 0.0
   outer loop
      vertex 5.39215313464061 21.0208926526214 5.72499999999998
      vertex 5.39215313464061 19.0723354941064 6.84999999999998
      vertex 5.39215313464061 19.2221861278634 7.2117714323462
   endloop
endfacet
facet normal -1.0 0.0 0.0
   outer loop
      vertex 5.39215313464061 21.0208926526214 5.72499999999998
      vertex 5.39215313464061 19.2221861278634 7.2117714323462
      vertex 5.39215313464061 19.2732973884298 7.59999999999998
   endloop
endfacet
facet normal 0.0 0.275075328456877 -0.961422676908726
   outer loop
      vertex 19.9921531346406 17.5524506187922 9.08365316173982
      vertex 13.1921531346406 17.1759780953995 8.97593955614835
      vertex 13.1921531346406 17.5524506187922 9.08365316173982
   endloop
endfacet
facet normal 0.0 0.275075328456877 -0.961422676908726
   outer loop
      vertex 13.1921531346406 17.1759780953995 8.97593955614835
      vertex 19.9921531346406 17.5524506187922 9.08365316173982
      vertex 19.9921531346406 17.1759780953995 8.97593955614835
   endloop
endfacet
facet normal 0.0 0.0168678647540214 -0.99985772744858
   outer loop
      vertex 19.9921531346406 17.9439734845692 9.0902582562115
      vertex 13.1921531346406 17.5524506187922 9.08365316173982
      vertex 13.1921531346406 17.9439734845692 9.0902582562115
   endloop
endfacet
facet normal 0.0 0.0168678647540214 -0.99985772744858
   outer loop
      vertex 13.1921531346406 17.5524506187922 9.08365316173982
      vertex 19.9921531346406 17.9439734845692 9.0902582562115
      vertex 19.9921531346406 17.5524506187922 9.08365316173982
   endloop
endfacet
facet normal -0.0 0.499999999999999 0.866025403784439
   outer loop
      vertex 5.39215313464061 14.5257021242381 5.72499999999998
      vertex 2.39215313464061 17.7732973884298 3.84999999999998
      vertex 2.39215313464061 14.5257021242381 5.72499999999998
   endloop
endfacet
facet normal -0.0 0.499999999999999 0.866025403784439
   outer loop
      vertex 2.39215313464061 17.7732973884298 3.84999999999998
      vertex 5.39215313464061 14.5257021242381 5.72499999999998
      vertex 5.39215313464061 17.7732973884298 3.84999999999998
   endloop
endfacet
facet normal -0.0 -0.500000000000001 0.866025403784438
   outer loop
      vertex 5.39215313464061 17.7732973884298 3.84999999999998
      vertex 2.39215313464061 21.0208926526214 5.72499999999998
      vertex 2.39215313464061 17.7732973884298 3.84999999999998
   endloop
endfacet
facet normal -0.0 -0.500000000000001 0.866025403784438
   outer loop
      vertex 2.39215313464061 21.0208926526214 5.72499999999998
      vertex 5.39215313464061 17.7732973884298 3.84999999999998
      vertex 5.39215313464061 21.0208926526214 5.72499999999998
   endloop
endfacet
facet normal 0.0 0.514536863108872 -0.857468259763638
   outer loop
      vertex 19.9921531346406 17.1759780953995 8.97593955614835
      vertex 13.1921531346406 16.84021189471 8.774457943653
      vertex 13.1921531346406 17.1759780953995 8.97593955614835
   endloop
endfacet
facet normal 0.0 0.514536863108872 -0.857468259763638
   outer loop
      vertex 13.1921531346406 16.84021189471 8.774457943653
      vertex 19.9921531346406 17.1759780953995 8.97593955614835
      vertex 19.9921531346406 16.84021189471 8.774457943653
   endloop
endfacet
facet normal -0.0 0.718933560852372 -0.695078797748952
   outer loop
      vertex 13.1921531346406 16.84021189471 8.774457943653
      vertex 19.9921531346406 16.5680339284208 8.49293896318121
      vertex 13.1921531346406 16.5680339284208 8.49293896318121
   endloop
endfacet
facet normal -0.0 0.718933560852372 -0.695078797748952
   outer loop
      vertex 19.9921531346406 16.5680339284208 8.49293896318121
      vertex 13.1921531346406 16.84021189471 8.774457943653
      vertex 19.9921531346406 16.84021189471 8.774457943653
   endloop
endfacet
facet normal -0.0 0.874336124517663 -0.4853208643397
   outer loop
      vertex 13.1921531346406 16.5680339284208 8.49293896318121
      vertex 19.9921531346406 16.3779926751392 8.15056766802003
      vertex 13.1921531346406 16.3779926751392 8.15056766802003
   endloop
endfacet
facet normal -0.0 0.874336124517663 -0.4853208643397
   outer loop
      vertex 19.9921531346406 16.3779926751392 8.15056766802003
      vertex 13.1921531346406 16.5680339284208 8.49293896318121
      vertex 19.9921531346406 16.5680339284208 8.49293896318121
   endloop
endfacet
facet normal 0.0 -0.874336124517651 0.485320864339722
   outer loop
      vertex 19.9921531346406 19.1686021017204 7.04943233197992
      vertex 13.1921531346406 18.9785608484388 6.70706103681874
      vertex 19.9921531346406 18.9785608484388 6.70706103681874
   endloop
endfacet
facet normal 0.0 -0.874336124517651 0.485320864339722
   outer loop
      vertex 13.1921531346406 18.9785608484388 6.70706103681874
      vertex 19.9921531346406 19.1686021017204 7.04943233197992
      vertex 13.1921531346406 19.1686021017204 7.04943233197992
   endloop
endfacet
facet normal 7.33638521648477e-019 -0.970154126205834 0.242489116056358
   outer loop
      vertex 19.9921531346406 19.2635556446413 7.42932390386058
      vertex 13.1921531346406 19.1686021017204 7.04943233197992
      vertex 19.9921531346406 19.1686021017204 7.04943233197992
   endloop
endfacet
facet normal 7.33638521648477e-019 -0.970154126205834 0.242489116056358
   outer loop
      vertex 13.1921531346406 19.1686021017204 7.04943233197992
      vertex 19.9921531346406 19.2635556446413 7.42932390386058
      vertex 13.1921531346406 19.2635556446413 7.42932390386058
   endloop
endfacet
facet normal 0.0 -0.99985772744858 -0.0168678647540435
   outer loop
      vertex 19.9921531346406 19.2569505501696 7.82084676963755
      vertex 13.1921531346406 19.2635556446413 7.42932390386058
      vertex 19.9921531346406 19.2635556446413 7.42932390386058
   endloop
endfacet
facet normal 0.0 -0.99985772744858 -0.0168678647540435
   outer loop
      vertex 13.1921531346406 19.2635556446413 7.42932390386058
      vertex 19.9921531346406 19.2569505501696 7.82084676963755
      vertex 13.1921531346406 19.2569505501696 7.82084676963755
   endloop
endfacet
facet normal 0.0 -1.0 3.00796424805109e-015
   outer loop
      vertex 5.39215313464061 21.0208926526214 9.47499999999997
      vertex 2.39215313464061 21.0208926526214 5.72499999999998
      vertex 5.39215313464061 21.0208926526214 5.72499999999998
   endloop
endfacet
facet normal 0.0 -1.0 3.00796424805109e-015
   outer loop
      vertex 2.39215313464061 21.0208926526214 5.72499999999998
      vertex 5.39215313464061 21.0208926526214 9.47499999999997
      vertex 2.39215313464061 21.0208926526214 9.47499999999997
   endloop
endfacet
facet normal 2.50517154369526e-032 7.26058628884275e-033 -1.0
   outer loop
      vertex 9.19215313464061 22.7732973884298 2.59999999999998
      vertex 2.39215313464061 9.75414656588477 2.59999999999998
      vertex 2.39215313464061 22.7732973884298 2.59999999999998
   endloop
endfacet
facet normal 2.50517154369526e-032 7.26058628884275e-033 -1.0
   outer loop
      vertex 2.39215313464061 9.75414656588477 2.59999999999998
      vertex 9.19215313464061 22.7732973884298 2.59999999999998
      vertex 2.49882069803899 8.9439259825071 2.59999999999998
   endloop
endfacet
facet normal 2.50517154369526e-032 7.26058628884275e-033 -1.0
   outer loop
      vertex 2.49882069803899 8.9439259825071 2.59999999999998
      vertex 9.19215313464061 22.7732973884298 2.59999999999998
      vertex 3.39792450058066 6.77329738842979 2.59999999999998
   endloop
endfacet
facet normal 2.50517154369526e-032 7.26058628884275e-033 -1.0
   outer loop
      vertex 3.39792450058066 6.77329738842979 2.59999999999998
      vertex 9.19215313464061 22.7732973884298 2.59999999999998
      vertex 4.82819210396168 4.90933635775086 2.59999999999998
   endloop
endfacet
facet normal 2.50517154369526e-032 7.26058628884275e-033 -1.0
   outer loop
      vertex 4.82819210396168 4.90933635775086 2.59999999999998
      vertex 9.19215313464061 22.7732973884298 2.59999999999998
      vertex 7.32844982948434 12.3085735688399 2.59999999999998
   endloop
endfacet
facet normal 2.50517154369526e-032 7.26058628884275e-033 -1.0
   outer loop
      vertex 4.82819210396168 4.90933635775086 2.59999999999998
      vertex 7.32844982948434 12.3085735688399 2.59999999999998
      vertex 7.19215313464061 11.2732973884298 2.59999999999998
   endloop
endfacet
facet normal 2.50517154369526e-032 7.26058628884275e-033 -1.0
   outer loop
      vertex 4.82819210396168 4.90933635775086 2.59999999999998
      vertex 7.19215313464061 11.2732973884298 2.59999999999998
      vertex 6.69215313464061 3.47906875436984 2.59999999999998
   endloop
endfacet
facet normal 2.50517154369526e-032 7.26058628884275e-033 -1.0
   outer loop
      vertex 7.32844982948434 12.3085735688399 2.59999999999998
      vertex 9.19215313464061 22.7732973884298 2.59999999999998
      vertex 7.72805151950286 13.2732973884298 2.59999999999998
   endloop
endfacet
facet normal 2.50517154369526e-032 7.26058628884275e-033 -1.0
   outer loop
      vertex 7.72805151950286 13.2732973884298 2.59999999999998
      vertex 9.19215313464061 22.7732973884298 2.59999999999998
      vertex 8.36372600989442 14.101724513176 2.59999999999998
   endloop
endfacet
facet normal 2.50517154369526e-032 7.26058628884275e-033 -1.0
   outer loop
      vertex 8.36372600989442 14.101724513176 2.59999999999998
      vertex 9.19215313464061 22.7732973884298 2.59999999999998
      vertex 9.19215313464061 14.7373990035675 2.59999999999998
   endloop
endfacet
facet normal 2.50517154369526e-032 7.26058628884275e-033 -1.0
   outer loop
      vertex 19.9921531346406 22.7732973884298 2.59999999999998
      vertex 13.1921531346406 14.7373990035675 2.59999999999998
      vertex 13.1921531346406 22.7732973884298 2.59999999999998
   endloop
endfacet
facet normal 2.50517154369526e-032 7.26058628884275e-033 -1.0
   outer loop
      vertex 13.1921531346406 14.7373990035675 2.59999999999998
      vertex 19.9921531346406 22.7732973884298 2.59999999999998
      vertex 14.0205802593868 14.101724513176 2.59999999999998
   endloop
endfacet
facet normal 2.50517154369526e-032 7.26058628884275e-033 -1.0
   outer loop
      vertex 14.0205802593868 14.101724513176 2.59999999999998
      vertex 19.9921531346406 22.7732973884298 2.59999999999998
      vertex 14.6562547497784 13.2732973884298 2.59999999999998
   endloop
endfacet
facet normal 2.50517154369526e-032 7.26058628884275e-033 -1.0
   outer loop
      vertex 14.6562547497784 13.2732973884298 2.59999999999998
      vertex 19.9921531346406 22.7732973884298 2.59999999999998
      vertex 15.0558564397969 12.3085735688399 2.59999999999998
   endloop
endfacet
facet normal 2.50517154369526e-032 7.26058628884275e-033 -1.0
   outer loop
      vertex 15.0558564397969 12.3085735688399 2.59999999999998
      vertex 19.9921531346406 22.7732973884298 2.59999999999998
      vertex 15.1921531346406 11.2732973884298 2.59999999999998
   endloop
endfacet
facet normal 2.50517154369526e-032 7.26058628884275e-033 -1.0
   outer loop
      vertex 15.1921531346406 11.2732973884298 2.59999999999998
      vertex 19.9921531346406 22.7732973884298 2.59999999999998
      vertex 15.6921531346406 3.47906875436984 2.59999999999998
   endloop
endfacet
facet normal 2.50517154369526e-032 7.26058628884275e-033 -1.0
   outer loop
      vertex 15.6921531346406 3.47906875436984 2.59999999999998
      vertex 19.9921531346406 22.7732973884298 2.59999999999998
      vertex 17.5561141653195 4.90933635775086 2.59999999999998
   endloop
endfacet
facet normal 2.50517154369526e-032 7.26058628884275e-033 -1.0
   outer loop
      vertex 17.5561141653195 4.90933635775086 2.59999999999998
      vertex 19.9921531346406 22.7732973884298 2.59999999999998
      vertex 18.9863817687006 6.77329738842978 2.59999999999998
   endloop
endfacet
facet normal 2.50517154369526e-032 7.26058628884275e-033 -1.0
   outer loop
      vertex 18.9863817687006 6.77329738842978 2.59999999999998
      vertex 19.9921531346406 22.7732973884298 2.59999999999998
      vertex 19.8854855712422 8.9439259825071 2.59999999999998
   endloop
endfacet
facet normal 2.50517154369526e-032 7.26058628884275e-033 -1.0
   outer loop
      vertex 19.8854855712422 8.9439259825071 2.59999999999998
      vertex 19.9921531346406 22.7732973884298 2.59999999999998
      vertex 19.9921531346406 9.75414656588477 2.59999999999998
   endloop
endfacet
facet normal 2.50517154369526e-032 7.26058628884275e-033 -1.0
   outer loop
      vertex 6.69215313464061 3.47906875436984 2.59999999999998
      vertex 7.32844982948434 10.2380212080197 2.59999999999998
      vertex 8.86278172871792 2.57996495182817 2.59999999999998
   endloop
endfacet
facet normal 2.50517154369526e-032 7.26058628884275e-033 -1.0
   outer loop
      vertex 7.32844982948434 10.2380212080197 2.59999999999998
      vertex 6.69215313464061 3.47906875436984 2.59999999999998
      vertex 7.19215313464061 11.2732973884298 2.59999999999998
   endloop
endfacet
facet normal 2.50517154369526e-032 7.26058628884275e-033 -1.0
   outer loop
      vertex 8.86278172871792 2.57996495182817 2.59999999999998
      vertex 7.32844982948434 10.2380212080197 2.59999999999998
      vertex 7.72805151950286 9.27329738842979 2.59999999999998
   endloop
endfacet
facet normal 2.50517154369526e-032 7.26058628884275e-033 -1.0
   outer loop
      vertex 8.86278172871792 2.57996495182817 2.59999999999998
      vertex 7.72805151950286 9.27329738842979 2.59999999999998
      vertex 8.36372600989442 8.4448702636836 2.59999999999998
   endloop
endfacet
facet normal 2.50517154369526e-032 7.26058628884275e-033 -1.0
   outer loop
      vertex 8.86278172871792 2.57996495182817 2.59999999999998
      vertex 8.36372600989442 8.4448702636836 2.59999999999998
      vertex 9.19215313464061 7.80919577329204 2.59999999999998
   endloop
endfacet
facet normal 2.50517154369526e-032 7.26058628884275e-033 -1.0
   outer loop
      vertex 8.86278172871792 2.57996495182817 2.59999999999998
      vertex 9.19215313464061 7.80919577329204 2.59999999999998
      vertex 11.1921531346406 2.27329738842979 2.59999999999998
   endloop
endfacet
facet normal 2.50517154369526e-032 7.26058628884275e-033 -1.0
   outer loop
      vertex 11.1921531346406 2.27329738842979 2.59999999999998
      vertex 9.19215313464061 7.80919577329204 2.59999999999998
      vertex 10.1568769542305 7.40959408327352 2.59999999999998
   endloop
endfacet
facet normal 2.50517154369526e-032 7.26058628884275e-033 -1.0
   outer loop
      vertex 11.1921531346406 2.27329738842979 2.59999999999998
      vertex 10.1568769542305 7.40959408327352 2.59999999999998
      vertex 11.1921531346406 7.27329738842979 2.59999999999998
   endloop
endfacet
facet normal 2.50517154369526e-032 7.26058628884275e-033 -1.0
   outer loop
      vertex 11.1921531346406 2.27329738842979 2.59999999999998
      vertex 11.1921531346406 7.27329738842979 2.59999999999998
      vertex 12.2274293150507 7.40959408327352 2.59999999999998
   endloop
endfacet
facet normal 2.50517154369526e-032 7.26058628884275e-033 -1.0
   outer loop
      vertex 11.1921531346406 2.27329738842979 2.59999999999998
      vertex 12.2274293150507 7.40959408327352 2.59999999999998
      vertex 13.5215245405633 2.57996495182817 2.59999999999998
   endloop
endfacet
facet normal 2.50517154369526e-032 7.26058628884275e-033 -1.0
   outer loop
      vertex 13.5215245405633 2.57996495182817 2.59999999999998
      vertex 12.2274293150507 7.40959408327352 2.59999999999998
      vertex 13.1921531346406 7.80919577329203 2.59999999999998
   endloop
endfacet
facet normal 2.50517154369526e-032 7.26058628884275e-033 -1.0
   outer loop
      vertex 13.5215245405633 2.57996495182817 2.59999999999998
      vertex 13.1921531346406 7.80919577329203 2.59999999999998
      vertex 14.0205802593868 8.4448702636836 2.59999999999998
   endloop
endfacet
facet normal 2.50517154369526e-032 7.26058628884275e-033 -1.0
   outer loop
      vertex 13.5215245405633 2.57996495182817 2.59999999999998
      vertex 14.0205802593868 8.4448702636836 2.59999999999998
      vertex 15.6921531346406 3.47906875436984 2.59999999999998
   endloop
endfacet
facet normal 2.50517154369526e-032 7.26058628884275e-033 -1.0
   outer loop
      vertex 15.6921531346406 3.47906875436984 2.59999999999998
      vertex 14.0205802593868 8.4448702636836 2.59999999999998
      vertex 14.6562547497784 9.27329738842979 2.59999999999998
   endloop
endfacet
facet normal 2.50517154369526e-032 7.26058628884275e-033 -1.0
   outer loop
      vertex 15.6921531346406 3.47906875436984 2.59999999999998
      vertex 14.6562547497784 9.27329738842979 2.59999999999998
      vertex 15.0558564397969 10.2380212080197 2.59999999999998
   endloop
endfacet
facet normal 2.50517154369526e-032 7.26058628884275e-033 -1.0
   outer loop
      vertex 15.6921531346406 3.47906875436984 2.59999999999998
      vertex 15.0558564397969 10.2380212080197 2.59999999999998
      vertex 15.1921531346406 11.2732973884298 2.59999999999998
   endloop
endfacet
facet normal -0.0 -0.382683432365092 0.923879532511286
   outer loop
      vertex 9.1921531346406 18.1615259560836 6.15111126056638
      vertex 5.39215313464061 18.5232973884298 6.30096189432332
      vertex 5.39215313464061 18.1615259560836 6.15111126056638
   endloop
endfacet
facet normal -0.0 -0.382683432365092 0.923879532511286
   outer loop
      vertex 5.39215313464061 18.5232973884298 6.30096189432332
      vertex 9.1921531346406 18.1615259560836 6.15111126056638
      vertex 9.1921531346406 18.5232973884298 6.30096189432332
   endloop
endfacet
facet normal -0.0 -0.130526192220053 0.99144486137381
   outer loop
      vertex 9.1921531346406 17.7732973884298 6.09999999999998
      vertex 5.39215313464061 18.1615259560836 6.15111126056638
      vertex 5.39215313464061 17.7732973884298 6.09999999999998
   endloop
endfacet
facet normal -0.0 -0.130526192220053 0.99144486137381
   outer loop
      vertex 5.39215313464061 18.1615259560836 6.15111126056638
      vertex 9.1921531346406 17.7732973884298 6.09999999999998
      vertex 9.1921531346406 18.1615259560836 6.15111126056638
   endloop
endfacet
facet normal 0.923879532511287 -0.382683432365089 -0.0
   outer loop
      vertex 19.8854855712422 8.9439259825071 2.59999999999998
      vertex 18.9863817687006 6.77329738842978 12.6
      vertex 18.9863817687006 6.77329738842978 2.59999999999998
   endloop
endfacet
facet normal 0.923879532511287 -0.382683432365089 -0.0
   outer loop
      vertex 18.9863817687006 6.77329738842978 12.6
      vertex 19.8854855712422 8.9439259825071 2.59999999999998
      vertex 19.8854855712422 8.9439259825071 12.6
   endloop
endfacet
facet normal 0.608761429008718 0.793353340291237 -0.0
   outer loop
      vertex 8.36372600989442 8.4448702636836 12.6
      vertex 9.19215313464061 7.80919577329204 2.59999999999998
      vertex 8.36372600989442 8.4448702636836 2.59999999999998
   endloop
endfacet
facet normal 0.608761429008718 0.793353340291237 -0.0
   outer loop
      vertex 9.19215313464061 7.80919577329204 2.59999999999998
      vertex 8.36372600989442 8.4448702636836 12.6
      vertex 9.19215313464061 7.80919577329204 12.6
   endloop
endfacet
facet normal 0.923879532511287 0.382683432365089 -0.0
   outer loop
      vertex 7.32844982948434 10.2380212080197 2.59999999999998
      vertex 7.72805151950286 9.27329738842979 12.6
      vertex 7.72805151950286 9.27329738842979 2.59999999999998
   endloop
endfacet
facet normal 0.923879532511287 0.382683432365089 -0.0
   outer loop
      vertex 7.72805151950286 9.27329738842979 12.6
      vertex 7.32844982948434 10.2380212080197 2.59999999999998
      vertex 7.32844982948434 10.2380212080197 12.6
   endloop
endfacet
facet normal 0.793353340291236 0.60876142900872 -0.0
   outer loop
      vertex 7.72805151950286 9.27329738842979 2.59999999999998
      vertex 8.36372600989442 8.4448702636836 12.6
      vertex 8.36372600989442 8.4448702636836 2.59999999999998
   endloop
endfacet
facet normal 0.793353340291236 0.60876142900872 -0.0
   outer loop
      vertex 8.36372600989442 8.4448702636836 12.6
      vertex 7.72805151950286 9.27329738842979 2.59999999999998
      vertex 7.72805151950286 9.27329738842979 12.6
   endloop
endfacet
facet normal 0.991444861373812 -0.130526192220042 -1.97104467388076e-032
   outer loop
      vertex 19.9921531346406 9.75414656588477 2.59999999999998
      vertex 19.8854855712422 8.9439259825071 12.6
      vertex 19.8854855712422 8.9439259825071 2.59999999999998
   endloop
endfacet
facet normal 0.991444861373812 -0.130526192220042 -1.97104467388076e-032
   outer loop
      vertex 19.8854855712422 8.9439259825071 12.6
      vertex 19.9921531346406 9.75414656588477 2.59999999999998
      vertex 19.9921531346406 9.75414656588477 12.6
   endloop
endfacet
facet normal -0.793353340291243 -0.60876142900871 0.0
   outer loop
      vertex 14.0205802593868 14.101724513176 12.6
      vertex 14.6562547497784 13.2732973884298 2.59999999999998
      vertex 14.6562547497784 13.2732973884298 12.6
   endloop
endfacet
facet normal -0.793353340291243 -0.60876142900871 0.0
   outer loop
      vertex 14.6562547497784 13.2732973884298 2.59999999999998
      vertex 14.0205802593868 14.101724513176 12.6
      vertex 14.0205802593868 14.101724513176 2.59999999999998
   endloop
endfacet
facet normal 0.382683432365094 0.923879532511285 -0.0
   outer loop
      vertex 9.19215313464061 7.80919577329204 12.6
      vertex 10.1568769542305 7.40959408327352 2.59999999999998
      vertex 9.19215313464061 7.80919577329204 2.59999999999998
   endloop
endfacet
facet normal 0.382683432365094 0.923879532511285 -0.0
   outer loop
      vertex 10.1568769542305 7.40959408327352 2.59999999999998
      vertex 9.19215313464061 7.80919577329204 12.6
      vertex 10.1568769542305 7.40959408327352 12.6
   endloop
endfacet
facet normal -0.608761429008719 -0.793353340291236 1.21024982735703e-032
   outer loop
      vertex 14.0205802593868 14.101724513176 12.6
      vertex 13.1921531346406 14.7373990035675 2.59999999999998
      vertex 14.0205802593868 14.101724513176 2.59999999999998
   endloop
endfacet
facet normal -0.608761429008719 -0.793353340291236 1.21024982735703e-032
   outer loop
      vertex 13.1921531346406 14.7373990035675 2.59999999999998
      vertex 14.0205802593868 14.101724513176 12.6
      vertex 13.1921531346406 14.7373990035675 12.6
   endloop
endfacet
facet normal -1.0 0.0 0.0
   outer loop
      vertex 13.1921531346406 14.7373990035675 12.6
      vertex 13.1921531346406 16.3779926751392 8.15056766802003
      vertex 13.1921531346406 14.7373990035675 2.59999999999998
   endloop
endfacet
facet normal -1.0 0.0 0.0
   outer loop
      vertex 13.1921531346406 16.3779926751392 8.15056766802003
      vertex 13.1921531346406 14.7373990035675 12.6
      vertex 13.1921531346406 16.5680339284208 8.49293896318121
   endloop
endfacet
facet normal -1.0 0.0 0.0
   outer loop
      vertex 13.1921531346406 16.5680339284208 8.49293896318121
      vertex 13.1921531346406 14.7373990035675 12.6
      vertex 13.1921531346406 16.84021189471 8.774457943653
   endloop
endfacet
facet normal -1.0 0.0 0.0
   outer loop
      vertex 13.1921531346406 16.84021189471 8.774457943653
      vertex 13.1921531346406 14.7373990035675 12.6
      vertex 13.1921531346406 22.7732973884298 12.6
   endloop
endfacet
facet normal -1.0 0.0 0.0
   outer loop
      vertex 13.1921531346406 14.7373990035675 2.59999999999998
      vertex 13.1921531346406 16.3779926751392 8.15056766802003
      vertex 13.1921531346406 16.2830391322183 7.77067609613938
   endloop
endfacet
facet normal -1.0 0.0 0.0
   outer loop
      vertex 13.1921531346406 16.84021189471 8.774457943653
      vertex 13.1921531346406 22.7732973884298 12.6
      vertex 13.1921531346406 17.1759780953995 8.97593955614835
   endloop
endfacet
facet normal -1.0 0.0 0.0
   outer loop
      vertex 13.1921531346406 17.1759780953995 8.97593955614835
      vertex 13.1921531346406 22.7732973884298 12.6
      vertex 13.1921531346406 17.5524506187922 9.08365316173982
   endloop
endfacet
facet normal -1.0 0.0 0.0
   outer loop
      vertex 13.1921531346406 17.5524506187922 9.08365316173982
      vertex 13.1921531346406 22.7732973884298 12.6
      vertex 13.1921531346406 17.9439734845692 9.0902582562115
   endloop
endfacet
facet normal -1.0 0.0 0.0
   outer loop
      vertex 13.1921531346406 17.9439734845692 9.0902582562115
      vertex 13.1921531346406 22.7732973884298 12.6
      vertex 13.1921531346406 18.3238650564498 8.99530471329057
   endloop
endfacet
facet normal -1.0 0.0 0.0
   outer loop
      vertex 13.1921531346406 18.3238650564498 8.99530471329057
      vertex 13.1921531346406 22.7732973884298 12.6
      vertex 13.1921531346406 18.666236351611 8.80526346000895
   endloop
endfacet
facet normal -1.0 0.0 0.0
   outer loop
      vertex 13.1921531346406 18.666236351611 8.80526346000895
      vertex 13.1921531346406 22.7732973884298 12.6
      vertex 13.1921531346406 18.9477553320828 8.53308549371977
   endloop
endfacet
facet normal -1.0 0.0 0.0
   outer loop
      vertex 13.1921531346406 18.9477553320828 8.53308549371977
      vertex 13.1921531346406 22.7732973884298 12.6
      vertex 13.1921531346406 19.1492369445782 8.19731929303026
   endloop
endfacet
facet normal -1.0 0.0 0.0
   outer loop
      vertex 13.1921531346406 19.1492369445782 8.19731929303026
      vertex 13.1921531346406 22.7732973884298 12.6
      vertex 13.1921531346406 19.2569505501696 7.82084676963755
   endloop
endfacet
facet normal -1.0 0.0 0.0
   outer loop
      vertex 13.1921531346406 19.2569505501696 7.82084676963755
      vertex 13.1921531346406 22.7732973884298 12.6
      vertex 13.1921531346406 19.2635556446413 7.42932390386058
   endloop
endfacet
facet normal -1.0 0.0 0.0
   outer loop
      vertex 13.1921531346406 14.7373990035675 2.59999999999998
      vertex 13.1921531346406 16.8803584252485 6.394736539991
      vertex 13.1921531346406 22.7732973884298 2.59999999999998
   endloop
endfacet
facet normal -1.0 0.0 0.0
   outer loop
      vertex 13.1921531346406 16.8803584252485 6.394736539991
      vertex 13.1921531346406 14.7373990035675 2.59999999999998
      vertex 13.1921531346406 16.5988394447768 6.66691450628019
   endloop
endfacet
facet normal -1.0 0.0 0.0
   outer loop
      vertex 13.1921531346406 16.5988394447768 6.66691450628019
      vertex 13.1921531346406 14.7373990035675 2.59999999999998
      vertex 13.1921531346406 16.3973578322814 7.00268070696969
   endloop
endfacet
facet normal -1.0 0.0 0.0
   outer loop
      vertex 13.1921531346406 16.3973578322814 7.00268070696969
      vertex 13.1921531346406 14.7373990035675 2.59999999999998
      vertex 13.1921531346406 16.2896442266899 7.37915323036241
   endloop
endfacet
facet normal -1.0 0.0 0.0
   outer loop
      vertex 13.1921531346406 16.2896442266899 7.37915323036241
      vertex 13.1921531346406 14.7373990035675 2.59999999999998
      vertex 13.1921531346406 16.2830391322183 7.77067609613938
   endloop
endfacet
facet normal -1.0 0.0 0.0
   outer loop
      vertex 13.1921531346406 22.7732973884298 2.59999999999998
      vertex 13.1921531346406 16.8803584252485 6.394736539991
      vertex 13.1921531346406 17.2227297204097 6.20469528670938
   endloop
endfacet
facet normal -1.0 0.0 0.0
   outer loop
      vertex 13.1921531346406 22.7732973884298 2.59999999999998
      vertex 13.1921531346406 17.2227297204097 6.20469528670938
      vertex 13.1921531346406 17.6026212922904 6.10974174378846
   endloop
endfacet
facet normal -1.0 0.0 0.0
   outer loop
      vertex 13.1921531346406 22.7732973884298 2.59999999999998
      vertex 13.1921531346406 17.6026212922904 6.10974174378846
      vertex 13.1921531346406 17.9941441580674 6.11634683826013
   endloop
endfacet
facet normal -1.0 0.0 0.0
   outer loop
      vertex 13.1921531346406 22.7732973884298 2.59999999999998
      vertex 13.1921531346406 17.9941441580674 6.11634683826013
      vertex 13.1921531346406 18.3706166814601 6.2240604438516
   endloop
endfacet
facet normal -1.0 0.0 0.0
   outer loop
      vertex 13.1921531346406 22.7732973884298 2.59999999999998
      vertex 13.1921531346406 18.3706166814601 6.2240604438516
      vertex 13.1921531346406 18.7063828821496 6.42554205634695
   endloop
endfacet
facet normal -1.0 0.0 0.0
   outer loop
      vertex 13.1921531346406 22.7732973884298 2.59999999999998
      vertex 13.1921531346406 18.7063828821496 6.42554205634695
      vertex 13.1921531346406 18.9785608484388 6.70706103681874
   endloop
endfacet
facet normal -1.0 0.0 0.0
   outer loop
      vertex 13.1921531346406 22.7732973884298 2.59999999999998
      vertex 13.1921531346406 18.9785608484388 6.70706103681874
      vertex 13.1921531346406 19.1686021017204 7.04943233197992
   endloop
endfacet
facet normal -1.0 0.0 0.0
   outer loop
      vertex 13.1921531346406 22.7732973884298 2.59999999999998
      vertex 13.1921531346406 19.1686021017204 7.04943233197992
      vertex 13.1921531346406 19.2635556446413 7.42932390386058
   endloop
endfacet
facet normal -1.0 0.0 0.0
   outer loop
      vertex 13.1921531346406 22.7732973884298 2.59999999999998
      vertex 13.1921531346406 19.2635556446413 7.42932390386058
      vertex 13.1921531346406 22.7732973884298 12.6
   endloop
endfacet
facet normal -0.0 1.0 -0.0
   outer loop
      vertex 13.1921531346406 22.7732973884298 12.6
      vertex 19.9921531346406 22.7732973884298 2.59999999999998
      vertex 13.1921531346406 22.7732973884298 2.59999999999998
   endloop
endfacet
facet normal -0.0 1.0 -0.0
   outer loop
      vertex 19.9921531346406 22.7732973884298 2.59999999999998
      vertex 13.1921531346406 22.7732973884298 12.6
      vertex 19.9921531346406 22.7732973884298 12.6
   endloop
endfacet
facet normal 1.0 -0.0 -0.0
   outer loop
      vertex 19.9921531346406 9.75414656588477 2.59999999999998
      vertex 19.9921531346406 16.8803584252485 6.394736539991
      vertex 19.9921531346406 9.75414656588477 12.6
   endloop
endfacet
facet normal 1.0 -0.0 -0.0
   outer loop
      vertex 19.9921531346406 16.8803584252485 6.394736539991
      vertex 19.9921531346406 9.75414656588477 2.59999999999998
      vertex 19.9921531346406 22.7732973884298 2.59999999999998
   endloop
endfacet
facet normal 1.0 -0.0 -0.0
   outer loop
      vertex 19.9921531346406 9.75414656588477 12.6
      vertex 19.9921531346406 16.8803584252485 6.394736539991
      vertex 19.9921531346406 16.5988394447768 6.66691450628019
   endloop
endfacet
facet normal 1.0 -0.0 -0.0
   outer loop
      vertex 19.9921531346406 9.75414656588477 12.6
      vertex 19.9921531346406 16.5988394447768 6.66691450628019
      vertex 19.9921531346406 16.3973578322814 7.00268070696969
   endloop
endfacet
facet normal 1.0 -0.0 -0.0
   outer loop
      vertex 19.9921531346406 9.75414656588477 12.6
      vertex 19.9921531346406 16.3973578322814 7.00268070696969
      vertex 19.9921531346406 16.2896442266899 7.37915323036241
   endloop
endfacet
facet normal 1.0 -0.0 -0.0
   outer loop
      vertex 19.9921531346406 9.75414656588477 12.6
      vertex 19.9921531346406 16.2896442266899 7.37915323036241
      vertex 19.9921531346406 16.2830391322183 7.77067609613938
   endloop
endfacet
facet normal 1.0 -0.0 -0.0
   outer loop
      vertex 19.9921531346406 16.8803584252485 6.394736539991
      vertex 19.9921531346406 22.7732973884298 2.59999999999998
      vertex 19.9921531346406 17.2227297204097 6.20469528670938
   endloop
endfacet
facet normal 1.0 -0.0 -0.0
   outer loop
      vertex 19.9921531346406 17.2227297204097 6.20469528670938
      vertex 19.9921531346406 22.7732973884298 2.59999999999998
      vertex 19.9921531346406 17.6026212922904 6.10974174378846
   endloop
endfacet
facet normal 1.0 -0.0 -0.0
   outer loop
      vertex 19.9921531346406 17.6026212922904 6.10974174378846
      vertex 19.9921531346406 22.7732973884298 2.59999999999998
      vertex 19.9921531346406 17.9941441580674 6.11634683826013
   endloop
endfacet
facet normal 1.0 -0.0 -0.0
   outer loop
      vertex 19.9921531346406 17.9941441580674 6.11634683826013
      vertex 19.9921531346406 22.7732973884298 2.59999999999998
      vertex 19.9921531346406 18.3706166814601 6.2240604438516
   endloop
endfacet
facet normal 1.0 -0.0 -0.0
   outer loop
      vertex 19.9921531346406 18.3706166814601 6.2240604438516
      vertex 19.9921531346406 22.7732973884298 2.59999999999998
      vertex 19.9921531346406 18.7063828821496 6.42554205634695
   endloop
endfacet
facet normal 1.0 -0.0 -0.0
   outer loop
      vertex 19.9921531346406 18.7063828821496 6.42554205634695
      vertex 19.9921531346406 22.7732973884298 2.59999999999998
      vertex 19.9921531346406 18.9785608484388 6.70706103681874
   endloop
endfacet
facet normal 1.0 -0.0 -0.0
   outer loop
      vertex 19.9921531346406 18.9785608484388 6.70706103681874
      vertex 19.9921531346406 22.7732973884298 2.59999999999998
      vertex 19.9921531346406 19.1686021017204 7.04943233197992
   endloop
endfacet
facet normal 1.0 -0.0 -0.0
   outer loop
      vertex 19.9921531346406 19.1686021017204 7.04943233197992
      vertex 19.9921531346406 22.7732973884298 2.59999999999998
      vertex 19.9921531346406 19.2635556446413 7.42932390386058
   endloop
endfacet
facet normal 1.0 -0.0 -0.0
   outer loop
      vertex 19.9921531346406 9.75414656588477 12.6
      vertex 19.9921531346406 16.84021189471 8.774457943653
      vertex 19.9921531346406 22.7732973884298 12.6
   endloop
endfacet
facet normal 1.0 -0.0 -0.0
   outer loop
      vertex 19.9921531346406 16.84021189471 8.774457943653
      vertex 19.9921531346406 9.75414656588477 12.6
      vertex 19.9921531346406 16.5680339284208 8.49293896318121
   endloop
endfacet
facet normal 1.0 -0.0 -0.0
   outer loop
      vertex 19.9921531346406 16.5680339284208 8.49293896318121
      vertex 19.9921531346406 9.75414656588477 12.6
      vertex 19.9921531346406 16.3779926751392 8.15056766802003
   endloop
endfacet
facet normal 1.0 -0.0 -0.0
   outer loop
      vertex 19.9921531346406 16.3779926751392 8.15056766802003
      vertex 19.9921531346406 9.75414656588477 12.6
      vertex 19.9921531346406 16.2830391322183 7.77067609613938
   endloop
endfacet
facet normal 1.0 -0.0 -0.0
   outer loop
      vertex 19.9921531346406 22.7732973884298 12.6
      vertex 19.9921531346406 16.84021189471 8.774457943653
      vertex 19.9921531346406 17.1759780953995 8.97593955614835
   endloop
endfacet
facet normal 1.0 -0.0 -0.0
   outer loop
      vertex 19.9921531346406 22.7732973884298 12.6
      vertex 19.9921531346406 17.1759780953995 8.97593955614835
      vertex 19.9921531346406 17.5524506187922 9.08365316173982
   endloop
endfacet
facet normal 1.0 -0.0 -0.0
   outer loop
      vertex 19.9921531346406 22.7732973884298 12.6
      vertex 19.9921531346406 17.5524506187922 9.08365316173982
      vertex 19.9921531346406 17.9439734845692 9.0902582562115
   endloop
endfacet
facet normal 1.0 -0.0 -0.0
   outer loop
      vertex 19.9921531346406 22.7732973884298 12.6
      vertex 19.9921531346406 17.9439734845692 9.0902582562115
      vertex 19.9921531346406 18.3238650564498 8.99530471329057
   endloop
endfacet
facet normal 1.0 -0.0 -0.0
   outer loop
      vertex 19.9921531346406 22.7732973884298 12.6
      vertex 19.9921531346406 18.3238650564498 8.99530471329057
      vertex 19.9921531346406 18.666236351611 8.80526346000895
   endloop
endfacet
facet normal 1.0 -0.0 -0.0
   outer loop
      vertex 19.9921531346406 22.7732973884298 12.6
      vertex 19.9921531346406 18.666236351611 8.80526346000895
      vertex 19.9921531346406 18.9477553320828 8.53308549371977
   endloop
endfacet
facet normal 1.0 -0.0 -0.0
   outer loop
      vertex 19.9921531346406 22.7732973884298 12.6
      vertex 19.9921531346406 18.9477553320828 8.53308549371977
      vertex 19.9921531346406 19.1492369445782 8.19731929303026
   endloop
endfacet
facet normal 1.0 -0.0 -0.0
   outer loop
      vertex 19.9921531346406 22.7732973884298 12.6
      vertex 19.9921531346406 19.1492369445782 8.19731929303026
      vertex 19.9921531346406 19.2569505501696 7.82084676963755
   endloop
endfacet
facet normal 1.0 -0.0 -0.0
   outer loop
      vertex 19.9921531346406 22.7732973884298 12.6
      vertex 19.9921531346406 19.2569505501696 7.82084676963755
      vertex 19.9921531346406 19.2635556446413 7.42932390386058
   endloop
endfacet
facet normal 1.0 -0.0 -0.0
   outer loop
      vertex 19.9921531346406 22.7732973884298 12.6
      vertex 19.9921531346406 19.2635556446413 7.42932390386058
      vertex 19.9921531346406 22.7732973884298 2.59999999999998
   endloop
endfacet
facet normal -0.923879532511285 -0.382683432365094 1.83672123666111e-032
   outer loop
      vertex 14.6562547497784 13.2732973884298 12.6
      vertex 15.0558564397969 12.3085735688399 2.59999999999998
      vertex 15.0558564397969 12.3085735688399 12.6
   endloop
endfacet
facet normal -0.923879532511285 -0.382683432365094 1.83672123666111e-032
   outer loop
      vertex 15.0558564397969 12.3085735688399 2.59999999999998
      vertex 14.6562547497784 13.2732973884298 12.6
      vertex 14.6562547497784 13.2732973884298 2.59999999999998
   endloop
endfacet
facet normal -0.382683432365084 0.923879532511289 -0.0
   outer loop
      vertex 12.2274293150507 7.40959408327352 12.6
      vertex 13.1921531346406 7.80919577329203 2.59999999999998
      vertex 12.2274293150507 7.40959408327352 2.59999999999998
   endloop
endfacet
facet normal -0.382683432365084 0.923879532511289 -0.0
   outer loop
      vertex 13.1921531346406 7.80919577329203 2.59999999999998
      vertex 12.2274293150507 7.40959408327352 12.6
      vertex 13.1921531346406 7.80919577329203 12.6
   endloop
endfacet
facet normal 0.130526192220051 0.99144486137381 -0.0
   outer loop
      vertex 10.1568769542305 7.40959408327352 12.6
      vertex 11.1921531346406 7.27329738842979 2.59999999999998
      vertex 10.1568769542305 7.40959408327352 2.59999999999998
   endloop
endfacet
facet normal 0.130526192220051 0.99144486137381 -0.0
   outer loop
      vertex 11.1921531346406 7.27329738842979 2.59999999999998
      vertex 10.1568769542305 7.40959408327352 12.6
      vertex 11.1921531346406 7.27329738842979 12.6
   endloop
endfacet
facet normal -0.130526192220052 0.99144486137381 -0.0
   outer loop
      vertex 11.1921531346406 7.27329738842979 12.6
      vertex 12.2274293150507 7.40959408327352 2.59999999999998
      vertex 11.1921531346406 7.27329738842979 2.59999999999998
   endloop
endfacet
facet normal -0.130526192220052 0.99144486137381 -0.0
   outer loop
      vertex 12.2274293150507 7.40959408327352 2.59999999999998
      vertex 11.1921531346406 7.27329738842979 12.6
      vertex 12.2274293150507 7.40959408327352 12.6
   endloop
endfacet
facet normal -0.608761429008724 0.793353340291233 -1.21024982735704e-032
   outer loop
      vertex 13.1921531346406 7.80919577329203 12.6
      vertex 14.0205802593868 8.4448702636836 2.59999999999998
      vertex 13.1921531346406 7.80919577329203 2.59999999999998
   endloop
endfacet
facet normal -0.608761429008724 0.793353340291233 -1.21024982735704e-032
   outer loop
      vertex 14.0205802593868 8.4448702636836 2.59999999999998
      vertex 13.1921531346406 7.80919577329203 12.6
      vertex 14.0205802593868 8.4448702636836 12.6
   endloop
endfacet
facet normal -0.793353340291237 0.608761429008718 0.0
   outer loop
      vertex 14.6562547497784 9.27329738842979 12.6
      vertex 14.0205802593868 8.4448702636836 2.59999999999998
      vertex 14.0205802593868 8.4448702636836 12.6
   endloop
endfacet
facet normal -0.793353340291237 0.608761429008718 0.0
   outer loop
      vertex 14.0205802593868 8.4448702636836 2.59999999999998
      vertex 14.6562547497784 9.27329738842979 12.6
      vertex 14.6562547497784 9.27329738842979 2.59999999999998
   endloop
endfacet
facet normal -0.923879532511285 0.382683432365094 1.83672123666111e-032
   outer loop
      vertex 15.0558564397969 10.2380212080197 12.6
      vertex 14.6562547497784 9.27329738842979 2.59999999999998
      vertex 14.6562547497784 9.27329738842979 12.6
   endloop
endfacet
facet normal -0.923879532511285 0.382683432365094 1.83672123666111e-032
   outer loop
      vertex 14.6562547497784 9.27329738842979 2.59999999999998
      vertex 15.0558564397969 10.2380212080197 12.6
      vertex 15.0558564397969 10.2380212080197 2.59999999999998
   endloop
endfacet
facet normal -0.99144486137381 0.130526192220052 0.0
   outer loop
      vertex 15.1921531346406 11.2732973884298 12.6
      vertex 15.0558564397969 10.2380212080197 2.59999999999998
      vertex 15.0558564397969 10.2380212080197 12.6
   endloop
endfacet
facet normal -0.99144486137381 0.130526192220052 0.0
   outer loop
      vertex 15.0558564397969 10.2380212080197 2.59999999999998
      vertex 15.1921531346406 11.2732973884298 12.6
      vertex 15.1921531346406 11.2732973884298 2.59999999999998
   endloop
endfacet
facet normal -0.99144486137381 -0.130526192220052 0.0
   outer loop
      vertex 15.0558564397969 12.3085735688399 12.6
      vertex 15.1921531346406 11.2732973884298 2.59999999999998
      vertex 15.1921531346406 11.2732973884298 12.6
   endloop
endfacet
facet normal -0.99144486137381 -0.130526192220052 0.0
   outer loop
      vertex 15.1921531346406 11.2732973884298 2.59999999999998
      vertex 15.0558564397969 12.3085735688399 12.6
      vertex 15.0558564397969 12.3085735688399 2.59999999999998
   endloop
endfacet
facet normal -1.0020686174781e-031 2.11217055675425e-032 1.0
   outer loop
      vertex 6.69215313464061 3.47906875436984 12.6
      vertex 7.32844982948434 10.2380212080197 12.6
      vertex 7.19215313464061 11.2732973884298 12.6
   endloop
endfacet
facet normal -1.0020686174781e-031 2.11217055675425e-032 1.0
   outer loop
      vertex 7.32844982948434 10.2380212080197 12.6
      vertex 6.69215313464061 3.47906875436984 12.6
      vertex 8.86278172871792 2.57996495182817 12.6
   endloop
endfacet
facet normal -1.0020686174781e-031 2.11217055675425e-032 1.0
   outer loop
      vertex 7.32844982948434 10.2380212080197 12.6
      vertex 8.86278172871792 2.57996495182817 12.6
      vertex 7.72805151950286 9.27329738842979 12.6
   endloop
endfacet
facet normal -1.0020686174781e-031 2.11217055675425e-032 1.0
   outer loop
      vertex 7.72805151950286 9.27329738842979 12.6
      vertex 8.86278172871792 2.57996495182817 12.6
      vertex 8.36372600989442 8.4448702636836 12.6
   endloop
endfacet
facet normal -1.0020686174781e-031 2.11217055675425e-032 1.0
   outer loop
      vertex 8.36372600989442 8.4448702636836 12.6
      vertex 8.86278172871792 2.57996495182817 12.6
      vertex 9.19215313464061 7.80919577329204 12.6
   endloop
endfacet
facet normal -1.0020686174781e-031 2.11217055675425e-032 1.0
   outer loop
      vertex 9.19215313464061 7.80919577329204 12.6
      vertex 8.86278172871792 2.57996495182817 12.6
      vertex 11.1921531346406 2.27329738842979 12.6
   endloop
endfacet
facet normal -1.0020686174781e-031 2.11217055675425e-032 1.0
   outer loop
      vertex 9.19215313464061 7.80919577329204 12.6
      vertex 11.1921531346406 2.27329738842979 12.6
      vertex 10.1568769542305 7.40959408327352 12.6
   endloop
endfacet
facet normal -1.0020686174781e-031 2.11217055675425e-032 1.0
   outer loop
      vertex 10.1568769542305 7.40959408327352 12.6
      vertex 11.1921531346406 2.27329738842979 12.6
      vertex 11.1921531346406 7.27329738842979 12.6
   endloop
endfacet
facet normal -1.0020686174781e-031 2.11217055675425e-032 1.0
   outer loop
      vertex 11.1921531346406 7.27329738842979 12.6
      vertex 11.1921531346406 2.27329738842979 12.6
      vertex 13.5215245405633 2.57996495182817 12.6
   endloop
endfacet
facet normal -1.0020686174781e-031 2.11217055675425e-032 1.0
   outer loop
      vertex 11.1921531346406 7.27329738842979 12.6
      vertex 13.5215245405633 2.57996495182817 12.6
      vertex 12.2274293150507 7.40959408327352 12.6
   endloop
endfacet
facet normal -1.0020686174781e-031 2.11217055675425e-032 1.0
   outer loop
      vertex 12.2274293150507 7.40959408327352 12.6
      vertex 13.5215245405633 2.57996495182817 12.6
      vertex 13.1921531346406 7.80919577329203 12.6
   endloop
endfacet
facet normal -1.0020686174781e-031 2.11217055675425e-032 1.0
   outer loop
      vertex 13.1921531346406 7.80919577329203 12.6
      vertex 13.5215245405633 2.57996495182817 12.6
      vertex 14.0205802593868 8.4448702636836 12.6
   endloop
endfacet
facet normal -1.0020686174781e-031 2.11217055675425e-032 1.0
   outer loop
      vertex 14.0205802593868 8.4448702636836 12.6
      vertex 13.5215245405633 2.57996495182817 12.6
      vertex 15.6921531346406 3.47906875436984 12.6
   endloop
endfacet
facet normal -1.0020686174781e-031 2.11217055675425e-032 1.0
   outer loop
      vertex 14.0205802593868 8.4448702636836 12.6
      vertex 15.6921531346406 3.47906875436984 12.6
      vertex 14.6562547497784 9.27329738842979 12.6
   endloop
endfacet
facet normal -1.0020686174781e-031 2.11217055675425e-032 1.0
   outer loop
      vertex 14.6562547497784 9.27329738842979 12.6
      vertex 15.6921531346406 3.47906875436984 12.6
      vertex 15.0558564397969 10.2380212080197 12.6
   endloop
endfacet
facet normal -1.0020686174781e-031 2.11217055675425e-032 1.0
   outer loop
      vertex 15.0558564397969 10.2380212080197 12.6
      vertex 15.6921531346406 3.47906875436984 12.6
      vertex 15.1921531346406 11.2732973884298 12.6
   endloop
endfacet
facet normal -1.0020686174781e-031 2.11217055675425e-032 1.0
   outer loop
      vertex 14.0205802593868 14.101724513176 12.6
      vertex 13.1921531346406 22.7732973884298 12.6
      vertex 13.1921531346406 14.7373990035675 12.6
   endloop
endfacet
facet normal -1.0020686174781e-031 2.11217055675425e-032 1.0
   outer loop
      vertex 13.1921531346406 22.7732973884298 12.6
      vertex 14.0205802593868 14.101724513176 12.6
      vertex 19.9921531346406 22.7732973884298 12.6
   endloop
endfacet
facet normal -1.0020686174781e-031 2.11217055675425e-032 1.0
   outer loop
      vertex 19.9921531346406 22.7732973884298 12.6
      vertex 14.0205802593868 14.101724513176 12.6
      vertex 14.6562547497784 13.2732973884298 12.6
   endloop
endfacet
facet normal -1.0020686174781e-031 2.11217055675425e-032 1.0
   outer loop
      vertex 19.9921531346406 22.7732973884298 12.6
      vertex 14.6562547497784 13.2732973884298 12.6
      vertex 15.0558564397969 12.3085735688399 12.6
   endloop
endfacet
facet normal -1.0020686174781e-031 2.11217055675425e-032 1.0
   outer loop
      vertex 19.9921531346406 22.7732973884298 12.6
      vertex 15.0558564397969 12.3085735688399 12.6
      vertex 15.1921531346406 11.2732973884298 12.6
   endloop
endfacet
facet normal -1.0020686174781e-031 2.11217055675425e-032 1.0
   outer loop
      vertex 19.9921531346406 22.7732973884298 12.6
      vertex 15.1921531346406 11.2732973884298 12.6
      vertex 15.6921531346406 3.47906875436984 12.6
   endloop
endfacet
facet normal -1.0020686174781e-031 2.11217055675425e-032 1.0
   outer loop
      vertex 19.9921531346406 22.7732973884298 12.6
      vertex 15.6921531346406 3.47906875436984 12.6
      vertex 17.5561141653195 4.90933635775086 12.6
   endloop
endfacet
facet normal -1.0020686174781e-031 2.11217055675425e-032 1.0
   outer loop
      vertex 19.9921531346406 22.7732973884298 12.6
      vertex 17.5561141653195 4.90933635775086 12.6
      vertex 18.9863817687006 6.77329738842978 12.6
   endloop
endfacet
facet normal -1.0020686174781e-031 2.11217055675425e-032 1.0
   outer loop
      vertex 19.9921531346406 22.7732973884298 12.6
      vertex 18.9863817687006 6.77329738842978 12.6
      vertex 19.8854855712422 8.9439259825071 12.6
   endloop
endfacet
facet normal -1.0020686174781e-031 2.11217055675425e-032 1.0
   outer loop
      vertex 19.9921531346406 22.7732973884298 12.6
      vertex 19.8854855712422 8.9439259825071 12.6
      vertex 19.9921531346406 9.75414656588477 12.6
   endloop
endfacet
facet normal -1.0020686174781e-031 2.11217055675425e-032 1.0
   outer loop
      vertex 2.49882069803899 8.9439259825071 12.6
      vertex 2.39215313464061 22.7732973884298 12.6
      vertex 2.39215313464061 9.75414656588477 12.6
   endloop
endfacet
facet normal -1.0020686174781e-031 2.11217055675425e-032 1.0
   outer loop
      vertex 2.39215313464061 22.7732973884298 12.6
      vertex 2.49882069803899 8.9439259825071 12.6
      vertex 9.19215313464061 22.7732973884298 12.6
   endloop
endfacet
facet normal -1.0020686174781e-031 2.11217055675425e-032 1.0
   outer loop
      vertex 9.19215313464061 22.7732973884298 12.6
      vertex 2.49882069803899 8.9439259825071 12.6
      vertex 3.39792450058066 6.77329738842979 12.6
   endloop
endfacet
facet normal -1.0020686174781e-031 2.11217055675425e-032 1.0
   outer loop
      vertex 9.19215313464061 22.7732973884298 12.6
      vertex 3.39792450058066 6.77329738842979 12.6
      vertex 4.82819210396168 4.90933635775086 12.6
   endloop
endfacet
facet normal -1.0020686174781e-031 2.11217055675425e-032 1.0
   outer loop
      vertex 9.19215313464061 22.7732973884298 12.6
      vertex 4.82819210396168 4.90933635775086 12.6
      vertex 7.32844982948434 12.3085735688399 12.6
   endloop
endfacet
facet normal -1.0020686174781e-031 2.11217055675425e-032 1.0
   outer loop
      vertex 7.32844982948434 12.3085735688399 12.6
      vertex 4.82819210396168 4.90933635775086 12.6
      vertex 7.19215313464061 11.2732973884298 12.6
   endloop
endfacet
facet normal -1.0020686174781e-031 2.11217055675425e-032 1.0
   outer loop
      vertex 7.19215313464061 11.2732973884298 12.6
      vertex 4.82819210396168 4.90933635775086 12.6
      vertex 6.69215313464061 3.47906875436984 12.6
   endloop
endfacet
facet normal -1.0020686174781e-031 2.11217055675425e-032 1.0
   outer loop
      vertex 9.19215313464061 22.7732973884298 12.6
      vertex 7.32844982948434 12.3085735688399 12.6
      vertex 7.72805151950286 13.2732973884298 12.6
   endloop
endfacet
facet normal -1.0020686174781e-031 2.11217055675425e-032 1.0
   outer loop
      vertex 9.19215313464061 22.7732973884298 12.6
      vertex 7.72805151950286 13.2732973884298 12.6
      vertex 8.36372600989442 14.101724513176 12.6
   endloop
endfacet
facet normal -1.0020686174781e-031 2.11217055675425e-032 1.0
   outer loop
      vertex 9.19215313464061 22.7732973884298 12.6
      vertex 8.36372600989442 14.101724513176 12.6
      vertex 9.19215313464061 14.7373990035675 12.6
   endloop
endfacet
facet normal -0.0 1.0 -0.0
   outer loop
      vertex 2.39215313464061 22.7732973884298 12.6
      vertex 9.19215313464061 22.7732973884298 2.59999999999998
      vertex 2.39215313464061 22.7732973884298 2.59999999999998
   endloop
endfacet
facet normal -0.0 1.0 -0.0
   outer loop
      vertex 9.19215313464061 22.7732973884298 2.59999999999998
      vertex 2.39215313464061 22.7732973884298 12.6
      vertex 9.19215313464061 22.7732973884298 12.6
   endloop
endfacet
facet normal 1.0 7.01842245257868e-016 -0.0
   outer loop
      vertex 9.19215313464061 14.7373990035675 2.59999999999998
      vertex 9.1921531346406 16.3244086489962 7.2117714323462
      vertex 9.19215313464061 14.7373990035675 12.6
   endloop
endfacet
facet normal 1.0 7.01842245257868e-016 -0.0
   outer loop
      vertex 9.1921531346406 16.3244086489962 7.2117714323462
      vertex 9.19215313464061 14.7373990035675 2.59999999999998
      vertex 9.1921531346406 16.4742592827531 6.84999999999998
   endloop
endfacet
facet normal 1.0 7.01842245257868e-016 -0.0
   outer loop
      vertex 9.1921531346406 16.4742592827531 6.84999999999998
      vertex 9.19215313464061 14.7373990035675 2.59999999999998
      vertex 9.1921531346406 16.71263721665 6.53933982822016
   endloop
endfacet
facet normal 1.0 7.01842245257868e-016 -0.0
   outer loop
      vertex 9.1921531346406 16.71263721665 6.53933982822016
      vertex 9.19215313464061 14.7373990035675 2.59999999999998
      vertex 9.1921531346406 17.0232973884298 6.30096189432332
   endloop
endfacet
facet normal 1.0 7.01842245257868e-016 -0.0
   outer loop
      vertex 9.1921531346406 17.0232973884298 6.30096189432332
      vertex 9.19215313464061 14.7373990035675 2.59999999999998
      vertex 9.19215313464061 22.7732973884298 2.59999999999998
   endloop
endfacet
facet normal 1.0 7.01842245257868e-016 -0.0
   outer loop
      vertex 9.19215313464061 14.7373990035675 12.6
      vertex 9.1921531346406 16.3244086489962 7.2117714323462
      vertex 9.1921531346406 16.2732973884298 7.59999999999998
   endloop
endfacet
facet normal 1.0 7.01842245257868e-016 -0.0
   outer loop
      vertex 9.1921531346406 17.0232973884298 6.30096189432332
      vertex 9.19215313464061 22.7732973884298 2.59999999999998
      vertex 9.1921531346406 17.385068820776 6.15111126056638
   endloop
endfacet
facet normal 1.0 7.01842245257868e-016 -0.0
   outer loop
      vertex 9.1921531346406 17.385068820776 6.15111126056638
      vertex 9.19215313464061 22.7732973884298 2.59999999999998
      vertex 9.1921531346406 17.7732973884298 6.09999999999998
   endloop
endfacet
facet normal 1.0 7.01842245257868e-016 -0.0
   outer loop
      vertex 9.1921531346406 17.7732973884298 6.09999999999998
      vertex 9.19215313464061 22.7732973884298 2.59999999999998
      vertex 9.1921531346406 18.1615259560836 6.15111126056638
   endloop
endfacet
facet normal 1.0 7.01842245257868e-016 -0.0
   outer loop
      vertex 9.1921531346406 18.1615259560836 6.15111126056638
      vertex 9.19215313464061 22.7732973884298 2.59999999999998
      vertex 9.1921531346406 18.5232973884298 6.30096189432332
   endloop
endfacet
facet normal 1.0 7.01842245257868e-016 -0.0
   outer loop
      vertex 9.1921531346406 18.5232973884298 6.30096189432332
      vertex 9.19215313464061 22.7732973884298 2.59999999999998
      vertex 9.1921531346406 18.8339575602096 6.53933982822016
   endloop
endfacet
facet normal 1.0 7.01842245257868e-016 -0.0
   outer loop
      vertex 9.1921531346406 18.8339575602096 6.53933982822016
      vertex 9.19215313464061 22.7732973884298 2.59999999999998
      vertex 9.1921531346406 19.0723354941064 6.84999999999998
   endloop
endfacet
facet normal 1.0 7.01842245257868e-016 -0.0
   outer loop
      vertex 9.1921531346406 19.0723354941064 6.84999999999998
      vertex 9.19215313464061 22.7732973884298 2.59999999999998
      vertex 9.1921531346406 19.2221861278634 7.2117714323462
   endloop
endfacet
facet normal 1.0 7.01842245257868e-016 -0.0
   outer loop
      vertex 9.1921531346406 19.2221861278634 7.2117714323462
      vertex 9.19215313464061 22.7732973884298 2.59999999999998
      vertex 9.1921531346406 19.2732973884298 7.59999999999998
   endloop
endfacet
facet normal 1.0 7.01842245257868e-016 -0.0
   outer loop
      vertex 9.19215313464061 14.7373990035675 12.6
      vertex 9.1921531346406 17.0232973884298 8.89903810567663
      vertex 9.19215313464061 22.7732973884298 12.6
   endloop
endfacet
facet normal 1.0 7.01842245257868e-016 -0.0
   outer loop
      vertex 9.1921531346406 17.0232973884298 8.89903810567663
      vertex 9.19215313464061 14.7373990035675 12.6
      vertex 9.1921531346406 16.71263721665 8.6606601717798
   endloop
endfacet
facet normal 1.0 7.01842245257868e-016 -0.0
   outer loop
      vertex 9.1921531346406 16.71263721665 8.6606601717798
      vertex 9.19215313464061 14.7373990035675 12.6
      vertex 9.1921531346406 16.4742592827531 8.34999999999997
   endloop
endfacet
facet normal 1.0 7.01842245257868e-016 -0.0
   outer loop
      vertex 9.1921531346406 16.4742592827531 8.34999999999997
      vertex 9.19215313464061 14.7373990035675 12.6
      vertex 9.1921531346406 16.3244086489962 7.98822856765376
   endloop
endfacet
facet normal 1.0 7.01842245257868e-016 -0.0
   outer loop
      vertex 9.1921531346406 16.3244086489962 7.98822856765376
      vertex 9.19215313464061 14.7373990035675 12.6
      vertex 9.1921531346406 16.2732973884298 7.59999999999998
   endloop
endfacet
facet normal 1.0 7.01842245257868e-016 -0.0
   outer loop
      vertex 9.19215313464061 22.7732973884298 12.6
      vertex 9.1921531346406 17.0232973884298 8.89903810567663
      vertex 9.1921531346406 17.385068820776 9.04888873943358
   endloop
endfacet
facet normal 1.0 7.01842245257868e-016 -0.0
   outer loop
      vertex 9.19215313464061 22.7732973884298 12.6
      vertex 9.1921531346406 17.385068820776 9.04888873943358
      vertex 9.1921531346406 17.7732973884298 9.09999999999997
   endloop
endfacet
facet normal 1.0 7.01842245257868e-016 -0.0
   outer loop
      vertex 9.19215313464061 22.7732973884298 12.6
      vertex 9.1921531346406 17.7732973884298 9.09999999999997
      vertex 9.1921531346406 18.1615259560836 9.04888873943358
   endloop
endfacet
facet normal 1.0 7.01842245257868e-016 -0.0
   outer loop
      vertex 9.19215313464061 22.7732973884298 12.6
      vertex 9.1921531346406 18.1615259560836 9.04888873943358
      vertex 9.1921531346406 18.5232973884298 8.89903810567663
   endloop
endfacet
facet normal 1.0 7.01842245257868e-016 -0.0
   outer loop
      vertex 9.19215313464061 22.7732973884298 12.6
      vertex 9.1921531346406 18.5232973884298 8.89903810567663
      vertex 9.1921531346406 18.8339575602096 8.66066017177979
   endloop
endfacet
facet normal 1.0 7.01842245257868e-016 -0.0
   outer loop
      vertex 9.19215313464061 22.7732973884298 12.6
      vertex 9.1921531346406 18.8339575602096 8.66066017177979
      vertex 9.1921531346406 19.0723354941064 8.34999999999997
   endloop
endfacet
facet normal 1.0 7.01842245257868e-016 -0.0
   outer loop
      vertex 9.19215313464061 22.7732973884298 12.6
      vertex 9.1921531346406 19.0723354941064 8.34999999999997
      vertex 9.1921531346406 19.2221861278634 7.98822856765376
   endloop
endfacet
facet normal 1.0 7.01842245257868e-016 -0.0
   outer loop
      vertex 9.19215313464061 22.7732973884298 12.6
      vertex 9.1921531346406 19.2221861278634 7.98822856765376
      vertex 9.1921531346406 19.2732973884298 7.59999999999998
   endloop
endfacet
facet normal 1.0 7.01842245257868e-016 -0.0
   outer loop
      vertex 9.19215313464061 22.7732973884298 12.6
      vertex 9.1921531346406 19.2732973884298 7.59999999999998
      vertex 9.19215313464061 22.7732973884298 2.59999999999998
   endloop
endfacet
facet normal 0.608761429008717 -0.793353340291238 0.0
   outer loop
      vertex 9.19215313464061 14.7373990035675 12.6
      vertex 8.36372600989442 14.101724513176 2.59999999999998
      vertex 9.19215313464061 14.7373990035675 2.59999999999998
   endloop
endfacet
facet normal 0.608761429008717 -0.793353340291238 0.0
   outer loop
      vertex 8.36372600989442 14.101724513176 2.59999999999998
      vertex 9.19215313464061 14.7373990035675 12.6
      vertex 8.36372600989442 14.101724513176 12.6
   endloop
endfacet
facet normal 0.793353340291238 -0.608761429008717 -0.0
   outer loop
      vertex 8.36372600989442 14.101724513176 2.59999999999998
      vertex 7.72805151950286 13.2732973884298 12.6
      vertex 7.72805151950286 13.2732973884298 2.59999999999998
   endloop
endfacet
facet normal 0.793353340291238 -0.608761429008717 -0.0
   outer loop
      vertex 7.72805151950286 13.2732973884298 12.6
      vertex 8.36372600989442 14.101724513176 2.59999999999998
      vertex 8.36372600989442 14.101724513176 12.6
   endloop
endfacet
facet normal 0.923879532511286 -0.382683432365091 -0.0
   outer loop
      vertex 7.72805151950286 13.2732973884298 2.59999999999998
      vertex 7.32844982948434 12.3085735688399 12.6
      vertex 7.32844982948434 12.3085735688399 2.59999999999998
   endloop
endfacet
facet normal 0.923879532511286 -0.382683432365091 -0.0
   outer loop
      vertex 7.32844982948434 12.3085735688399 12.6
      vertex 7.72805151950286 13.2732973884298 2.59999999999998
      vertex 7.72805151950286 13.2732973884298 12.6
   endloop
endfacet
facet normal 0.99144486137381 -0.130526192220051 -0.0
   outer loop
      vertex 7.32844982948434 12.3085735688399 2.59999999999998
      vertex 7.19215313464061 11.2732973884298 12.6
      vertex 7.19215313464061 11.2732973884298 2.59999999999998
   endloop
endfacet
facet normal 0.99144486137381 -0.130526192220051 -0.0
   outer loop
      vertex 7.19215313464061 11.2732973884298 12.6
      vertex 7.32844982948434 12.3085735688399 2.59999999999998
      vertex 7.32844982948434 12.3085735688399 12.6
   endloop
endfacet
facet normal 0.99144486137381 0.130526192220052 -0.0
   outer loop
      vertex 7.19215313464061 11.2732973884298 2.59999999999998
      vertex 7.32844982948434 10.2380212080197 12.6
      vertex 7.32844982948434 10.2380212080197 2.59999999999998
   endloop
endfacet
facet normal 0.99144486137381 0.130526192220052 -0.0
   outer loop
      vertex 7.32844982948434 10.2380212080197 12.6
      vertex 7.19215313464061 11.2732973884298 2.59999999999998
      vertex 7.19215313464061 11.2732973884298 12.6
   endloop
endfacet
facet normal -0.793353340291235 -0.608761429008721 3.02562456839259e-033
   outer loop
      vertex 3.39792450058066 6.77329738842979 12.6
      vertex 4.82819210396168 4.90933635775086 2.59999999999998
      vertex 4.82819210396168 4.90933635775086 12.6
   endloop
endfacet
facet normal -0.793353340291235 -0.608761429008721 3.02562456839259e-033
   outer loop
      vertex 4.82819210396168 4.90933635775086 2.59999999999998
      vertex 3.39792450058066 6.77329738842979 12.6
      vertex 3.39792450058066 6.77329738842979 2.59999999999998
   endloop
endfacet
facet normal -0.608761429008721 -0.793353340291235 0.0
   outer loop
      vertex 6.69215313464061 3.47906875436984 12.6
      vertex 4.82819210396168 4.90933635775086 2.59999999999998
      vertex 6.69215313464061 3.47906875436984 2.59999999999998
   endloop
endfacet
facet normal -0.608761429008721 -0.793353340291235 0.0
   outer loop
      vertex 4.82819210396168 4.90933635775086 2.59999999999998
      vertex 6.69215313464061 3.47906875436984 12.6
      vertex 4.82819210396168 4.90933635775086 12.6
   endloop
endfacet
facet normal -0.382683432365091 -0.923879532511286 0.0
   outer loop
      vertex 8.86278172871792 2.57996495182817 12.6
      vertex 6.69215313464061 3.47906875436984 2.59999999999998
      vertex 8.86278172871792 2.57996495182817 2.59999999999998
   endloop
endfacet
facet normal -0.382683432365091 -0.923879532511286 0.0
   outer loop
      vertex 6.69215313464061 3.47906875436984 2.59999999999998
      vertex 8.86278172871792 2.57996495182817 12.6
      vertex 6.69215313464061 3.47906875436984 12.6
   endloop
endfacet
facet normal -0.130526192220052 -0.99144486137381 1.38699938419062e-018
   outer loop
      vertex 11.1921531346406 2.27329738842979 12.6
      vertex 8.86278172871792 2.57996495182817 2.59999999999998
      vertex 11.1921531346406 2.27329738842979 2.59999999999998
   endloop
endfacet
facet normal -0.130526192220052 -0.99144486137381 1.38699938419062e-018
   outer loop
      vertex 8.86278172871792 2.57996495182817 2.59999999999998
      vertex 11.1921531346406 2.27329738842979 12.6
      vertex 8.86278172871792 2.57996495182817 12.6
   endloop
endfacet
facet normal 0.130526192220052 -0.99144486137381 0.0
   outer loop
      vertex 13.5215245405633 2.57996495182817 12.6
      vertex 11.1921531346406 2.27329738842979 2.59999999999998
      vertex 13.5215245405633 2.57996495182817 2.59999999999998
   endloop
endfacet
facet normal 0.130526192220052 -0.99144486137381 0.0
   outer loop
      vertex 11.1921531346406 2.27329738842979 2.59999999999998
      vertex 13.5215245405633 2.57996495182817 12.6
      vertex 11.1921531346406 2.27329738842979 12.6
   endloop
endfacet
facet normal 0.382683432365091 -0.923879532511286 0.0
   outer loop
      vertex 15.6921531346406 3.47906875436984 12.6
      vertex 13.5215245405633 2.57996495182817 2.59999999999998
      vertex 15.6921531346406 3.47906875436984 2.59999999999998
   endloop
endfacet
facet normal 0.382683432365091 -0.923879532511286 0.0
   outer loop
      vertex 13.5215245405633 2.57996495182817 2.59999999999998
      vertex 15.6921531346406 3.47906875436984 12.6
      vertex 13.5215245405633 2.57996495182817 12.6
   endloop
endfacet
facet normal 0.60876142900872 -0.793353340291236 -1.21024982735704e-032
   outer loop
      vertex 17.5561141653195 4.90933635775086 12.6
      vertex 15.6921531346406 3.47906875436984 2.59999999999998
      vertex 17.5561141653195 4.90933635775086 2.59999999999998
   endloop
endfacet
facet normal 0.60876142900872 -0.793353340291236 -1.21024982735704e-032
   outer loop
      vertex 15.6921531346406 3.47906875436984 2.59999999999998
      vertex 17.5561141653195 4.90933635775086 12.6
      vertex 15.6921531346406 3.47906875436984 12.6
   endloop
endfacet
facet normal -0.923879532511287 -0.382683432365088 0.0
   outer loop
      vertex 2.49882069803899 8.9439259825071 12.6
      vertex 3.39792450058066 6.77329738842979 2.59999999999998
      vertex 3.39792450058066 6.77329738842979 12.6
   endloop
endfacet
facet normal -0.923879532511287 -0.382683432365088 0.0
   outer loop
      vertex 3.39792450058066 6.77329738842979 2.59999999999998
      vertex 2.49882069803899 8.9439259825071 12.6
      vertex 2.49882069803899 8.9439259825071 2.59999999999998
   endloop
endfacet
facet normal -0.99144486137381 -0.130526192220052 0.0
   outer loop
      vertex 2.39215313464061 9.75414656588477 12.6
      vertex 2.49882069803899 8.9439259825071 2.59999999999998
      vertex 2.49882069803899 8.9439259825071 12.6
   endloop
endfacet
facet normal -0.99144486137381 -0.130526192220052 0.0
   outer loop
      vertex 2.49882069803899 8.9439259825071 2.59999999999998
      vertex 2.39215313464061 9.75414656588477 12.6
      vertex 2.39215313464061 9.75414656588477 2.59999999999998
   endloop
endfacet
facet normal -1.0 0.0 0.0
   outer loop
      vertex 2.39215313464061 9.75414656588477 12.6
      vertex 2.39215313464061 14.5257021242381 9.47499999999998
      vertex 2.39215313464061 9.75414656588477 2.59999999999998
   endloop
endfacet
facet normal -1.0 0.0 0.0
   outer loop
      vertex 2.39215313464061 14.5257021242381 9.47499999999998
      vertex 2.39215313464061 9.75414656588477 12.6
      vertex 2.39215313464061 17.7732973884298 11.35
   endloop
endfacet
facet normal -1.0 0.0 0.0
   outer loop
      vertex 2.39215313464061 17.7732973884298 11.35
      vertex 2.39215313464061 9.75414656588477 12.6
      vertex 2.39215313464061 22.7732973884298 12.6
   endloop
endfacet
facet normal -1.0 0.0 0.0
   outer loop
      vertex 2.39215313464061 17.7732973884298 11.35
      vertex 2.39215313464061 22.7732973884298 12.6
      vertex 2.39215313464061 21.0208926526214 9.47499999999997
   endloop
endfacet
facet normal -1.0 0.0 0.0
   outer loop
      vertex 2.39215313464061 9.75414656588477 2.59999999999998
      vertex 2.39215313464061 17.7732973884298 3.84999999999998
      vertex 2.39215313464061 22.7732973884298 2.59999999999998
   endloop
endfacet
facet normal -1.0 0.0 0.0
   outer loop
      vertex 2.39215313464061 17.7732973884298 3.84999999999998
      vertex 2.39215313464061 9.75414656588477 2.59999999999998
      vertex 2.39215313464061 14.5257021242381 5.72499999999998
   endloop
endfacet
facet normal -1.0 0.0 0.0
   outer loop
      vertex 2.39215313464061 14.5257021242381 5.72499999999998
      vertex 2.39215313464061 9.75414656588477 2.59999999999998
      vertex 2.39215313464061 14.5257021242381 9.47499999999998
   endloop
endfacet
facet normal -1.0 0.0 0.0
   outer loop
      vertex 2.39215313464061 22.7732973884298 2.59999999999998
      vertex 2.39215313464061 17.7732973884298 3.84999999999998
      vertex 2.39215313464061 21.0208926526214 5.72499999999998
   endloop
endfacet
facet normal -1.0 0.0 0.0
   outer loop
      vertex 2.39215313464061 22.7732973884298 2.59999999999998
      vertex 2.39215313464061 21.0208926526214 5.72499999999998
      vertex 2.39215313464061 21.0208926526214 9.47499999999997
   endloop
endfacet
facet normal -1.0 0.0 0.0
   outer loop
      vertex 2.39215313464061 22.7732973884298 2.59999999999998
      vertex 2.39215313464061 21.0208926526214 9.47499999999997
      vertex 2.39215313464061 22.7732973884298 12.6
   endloop
endfacet
facet normal 0.793353340291233 -0.608761429008723 1.87979073932764e-032
   outer loop
      vertex 18.9863817687006 6.77329738842978 2.59999999999998
      vertex 17.5561141653195 4.90933635775086 12.6
      vertex 17.5561141653195 4.90933635775086 2.59999999999998
   endloop
endfacet
facet normal 0.793353340291233 -0.608761429008723 1.87979073932764e-032
   outer loop
      vertex 17.5561141653195 4.90933635775086 12.6
      vertex 18.9863817687006 6.77329738842978 2.59999999999998
      vertex 18.9863817687006 6.77329738842978 12.6
   endloop
endfacet
facet normal -0.0 0.923879532511289 -0.382683432365083
   outer loop
      vertex 5.39215313464061 16.4742592827531 8.34999999999997
      vertex 9.1921531346406 16.3244086489962 7.98822856765376
      vertex 5.39215313464061 16.3244086489962 7.98822856765376
   endloop
endfacet
facet normal -0.0 0.923879532511289 -0.382683432365083
   outer loop
      vertex 9.1921531346406 16.3244086489962 7.98822856765376
      vertex 5.39215313464061 16.4742592827531 8.34999999999997
      vertex 9.1921531346406 16.4742592827531 8.34999999999997
   endloop
endfacet
facet normal -0.0 0.991444861373811 -0.130526192220045
   outer loop
      vertex 5.39215313464061 16.3244086489962 7.98822856765376
      vertex 9.1921531346406 16.2732973884298 7.59999999999998
      vertex 5.39215313464061 16.2732973884298 7.59999999999998
   endloop
endfacet
facet normal -0.0 0.991444861373811 -0.130526192220045
   outer loop
      vertex 9.1921531346406 16.2732973884298 7.59999999999998
      vertex 5.39215313464061 16.3244086489962 7.98822856765376
      vertex 9.1921531346406 16.3244086489962 7.98822856765376
   endloop
endfacet
facet normal -0.0 0.991444861373811 0.130526192220045
   outer loop
      vertex 5.39215313464061 16.2732973884298 7.59999999999998
      vertex 9.1921531346406 16.3244086489962 7.2117714323462
      vertex 5.39215313464061 16.3244086489962 7.2117714323462
   endloop
endfacet
facet normal -0.0 0.991444861373811 0.130526192220045
   outer loop
      vertex 9.1921531346406 16.3244086489962 7.2117714323462
      vertex 5.39215313464061 16.2732973884298 7.59999999999998
      vertex 9.1921531346406 16.2732973884298 7.59999999999998
   endloop
endfacet
facet normal -0.0 0.92387953251129 0.382683432365082
   outer loop
      vertex 5.39215313464061 16.3244086489962 7.2117714323462
      vertex 9.1921531346406 16.4742592827531 6.84999999999998
      vertex 5.39215313464061 16.4742592827531 6.84999999999998
   endloop
endfacet
facet normal -0.0 0.92387953251129 0.382683432365082
   outer loop
      vertex 9.1921531346406 16.4742592827531 6.84999999999998
      vertex 5.39215313464061 16.3244086489962 7.2117714323462
      vertex 9.1921531346406 16.3244086489962 7.2117714323462
   endloop
endfacet
facet normal -0.0 0.793353340291233 0.608761429008724
   outer loop
      vertex 5.39215313464061 16.4742592827531 6.84999999999998
      vertex 9.1921531346406 16.71263721665 6.53933982822016
      vertex 5.39215313464061 16.71263721665 6.53933982822016
   endloop
endfacet
facet normal -0.0 0.793353340291233 0.608761429008724
   outer loop
      vertex 9.1921531346406 16.71263721665 6.53933982822016
      vertex 5.39215313464061 16.4742592827531 6.84999999999998
      vertex 9.1921531346406 16.4742592827531 6.84999999999998
   endloop
endfacet
facet normal -0.0 0.608761429008717 0.793353340291238
   outer loop
      vertex 9.1921531346406 16.71263721665 6.53933982822016
      vertex 5.39215313464061 17.0232973884298 6.30096189432332
      vertex 5.39215313464061 16.71263721665 6.53933982822016
   endloop
endfacet
facet normal -0.0 0.608761429008717 0.793353340291238
   outer loop
      vertex 5.39215313464061 17.0232973884298 6.30096189432332
      vertex 9.1921531346406 16.71263721665 6.53933982822016
      vertex 9.1921531346406 17.0232973884298 6.30096189432332
   endloop
endfacet
facet normal -0.0 0.382683432365087 0.923879532511288
   outer loop
      vertex 9.1921531346406 17.0232973884298 6.30096189432332
      vertex 5.39215313464061 17.385068820776 6.15111126056638
      vertex 5.39215313464061 17.0232973884298 6.30096189432332
   endloop
endfacet
facet normal -0.0 0.382683432365087 0.923879532511288
   outer loop
      vertex 5.39215313464061 17.385068820776 6.15111126056638
      vertex 9.1921531346406 17.0232973884298 6.30096189432332
      vertex 9.1921531346406 17.385068820776 6.15111126056638
   endloop
endfacet
facet normal -0.0 0.130526192220051 0.99144486137381
   outer loop
      vertex 9.1921531346406 17.385068820776 6.15111126056638
      vertex 5.39215313464061 17.7732973884298 6.09999999999998
      vertex 5.39215313464061 17.385068820776 6.15111126056638
   endloop
endfacet
facet normal -0.0 0.130526192220051 0.99144486137381
   outer loop
      vertex 5.39215313464061 17.7732973884298 6.09999999999998
      vertex 9.1921531346406 17.385068820776 6.15111126056638
      vertex 9.1921531346406 17.7732973884298 6.09999999999998
   endloop
endfacet
facet normal 0.0 -0.382683432365092 -0.923879532511286
   outer loop
      vertex 9.1921531346406 18.5232973884298 8.89903810567663
      vertex 5.39215313464061 18.1615259560836 9.04888873943358
      vertex 5.39215313464061 18.5232973884298 8.89903810567663
   endloop
endfacet
facet normal 0.0 -0.382683432365092 -0.923879532511286
   outer loop
      vertex 5.39215313464061 18.1615259560836 9.04888873943358
      vertex 9.1921531346406 18.5232973884298 8.89903810567663
      vertex 9.1921531346406 18.1615259560836 9.04888873943358
   endloop
endfacet
facet normal 0.0 -0.130526192220053 -0.99144486137381
   outer loop
      vertex 9.1921531346406 18.1615259560836 9.04888873943358
      vertex 5.39215313464061 17.7732973884298 9.09999999999997
      vertex 5.39215313464061 18.1615259560836 9.04888873943358
   endloop
endfacet
facet normal 0.0 -0.130526192220053 -0.99144486137381
   outer loop
      vertex 5.39215313464061 17.7732973884298 9.09999999999997
      vertex 9.1921531346406 18.1615259560836 9.04888873943358
      vertex 9.1921531346406 17.7732973884298 9.09999999999997
   endloop
endfacet
facet normal 0.0 0.130526192220051 -0.99144486137381
   outer loop
      vertex 9.1921531346406 17.7732973884298 9.09999999999997
      vertex 5.39215313464061 17.385068820776 9.04888873943358
      vertex 5.39215313464061 17.7732973884298 9.09999999999997
   endloop
endfacet
facet normal 0.0 0.130526192220051 -0.99144486137381
   outer loop
      vertex 5.39215313464061 17.385068820776 9.04888873943358
      vertex 9.1921531346406 17.7732973884298 9.09999999999997
      vertex 9.1921531346406 17.385068820776 9.04888873943358
   endloop
endfacet
facet normal 0.0 0.382683432365087 -0.923879532511288
   outer loop
      vertex 9.1921531346406 17.385068820776 9.04888873943358
      vertex 5.39215313464061 17.0232973884298 8.89903810567663
      vertex 5.39215313464061 17.385068820776 9.04888873943358
   endloop
endfacet
facet normal 0.0 0.382683432365087 -0.923879532511288
   outer loop
      vertex 5.39215313464061 17.0232973884298 8.89903810567663
      vertex 9.1921531346406 17.385068820776 9.04888873943358
      vertex 9.1921531346406 17.0232973884298 8.89903810567663
   endloop
endfacet
facet normal -0.0 0.793353340291235 -0.608761429008721
   outer loop
      vertex 5.39215313464061 16.71263721665 8.6606601717798
      vertex 9.1921531346406 16.4742592827531 8.34999999999997
      vertex 5.39215313464061 16.4742592827531 8.34999999999997
   endloop
endfacet
facet normal -0.0 0.793353340291235 -0.608761429008721
   outer loop
      vertex 9.1921531346406 16.4742592827531 8.34999999999997
      vertex 5.39215313464061 16.71263721665 8.6606601717798
      vertex 9.1921531346406 16.71263721665 8.6606601717798
   endloop
endfacet
facet normal 0.0 0.608761429008713 -0.793353340291241
   outer loop
      vertex 9.1921531346406 17.0232973884298 8.89903810567663
      vertex 5.39215313464061 16.71263721665 8.6606601717798
      vertex 5.39215313464061 17.0232973884298 8.89903810567663
   endloop
endfacet
facet normal 0.0 0.608761429008713 -0.793353340291241
   outer loop
      vertex 5.39215313464061 16.71263721665 8.6606601717798
      vertex 9.1921531346406 17.0232973884298 8.89903810567663
      vertex 9.1921531346406 16.71263721665 8.6606601717798
   endloop
endfacet
facet normal 0.0 -0.608761429008731 -0.793353340291227
   outer loop
      vertex 9.1921531346406 18.8339575602096 8.66066017177979
      vertex 5.39215313464061 18.5232973884298 8.89903810567663
      vertex 5.39215313464061 18.8339575602096 8.66066017177979
   endloop
endfacet
facet normal 0.0 -0.608761429008731 -0.793353340291227
   outer loop
      vertex 5.39215313464061 18.5232973884298 8.89903810567663
      vertex 9.1921531346406 18.8339575602096 8.66066017177979
      vertex 9.1921531346406 18.5232973884298 8.89903810567663
   endloop
endfacet
facet normal 0.0 -0.793353340291233 -0.608761429008724
   outer loop
      vertex 9.1921531346406 18.8339575602096 8.66066017177979
      vertex 5.39215313464061 19.0723354941064 8.34999999999997
      vertex 9.1921531346406 19.0723354941064 8.34999999999997
   endloop
endfacet
facet normal 0.0 -0.793353340291233 -0.608761429008724
   outer loop
      vertex 5.39215313464061 19.0723354941064 8.34999999999997
      vertex 9.1921531346406 18.8339575602096 8.66066017177979
      vertex 5.39215313464061 18.8339575602096 8.66066017177979
   endloop
endfacet
facet normal 0.0 -0.923879532511279 -0.382683432365108
   outer loop
      vertex 9.1921531346406 19.0723354941064 8.34999999999997
      vertex 5.39215313464061 19.2221861278634 7.98822856765376
      vertex 9.1921531346406 19.2221861278634 7.98822856765376
   endloop
endfacet
facet normal 0.0 -0.923879532511279 -0.382683432365108
   outer loop
      vertex 5.39215313464061 19.2221861278634 7.98822856765376
      vertex 9.1921531346406 19.0723354941064 8.34999999999997
      vertex 5.39215313464061 19.0723354941064 8.34999999999997
   endloop
endfacet
facet normal 0.0 -0.991444861373811 -0.130526192220045
   outer loop
      vertex 9.1921531346406 19.2221861278634 7.98822856765376
      vertex 5.39215313464061 19.2732973884298 7.59999999999998
      vertex 9.1921531346406 19.2732973884298 7.59999999999998
   endloop
endfacet
facet normal 0.0 -0.991444861373811 -0.130526192220045
   outer loop
      vertex 5.39215313464061 19.2732973884298 7.59999999999998
      vertex 9.1921531346406 19.2221861278634 7.98822856765376
      vertex 5.39215313464061 19.2221861278634 7.98822856765376
   endloop
endfacet
facet normal 0.0 -0.991444861373808 0.130526192220074
   outer loop
      vertex 9.1921531346406 19.2732973884298 7.59999999999998
      vertex 5.39215313464061 19.2221861278634 7.2117714323462
      vertex 9.1921531346406 19.2221861278634 7.2117714323462
   endloop
endfacet
facet normal 0.0 -0.991444861373808 0.130526192220074
   outer loop
      vertex 5.39215313464061 19.2221861278634 7.2117714323462
      vertex 9.1921531346406 19.2732973884298 7.59999999999998
      vertex 5.39215313464061 19.2732973884298 7.59999999999998
   endloop
endfacet
facet normal 0.0 -0.923879532511291 0.382683432365081
   outer loop
      vertex 9.1921531346406 19.2221861278634 7.2117714323462
      vertex 5.39215313464061 19.0723354941064 6.84999999999998
      vertex 9.1921531346406 19.0723354941064 6.84999999999998
   endloop
endfacet
facet normal 0.0 -0.923879532511291 0.382683432365081
   outer loop
      vertex 5.39215313464061 19.0723354941064 6.84999999999998
      vertex 9.1921531346406 19.2221861278634 7.2117714323462
      vertex 5.39215313464061 19.2221861278634 7.2117714323462
   endloop
endfacet
facet normal 0.0 -0.793353340291231 0.608761429008726
   outer loop
      vertex 9.1921531346406 19.0723354941064 6.84999999999998
      vertex 5.39215313464061 18.8339575602096 6.53933982822016
      vertex 9.1921531346406 18.8339575602096 6.53933982822016
   endloop
endfacet
facet normal 0.0 -0.793353340291231 0.608761429008726
   outer loop
      vertex 5.39215313464061 18.8339575602096 6.53933982822016
      vertex 9.1921531346406 19.0723354941064 6.84999999999998
      vertex 5.39215313464061 19.0723354941064 6.84999999999998
   endloop
endfacet
facet normal -0.0 -0.608761429008731 0.793353340291227
   outer loop
      vertex 9.1921531346406 18.5232973884298 6.30096189432332
      vertex 5.39215313464061 18.8339575602096 6.53933982822016
      vertex 5.39215313464061 18.5232973884298 6.30096189432332
   endloop
endfacet
facet normal -0.0 -0.608761429008731 0.793353340291227
   outer loop
      vertex 5.39215313464061 18.8339575602096 6.53933982822016
      vertex 9.1921531346406 18.5232973884298 6.30096189432332
      vertex 9.1921531346406 18.8339575602096 6.53933982822016
   endloop
endfacet
endsolid bed A p2 P-023
