solid spool holder 2 P-011
facet normal 0.991444861373803 0.130526192220112 -4.38918019202203e-015
   outer loop
      vertex 44.8348750771701 12.4971492970554 10.1
      vertex 45.3136172178089 8.86074171336506 12.1
      vertex 45.3136172178089 8.86074171336506 10.1
   endloop
endfacet
facet normal 0.991444861373803 0.130526192220112 -4.38918019202203e-015
   outer loop
      vertex 45.3136172178089 8.86074171336506 12.1
      vertex 44.8348750771701 12.4971492970554 10.1
      vertex 44.8348750771701 12.4971492970554 12.1
   endloop
endfacet
facet normal -0.991444861373813 0.130526192220033 4.41693576763766e-015
   outer loop
      vertex 8.03310109555674 15.0853397480806 12.1000000000001
      vertex 7.21361721780892 8.86074171336506 7.10000000000014
      vertex 7.21361721780896 8.86074171336506 12.1000000000001
   endloop
endfacet
facet normal -0.991444861373813 0.130526192220033 4.41693576763766e-015
   outer loop
      vertex 7.21361721780892 8.86074171336506 7.10000000000014
      vertex 8.03310109555674 15.0853397480806 12.1000000000001
      vertex 8.03310109555671 15.0853397480806 7.10000000000012
   endloop
endfacet
facet normal 0.991444861373813 0.130526192220033 -4.41693576763766e-015
   outer loop
      vertex 54.494133340061 15.0853397480806 7.09999999999991
      vertex 55.3136172178088 8.86074171336506 12.0999999999999
      vertex 55.3136172178088 8.86074171336506 7.0999999999999
   endloop
endfacet
facet normal 0.991444861373813 0.130526192220033 -4.41693576763766e-015
   outer loop
      vertex 55.3136172178088 8.86074171336506 12.0999999999999
      vertex 54.494133340061 15.0853397480806 7.09999999999991
      vertex 54.4941333400611 15.0853397480806 12.0999999999999
   endloop
endfacet
facet normal -0.79335334029126 0.608761429008689 3.67223880624434e-015
   outer loop
      vertex 21.3287669421378 18.7955919890361 12.1000000000001
      vertex 19.0959602946376 15.8857417133651 10.1000000000001
      vertex 19.0959602946376 15.8857417133651 12.1000000000001
   endloop
endfacet
facet normal -0.79335334029126 0.608761429008689 3.67223880624434e-015
   outer loop
      vertex 19.0959602946376 15.8857417133651 10.1000000000001
      vertex 21.3287669421378 18.7955919890361 12.1000000000001
      vertex 21.3287669421378 18.7955919890361 10.1000000000001
   endloop
endfacet
facet normal 0.130526192220057 0.99144486137381 -5.66535177783908e-016
   outer loop
      vertex 31.2636172178089 22.9107417133653 10.1
      vertex 34.9000248014995 22.4319995727267 12.1
      vertex 34.9000248014994 22.4319995727267 10.1
   endloop
endfacet
facet normal 0.130526192220057 0.99144486137381 -5.66535177783908e-016
   outer loop
      vertex 34.9000248014995 22.4319995727267 12.1
      vertex 31.2636172178089 22.9107417133653 10.1
      vertex 31.2636172178089 22.9107417133653 12.1
   endloop
endfacet
facet normal -0.793353340291254 -0.608761429008696 3.5334609281662e-015
   outer loop
      vertex 44.7340013994127 22.3311258949689 12.1
      vertex 47.7614011599024 18.3857417133651 10.1
      vertex 47.7614011599024 18.3857417133651 12.0999999999999
   endloop
endfacet
facet normal -0.793353340291254 -0.608761429008696 3.5334609281662e-015
   outer loop
      vertex 47.7614011599024 18.3857417133651 10.1
      vertex 44.7340013994127 22.3311258949689 12.1
      vertex 44.7340013994127 22.3311258949689 10.1
   endloop
endfacet
facet normal 0.382683432365085 -0.923879532511289 -1.68967798314542e-015
   outer loop
      vertex 26.3331144086059 27.261628704172 12.1
      vertex 21.7386172178089 25.3585256554588 10.1000000000001
      vertex 26.3331144086058 27.261628704172 10.1000000000001
   endloop
endfacet
facet normal 0.382683432365085 -0.923879532511289 -1.68967798314542e-015
   outer loop
      vertex 21.7386172178089 25.3585256554588 10.1000000000001
      vertex 26.3331144086059 27.261628704172 12.1
      vertex 21.7386172178089 25.3585256554588 12.1000000000001
   endloop
endfacet
facet normal -0.382683432365086 -0.923879532511288 1.6758001953376e-015
   outer loop
      vertex 40.7886172178089 25.3585256554588 12.1
      vertex 36.1941200270119 27.261628704172 10.1
      vertex 40.7886172178089 25.3585256554588 10.1
   endloop
endfacet
facet normal -0.382683432365086 -0.923879532511288 1.6758001953376e-015
   outer loop
      vertex 36.1941200270119 27.261628704172 10.1
      vertex 40.7886172178089 25.3585256554588 12.1
      vertex 36.1941200270119 27.261628704172 12.1
   endloop
endfacet
facet normal 0.923879532511277 -0.382683432365113 -4.30816292306734e-015
   outer loop
      vertex 14.7658332757153 18.3857417133651 10.1000000000001
      vertex 12.862730227002 13.7912445225681 12.1000000000001
      vertex 12.862730227002 13.7912445225681 10.1000000000001
   endloop
endfacet
facet normal 0.923879532511277 -0.382683432365113 -4.30816292306734e-015
   outer loop
      vertex 12.862730227002 13.7912445225681 12.1000000000001
      vertex 14.7658332757153 18.3857417133651 10.1000000000001
      vertex 14.7658332757153 18.3857417133651 12.1000000000001
   endloop
endfacet
facet normal 0.793353340291253 -0.608761429008698 -3.69999438185997e-015
   outer loop
      vertex 17.793233036205 22.3311258949689 10.1000000000001
      vertex 14.7658332757153 18.3857417133651 12.1000000000001
      vertex 14.7658332757153 18.3857417133651 10.1000000000001
   endloop
endfacet
facet normal 0.793353340291253 -0.608761429008698 -3.69999438185997e-015
   outer loop
      vertex 14.7658332757153 18.3857417133651 12.1000000000001
      vertex 17.793233036205 22.3311258949689 10.1000000000001
      vertex 17.793233036205 22.3311258949689 12.1000000000001
   endloop
endfacet
facet normal 0.608761429008719 -0.793353340291237 -2.5884799064141e-015
   outer loop
      vertex 21.7386172178089 25.3585256554588 12.1000000000001
      vertex 17.793233036205 22.3311258949689 10.1000000000001
      vertex 21.7386172178089 25.3585256554588 10.1000000000001
   endloop
endfacet
facet normal 0.608761429008719 -0.793353340291237 -2.5884799064141e-015
   outer loop
      vertex 17.793233036205 22.3311258949689 10.1000000000001
      vertex 21.7386172178089 25.3585256554588 12.1000000000001
      vertex 17.793233036205 22.3311258949689 12.1000000000001
   endloop
endfacet
facet normal 0.79335334029126 0.608761429008689 -3.67223880624434e-015
   outer loop
      vertex 41.1984674934799 18.7955919890361 10.1
      vertex 43.4312741409801 15.8857417133651 12.1
      vertex 43.4312741409801 15.8857417133651 10.1
   endloop
endfacet
facet normal 0.79335334029126 0.608761429008689 -3.67223880624434e-015
   outer loop
      vertex 43.4312741409801 15.8857417133651 12.1
      vertex 41.1984674934799 18.7955919890361 10.1
      vertex 41.1984674934799 18.7955919890361 12.1
   endloop
endfacet
facet normal -0.923879532511294 0.382683432365073 4.30816292306733e-015
   outer loop
      vertex 19.0959602946376 15.8857417133651 12.1000000000001
      vertex 17.6923593584476 12.4971492970554 10.1000000000001
      vertex 17.6923593584476 12.4971492970554 12.1000000000001
   endloop
endfacet
facet normal -0.923879532511294 0.382683432365073 4.30816292306733e-015
   outer loop
      vertex 17.6923593584476 12.4971492970554 10.1000000000001
      vertex 19.0959602946376 15.8857417133651 12.1000000000001
      vertex 19.0959602946376 15.8857417133651 10.1000000000001
   endloop
endfacet
facet normal -0.991444861373803 0.130526192220112 4.38918019202203e-015
   outer loop
      vertex 17.6923593584476 12.4971492970554 12.1000000000001
      vertex 17.2136172178088 8.86074171336506 10.1000000000001
      vertex 17.2136172178088 8.86074171336506 12.1000000000001
   endloop
endfacet
facet normal -0.991444861373803 0.130526192220112 4.38918019202203e-015
   outer loop
      vertex 17.2136172178088 8.86074171336506 10.1000000000001
      vertex 17.6923593584476 12.4971492970554 12.1000000000001
      vertex 17.6923593584476 12.4971492970554 10.1000000000001
   endloop
endfacet
facet normal -0.608761429008726 0.793353340291231 2.81052451133913e-015
   outer loop
      vertex 21.3287669421378 18.7955919890361 10.1000000000001
      vertex 24.238617217809 21.0283986365367 12.1
      vertex 24.238617217809 21.0283986365367 10.1000000000001
   endloop
endfacet
facet normal -0.608761429008726 0.793353340291231 2.81052451133913e-015
   outer loop
      vertex 24.238617217809 21.0283986365367 12.1
      vertex 21.3287669421378 18.7955919890361 10.1000000000001
      vertex 21.3287669421378 18.7955919890361 12.1000000000001
   endloop
endfacet
facet normal 4.52415882534751e-015 0.0 1.0
   outer loop
      vertex 17.2136172178088 8.86074171336506 10.1000000000001
      vertex 12.862730227002 13.7912445225681 10.1000000000001
      vertex 12.2136172178089 8.86074171336506 10.1000000000001
   endloop
endfacet
facet normal 4.52415882534751e-015 0.0 1.0
   outer loop
      vertex 12.862730227002 13.7912445225681 10.1000000000001
      vertex 17.2136172178088 8.86074171336506 10.1000000000001
      vertex 14.7658332757153 18.3857417133651 10.1000000000001
   endloop
endfacet
facet normal 4.52415882534751e-015 0.0 1.0
   outer loop
      vertex 14.7658332757153 18.3857417133651 10.1000000000001
      vertex 17.2136172178088 8.86074171336506 10.1000000000001
      vertex 17.793233036205 22.3311258949689 10.1000000000001
   endloop
endfacet
facet normal 4.52415882534751e-015 0.0 1.0
   outer loop
      vertex 17.793233036205 22.3311258949689 10.1000000000001
      vertex 17.2136172178088 8.86074171336506 10.1000000000001
      vertex 17.6923593584476 12.4971492970554 10.1000000000001
   endloop
endfacet
facet normal 4.52415882534751e-015 0.0 1.0
   outer loop
      vertex 17.793233036205 22.3311258949689 10.1000000000001
      vertex 17.6923593584476 12.4971492970554 10.1000000000001
      vertex 19.0959602946376 15.8857417133651 10.1000000000001
   endloop
endfacet
facet normal 4.52415882534751e-015 0.0 1.0
   outer loop
      vertex 17.793233036205 22.3311258949689 10.1000000000001
      vertex 19.0959602946376 15.8857417133651 10.1000000000001
      vertex 21.7386172178089 25.3585256554588 10.1000000000001
   endloop
endfacet
facet normal 4.52415882534751e-015 0.0 1.0
   outer loop
      vertex 21.7386172178089 25.3585256554588 10.1000000000001
      vertex 19.0959602946376 15.8857417133651 10.1000000000001
      vertex 21.3287669421378 18.7955919890361 10.1000000000001
   endloop
endfacet
facet normal 4.52415882534751e-015 0.0 1.0
   outer loop
      vertex 21.7386172178089 25.3585256554588 10.1000000000001
      vertex 21.3287669421378 18.7955919890361 10.1000000000001
      vertex 24.238617217809 21.0283986365367 10.1000000000001
   endloop
endfacet
facet normal 4.52415882534751e-015 0.0 1.0
   outer loop
      vertex 21.7386172178089 25.3585256554588 10.1000000000001
      vertex 24.238617217809 21.0283986365367 10.1000000000001
      vertex 26.3331144086058 27.261628704172 10.1000000000001
   endloop
endfacet
facet normal 4.52415882534751e-015 0.0 1.0
   outer loop
      vertex 26.3331144086058 27.261628704172 10.1000000000001
      vertex 24.238617217809 21.0283986365367 10.1000000000001
      vertex 27.6272096341183 22.4319995727267 10.1
   endloop
endfacet
facet normal 4.52415882534751e-015 0.0 1.0
   outer loop
      vertex 26.3331144086058 27.261628704172 10.1000000000001
      vertex 27.6272096341183 22.4319995727267 10.1
      vertex 31.2636172178089 27.9107417133652 10.1
   endloop
endfacet
facet normal 4.52415882534751e-015 0.0 1.0
   outer loop
      vertex 31.2636172178089 27.9107417133652 10.1
      vertex 27.6272096341183 22.4319995727267 10.1
      vertex 31.2636172178089 22.9107417133653 10.1
   endloop
endfacet
facet normal 4.52415882534751e-015 0.0 1.0
   outer loop
      vertex 31.2636172178089 27.9107417133652 10.1
      vertex 31.2636172178089 22.9107417133653 10.1
      vertex 34.9000248014994 22.4319995727267 10.1
   endloop
endfacet
facet normal 4.52415882534751e-015 0.0 1.0
   outer loop
      vertex 31.2636172178089 27.9107417133652 10.1
      vertex 34.9000248014994 22.4319995727267 10.1
      vertex 36.1941200270119 27.261628704172 10.1
   endloop
endfacet
facet normal 4.52415882534751e-015 0.0 1.0
   outer loop
      vertex 36.1941200270119 27.261628704172 10.1
      vertex 34.9000248014994 22.4319995727267 10.1
      vertex 38.2886172178087 21.0283986365367 10.1
   endloop
endfacet
facet normal 4.52415882534751e-015 0.0 1.0
   outer loop
      vertex 36.1941200270119 27.261628704172 10.1
      vertex 38.2886172178087 21.0283986365367 10.1
      vertex 40.7886172178089 25.3585256554588 10.1
   endloop
endfacet
facet normal 4.52415882534751e-015 0.0 1.0
   outer loop
      vertex 40.7886172178089 25.3585256554588 10.1
      vertex 38.2886172178087 21.0283986365367 10.1
      vertex 41.1984674934799 18.7955919890361 10.1
   endloop
endfacet
facet normal 4.52415882534751e-015 0.0 1.0
   outer loop
      vertex 40.7886172178089 25.3585256554588 10.1
      vertex 41.1984674934799 18.7955919890361 10.1
      vertex 44.7340013994127 22.3311258949689 10.1
   endloop
endfacet
facet normal 4.52415882534751e-015 0.0 1.0
   outer loop
      vertex 44.7340013994127 22.3311258949689 10.1
      vertex 41.1984674934799 18.7955919890361 10.1
      vertex 43.4312741409801 15.8857417133651 10.1
   endloop
endfacet
facet normal 4.52415882534751e-015 0.0 1.0
   outer loop
      vertex 44.7340013994127 22.3311258949689 10.1
      vertex 43.4312741409801 15.8857417133651 10.1
      vertex 44.8348750771701 12.4971492970554 10.1
   endloop
endfacet
facet normal 4.52415882534751e-015 0.0 1.0
   outer loop
      vertex 44.7340013994127 22.3311258949689 10.1
      vertex 44.8348750771701 12.4971492970554 10.1
      vertex 47.7614011599024 18.3857417133651 10.1
   endloop
endfacet
facet normal 4.52415882534751e-015 0.0 1.0
   outer loop
      vertex 47.7614011599024 18.3857417133651 10.1
      vertex 44.8348750771701 12.4971492970554 10.1
      vertex 45.3136172178089 8.86074171336506 10.1
   endloop
endfacet
facet normal 4.52415882534751e-015 0.0 1.0
   outer loop
      vertex 47.7614011599024 18.3857417133651 10.1
      vertex 45.3136172178089 8.86074171336506 10.1
      vertex 50.3136172178089 8.86074171336506 10.0999999999999
   endloop
endfacet
facet normal 4.52415882534751e-015 0.0 1.0
   outer loop
      vertex 47.7614011599024 18.3857417133651 10.1
      vertex 50.3136172178089 8.86074171336506 10.0999999999999
      vertex 49.6645042086158 13.7912445225681 10.0999999999999
   endloop
endfacet
facet normal 0.382683432365105 0.923879532511281 -1.57865568068289e-015
   outer loop
      vertex 34.9000248014994 22.4319995727267 10.1
      vertex 38.2886172178087 21.0283986365367 12.1
      vertex 38.2886172178087 21.0283986365367 10.1
   endloop
endfacet
facet normal 0.382683432365105 0.923879532511281 -1.57865568068289e-015
   outer loop
      vertex 38.2886172178087 21.0283986365367 12.1
      vertex 34.9000248014994 22.4319995727267 10.1
      vertex 34.9000248014995 22.4319995727267 12.1
   endloop
endfacet
facet normal -0.130526192220057 0.99144486137381 5.17962920456558e-016
   outer loop
      vertex 27.6272096341184 22.4319995727267 12.1
      vertex 31.2636172178089 22.9107417133653 10.1
      vertex 27.6272096341183 22.4319995727267 10.1
   endloop
endfacet
facet normal -0.130526192220057 0.99144486137381 5.17962920456558e-016
   outer loop
      vertex 31.2636172178089 22.9107417133653 10.1
      vertex 27.6272096341184 22.4319995727267 12.1
      vertex 31.2636172178089 22.9107417133653 12.1
   endloop
endfacet
facet normal 0.991444861373814 -0.130526192220024 -4.5557136457158e-015
   outer loop
      vertex 12.862730227002 13.7912445225681 10.1000000000001
      vertex 12.2136172178089 8.86074171336506 12.1000000000001
      vertex 12.2136172178089 8.86074171336506 10.1000000000001
   endloop
endfacet
facet normal 0.991444861373814 -0.130526192220024 -4.5557136457158e-015
   outer loop
      vertex 12.2136172178089 8.86074171336506 12.1000000000001
      vertex 12.862730227002 13.7912445225681 10.1000000000001
      vertex 12.862730227002 13.7912445225681 12.1000000000001
   endloop
endfacet
facet normal 0.608761429008727 0.793353340291231 -2.86603566257039e-015
   outer loop
      vertex 38.2886172178087 21.0283986365367 10.1
      vertex 41.1984674934799 18.7955919890361 12.1
      vertex 41.1984674934799 18.7955919890361 10.1
   endloop
endfacet
facet normal 0.608761429008727 0.793353340291231 -2.86603566257039e-015
   outer loop
      vertex 41.1984674934799 18.7955919890361 12.1
      vertex 38.2886172178087 21.0283986365367 10.1
      vertex 38.2886172178087 21.0283986365367 12.1
   endloop
endfacet
facet normal -0.13052619222006 -0.991444861373809 5.38779602168278e-016
   outer loop
      vertex 36.1941200270119 27.261628704172 12.1
      vertex 31.2636172178089 27.9107417133652 10.1
      vertex 36.1941200270119 27.261628704172 10.1
   endloop
endfacet
facet normal -0.13052619222006 -0.991444861373809 5.38779602168278e-016
   outer loop
      vertex 31.2636172178089 27.9107417133652 10.1
      vertex 36.1941200270119 27.261628704172 12.1
      vertex 31.2636172178089 27.9107417133652 12.1
   endloop
endfacet
facet normal 0.13052619222006 -0.991444861373809 -5.66535177783907e-016
   outer loop
      vertex 31.2636172178089 27.9107417133652 12.1
      vertex 26.3331144086058 27.261628704172 10.1000000000001
      vertex 31.2636172178089 27.9107417133652 10.1
   endloop
endfacet
facet normal 0.13052619222006 -0.991444861373809 -5.66535177783907e-016
   outer loop
      vertex 26.3331144086058 27.261628704172 10.1000000000001
      vertex 31.2636172178089 27.9107417133652 12.1
      vertex 26.3331144086059 27.261628704172 12.1
   endloop
endfacet
facet normal -0.991444861373814 -0.130526192220024 4.5557136457158e-015
   outer loop
      vertex 49.6645042086158 13.7912445225681 12.0999999999999
      vertex 50.3136172178089 8.86074171336506 10.0999999999999
      vertex 50.3136172178089 8.86074171336506 12.0999999999999
   endloop
endfacet
facet normal -0.991444861373814 -0.130526192220024 4.5557136457158e-015
   outer loop
      vertex 50.3136172178089 8.86074171336506 10.0999999999999
      vertex 49.6645042086158 13.7912445225681 12.0999999999999
      vertex 49.6645042086158 13.7912445225681 10.0999999999999
   endloop
endfacet
facet normal -0.608761429008719 -0.793353340291237 2.64399105764536e-015
   outer loop
      vertex 44.7340013994127 22.3311258949689 12.1
      vertex 40.7886172178089 25.3585256554588 10.1
      vertex 44.7340013994127 22.3311258949689 10.1
   endloop
endfacet
facet normal -0.608761429008719 -0.793353340291237 2.64399105764536e-015
   outer loop
      vertex 40.7886172178089 25.3585256554588 10.1
      vertex 44.7340013994127 22.3311258949689 12.1
      vertex 40.7886172178089 25.3585256554588 12.1
   endloop
endfacet
facet normal -0.923879532511276 -0.382683432365116 4.28040734745171e-015
   outer loop
      vertex 47.7614011599024 18.3857417133651 12.0999999999999
      vertex 49.6645042086158 13.7912445225681 10.0999999999999
      vertex 49.6645042086158 13.7912445225681 12.0999999999999
   endloop
endfacet
facet normal -0.923879532511276 -0.382683432365116 4.28040734745171e-015
   outer loop
      vertex 49.6645042086158 13.7912445225681 10.0999999999999
      vertex 47.7614011599024 18.3857417133651 12.0999999999999
      vertex 47.7614011599024 18.3857417133651 10.1
   endloop
endfacet
facet normal 0.923879532511294 0.382683432365072 -4.36367407429859e-015
   outer loop
      vertex 43.4312741409801 15.8857417133651 10.1
      vertex 44.8348750771701 12.4971492970554 12.1
      vertex 44.8348750771701 12.4971492970554 10.1
   endloop
endfacet
facet normal 0.923879532511294 0.382683432365072 -4.36367407429859e-015
   outer loop
      vertex 44.8348750771701 12.4971492970554 12.1
      vertex 43.4312741409801 15.8857417133651 10.1
      vertex 43.4312741409801 15.8857417133651 12.1
   endloop
endfacet
facet normal 0.79335334029123 0.608761429008728 -3.56121650378184e-015
   outer loop
      vertex 48.2695353053455 25.8666598009015 7.09999999999992
      vertex 52.0915281788247 20.8857417133652 12.0999999999999
      vertex 52.0915281788247 20.8857417133652 7.09999999999991
   endloop
endfacet
facet normal 0.79335334029123 0.608761429008728 -3.56121650378184e-015
   outer loop
      vertex 52.0915281788247 20.8857417133652 12.0999999999999
      vertex 48.2695353053455 25.8666598009015 7.09999999999992
      vertex 48.2695353053455 25.8666598009015 12.0999999999999
   endloop
endfacet
facet normal 0.382683432365072 0.923879532511294 -1.7590669221845e-015
   outer loop
      vertex 37.4882152525244 32.0912578356172 12.1
      vertex 43.288617217809 29.6886526743809 7.09999999999996
      vertex 37.4882152525244 32.0912578356172 7.09999999999996
   endloop
endfacet
facet normal 0.382683432365072 0.923879532511294 -1.7590669221845e-015
   outer loop
      vertex 43.288617217809 29.6886526743809 7.09999999999996
      vertex 37.4882152525244 32.0912578356172 12.1
      vertex 43.288617217809 29.6886526743809 12.1
   endloop
endfacet
facet normal -0.130526192220061 0.991444861373809 5.52657389976092e-016
   outer loop
      vertex 25.0390191830933 32.0912578356172 7.10000000000004
      vertex 31.2636172178089 32.9107417133652 12.1
      vertex 31.2636172178089 32.9107417133652 7.1
   endloop
endfacet
facet normal -0.130526192220061 0.991444861373809 5.52657389976092e-016
   outer loop
      vertex 31.2636172178089 32.9107417133652 12.1
      vertex 25.0390191830933 32.0912578356172 7.10000000000004
      vertex 25.0390191830933 32.0912578356172 12.1000000000001
   endloop
endfacet
facet normal -0.382683432365071 0.923879532511295 1.81457807341575e-015
   outer loop
      vertex 19.2386172178087 29.6886526743809 7.10000000000008
      vertex 25.0390191830933 32.0912578356172 12.1000000000001
      vertex 25.0390191830933 32.0912578356172 7.10000000000004
   endloop
endfacet
facet normal -0.382683432365071 0.923879532511295 1.81457807341575e-015
   outer loop
      vertex 25.0390191830933 32.0912578356172 12.1000000000001
      vertex 19.2386172178087 29.6886526743809 7.10000000000008
      vertex 19.2386172178087 29.6886526743809 12.1000000000001
   endloop
endfacet
facet normal -0.923879532511294 0.382683432365072 4.19714062060481e-015
   outer loop
      vertex 10.435706256793 20.8857417133652 12.1000000000001
      vertex 8.03310109555671 15.0853397480806 7.10000000000012
      vertex 8.03310109555674 15.0853397480806 12.1000000000001
   endloop
endfacet
facet normal -0.923879532511294 0.382683432365072 4.19714062060481e-015
   outer loop
      vertex 8.03310109555671 15.0853397480806 7.10000000000012
      vertex 10.435706256793 20.8857417133652 12.1000000000001
      vertex 10.435706256793 20.8857417133652 7.10000000000012
   endloop
endfacet
facet normal 4.52415882534751e-015 0.0 1.0
   outer loop
      vertex 45.3136172178089 8.86074171336506 12.1
      vertex 17.6923593584476 12.4971492970554 12.1000000000001
      vertex 17.2136172178088 8.86074171336506 12.1000000000001
   endloop
endfacet
facet normal 4.52415882534751e-015 0.0 1.0
   outer loop
      vertex 17.6923593584476 12.4971492970554 12.1000000000001
      vertex 45.3136172178089 8.86074171336506 12.1
      vertex 19.0959602946376 15.8857417133651 12.1000000000001
   endloop
endfacet
facet normal 4.52415882534751e-015 0.0 1.0
   outer loop
      vertex 19.0959602946376 15.8857417133651 12.1000000000001
      vertex 45.3136172178089 8.86074171336506 12.1
      vertex 21.3287669421378 18.7955919890361 12.1000000000001
   endloop
endfacet
facet normal 4.52415882534751e-015 0.0 1.0
   outer loop
      vertex 21.3287669421378 18.7955919890361 12.1000000000001
      vertex 45.3136172178089 8.86074171336506 12.1
      vertex 24.238617217809 21.0283986365367 12.1
   endloop
endfacet
facet normal 4.52415882534751e-015 0.0 1.0
   outer loop
      vertex 24.238617217809 21.0283986365367 12.1
      vertex 45.3136172178089 8.86074171336506 12.1
      vertex 27.6272096341184 22.4319995727267 12.1
   endloop
endfacet
facet normal 4.52415882534751e-015 0.0 1.0
   outer loop
      vertex 27.6272096341184 22.4319995727267 12.1
      vertex 45.3136172178089 8.86074171336506 12.1
      vertex 31.2636172178089 22.9107417133653 12.1
   endloop
endfacet
facet normal 4.52415882534751e-015 0.0 1.0
   outer loop
      vertex 31.2636172178089 22.9107417133653 12.1
      vertex 45.3136172178089 8.86074171336506 12.1
      vertex 34.9000248014995 22.4319995727267 12.1
   endloop
endfacet
facet normal 4.52415882534751e-015 0.0 1.0
   outer loop
      vertex 34.9000248014995 22.4319995727267 12.1
      vertex 45.3136172178089 8.86074171336506 12.1
      vertex 38.2886172178087 21.0283986365367 12.1
   endloop
endfacet
facet normal 4.52415882534751e-015 0.0 1.0
   outer loop
      vertex 38.2886172178087 21.0283986365367 12.1
      vertex 45.3136172178089 8.86074171336506 12.1
      vertex 41.1984674934799 18.7955919890361 12.1
   endloop
endfacet
facet normal 4.52415882534751e-015 0.0 1.0
   outer loop
      vertex 41.1984674934799 18.7955919890361 12.1
      vertex 45.3136172178089 8.86074171336506 12.1
      vertex 43.4312741409801 15.8857417133651 12.1
   endloop
endfacet
facet normal 4.52415882534751e-015 0.0 1.0
   outer loop
      vertex 43.4312741409801 15.8857417133651 12.1
      vertex 45.3136172178089 8.86074171336506 12.1
      vertex 44.8348750771701 12.4971492970554 12.1
   endloop
endfacet
facet normal 4.52415882534751e-015 -1.3030535877508e-031 1.0
   outer loop
      vertex 12.2136172178089 8.86074171336506 12.1000000000001
      vertex 8.03310109555674 15.0853397480806 12.1000000000001
      vertex 7.21361721780896 8.86074171336506 12.1000000000001
   endloop
endfacet
facet normal 4.52415882534751e-015 -1.3030535877508e-031 1.0
   outer loop
      vertex 8.03310109555674 15.0853397480806 12.1000000000001
      vertex 12.2136172178089 8.86074171336506 12.1000000000001
      vertex 10.435706256793 20.8857417133652 12.1000000000001
   endloop
endfacet
facet normal 4.52415882534751e-015 -1.3030535877508e-031 1.0
   outer loop
      vertex 10.435706256793 20.8857417133652 12.1000000000001
      vertex 12.2136172178089 8.86074171336506 12.1000000000001
      vertex 14.2576991302723 25.8666598009015 12.1000000000001
   endloop
endfacet
facet normal 4.52415882534751e-015 -1.3030535877508e-031 1.0
   outer loop
      vertex 14.2576991302723 25.8666598009015 12.1000000000001
      vertex 12.2136172178089 8.86074171336506 12.1000000000001
      vertex 12.862730227002 13.7912445225681 12.1000000000001
   endloop
endfacet
facet normal 4.52415882534751e-015 -1.3030535877508e-031 1.0
   outer loop
      vertex 14.2576991302723 25.8666598009015 12.1000000000001
      vertex 12.862730227002 13.7912445225681 12.1000000000001
      vertex 14.7658332757153 18.3857417133651 12.1000000000001
   endloop
endfacet
facet normal 4.52415882534751e-015 -1.3030535877508e-031 1.0
   outer loop
      vertex 14.2576991302723 25.8666598009015 12.1000000000001
      vertex 14.7658332757153 18.3857417133651 12.1000000000001
      vertex 19.2386172178087 29.6886526743809 12.1000000000001
   endloop
endfacet
facet normal 4.52415882534751e-015 -1.3030535877508e-031 1.0
   outer loop
      vertex 19.2386172178087 29.6886526743809 12.1000000000001
      vertex 14.7658332757153 18.3857417133651 12.1000000000001
      vertex 17.793233036205 22.3311258949689 12.1000000000001
   endloop
endfacet
facet normal 4.52415882534751e-015 -1.3030535877508e-031 1.0
   outer loop
      vertex 19.2386172178087 29.6886526743809 12.1000000000001
      vertex 17.793233036205 22.3311258949689 12.1000000000001
      vertex 21.7386172178089 25.3585256554588 12.1000000000001
   endloop
endfacet
facet normal 4.52415882534751e-015 -1.3030535877508e-031 1.0
   outer loop
      vertex 19.2386172178087 29.6886526743809 12.1000000000001
      vertex 21.7386172178089 25.3585256554588 12.1000000000001
      vertex 25.0390191830933 32.0912578356172 12.1000000000001
   endloop
endfacet
facet normal 4.52415882534751e-015 -1.3030535877508e-031 1.0
   outer loop
      vertex 25.0390191830933 32.0912578356172 12.1000000000001
      vertex 21.7386172178089 25.3585256554588 12.1000000000001
      vertex 26.3331144086059 27.261628704172 12.1
   endloop
endfacet
facet normal 4.52415882534751e-015 -1.3030535877508e-031 1.0
   outer loop
      vertex 25.0390191830933 32.0912578356172 12.1000000000001
      vertex 26.3331144086059 27.261628704172 12.1
      vertex 31.2636172178089 32.9107417133652 12.1
   endloop
endfacet
facet normal 4.52415882534751e-015 -1.3030535877508e-031 1.0
   outer loop
      vertex 31.2636172178089 32.9107417133652 12.1
      vertex 26.3331144086059 27.261628704172 12.1
      vertex 31.2636172178089 27.9107417133652 12.1
   endloop
endfacet
facet normal 4.52415882534751e-015 -1.3030535877508e-031 1.0
   outer loop
      vertex 31.2636172178089 32.9107417133652 12.1
      vertex 31.2636172178089 27.9107417133652 12.1
      vertex 36.1941200270119 27.261628704172 12.1
   endloop
endfacet
facet normal 4.52415882534751e-015 -1.3030535877508e-031 1.0
   outer loop
      vertex 31.2636172178089 32.9107417133652 12.1
      vertex 36.1941200270119 27.261628704172 12.1
      vertex 37.4882152525244 32.0912578356172 12.1
   endloop
endfacet
facet normal 4.52415882534751e-015 -1.3030535877508e-031 1.0
   outer loop
      vertex 37.4882152525244 32.0912578356172 12.1
      vertex 36.1941200270119 27.261628704172 12.1
      vertex 40.7886172178089 25.3585256554588 12.1
   endloop
endfacet
facet normal 4.52415882534751e-015 -1.3030535877508e-031 1.0
   outer loop
      vertex 37.4882152525244 32.0912578356172 12.1
      vertex 40.7886172178089 25.3585256554588 12.1
      vertex 43.288617217809 29.6886526743809 12.1
   endloop
endfacet
facet normal 4.52415882534751e-015 -1.3030535877508e-031 1.0
   outer loop
      vertex 43.288617217809 29.6886526743809 12.1
      vertex 40.7886172178089 25.3585256554588 12.1
      vertex 44.7340013994127 22.3311258949689 12.1
   endloop
endfacet
facet normal 4.52415882534751e-015 -1.3030535877508e-031 1.0
   outer loop
      vertex 43.288617217809 29.6886526743809 12.1
      vertex 44.7340013994127 22.3311258949689 12.1
      vertex 48.2695353053455 25.8666598009015 12.0999999999999
   endloop
endfacet
facet normal 4.52415882534751e-015 -1.3030535877508e-031 1.0
   outer loop
      vertex 48.2695353053455 25.8666598009015 12.0999999999999
      vertex 44.7340013994127 22.3311258949689 12.1
      vertex 47.7614011599024 18.3857417133651 12.0999999999999
   endloop
endfacet
facet normal 4.52415882534751e-015 -1.3030535877508e-031 1.0
   outer loop
      vertex 48.2695353053455 25.8666598009015 12.0999999999999
      vertex 47.7614011599024 18.3857417133651 12.0999999999999
      vertex 49.6645042086158 13.7912445225681 12.0999999999999
   endloop
endfacet
facet normal 4.52415882534751e-015 -1.3030535877508e-031 1.0
   outer loop
      vertex 48.2695353053455 25.8666598009015 12.0999999999999
      vertex 49.6645042086158 13.7912445225681 12.0999999999999
      vertex 52.0915281788247 20.8857417133652 12.0999999999999
   endloop
endfacet
facet normal 4.52415882534751e-015 -1.3030535877508e-031 1.0
   outer loop
      vertex 52.0915281788247 20.8857417133652 12.0999999999999
      vertex 49.6645042086158 13.7912445225681 12.0999999999999
      vertex 50.3136172178089 8.86074171336506 12.0999999999999
   endloop
endfacet
facet normal 4.52415882534751e-015 -1.3030535877508e-031 1.0
   outer loop
      vertex 52.0915281788247 20.8857417133652 12.0999999999999
      vertex 50.3136172178089 8.86074171336506 12.0999999999999
      vertex 55.3136172178088 8.86074171336506 12.0999999999999
   endloop
endfacet
facet normal 4.52415882534751e-015 -1.3030535877508e-031 1.0
   outer loop
      vertex 52.0915281788247 20.8857417133652 12.0999999999999
      vertex 55.3136172178088 8.86074171336506 12.0999999999999
      vertex 54.4941333400611 15.0853397480806 12.0999999999999
   endloop
endfacet
facet normal 0.0 -1.0 0.0
   outer loop
      vertex 55.3136172178088 8.86074171336506 7.0999999999999
      vertex 50.3136172178089 8.86074171336506 10.0999999999999
      vertex 7.21361721780892 8.86074171336506 7.10000000000014
   endloop
endfacet
facet normal 0.0 -1.0 0.0
   outer loop
      vertex 50.3136172178089 8.86074171336506 10.0999999999999
      vertex 55.3136172178088 8.86074171336506 7.0999999999999
      vertex 55.3136172178088 8.86074171336506 12.0999999999999
   endloop
endfacet
facet normal 0.0 -1.0 0.0
   outer loop
      vertex 50.3136172178089 8.86074171336506 10.0999999999999
      vertex 55.3136172178088 8.86074171336506 12.0999999999999
      vertex 50.3136172178089 8.86074171336506 12.0999999999999
   endloop
endfacet
facet normal 0.0 -1.0 0.0
   outer loop
      vertex 45.3136172178089 8.86074171336506 12.1
      vertex 17.2136172178088 8.86074171336506 10.1000000000001
      vertex 45.3136172178089 8.86074171336506 10.1
   endloop
endfacet
facet normal 0.0 -1.0 0.0
   outer loop
      vertex 17.2136172178088 8.86074171336506 10.1000000000001
      vertex 45.3136172178089 8.86074171336506 12.1
      vertex 17.2136172178088 8.86074171336506 12.1000000000001
   endloop
endfacet
facet normal 0.0 -1.0 0.0
   outer loop
      vertex 7.21361721780892 8.86074171336506 7.10000000000014
      vertex 12.2136172178089 8.86074171336506 10.1000000000001
      vertex 7.21361721780896 8.86074171336506 12.1000000000001
   endloop
endfacet
facet normal 0.0 -1.0 0.0
   outer loop
      vertex 12.2136172178089 8.86074171336506 10.1000000000001
      vertex 7.21361721780892 8.86074171336506 7.10000000000014
      vertex 17.2136172178088 8.86074171336506 10.1000000000001
   endloop
endfacet
facet normal 0.0 -1.0 0.0
   outer loop
      vertex 17.2136172178088 8.86074171336506 10.1000000000001
      vertex 7.21361721780892 8.86074171336506 7.10000000000014
      vertex 50.3136172178089 8.86074171336506 10.0999999999999
   endloop
endfacet
facet normal 0.0 -1.0 0.0
   outer loop
      vertex 17.2136172178088 8.86074171336506 10.1000000000001
      vertex 50.3136172178089 8.86074171336506 10.0999999999999
      vertex 45.3136172178089 8.86074171336506 10.1
   endloop
endfacet
facet normal 0.0 -1.0 0.0
   outer loop
      vertex 7.21361721780896 8.86074171336506 12.1000000000001
      vertex 12.2136172178089 8.86074171336506 10.1000000000001
      vertex 12.2136172178089 8.86074171336506 12.1000000000001
   endloop
endfacet
facet normal -0.608761429008732 0.793353340291227 2.81052451133913e-015
   outer loop
      vertex 14.2576991302723 25.8666598009015 12.1000000000001
      vertex 19.2386172178087 29.6886526743809 7.10000000000008
      vertex 14.2576991302723 25.8666598009015 7.10000000000007
   endloop
endfacet
facet normal -0.608761429008732 0.793353340291227 2.81052451133913e-015
   outer loop
      vertex 19.2386172178087 29.6886526743809 7.10000000000008
      vertex 14.2576991302723 25.8666598009015 12.1000000000001
      vertex 19.2386172178087 29.6886526743809 12.1000000000001
   endloop
endfacet
facet normal -4.52415882534751e-015 -7.92229258293228e-032 -1.0
   outer loop
      vertex 8.03310109555671 15.0853397480806 7.10000000000012
      vertex 55.3136172178088 8.86074171336506 7.0999999999999
      vertex 7.21361721780892 8.86074171336506 7.10000000000014
   endloop
endfacet
facet normal -4.52415882534751e-015 -7.92229258293228e-032 -1.0
   outer loop
      vertex 55.3136172178088 8.86074171336506 7.0999999999999
      vertex 8.03310109555671 15.0853397480806 7.10000000000012
      vertex 10.435706256793 20.8857417133652 7.10000000000012
   endloop
endfacet
facet normal -4.52415882534751e-015 -7.92229258293228e-032 -1.0
   outer loop
      vertex 55.3136172178088 8.86074171336506 7.0999999999999
      vertex 10.435706256793 20.8857417133652 7.10000000000012
      vertex 14.2576991302723 25.8666598009015 7.10000000000007
   endloop
endfacet
facet normal -4.52415882534751e-015 -7.92229258293228e-032 -1.0
   outer loop
      vertex 55.3136172178088 8.86074171336506 7.0999999999999
      vertex 14.2576991302723 25.8666598009015 7.10000000000007
      vertex 19.2386172178087 29.6886526743809 7.10000000000008
   endloop
endfacet
facet normal -4.52415882534751e-015 -7.92229258293228e-032 -1.0
   outer loop
      vertex 55.3136172178088 8.86074171336506 7.0999999999999
      vertex 19.2386172178087 29.6886526743809 7.10000000000008
      vertex 25.0390191830933 32.0912578356172 7.10000000000004
   endloop
endfacet
facet normal -4.52415882534751e-015 -7.92229258293228e-032 -1.0
   outer loop
      vertex 55.3136172178088 8.86074171336506 7.0999999999999
      vertex 25.0390191830933 32.0912578356172 7.10000000000004
      vertex 31.2636172178089 32.9107417133652 7.1
   endloop
endfacet
facet normal -4.52415882534751e-015 -7.92229258293228e-032 -1.0
   outer loop
      vertex 55.3136172178088 8.86074171336506 7.0999999999999
      vertex 31.2636172178089 32.9107417133652 7.1
      vertex 37.4882152525244 32.0912578356172 7.09999999999996
   endloop
endfacet
facet normal -4.52415882534751e-015 -7.92229258293228e-032 -1.0
   outer loop
      vertex 55.3136172178088 8.86074171336506 7.0999999999999
      vertex 37.4882152525244 32.0912578356172 7.09999999999996
      vertex 43.288617217809 29.6886526743809 7.09999999999996
   endloop
endfacet
facet normal -4.52415882534751e-015 -7.92229258293228e-032 -1.0
   outer loop
      vertex 55.3136172178088 8.86074171336506 7.0999999999999
      vertex 43.288617217809 29.6886526743809 7.09999999999996
      vertex 48.2695353053455 25.8666598009015 7.09999999999992
   endloop
endfacet
facet normal -4.52415882534751e-015 -7.92229258293228e-032 -1.0
   outer loop
      vertex 55.3136172178088 8.86074171336506 7.0999999999999
      vertex 48.2695353053455 25.8666598009015 7.09999999999992
      vertex 52.0915281788247 20.8857417133652 7.09999999999991
   endloop
endfacet
facet normal -4.52415882534751e-015 -7.92229258293228e-032 -1.0
   outer loop
      vertex 55.3136172178088 8.86074171336506 7.0999999999999
      vertex 52.0915281788247 20.8857417133652 7.09999999999991
      vertex 54.494133340061 15.0853397480806 7.09999999999991
   endloop
endfacet
facet normal 0.923879532511294 0.382683432365072 -4.19714062060481e-015
   outer loop
      vertex 52.0915281788247 20.8857417133652 7.09999999999991
      vertex 54.4941333400611 15.0853397480806 12.0999999999999
      vertex 54.494133340061 15.0853397480806 7.09999999999991
   endloop
endfacet
facet normal 0.923879532511294 0.382683432365072 -4.19714062060481e-015
   outer loop
      vertex 54.4941333400611 15.0853397480806 12.0999999999999
      vertex 52.0915281788247 20.8857417133652 7.09999999999991
      vertex 52.0915281788247 20.8857417133652 12.0999999999999
   endloop
endfacet
facet normal 0.608761429008733 0.793353340291226 -2.69950220887661e-015
   outer loop
      vertex 43.288617217809 29.6886526743809 7.09999999999996
      vertex 48.2695353053455 25.8666598009015 12.0999999999999
      vertex 48.2695353053455 25.8666598009015 7.09999999999992
   endloop
endfacet
facet normal 0.608761429008733 0.793353340291226 -2.69950220887661e-015
   outer loop
      vertex 48.2695353053455 25.8666598009015 12.0999999999999
      vertex 43.288617217809 29.6886526743809 7.09999999999996
      vertex 43.288617217809 29.6886526743809 12.1
   endloop
endfacet
facet normal -0.793353340291231 0.608761429008727 3.64448323062872e-015
   outer loop
      vertex 14.2576991302723 25.8666598009015 12.1000000000001
      vertex 10.435706256793 20.8857417133652 7.10000000000012
      vertex 10.435706256793 20.8857417133652 12.1000000000001
   endloop
endfacet
facet normal -0.793353340291231 0.608761429008727 3.64448323062872e-015
   outer loop
      vertex 10.435706256793 20.8857417133652 7.10000000000012
      vertex 14.2576991302723 25.8666598009015 12.1000000000001
      vertex 14.2576991302723 25.8666598009015 7.10000000000007
   endloop
endfacet
facet normal 0.130526192220061 0.991444861373809 -5.3184070826437e-016
   outer loop
      vertex 31.2636172178089 32.9107417133652 7.1
      vertex 37.4882152525244 32.0912578356172 12.1
      vertex 37.4882152525244 32.0912578356172 7.09999999999996
   endloop
endfacet
facet normal 0.130526192220061 0.991444861373809 -5.3184070826437e-016
   outer loop
      vertex 37.4882152525244 32.0912578356172 12.1
      vertex 31.2636172178089 32.9107417133652 7.1
      vertex 31.2636172178089 32.9107417133652 12.1
   endloop
endfacet
facet normal -0.382683432365104 0.923879532511281 1.71743355876104e-015
   outer loop
      vertex 24.238617217809 21.0283986365367 10.1000000000001
      vertex 27.6272096341184 22.4319995727267 12.1
      vertex 27.6272096341183 22.4319995727267 10.1
   endloop
endfacet
facet normal -0.382683432365104 0.923879532511281 1.71743355876104e-015
   outer loop
      vertex 27.6272096341184 22.4319995727267 12.1
      vertex 24.238617217809 21.0283986365367 10.1000000000001
      vertex 24.238617217809 21.0283986365367 12.1
   endloop
endfacet
endsolid spool holder 2 P-011
