solid bed A p1 P-022
facet normal -0.793353340291231 0.608761429008727 0.0
   outer loop
      vertex 19.0733295710904 3.21186646380121 7.8
      vertex 18.7952219815441 2.84942959672476 0.8
      vertex 18.7952219815441 2.84942959672476 7.8
   endloop
endfacet
facet normal -0.793353340291231 0.608761429008727 0.0
   outer loop
      vertex 18.7952219815441 2.84942959672476 0.8
      vertex 19.0733295710904 3.21186646380121 7.8
      vertex 19.0733295710904 3.21186646380121 0.8
   endloop
endfacet
facet normal -0.608761429008721 0.793353340291235 -0.0
   outer loop
      vertex 18.4327851144676 2.57132200717845 7.8
      vertex 18.7952219815441 2.84942959672476 0.8
      vertex 18.4327851144676 2.57132200717845 0.8
   endloop
endfacet
facet normal -0.608761429008721 0.793353340291235 -0.0
   outer loop
      vertex 18.7952219815441 2.84942959672476 0.8
      vertex 18.4327851144676 2.57132200717845 7.8
      vertex 18.7952219815441 2.84942959672476 7.8
   endloop
endfacet
facet normal -0.99144486137381 0.130526192220052 -2.01127007538853e-032
   outer loop
      vertex 6.40778511446761 4.08686646380122 7.8
      vertex 6.34815531047348 3.6339331348718 0.800000000000001
      vertex 6.34815531047348 3.6339331348718 7.8
   endloop
endfacet
facet normal -0.99144486137381 0.130526192220052 -2.01127007538853e-032
   outer loop
      vertex 6.34815531047348 3.6339331348718 0.800000000000001
      vertex 6.40778511446761 4.08686646380122 7.8
      vertex 6.40778511446761 4.08686646380122 0.800000000000001
   endloop
endfacet
facet normal -0.923879532511288 0.382683432365087 0.0
   outer loop
      vertex 6.34815531047348 3.6339331348718 7.8
      vertex 6.17332957109038 3.21186646380121 0.800000000000001
      vertex 6.17332957109038 3.21186646380121 7.8
   endloop
endfacet
facet normal -0.923879532511288 0.382683432365087 0.0
   outer loop
      vertex 6.17332957109038 3.21186646380121 0.800000000000001
      vertex 6.34815531047348 3.6339331348718 7.8
      vertex 6.34815531047348 3.6339331348718 0.800000000000001
   endloop
endfacet
facet normal -0.79335334029123 0.608761429008727 -1.13252626041022e-018
   outer loop
      vertex 6.17332957109038 3.21186646380121 7.8
      vertex 5.89522198154407 2.84942959672476 0.800000000000001
      vertex 5.89522198154407 2.84942959672476 7.8
   endloop
endfacet
facet normal -0.79335334029123 0.608761429008727 -1.13252626041022e-018
   outer loop
      vertex 5.89522198154407 2.84942959672476 0.800000000000001
      vertex 6.17332957109038 3.21186646380121 7.8
      vertex 6.17332957109038 3.21186646380121 0.800000000000001
   endloop
endfacet
facet normal -0.60876142900872 0.793353340291236 6.17474401712774e-033
   outer loop
      vertex 5.53278511446761 2.57132200717845 7.8
      vertex 5.89522198154407 2.84942959672476 0.800000000000001
      vertex 5.53278511446761 2.57132200717845 0.800000000000001
   endloop
endfacet
facet normal -0.60876142900872 0.793353340291236 6.17474401712774e-033
   outer loop
      vertex 5.89522198154407 2.84942959672476 0.800000000000001
      vertex 5.53278511446761 2.57132200717845 7.8
      vertex 5.89522198154407 2.84942959672476 7.8
   endloop
endfacet
facet normal -0.382683432365093 0.923879532511286 3.88160635981491e-033
   outer loop
      vertex 5.11071844339703 2.39649626779535 7.8
      vertex 5.53278511446761 2.57132200717845 0.800000000000001
      vertex 5.11071844339703 2.39649626779535 0.800000000000001
   endloop
endfacet
facet normal -0.382683432365093 0.923879532511286 3.88160635981491e-033
   outer loop
      vertex 5.53278511446761 2.57132200717845 0.800000000000001
      vertex 5.11071844339703 2.39649626779535 7.8
      vertex 5.53278511446761 2.57132200717845 7.8
   endloop
endfacet
facet normal 0.130526192220048 -0.991444861373811 -3.7265700628749e-019
   outer loop
      vertex 4.65778511446761 5.83686646380121 7.8
      vertex 4.2048517855382 5.77723665980708 0.800000000000001
      vertex 4.65778511446761 5.83686646380121 0.800000000000001
   endloop
endfacet
facet normal 0.130526192220048 -0.991444861373811 -3.7265700628749e-019
   outer loop
      vertex 4.2048517855382 5.77723665980708 0.800000000000001
      vertex 4.65778511446761 5.83686646380121 7.8
      vertex 4.2048517855382 5.77723665980708 7.8
   endloop
endfacet
facet normal -0.130526192220049 -0.991444861373811 -2.64788728747684e-033
   outer loop
      vertex 5.11071844339703 5.77723665980708 7.8
      vertex 4.65778511446761 5.83686646380121 0.800000000000001
      vertex 5.11071844339703 5.77723665980708 0.800000000000001
   endloop
endfacet
facet normal -0.130526192220049 -0.991444861373811 -2.64788728747684e-033
   outer loop
      vertex 4.65778511446761 5.83686646380121 0.800000000000001
      vertex 5.11071844339703 5.77723665980708 7.8
      vertex 4.65778511446761 5.83686646380121 7.8
   endloop
endfacet
facet normal 1.0 -0.0 -0.0
   outer loop
      vertex 7.15778511446762 7.83686646380121 6.8
      vertex 7.15778511446762 0.33686646380122 7.8
      vertex 7.15778511446762 0.33686646380122 6.8
   endloop
endfacet
facet normal 1.0 -0.0 -0.0
   outer loop
      vertex 7.15778511446762 0.33686646380122 7.8
      vertex 7.15778511446762 7.83686646380121 6.8
      vertex 7.15778511446762 7.83686646380121 7.8
   endloop
endfacet
facet normal -0.99144486137381 -0.130526192220053 -2.01127007538853e-032
   outer loop
      vertex 6.34815531047348 4.53979979273062 7.8
      vertex 6.40778511446761 4.08686646380122 0.800000000000001
      vertex 6.40778511446761 4.08686646380122 7.8
   endloop
endfacet
facet normal -0.99144486137381 -0.130526192220053 -2.01127007538853e-032
   outer loop
      vertex 6.40778511446761 4.08686646380122 0.800000000000001
      vertex 6.34815531047348 4.53979979273062 7.8
      vertex 6.34815531047348 4.53979979273062 0.800000000000001
   endloop
endfacet
facet normal -0.923879532511288 -0.382683432365087 6.59427381777003e-019
   outer loop
      vertex 6.17332957109038 4.96186646380121 7.8
      vertex 6.34815531047348 4.53979979273062 0.800000000000001
      vertex 6.34815531047348 4.53979979273062 7.8
   endloop
endfacet
facet normal -0.923879532511288 -0.382683432365087 6.59427381777003e-019
   outer loop
      vertex 6.34815531047348 4.53979979273062 0.800000000000001
      vertex 6.17332957109038 4.96186646380121 7.8
      vertex 6.17332957109038 4.96186646380121 0.800000000000001
   endloop
endfacet
facet normal -0.793353340291234 -0.608761429008722 -1.13252626041022e-018
   outer loop
      vertex 5.89522198154407 5.32430333087767 7.8
      vertex 6.17332957109038 4.96186646380121 0.800000000000001
      vertex 6.17332957109038 4.96186646380121 7.8
   endloop
endfacet
facet normal -0.793353340291234 -0.608761429008722 -1.13252626041022e-018
   outer loop
      vertex 6.17332957109038 4.96186646380121 0.800000000000001
      vertex 5.89522198154407 5.32430333087767 7.8
      vertex 5.89522198154407 5.32430333087767 0.800000000000001
   endloop
endfacet
facet normal -0.608761429008718 -0.793353340291237 -1.73803592841529e-018
   outer loop
      vertex 5.89522198154407 5.32430333087767 7.8
      vertex 5.53278511446761 5.60241092042398 0.800000000000001
      vertex 5.89522198154407 5.32430333087767 0.800000000000001
   endloop
endfacet
facet normal -0.608761429008718 -0.793353340291237 -1.73803592841529e-018
   outer loop
      vertex 5.53278511446761 5.60241092042398 0.800000000000001
      vertex 5.89522198154407 5.32430333087767 7.8
      vertex 5.53278511446761 5.60241092042398 7.8
   endloop
endfacet
facet normal -0.382683432365093 -0.923879532511285 0.0
   outer loop
      vertex 5.53278511446761 5.60241092042398 7.8
      vertex 5.11071844339703 5.77723665980708 0.800000000000001
      vertex 5.53278511446761 5.60241092042398 0.800000000000001
   endloop
endfacet
facet normal -0.382683432365093 -0.923879532511285 0.0
   outer loop
      vertex 5.11071844339703 5.77723665980708 0.800000000000001
      vertex 5.53278511446761 5.60241092042398 7.8
      vertex 5.11071844339703 5.77723665980708 7.8
   endloop
endfacet
facet normal 0.382683432365093 -0.923879532511285 0.0
   outer loop
      vertex 4.2048517855382 5.77723665980708 7.8
      vertex 3.78278511446761 5.60241092042398 0.800000000000001
      vertex 4.2048517855382 5.77723665980708 0.800000000000001
   endloop
endfacet
facet normal 0.382683432365093 -0.923879532511285 0.0
   outer loop
      vertex 3.78278511446761 5.60241092042398 0.800000000000001
      vertex 4.2048517855382 5.77723665980708 7.8
      vertex 3.78278511446761 5.60241092042398 7.8
   endloop
endfacet
facet normal 0.60876142900872 -0.793353340291236 -6.17474401712774e-033
   outer loop
      vertex 3.78278511446761 5.60241092042398 7.8
      vertex 3.42034824739116 5.32430333087767 0.800000000000001
      vertex 3.78278511446761 5.60241092042398 0.800000000000001
   endloop
endfacet
facet normal 0.60876142900872 -0.793353340291236 -6.17474401712774e-033
   outer loop
      vertex 3.42034824739116 5.32430333087767 0.800000000000001
      vertex 3.78278511446761 5.60241092042398 7.8
      vertex 3.42034824739116 5.32430333087767 7.8
   endloop
endfacet
facet normal 0.793353340291239 -0.608761429008716 1.13252626041023e-018
   outer loop
      vertex 3.42034824739116 5.32430333087767 0.800000000000001
      vertex 3.14224065784485 4.96186646380121 7.8
      vertex 3.14224065784485 4.96186646380121 0.800000000000001
   endloop
endfacet
facet normal 0.793353340291239 -0.608761429008716 1.13252626041023e-018
   outer loop
      vertex 3.14224065784485 4.96186646380121 7.8
      vertex 3.42034824739116 5.32430333087767 0.800000000000001
      vertex 3.42034824739116 5.32430333087767 7.8
   endloop
endfacet
facet normal 0.923879532511286 -0.382683432365091 6.59427381776978e-019
   outer loop
      vertex 3.14224065784485 4.96186646380121 0.800000000000001
      vertex 2.96741491846175 4.53979979273062 7.8
      vertex 2.96741491846175 4.53979979273062 0.800000000000001
   endloop
endfacet
facet normal 0.923879532511286 -0.382683432365091 6.59427381776978e-019
   outer loop
      vertex 2.96741491846175 4.53979979273062 7.8
      vertex 3.14224065784485 4.96186646380121 0.800000000000001
      vertex 3.14224065784485 4.96186646380121 7.8
   endloop
endfacet
facet normal 0.99144486137381 -0.130526192220052 5.02817518847131e-033
   outer loop
      vertex 2.96741491846175 4.53979979273062 0.800000000000001
      vertex 2.90778511446762 4.08686646380122 7.8
      vertex 2.90778511446762 4.08686646380122 0.800000000000001
   endloop
endfacet
facet normal 0.99144486137381 -0.130526192220052 5.02817518847131e-033
   outer loop
      vertex 2.90778511446762 4.08686646380122 7.8
      vertex 2.96741491846175 4.53979979273062 0.800000000000001
      vertex 2.96741491846175 4.53979979273062 7.8
   endloop
endfacet
facet normal 0.99144486137381 0.130526192220052 -0.0
   outer loop
      vertex 2.90778511446762 4.08686646380122 0.800000000000001
      vertex 2.96741491846175 3.6339331348718 7.8
      vertex 2.96741491846175 3.6339331348718 0.800000000000001
   endloop
endfacet
facet normal 0.99144486137381 0.130526192220052 -0.0
   outer loop
      vertex 2.96741491846175 3.6339331348718 7.8
      vertex 2.90778511446762 4.08686646380122 0.800000000000001
      vertex 2.90778511446762 4.08686646380122 7.8
   endloop
endfacet
facet normal 0.923879532511288 0.382683432365087 -0.0
   outer loop
      vertex 2.96741491846175 3.6339331348718 0.800000000000001
      vertex 3.14224065784485 3.21186646380121 7.8
      vertex 3.14224065784485 3.21186646380121 0.800000000000001
   endloop
endfacet
facet normal 0.923879532511288 0.382683432365087 -0.0
   outer loop
      vertex 3.14224065784485 3.21186646380121 7.8
      vertex 2.96741491846175 3.6339331348718 0.800000000000001
      vertex 2.96741491846175 3.6339331348718 7.8
   endloop
endfacet
facet normal 0.79335334029123 0.608761429008727 -1.13252626041022e-018
   outer loop
      vertex 3.14224065784485 3.21186646380121 0.800000000000001
      vertex 3.42034824739116 2.84942959672476 7.8
      vertex 3.42034824739116 2.84942959672476 0.800000000000001
   endloop
endfacet
facet normal 0.79335334029123 0.608761429008727 -1.13252626041022e-018
   outer loop
      vertex 3.42034824739116 2.84942959672476 7.8
      vertex 3.14224065784485 3.21186646380121 0.800000000000001
      vertex 3.14224065784485 3.21186646380121 7.8
   endloop
endfacet
facet normal 0.60876142900872 0.793353340291236 6.17474401712774e-033
   outer loop
      vertex 3.42034824739116 2.84942959672476 7.8
      vertex 3.78278511446762 2.57132200717845 0.800000000000001
      vertex 3.42034824739116 2.84942959672476 0.800000000000001
   endloop
endfacet
facet normal 0.60876142900872 0.793353340291236 6.17474401712774e-033
   outer loop
      vertex 3.78278511446762 2.57132200717845 0.800000000000001
      vertex 3.42034824739116 2.84942959672476 7.8
      vertex 3.78278511446762 2.57132200717845 7.8
   endloop
endfacet
facet normal 0.382683432365092 0.923879532511286 -0.0
   outer loop
      vertex 3.78278511446762 2.57132200717845 7.8
      vertex 4.2048517855382 2.39649626779535 0.800000000000001
      vertex 3.78278511446762 2.57132200717845 0.800000000000001
   endloop
endfacet
facet normal 0.382683432365092 0.923879532511286 -0.0
   outer loop
      vertex 4.2048517855382 2.39649626779535 0.800000000000001
      vertex 3.78278511446762 2.57132200717845 7.8
      vertex 4.2048517855382 2.39649626779535 7.8
   endloop
endfacet
facet normal 0.130526192220049 0.991444861373811 -2.64788728747684e-033
   outer loop
      vertex 4.2048517855382 2.39649626779535 7.8
      vertex 4.65778511446761 2.33686646380122 0.800000000000001
      vertex 4.2048517855382 2.39649626779535 0.800000000000001
   endloop
endfacet
facet normal 0.130526192220049 0.991444861373811 -2.64788728747684e-033
   outer loop
      vertex 4.65778511446761 2.33686646380122 0.800000000000001
      vertex 4.2048517855382 2.39649626779535 7.8
      vertex 4.65778511446761 2.33686646380122 7.8
   endloop
endfacet
facet normal -0.130526192220049 0.991444861373811 -1.32394364373842e-033
   outer loop
      vertex 4.65778511446761 2.33686646380122 7.8
      vertex 5.11071844339703 2.39649626779535 0.800000000000001
      vertex 4.65778511446761 2.33686646380122 0.800000000000001
   endloop
endfacet
facet normal -0.130526192220049 0.991444861373811 -1.32394364373842e-033
   outer loop
      vertex 5.11071844339703 2.39649626779535 0.800000000000001
      vertex 4.65778511446761 2.33686646380122 7.8
      vertex 5.11071844339703 2.39649626779535 7.8
   endloop
endfacet
facet normal -1.0 0.0 0.0
   outer loop
      vertex 15.0577851144676 7.83686646380121 7.8
      vertex 15.0577851144676 0.33686646380122 6.8
      vertex 15.0577851144676 0.33686646380122 7.8
   endloop
endfacet
facet normal -1.0 0.0 0.0
   outer loop
      vertex 15.0577851144676 0.33686646380122 6.8
      vertex 15.0577851144676 7.83686646380121 7.8
      vertex 15.0577851144676 7.83686646380121 6.8
   endloop
endfacet
facet normal -0.0 -0.0 1.0
   outer loop
      vertex 15.0577851144676 0.33686646380122 6.8
      vertex 7.15778511446762 7.83686646380121 6.8
      vertex 7.15778511446762 0.33686646380122 6.8
   endloop
endfacet
facet normal -0.0 -0.0 1.0
   outer loop
      vertex 7.15778511446762 7.83686646380121 6.8
      vertex 15.0577851144676 0.33686646380122 6.8
      vertex 15.0577851144676 7.83686646380121 6.8
   endloop
endfacet
facet normal -0.130526192220049 0.991444861373811 -0.0
   outer loop
      vertex 17.5577851144676 2.33686646380122 7.8
      vertex 18.010718443397 2.39649626779535 0.8
      vertex 17.5577851144676 2.33686646380122 0.8
   endloop
endfacet
facet normal -0.130526192220049 0.991444861373811 -0.0
   outer loop
      vertex 18.010718443397 2.39649626779535 0.8
      vertex 17.5577851144676 2.33686646380122 7.8
      vertex 18.010718443397 2.39649626779535 7.8
   endloop
endfacet
facet normal -0.0 -0.0 1.0
   outer loop
      vertex 0.357785114467615 0.33686646380122 7.8
      vertex 3.14224065784485 3.21186646380121 7.8
      vertex 0.357785114467615 7.83686646380121 7.8
   endloop
endfacet
facet normal -0.0 -0.0 1.0
   outer loop
      vertex 3.14224065784485 3.21186646380121 7.8
      vertex 0.357785114467615 0.33686646380122 7.8
      vertex 3.42034824739116 2.84942959672476 7.8
   endloop
endfacet
facet normal -0.0 -0.0 1.0
   outer loop
      vertex 3.42034824739116 2.84942959672476 7.8
      vertex 0.357785114467615 0.33686646380122 7.8
      vertex 3.78278511446762 2.57132200717845 7.8
   endloop
endfacet
facet normal -0.0 -0.0 1.0
   outer loop
      vertex 3.78278511446762 2.57132200717845 7.8
      vertex 0.357785114467615 0.33686646380122 7.8
      vertex 7.15778511446762 0.33686646380122 7.8
   endloop
endfacet
facet normal -0.0 -0.0 1.0
   outer loop
      vertex 0.357785114467615 7.83686646380121 7.8
      vertex 3.14224065784485 3.21186646380121 7.8
      vertex 2.96741491846175 3.6339331348718 7.8
   endloop
endfacet
facet normal -0.0 -0.0 1.0
   outer loop
      vertex 0.357785114467615 7.83686646380121 7.8
      vertex 2.96741491846175 3.6339331348718 7.8
      vertex 2.90778511446762 4.08686646380122 7.8
   endloop
endfacet
facet normal -0.0 -0.0 1.0
   outer loop
      vertex 3.78278511446762 2.57132200717845 7.8
      vertex 7.15778511446762 0.33686646380122 7.8
      vertex 4.2048517855382 2.39649626779535 7.8
   endloop
endfacet
facet normal -0.0 -0.0 1.0
   outer loop
      vertex 4.2048517855382 2.39649626779535 7.8
      vertex 7.15778511446762 0.33686646380122 7.8
      vertex 4.65778511446761 2.33686646380122 7.8
   endloop
endfacet
facet normal -0.0 -0.0 1.0
   outer loop
      vertex 4.65778511446761 2.33686646380122 7.8
      vertex 7.15778511446762 0.33686646380122 7.8
      vertex 5.11071844339703 2.39649626779535 7.8
   endloop
endfacet
facet normal -0.0 -0.0 1.0
   outer loop
      vertex 5.11071844339703 2.39649626779535 7.8
      vertex 7.15778511446762 0.33686646380122 7.8
      vertex 5.53278511446761 2.57132200717845 7.8
   endloop
endfacet
facet normal -0.0 -0.0 1.0
   outer loop
      vertex 5.53278511446761 2.57132200717845 7.8
      vertex 7.15778511446762 0.33686646380122 7.8
      vertex 5.89522198154407 2.84942959672476 7.8
   endloop
endfacet
facet normal -0.0 -0.0 1.0
   outer loop
      vertex 5.89522198154407 2.84942959672476 7.8
      vertex 7.15778511446762 0.33686646380122 7.8
      vertex 6.17332957109038 3.21186646380121 7.8
   endloop
endfacet
facet normal -0.0 -0.0 1.0
   outer loop
      vertex 6.17332957109038 3.21186646380121 7.8
      vertex 7.15778511446762 0.33686646380122 7.8
      vertex 6.34815531047348 3.6339331348718 7.8
   endloop
endfacet
facet normal -0.0 -0.0 1.0
   outer loop
      vertex 6.34815531047348 3.6339331348718 7.8
      vertex 7.15778511446762 0.33686646380122 7.8
      vertex 6.40778511446761 4.08686646380122 7.8
   endloop
endfacet
facet normal -0.0 -0.0 1.0
   outer loop
      vertex 0.357785114467615 7.83686646380121 7.8
      vertex 3.78278511446761 5.60241092042398 7.8
      vertex 7.15778511446762 7.83686646380121 7.8
   endloop
endfacet
facet normal -0.0 -0.0 1.0
   outer loop
      vertex 3.78278511446761 5.60241092042398 7.8
      vertex 0.357785114467615 7.83686646380121 7.8
      vertex 3.42034824739116 5.32430333087767 7.8
   endloop
endfacet
facet normal -0.0 -0.0 1.0
   outer loop
      vertex 3.42034824739116 5.32430333087767 7.8
      vertex 0.357785114467615 7.83686646380121 7.8
      vertex 3.14224065784485 4.96186646380121 7.8
   endloop
endfacet
facet normal -0.0 -0.0 1.0
   outer loop
      vertex 3.14224065784485 4.96186646380121 7.8
      vertex 0.357785114467615 7.83686646380121 7.8
      vertex 2.96741491846175 4.53979979273062 7.8
   endloop
endfacet
facet normal -0.0 -0.0 1.0
   outer loop
      vertex 2.96741491846175 4.53979979273062 7.8
      vertex 0.357785114467615 7.83686646380121 7.8
      vertex 2.90778511446762 4.08686646380122 7.8
   endloop
endfacet
facet normal -0.0 -0.0 1.0
   outer loop
      vertex 7.15778511446762 7.83686646380121 7.8
      vertex 3.78278511446761 5.60241092042398 7.8
      vertex 4.2048517855382 5.77723665980708 7.8
   endloop
endfacet
facet normal -0.0 -0.0 1.0
   outer loop
      vertex 7.15778511446762 7.83686646380121 7.8
      vertex 4.2048517855382 5.77723665980708 7.8
      vertex 4.65778511446761 5.83686646380121 7.8
   endloop
endfacet
facet normal -0.0 -0.0 1.0
   outer loop
      vertex 7.15778511446762 7.83686646380121 7.8
      vertex 4.65778511446761 5.83686646380121 7.8
      vertex 5.11071844339703 5.77723665980708 7.8
   endloop
endfacet
facet normal -0.0 -0.0 1.0
   outer loop
      vertex 7.15778511446762 7.83686646380121 7.8
      vertex 5.11071844339703 5.77723665980708 7.8
      vertex 5.53278511446761 5.60241092042398 7.8
   endloop
endfacet
facet normal -0.0 -0.0 1.0
   outer loop
      vertex 7.15778511446762 7.83686646380121 7.8
      vertex 5.53278511446761 5.60241092042398 7.8
      vertex 5.89522198154407 5.32430333087767 7.8
   endloop
endfacet
facet normal -0.0 -0.0 1.0
   outer loop
      vertex 7.15778511446762 7.83686646380121 7.8
      vertex 5.89522198154407 5.32430333087767 7.8
      vertex 6.17332957109038 4.96186646380121 7.8
   endloop
endfacet
facet normal -0.0 -0.0 1.0
   outer loop
      vertex 7.15778511446762 7.83686646380121 7.8
      vertex 6.17332957109038 4.96186646380121 7.8
      vertex 6.34815531047348 4.53979979273062 7.8
   endloop
endfacet
facet normal -0.0 -0.0 1.0
   outer loop
      vertex 7.15778511446762 7.83686646380121 7.8
      vertex 6.34815531047348 4.53979979273062 7.8
      vertex 6.40778511446761 4.08686646380122 7.8
   endloop
endfacet
facet normal -0.0 -0.0 1.0
   outer loop
      vertex 7.15778511446762 7.83686646380121 7.8
      vertex 6.40778511446761 4.08686646380122 7.8
      vertex 7.15778511446762 0.33686646380122 7.8
   endloop
endfacet
facet normal 0.0 0.0 -1.0
   outer loop
      vertex 0.357785114467615 7.83686646380121 0.8
      vertex 3.14224065784485 4.96186646380121 0.800000000000001
      vertex 0.357785114467615 0.33686646380122 0.8
   endloop
endfacet
facet normal 0.0 0.0 -1.0
   outer loop
      vertex 3.14224065784485 4.96186646380121 0.800000000000001
      vertex 0.357785114467615 7.83686646380121 0.8
      vertex 3.42034824739116 5.32430333087767 0.800000000000001
   endloop
endfacet
facet normal 0.0 0.0 -1.0
   outer loop
      vertex 3.42034824739116 5.32430333087767 0.800000000000001
      vertex 0.357785114467615 7.83686646380121 0.8
      vertex 3.78278511446761 5.60241092042398 0.800000000000001
   endloop
endfacet
facet normal 0.0 0.0 -1.0
   outer loop
      vertex 3.78278511446761 5.60241092042398 0.800000000000001
      vertex 0.357785114467615 7.83686646380121 0.8
      vertex 4.2048517855382 5.77723665980708 0.800000000000001
   endloop
endfacet
facet normal 0.0 0.0 -1.0
   outer loop
      vertex 4.2048517855382 5.77723665980708 0.800000000000001
      vertex 0.357785114467615 7.83686646380121 0.8
      vertex 4.65778511446761 5.83686646380121 0.800000000000001
   endloop
endfacet
facet normal 0.0 0.0 -1.0
   outer loop
      vertex 4.65778511446761 5.83686646380121 0.800000000000001
      vertex 0.357785114467615 7.83686646380121 0.8
      vertex 21.8577851144676 7.83686646380121 0.8
   endloop
endfacet
facet normal 0.0 0.0 -1.0
   outer loop
      vertex 0.357785114467615 0.33686646380122 0.8
      vertex 3.14224065784485 4.96186646380121 0.800000000000001
      vertex 2.96741491846175 4.53979979273062 0.800000000000001
   endloop
endfacet
facet normal 0.0 0.0 -1.0
   outer loop
      vertex 0.357785114467615 0.33686646380122 0.8
      vertex 2.96741491846175 4.53979979273062 0.800000000000001
      vertex 2.90778511446762 4.08686646380122 0.800000000000001
   endloop
endfacet
facet normal 0.0 0.0 -1.0
   outer loop
      vertex 4.65778511446761 5.83686646380121 0.800000000000001
      vertex 21.8577851144676 7.83686646380121 0.8
      vertex 5.11071844339703 5.77723665980708 0.800000000000001
   endloop
endfacet
facet normal 0.0 0.0 -1.0
   outer loop
      vertex 5.11071844339703 5.77723665980708 0.800000000000001
      vertex 21.8577851144676 7.83686646380121 0.8
      vertex 5.53278511446761 5.60241092042398 0.800000000000001
   endloop
endfacet
facet normal 0.0 0.0 -1.0
   outer loop
      vertex 5.53278511446761 5.60241092042398 0.800000000000001
      vertex 21.8577851144676 7.83686646380121 0.8
      vertex 5.89522198154407 5.32430333087767 0.800000000000001
   endloop
endfacet
facet normal 0.0 0.0 -1.0
   outer loop
      vertex 5.89522198154407 5.32430333087767 0.800000000000001
      vertex 21.8577851144676 7.83686646380121 0.8
      vertex 6.17332957109038 4.96186646380121 0.800000000000001
   endloop
endfacet
facet normal 0.0 0.0 -1.0
   outer loop
      vertex 6.17332957109038 4.96186646380121 0.800000000000001
      vertex 21.8577851144676 7.83686646380121 0.8
      vertex 6.34815531047348 4.53979979273062 0.800000000000001
   endloop
endfacet
facet normal 0.0 0.0 -1.0
   outer loop
      vertex 6.34815531047348 4.53979979273062 0.800000000000001
      vertex 21.8577851144676 7.83686646380121 0.8
      vertex 6.40778511446761 4.08686646380122 0.800000000000001
   endloop
endfacet
facet normal 0.0 0.0 -1.0
   outer loop
      vertex 6.40778511446761 4.08686646380122 0.800000000000001
      vertex 21.8577851144676 7.83686646380121 0.8
      vertex 16.6827851144676 5.60241092042398 0.8
   endloop
endfacet
facet normal 0.0 0.0 -1.0
   outer loop
      vertex 6.40778511446761 4.08686646380122 0.800000000000001
      vertex 16.6827851144676 5.60241092042398 0.8
      vertex 16.3203482473912 5.32430333087767 0.8
   endloop
endfacet
facet normal 0.0 0.0 -1.0
   outer loop
      vertex 6.40778511446761 4.08686646380122 0.800000000000001
      vertex 16.3203482473912 5.32430333087767 0.8
      vertex 16.0422406578449 4.96186646380121 0.8
   endloop
endfacet
facet normal 0.0 0.0 -1.0
   outer loop
      vertex 6.40778511446761 4.08686646380122 0.800000000000001
      vertex 16.0422406578449 4.96186646380121 0.8
      vertex 15.8674149184617 4.53979979273062 0.8
   endloop
endfacet
facet normal 0.0 0.0 -1.0
   outer loop
      vertex 6.40778511446761 4.08686646380122 0.800000000000001
      vertex 15.8674149184617 4.53979979273062 0.8
      vertex 15.8077851144676 4.08686646380122 0.8
   endloop
endfacet
facet normal 0.0 0.0 -1.0
   outer loop
      vertex 16.6827851144676 5.60241092042398 0.8
      vertex 21.8577851144676 7.83686646380121 0.8
      vertex 17.1048517855382 5.77723665980708 0.8
   endloop
endfacet
facet normal 0.0 0.0 -1.0
   outer loop
      vertex 17.1048517855382 5.77723665980708 0.8
      vertex 21.8577851144676 7.83686646380121 0.8
      vertex 17.5577851144676 5.83686646380121 0.8
   endloop
endfacet
facet normal 0.0 0.0 -1.0
   outer loop
      vertex 17.5577851144676 5.83686646380121 0.8
      vertex 21.8577851144676 7.83686646380121 0.8
      vertex 18.010718443397 5.77723665980708 0.8
   endloop
endfacet
facet normal 0.0 0.0 -1.0
   outer loop
      vertex 18.010718443397 5.77723665980708 0.8
      vertex 21.8577851144676 7.83686646380121 0.8
      vertex 18.4327851144676 5.60241092042398 0.8
   endloop
endfacet
facet normal 0.0 0.0 -1.0
   outer loop
      vertex 18.4327851144676 5.60241092042398 0.8
      vertex 21.8577851144676 7.83686646380121 0.8
      vertex 18.7952219815441 5.32430333087767 0.8
   endloop
endfacet
facet normal 0.0 0.0 -1.0
   outer loop
      vertex 18.7952219815441 5.32430333087767 0.8
      vertex 21.8577851144676 7.83686646380121 0.8
      vertex 19.0733295710904 4.96186646380121 0.8
   endloop
endfacet
facet normal 0.0 0.0 -1.0
   outer loop
      vertex 19.0733295710904 4.96186646380121 0.8
      vertex 21.8577851144676 7.83686646380121 0.8
      vertex 19.2481553104735 4.53979979273062 0.8
   endloop
endfacet
facet normal 0.0 0.0 -1.0
   outer loop
      vertex 19.2481553104735 4.53979979273062 0.8
      vertex 21.8577851144676 7.83686646380121 0.8
      vertex 19.3077851144676 4.08686646380122 0.8
   endloop
endfacet
facet normal 0.0 0.0 -1.0
   outer loop
      vertex 0.357785114467615 0.33686646380122 0.8
      vertex 4.65778511446761 2.33686646380122 0.800000000000001
      vertex 21.8577851144676 0.33686646380122 0.8
   endloop
endfacet
facet normal 0.0 0.0 -1.0
   outer loop
      vertex 4.65778511446761 2.33686646380122 0.800000000000001
      vertex 0.357785114467615 0.33686646380122 0.8
      vertex 4.2048517855382 2.39649626779535 0.800000000000001
   endloop
endfacet
facet normal 0.0 0.0 -1.0
   outer loop
      vertex 4.2048517855382 2.39649626779535 0.800000000000001
      vertex 0.357785114467615 0.33686646380122 0.8
      vertex 3.78278511446762 2.57132200717845 0.800000000000001
   endloop
endfacet
facet normal 0.0 0.0 -1.0
   outer loop
      vertex 3.78278511446762 2.57132200717845 0.800000000000001
      vertex 0.357785114467615 0.33686646380122 0.8
      vertex 3.42034824739116 2.84942959672476 0.800000000000001
   endloop
endfacet
facet normal 0.0 0.0 -1.0
   outer loop
      vertex 3.42034824739116 2.84942959672476 0.800000000000001
      vertex 0.357785114467615 0.33686646380122 0.8
      vertex 3.14224065784485 3.21186646380121 0.800000000000001
   endloop
endfacet
facet normal 0.0 0.0 -1.0
   outer loop
      vertex 3.14224065784485 3.21186646380121 0.800000000000001
      vertex 0.357785114467615 0.33686646380122 0.8
      vertex 2.96741491846175 3.6339331348718 0.800000000000001
   endloop
endfacet
facet normal 0.0 0.0 -1.0
   outer loop
      vertex 2.96741491846175 3.6339331348718 0.800000000000001
      vertex 0.357785114467615 0.33686646380122 0.8
      vertex 2.90778511446762 4.08686646380122 0.800000000000001
   endloop
endfacet
facet normal 0.0 0.0 -1.0
   outer loop
      vertex 21.8577851144676 0.33686646380122 0.8
      vertex 4.65778511446761 2.33686646380122 0.800000000000001
      vertex 5.11071844339703 2.39649626779535 0.800000000000001
   endloop
endfacet
facet normal 0.0 0.0 -1.0
   outer loop
      vertex 21.8577851144676 0.33686646380122 0.8
      vertex 5.11071844339703 2.39649626779535 0.800000000000001
      vertex 5.53278511446761 2.57132200717845 0.800000000000001
   endloop
endfacet
facet normal 0.0 0.0 -1.0
   outer loop
      vertex 21.8577851144676 0.33686646380122 0.8
      vertex 5.53278511446761 2.57132200717845 0.800000000000001
      vertex 5.89522198154407 2.84942959672476 0.800000000000001
   endloop
endfacet
facet normal 0.0 0.0 -1.0
   outer loop
      vertex 21.8577851144676 0.33686646380122 0.8
      vertex 5.89522198154407 2.84942959672476 0.800000000000001
      vertex 6.17332957109038 3.21186646380121 0.800000000000001
   endloop
endfacet
facet normal 0.0 0.0 -1.0
   outer loop
      vertex 21.8577851144676 0.33686646380122 0.8
      vertex 6.17332957109038 3.21186646380121 0.800000000000001
      vertex 6.34815531047348 3.6339331348718 0.800000000000001
   endloop
endfacet
facet normal 0.0 0.0 -1.0
   outer loop
      vertex 21.8577851144676 0.33686646380122 0.8
      vertex 6.34815531047348 3.6339331348718 0.800000000000001
      vertex 6.40778511446761 4.08686646380122 0.800000000000001
   endloop
endfacet
facet normal 0.0 0.0 -1.0
   outer loop
      vertex 21.8577851144676 0.33686646380122 0.8
      vertex 6.40778511446761 4.08686646380122 0.800000000000001
      vertex 16.6827851144676 2.57132200717845 0.8
   endloop
endfacet
facet normal 0.0 0.0 -1.0
   outer loop
      vertex 16.6827851144676 2.57132200717845 0.8
      vertex 6.40778511446761 4.08686646380122 0.800000000000001
      vertex 16.3203482473912 2.84942959672476 0.8
   endloop
endfacet
facet normal 0.0 0.0 -1.0
   outer loop
      vertex 16.3203482473912 2.84942959672476 0.8
      vertex 6.40778511446761 4.08686646380122 0.800000000000001
      vertex 16.0422406578449 3.21186646380121 0.8
   endloop
endfacet
facet normal 0.0 0.0 -1.0
   outer loop
      vertex 16.0422406578449 3.21186646380121 0.8
      vertex 6.40778511446761 4.08686646380122 0.800000000000001
      vertex 15.8674149184617 3.6339331348718 0.8
   endloop
endfacet
facet normal 0.0 0.0 -1.0
   outer loop
      vertex 15.8674149184617 3.6339331348718 0.8
      vertex 6.40778511446761 4.08686646380122 0.800000000000001
      vertex 15.8077851144676 4.08686646380122 0.8
   endloop
endfacet
facet normal 0.0 0.0 -1.0
   outer loop
      vertex 21.8577851144676 0.33686646380122 0.8
      vertex 16.6827851144676 2.57132200717845 0.8
      vertex 17.1048517855382 2.39649626779535 0.8
   endloop
endfacet
facet normal 0.0 0.0 -1.0
   outer loop
      vertex 21.8577851144676 0.33686646380122 0.8
      vertex 17.1048517855382 2.39649626779535 0.8
      vertex 17.5577851144676 2.33686646380122 0.8
   endloop
endfacet
facet normal 0.0 0.0 -1.0
   outer loop
      vertex 21.8577851144676 0.33686646380122 0.8
      vertex 17.5577851144676 2.33686646380122 0.8
      vertex 18.010718443397 2.39649626779535 0.8
   endloop
endfacet
facet normal 0.0 0.0 -1.0
   outer loop
      vertex 21.8577851144676 0.33686646380122 0.8
      vertex 18.010718443397 2.39649626779535 0.8
      vertex 18.4327851144676 2.57132200717845 0.8
   endloop
endfacet
facet normal 0.0 0.0 -1.0
   outer loop
      vertex 21.8577851144676 0.33686646380122 0.8
      vertex 18.4327851144676 2.57132200717845 0.8
      vertex 18.7952219815441 2.84942959672476 0.8
   endloop
endfacet
facet normal 0.0 0.0 -1.0
   outer loop
      vertex 21.8577851144676 0.33686646380122 0.8
      vertex 18.7952219815441 2.84942959672476 0.8
      vertex 19.0733295710904 3.21186646380121 0.8
   endloop
endfacet
facet normal 0.0 0.0 -1.0
   outer loop
      vertex 21.8577851144676 0.33686646380122 0.8
      vertex 19.0733295710904 3.21186646380121 0.8
      vertex 19.2481553104735 3.6339331348718 0.8
   endloop
endfacet
facet normal 0.0 0.0 -1.0
   outer loop
      vertex 21.8577851144676 0.33686646380122 0.8
      vertex 19.2481553104735 3.6339331348718 0.8
      vertex 19.3077851144676 4.08686646380122 0.8
   endloop
endfacet
facet normal 0.0 0.0 -1.0
   outer loop
      vertex 21.8577851144676 0.33686646380122 0.8
      vertex 19.3077851144676 4.08686646380122 0.8
      vertex 21.8577851144676 7.83686646380121 0.8
   endloop
endfacet
facet normal -1.0 0.0 0.0
   outer loop
      vertex 0.357785114467615 7.83686646380121 7.8
      vertex 0.357785114467615 0.33686646380122 0.8
      vertex 0.357785114467615 0.33686646380122 7.8
   endloop
endfacet
facet normal -1.0 0.0 0.0
   outer loop
      vertex 0.357785114467615 0.33686646380122 0.8
      vertex 0.357785114467615 7.83686646380121 7.8
      vertex 0.357785114467615 7.83686646380121 0.8
   endloop
endfacet
facet normal 0.0 -1.0 0.0
   outer loop
      vertex 21.8577851144676 0.33686646380122 7.8
      vertex 0.357785114467615 0.33686646380122 0.8
      vertex 21.8577851144676 0.33686646380122 0.8
   endloop
endfacet
facet normal 0.0 -1.0 0.0
   outer loop
      vertex 0.357785114467615 0.33686646380122 0.8
      vertex 21.8577851144676 0.33686646380122 7.8
      vertex 15.0577851144676 0.33686646380122 6.8
   endloop
endfacet
facet normal 0.0 -1.0 0.0
   outer loop
      vertex 15.0577851144676 0.33686646380122 6.8
      vertex 21.8577851144676 0.33686646380122 7.8
      vertex 15.0577851144676 0.33686646380122 7.8
   endloop
endfacet
facet normal 0.0 -1.0 0.0
   outer loop
      vertex 0.357785114467615 0.33686646380122 0.8
      vertex 7.15778511446762 0.33686646380122 6.8
      vertex 0.357785114467615 0.33686646380122 7.8
   endloop
endfacet
facet normal 0.0 -1.0 0.0
   outer loop
      vertex 7.15778511446762 0.33686646380122 6.8
      vertex 0.357785114467615 0.33686646380122 0.8
      vertex 15.0577851144676 0.33686646380122 6.8
   endloop
endfacet
facet normal 0.0 -1.0 0.0
   outer loop
      vertex 0.357785114467615 0.33686646380122 7.8
      vertex 7.15778511446762 0.33686646380122 6.8
      vertex 7.15778511446762 0.33686646380122 7.8
   endloop
endfacet
facet normal -0.0 -0.0 1.0
   outer loop
      vertex 15.0577851144676 0.33686646380122 7.8
      vertex 15.8674149184617 3.6339331348718 7.8
      vertex 15.0577851144676 7.83686646380121 7.8
   endloop
endfacet
facet normal -0.0 -0.0 1.0
   outer loop
      vertex 15.8674149184617 3.6339331348718 7.8
      vertex 15.0577851144676 0.33686646380122 7.8
      vertex 16.0422406578449 3.21186646380121 7.8
   endloop
endfacet
facet normal -0.0 -0.0 1.0
   outer loop
      vertex 16.0422406578449 3.21186646380121 7.8
      vertex 15.0577851144676 0.33686646380122 7.8
      vertex 16.3203482473912 2.84942959672476 7.8
   endloop
endfacet
facet normal -0.0 -0.0 1.0
   outer loop
      vertex 16.3203482473912 2.84942959672476 7.8
      vertex 15.0577851144676 0.33686646380122 7.8
      vertex 16.6827851144676 2.57132200717845 7.8
   endloop
endfacet
facet normal -0.0 -0.0 1.0
   outer loop
      vertex 16.6827851144676 2.57132200717845 7.8
      vertex 15.0577851144676 0.33686646380122 7.8
      vertex 21.8577851144676 0.33686646380122 7.8
   endloop
endfacet
facet normal -0.0 -0.0 1.0
   outer loop
      vertex 15.0577851144676 7.83686646380121 7.8
      vertex 15.8674149184617 3.6339331348718 7.8
      vertex 15.8077851144676 4.08686646380122 7.8
   endloop
endfacet
facet normal -0.0 -0.0 1.0
   outer loop
      vertex 16.6827851144676 2.57132200717845 7.8
      vertex 21.8577851144676 0.33686646380122 7.8
      vertex 17.1048517855382 2.39649626779535 7.8
   endloop
endfacet
facet normal -0.0 -0.0 1.0
   outer loop
      vertex 17.1048517855382 2.39649626779535 7.8
      vertex 21.8577851144676 0.33686646380122 7.8
      vertex 17.5577851144676 2.33686646380122 7.8
   endloop
endfacet
facet normal -0.0 -0.0 1.0
   outer loop
      vertex 17.5577851144676 2.33686646380122 7.8
      vertex 21.8577851144676 0.33686646380122 7.8
      vertex 18.010718443397 2.39649626779535 7.8
   endloop
endfacet
facet normal -0.0 -0.0 1.0
   outer loop
      vertex 18.010718443397 2.39649626779535 7.8
      vertex 21.8577851144676 0.33686646380122 7.8
      vertex 18.4327851144676 2.57132200717845 7.8
   endloop
endfacet
facet normal -0.0 -0.0 1.0
   outer loop
      vertex 18.4327851144676 2.57132200717845 7.8
      vertex 21.8577851144676 0.33686646380122 7.8
      vertex 18.7952219815441 2.84942959672476 7.8
   endloop
endfacet
facet normal -0.0 -0.0 1.0
   outer loop
      vertex 18.7952219815441 2.84942959672476 7.8
      vertex 21.8577851144676 0.33686646380122 7.8
      vertex 19.0733295710904 3.21186646380121 7.8
   endloop
endfacet
facet normal -0.0 -0.0 1.0
   outer loop
      vertex 19.0733295710904 3.21186646380121 7.8
      vertex 21.8577851144676 0.33686646380122 7.8
      vertex 19.2481553104735 3.6339331348718 7.8
   endloop
endfacet
facet normal -0.0 -0.0 1.0
   outer loop
      vertex 19.2481553104735 3.6339331348718 7.8
      vertex 21.8577851144676 0.33686646380122 7.8
      vertex 19.3077851144676 4.08686646380122 7.8
   endloop
endfacet
facet normal -0.0 -0.0 1.0
   outer loop
      vertex 15.0577851144676 7.83686646380121 7.8
      vertex 16.6827851144676 5.60241092042398 7.8
      vertex 21.8577851144676 7.83686646380121 7.8
   endloop
endfacet
facet normal -0.0 -0.0 1.0
   outer loop
      vertex 16.6827851144676 5.60241092042398 7.8
      vertex 15.0577851144676 7.83686646380121 7.8
      vertex 16.3203482473912 5.32430333087767 7.8
   endloop
endfacet
facet normal -0.0 -0.0 1.0
   outer loop
      vertex 16.3203482473912 5.32430333087767 7.8
      vertex 15.0577851144676 7.83686646380121 7.8
      vertex 16.0422406578449 4.96186646380121 7.8
   endloop
endfacet
facet normal -0.0 -0.0 1.0
   outer loop
      vertex 16.0422406578449 4.96186646380121 7.8
      vertex 15.0577851144676 7.83686646380121 7.8
      vertex 15.8674149184617 4.53979979273062 7.8
   endloop
endfacet
facet normal -0.0 -0.0 1.0
   outer loop
      vertex 15.8674149184617 4.53979979273062 7.8
      vertex 15.0577851144676 7.83686646380121 7.8
      vertex 15.8077851144676 4.08686646380122 7.8
   endloop
endfacet
facet normal -0.0 -0.0 1.0
   outer loop
      vertex 21.8577851144676 7.83686646380121 7.8
      vertex 16.6827851144676 5.60241092042398 7.8
      vertex 17.1048517855382 5.77723665980708 7.8
   endloop
endfacet
facet normal -0.0 -0.0 1.0
   outer loop
      vertex 21.8577851144676 7.83686646380121 7.8
      vertex 17.1048517855382 5.77723665980708 7.8
      vertex 17.5577851144676 5.83686646380121 7.8
   endloop
endfacet
facet normal -0.0 -0.0 1.0
   outer loop
      vertex 21.8577851144676 7.83686646380121 7.8
      vertex 17.5577851144676 5.83686646380121 7.8
      vertex 18.010718443397 5.77723665980708 7.8
   endloop
endfacet
facet normal -0.0 -0.0 1.0
   outer loop
      vertex 21.8577851144676 7.83686646380121 7.8
      vertex 18.010718443397 5.77723665980708 7.8
      vertex 18.4327851144676 5.60241092042398 7.8
   endloop
endfacet
facet normal -0.0 -0.0 1.0
   outer loop
      vertex 21.8577851144676 7.83686646380121 7.8
      vertex 18.4327851144676 5.60241092042398 7.8
      vertex 18.7952219815441 5.32430333087767 7.8
   endloop
endfacet
facet normal -0.0 -0.0 1.0
   outer loop
      vertex 21.8577851144676 7.83686646380121 7.8
      vertex 18.7952219815441 5.32430333087767 7.8
      vertex 19.0733295710904 4.96186646380121 7.8
   endloop
endfacet
facet normal -0.0 -0.0 1.0
   outer loop
      vertex 21.8577851144676 7.83686646380121 7.8
      vertex 19.0733295710904 4.96186646380121 7.8
      vertex 19.2481553104735 4.53979979273062 7.8
   endloop
endfacet
facet normal -0.0 -0.0 1.0
   outer loop
      vertex 21.8577851144676 7.83686646380121 7.8
      vertex 19.2481553104735 4.53979979273062 7.8
      vertex 19.3077851144676 4.08686646380122 7.8
   endloop
endfacet
facet normal -0.0 -0.0 1.0
   outer loop
      vertex 21.8577851144676 7.83686646380121 7.8
      vertex 19.3077851144676 4.08686646380122 7.8
      vertex 21.8577851144676 0.33686646380122 7.8
   endloop
endfacet
facet normal -0.0 1.0 -0.0
   outer loop
      vertex 0.357785114467615 7.83686646380121 7.8
      vertex 21.8577851144676 7.83686646380121 0.8
      vertex 0.357785114467615 7.83686646380121 0.8
   endloop
endfacet
facet normal -0.0 1.0 -0.0
   outer loop
      vertex 21.8577851144676 7.83686646380121 0.8
      vertex 0.357785114467615 7.83686646380121 7.8
      vertex 7.15778511446762 7.83686646380121 6.8
   endloop
endfacet
facet normal -0.0 1.0 -0.0
   outer loop
      vertex 7.15778511446762 7.83686646380121 6.8
      vertex 0.357785114467615 7.83686646380121 7.8
      vertex 7.15778511446762 7.83686646380121 7.8
   endloop
endfacet
facet normal -0.0 1.0 -0.0
   outer loop
      vertex 21.8577851144676 7.83686646380121 0.8
      vertex 15.0577851144676 7.83686646380121 6.8
      vertex 21.8577851144676 7.83686646380121 7.8
   endloop
endfacet
facet normal -0.0 1.0 -0.0
   outer loop
      vertex 15.0577851144676 7.83686646380121 6.8
      vertex 21.8577851144676 7.83686646380121 0.8
      vertex 7.15778511446762 7.83686646380121 6.8
   endloop
endfacet
facet normal -0.0 1.0 -0.0
   outer loop
      vertex 21.8577851144676 7.83686646380121 7.8
      vertex 15.0577851144676 7.83686646380121 6.8
      vertex 15.0577851144676 7.83686646380121 7.8
   endloop
endfacet
facet normal 1.0 -0.0 -0.0
   outer loop
      vertex 21.8577851144676 7.83686646380121 0.8
      vertex 21.8577851144676 0.33686646380122 7.8
      vertex 21.8577851144676 0.33686646380122 0.8
   endloop
endfacet
facet normal 1.0 -0.0 -0.0
   outer loop
      vertex 21.8577851144676 0.33686646380122 7.8
      vertex 21.8577851144676 7.83686646380121 0.8
      vertex 21.8577851144676 7.83686646380121 7.8
   endloop
endfacet
facet normal -0.991444861373809 0.130526192220061 0.0
   outer loop
      vertex 19.3077851144676 4.08686646380122 7.8
      vertex 19.2481553104735 3.6339331348718 0.8
      vertex 19.2481553104735 3.6339331348718 7.8
   endloop
endfacet
facet normal -0.991444861373809 0.130526192220061 0.0
   outer loop
      vertex 19.2481553104735 3.6339331348718 0.8
      vertex 19.3077851144676 4.08686646380122 7.8
      vertex 19.3077851144676 4.08686646380122 0.8
   endloop
endfacet
facet normal -0.793353340291235 -0.608761429008721 0.0
   outer loop
      vertex 18.7952219815441 5.32430333087767 7.8
      vertex 19.0733295710904 4.96186646380121 0.8
      vertex 19.0733295710904 4.96186646380121 7.8
   endloop
endfacet
facet normal -0.793353340291235 -0.608761429008721 0.0
   outer loop
      vertex 19.0733295710904 4.96186646380121 0.8
      vertex 18.7952219815441 5.32430333087767 7.8
      vertex 18.7952219815441 5.32430333087767 0.8
   endloop
endfacet
facet normal 0.382683432365094 -0.923879532511285 0.0
   outer loop
      vertex 17.1048517855382 5.77723665980708 7.8
      vertex 16.6827851144676 5.60241092042398 0.8
      vertex 17.1048517855382 5.77723665980708 0.8
   endloop
endfacet
facet normal 0.382683432365094 -0.923879532511285 0.0
   outer loop
      vertex 16.6827851144676 5.60241092042398 0.8
      vertex 17.1048517855382 5.77723665980708 7.8
      vertex 16.6827851144676 5.60241092042398 7.8
   endloop
endfacet
facet normal 0.991444861373811 0.130526192220049 -0.0
   outer loop
      vertex 15.8077851144676 4.08686646380122 0.8
      vertex 15.8674149184617 3.6339331348718 7.8
      vertex 15.8674149184617 3.6339331348718 0.8
   endloop
endfacet
facet normal 0.991444861373811 0.130526192220049 -0.0
   outer loop
      vertex 15.8674149184617 3.6339331348718 7.8
      vertex 15.8077851144676 4.08686646380122 0.8
      vertex 15.8077851144676 4.08686646380122 7.8
   endloop
endfacet
facet normal 0.130526192220049 0.991444861373811 -0.0
   outer loop
      vertex 17.1048517855382 2.39649626779535 7.8
      vertex 17.5577851144676 2.33686646380122 0.8
      vertex 17.1048517855382 2.39649626779535 0.8
   endloop
endfacet
facet normal 0.130526192220049 0.991444861373811 -0.0
   outer loop
      vertex 17.5577851144676 2.33686646380122 0.8
      vertex 17.1048517855382 2.39649626779535 7.8
      vertex 17.5577851144676 2.33686646380122 7.8
   endloop
endfacet
facet normal -0.923879532511291 0.382683432365079 6.59427381777136e-019
   outer loop
      vertex 19.2481553104735 3.6339331348718 7.8
      vertex 19.0733295710904 3.21186646380121 0.8
      vertex 19.0733295710904 3.21186646380121 7.8
   endloop
endfacet
facet normal -0.923879532511291 0.382683432365079 6.59427381777136e-019
   outer loop
      vertex 19.0733295710904 3.21186646380121 0.8
      vertex 19.2481553104735 3.6339331348718 7.8
      vertex 19.2481553104735 3.6339331348718 0.8
   endloop
endfacet
facet normal 0.79335334029124 -0.608761429008715 -0.0
   outer loop
      vertex 16.3203482473912 5.32430333087767 0.8
      vertex 16.0422406578449 4.96186646380121 7.8
      vertex 16.0422406578449 4.96186646380121 0.8
   endloop
endfacet
facet normal 0.79335334029124 -0.608761429008715 -0.0
   outer loop
      vertex 16.0422406578449 4.96186646380121 7.8
      vertex 16.3203482473912 5.32430333087767 0.8
      vertex 16.3203482473912 5.32430333087767 7.8
   endloop
endfacet
facet normal -0.608761429008715 -0.79335334029124 -9.87959042740429e-032
   outer loop
      vertex 18.7952219815441 5.32430333087767 7.8
      vertex 18.4327851144676 5.60241092042398 0.8
      vertex 18.7952219815441 5.32430333087767 0.8
   endloop
endfacet
facet normal -0.608761429008715 -0.79335334029124 -9.87959042740429e-032
   outer loop
      vertex 18.4327851144676 5.60241092042398 0.8
      vertex 18.7952219815441 5.32430333087767 7.8
      vertex 18.4327851144676 5.60241092042398 7.8
   endloop
endfacet
facet normal -0.923879532511291 -0.382683432365079 0.0
   outer loop
      vertex 19.0733295710904 4.96186646380121 7.8
      vertex 19.2481553104735 4.53979979273062 0.8
      vertex 19.2481553104735 4.53979979273062 7.8
   endloop
endfacet
facet normal -0.923879532511291 -0.382683432365079 0.0
   outer loop
      vertex 19.2481553104735 4.53979979273062 0.8
      vertex 19.0733295710904 4.96186646380121 7.8
      vertex 19.0733295710904 4.96186646380121 0.8
   endloop
endfacet
facet normal -0.991444861373809 -0.130526192220062 0.0
   outer loop
      vertex 19.2481553104735 4.53979979273062 7.8
      vertex 19.3077851144676 4.08686646380122 0.8
      vertex 19.3077851144676 4.08686646380122 7.8
   endloop
endfacet
facet normal -0.991444861373809 -0.130526192220062 0.0
   outer loop
      vertex 19.3077851144676 4.08686646380122 0.8
      vertex 19.2481553104735 4.53979979273062 7.8
      vertex 19.2481553104735 4.53979979273062 0.8
   endloop
endfacet
facet normal 0.793353340291231 0.608761429008727 -0.0
   outer loop
      vertex 16.0422406578449 3.21186646380121 0.8
      vertex 16.3203482473912 2.84942959672476 7.8
      vertex 16.3203482473912 2.84942959672476 0.8
   endloop
endfacet
facet normal 0.793353340291231 0.608761429008727 -0.0
   outer loop
      vertex 16.3203482473912 2.84942959672476 7.8
      vertex 16.0422406578449 3.21186646380121 0.8
      vertex 16.0422406578449 3.21186646380121 7.8
   endloop
endfacet
facet normal -0.382683432365094 -0.923879532511285 0.0
   outer loop
      vertex 18.4327851144676 5.60241092042398 7.8
      vertex 18.010718443397 5.77723665980708 0.8
      vertex 18.4327851144676 5.60241092042398 0.8
   endloop
endfacet
facet normal -0.382683432365094 -0.923879532511285 0.0
   outer loop
      vertex 18.010718443397 5.77723665980708 0.8
      vertex 18.4327851144676 5.60241092042398 7.8
      vertex 18.010718443397 5.77723665980708 7.8
   endloop
endfacet
facet normal -0.130526192220049 -0.991444861373811 0.0
   outer loop
      vertex 18.010718443397 5.77723665980708 7.8
      vertex 17.5577851144676 5.83686646380121 0.8
      vertex 18.010718443397 5.77723665980708 0.8
   endloop
endfacet
facet normal -0.130526192220049 -0.991444861373811 0.0
   outer loop
      vertex 17.5577851144676 5.83686646380121 0.8
      vertex 18.010718443397 5.77723665980708 7.8
      vertex 17.5577851144676 5.83686646380121 7.8
   endloop
endfacet
facet normal 0.130526192220049 -0.991444861373811 0.0
   outer loop
      vertex 17.5577851144676 5.83686646380121 7.8
      vertex 17.1048517855382 5.77723665980708 0.8
      vertex 17.5577851144676 5.83686646380121 0.8
   endloop
endfacet
facet normal 0.130526192220049 -0.991444861373811 0.0
   outer loop
      vertex 17.1048517855382 5.77723665980708 0.8
      vertex 17.5577851144676 5.83686646380121 7.8
      vertex 17.1048517855382 5.77723665980708 7.8
   endloop
endfacet
facet normal 0.608761429008721 0.793353340291235 -0.0
   outer loop
      vertex 16.3203482473912 2.84942959672476 7.8
      vertex 16.6827851144676 2.57132200717845 0.8
      vertex 16.3203482473912 2.84942959672476 0.8
   endloop
endfacet
facet normal 0.608761429008721 0.793353340291235 -0.0
   outer loop
      vertex 16.6827851144676 2.57132200717845 0.8
      vertex 16.3203482473912 2.84942959672476 7.8
      vertex 16.6827851144676 2.57132200717845 7.8
   endloop
endfacet
facet normal 0.923879532511285 -0.382683432365094 -0.0
   outer loop
      vertex 16.0422406578449 4.96186646380121 0.8
      vertex 15.8674149184617 4.53979979273062 7.8
      vertex 15.8674149184617 4.53979979273062 0.8
   endloop
endfacet
facet normal 0.923879532511285 -0.382683432365094 -0.0
   outer loop
      vertex 15.8674149184617 4.53979979273062 7.8
      vertex 16.0422406578449 4.96186646380121 0.8
      vertex 16.0422406578449 4.96186646380121 7.8
   endloop
endfacet
facet normal 0.991444861373811 -0.13052619222005 -0.0
   outer loop
      vertex 15.8674149184617 4.53979979273062 0.8
      vertex 15.8077851144676 4.08686646380122 7.8
      vertex 15.8077851144676 4.08686646380122 0.8
   endloop
endfacet
facet normal 0.991444861373811 -0.13052619222005 -0.0
   outer loop
      vertex 15.8077851144676 4.08686646380122 7.8
      vertex 15.8674149184617 4.53979979273062 0.8
      vertex 15.8674149184617 4.53979979273062 7.8
   endloop
endfacet
facet normal 0.923879532511287 0.38268343236509 -0.0
   outer loop
      vertex 15.8674149184617 3.6339331348718 0.8
      vertex 16.0422406578449 3.21186646380121 7.8
      vertex 16.0422406578449 3.21186646380121 0.8
   endloop
endfacet
facet normal 0.923879532511287 0.38268343236509 -0.0
   outer loop
      vertex 16.0422406578449 3.21186646380121 7.8
      vertex 15.8674149184617 3.6339331348718 0.8
      vertex 15.8674149184617 3.6339331348718 7.8
   endloop
endfacet
facet normal 0.608761429008721 -0.793353340291235 0.0
   outer loop
      vertex 16.6827851144676 5.60241092042398 7.8
      vertex 16.3203482473912 5.32430333087767 0.8
      vertex 16.6827851144676 5.60241092042398 0.8
   endloop
endfacet
facet normal 0.608761429008721 -0.793353340291235 0.0
   outer loop
      vertex 16.3203482473912 5.32430333087767 0.8
      vertex 16.6827851144676 5.60241092042398 7.8
      vertex 16.3203482473912 5.32430333087767 7.8
   endloop
endfacet
facet normal 0.382683432365094 0.923879532511285 -0.0
   outer loop
      vertex 16.6827851144676 2.57132200717845 7.8
      vertex 17.1048517855382 2.39649626779535 0.8
      vertex 16.6827851144676 2.57132200717845 0.8
   endloop
endfacet
facet normal 0.382683432365094 0.923879532511285 -0.0
   outer loop
      vertex 17.1048517855382 2.39649626779535 0.8
      vertex 16.6827851144676 2.57132200717845 7.8
      vertex 17.1048517855382 2.39649626779535 7.8
   endloop
endfacet
facet normal -0.38268343236509 0.923879532511287 -0.0
   outer loop
      vertex 18.010718443397 2.39649626779535 7.8
      vertex 18.4327851144676 2.57132200717845 0.8
      vertex 18.010718443397 2.39649626779535 0.8
   endloop
endfacet
facet normal -0.38268343236509 0.923879532511287 -0.0
   outer loop
      vertex 18.4327851144676 2.57132200717845 0.8
      vertex 18.010718443397 2.39649626779535 7.8
      vertex 18.4327851144676 2.57132200717845 7.8
   endloop
endfacet
endsolid bed A p1 P-022
