solid footing 1 P-009
facet normal -0.923879532511265 0.382683432365142 0.0
   outer loop
      vertex 34.767054749181 30.859778103355 21.2
      vertex 34.5173036929194 30.2568257161112 16.2
      vertex 34.5173036929194 30.2568257161112 21.2
   endloop
endfacet
facet normal -0.923879532511265 0.382683432365142 0.0
   outer loop
      vertex 34.5173036929194 30.2568257161112 16.2
      vertex 34.767054749181 30.859778103355 21.2
      vertex 34.767054749181 30.859778103355 16.2
   endloop
endfacet
facet normal -0.793353340291423 -0.608761429008477 0.0
   outer loop
      vertex 34.1200071364248 33.2745926690779 21.2
      vertex 34.5173036929194 32.7568257161114 16.2
      vertex 34.5173036929194 32.7568257161114 21.2
   endloop
endfacet
facet normal -0.793353340291423 -0.608761429008477 0.0
   outer loop
      vertex 34.5173036929194 32.7568257161114 16.2
      vertex 34.1200071364248 33.2745926690779 21.2
      vertex 34.1200071364248 33.2745926690779 16.2
   endloop
endfacet
facet normal 0.0 -1.0 0.0
   outer loop
      vertex 99.8522401834581 37.0068257161111 79.7
      vertex 96.8522401834581 37.0068257161111 16.2
      vertex 99.8522401834581 37.0068257161111 16.2
   endloop
endfacet
facet normal 0.0 -1.0 0.0
   outer loop
      vertex 96.8522401834581 37.0068257161111 16.2
      vertex 99.8522401834581 37.0068257161111 79.7
      vertex 96.852240183458 37.0068257161111 79.7
   endloop
endfacet
facet normal 1.0 -0.0 -7.105427357601e-016
   outer loop
      vertex 19.3522401834583 41.0068257161109 16.2
      vertex 19.3522401834583 37.0068257161111 79.7
      vertex 19.3522401834583 37.0068257161111 16.2
   endloop
endfacet
facet normal -2.56218561295211e-015 -1.61052451501912e-015 1.0
   outer loop
      vertex 90.3522401834582 18.0068257161111 79.6999999999999
      vertex 92.8522401834582 26.0068257161111 79.6999999999999
      vertex 90.3522401834582 45.0068257161111 79.6999999999999
   endloop
endfacet
facet normal -2.56218561295211e-015 -1.61052451501912e-015 1.0
   outer loop
      vertex 92.8522401834582 26.0068257161111 79.6999999999999
      vertex 90.3522401834582 18.0068257161111 79.6999999999999
      vertex 99.8522401834581 18.0068257161111 79.6999999999999
   endloop
endfacet
facet normal -2.56218561295211e-015 -1.61052451501912e-015 1.0
   outer loop
      vertex 92.8522401834582 26.0068257161111 79.6999999999999
      vertex 99.8522401834581 18.0068257161111 79.6999999999999
      vertex 96.852240183458 26.0068257161111 79.7
   endloop
endfacet
facet normal -2.56218561295211e-015 -1.61052451501912e-015 1.0
   outer loop
      vertex 96.852240183458 26.0068257161111 79.7
      vertex 99.8522401834581 18.0068257161111 79.6999999999999
      vertex 99.8522401834581 26.0068257161111 79.7
   endloop
endfacet
facet normal -2.56218561295211e-015 -1.61052451501912e-015 1.0
   outer loop
      vertex 90.3522401834582 45.0068257161111 79.6999999999999
      vertex 92.8522401834582 37.0068257161111 79.7
      vertex 99.8522401834581 45.0068257161111 79.6999999999999
   endloop
endfacet
facet normal -2.56218561295211e-015 -1.61052451501912e-015 1.0
   outer loop
      vertex 92.8522401834582 37.0068257161111 79.7
      vertex 90.3522401834582 45.0068257161111 79.6999999999999
      vertex 92.8522401834582 26.0068257161111 79.6999999999999
   endloop
endfacet
facet normal -2.56218561295211e-015 -1.61052451501912e-015 1.0
   outer loop
      vertex 99.8522401834581 45.0068257161111 79.6999999999999
      vertex 92.8522401834582 37.0068257161111 79.7
      vertex 96.852240183458 37.0068257161111 79.7
   endloop
endfacet
facet normal -2.56218561295211e-015 -1.61052451501912e-015 1.0
   outer loop
      vertex 99.8522401834581 45.0068257161111 79.6999999999999
      vertex 96.852240183458 37.0068257161111 79.7
      vertex 99.8522401834581 37.0068257161111 79.7
   endloop
endfacet
facet normal -0.382683432365149 -0.923879532511263 0.0
   outer loop
      vertex 85.1022401834581 33.6718892255724 21.2
      vertex 84.4992877962143 33.9216402818341 16.2
      vertex 85.1022401834581 33.6718892255724 16.2
   endloop
endfacet
facet normal -0.382683432365149 -0.923879532511263 0.0
   outer loop
      vertex 84.4992877962143 33.9216402818341 16.2
      vertex 85.1022401834581 33.6718892255724 21.2
      vertex 84.4992877962143 33.9216402818341 21.2
   endloop
endfacet
facet normal 0.991444861373808 -0.130526192220067 4.27390338255337e-019
   outer loop
      vertex 29.9374256177354 32.1538733288675 16.2
      vertex 29.8522401834581 31.5068257161113 21.2
      vertex 29.8522401834581 31.5068257161113 16.2
   endloop
endfacet
facet normal 0.991444861373808 -0.130526192220067 4.27390338255337e-019
   outer loop
      vertex 29.8522401834581 31.5068257161113 21.2
      vertex 29.9374256177354 32.1538733288675 16.2
      vertex 29.9374256177354 32.1538733288675 21.2
   endloop
endfacet
facet normal -0.130526192220067 -0.991444861373808 0.0
   outer loop
      vertex 32.9992877962145 33.9216402818341 21.2
      vertex 32.3522401834582 34.0068257161114 16.2
      vertex 32.9992877962145 33.9216402818341 16.2
   endloop
endfacet
facet normal -0.130526192220067 -0.991444861373808 0.0
   outer loop
      vertex 32.3522401834582 34.0068257161114 16.2
      vertex 32.9992877962145 33.9216402818341 21.2
      vertex 32.3522401834582 34.0068257161114 21.2
   endloop
endfacet
facet normal 0.793353340291423 -0.608761429008477 -0.0
   outer loop
      vertex 82.0844732304915 33.2745926690779 16.2
      vertex 81.6871766739969 32.7568257161114 21.2
      vertex 81.6871766739969 32.7568257161114 16.2
   endloop
endfacet
facet normal 0.793353340291423 -0.608761429008477 -0.0
   outer loop
      vertex 81.6871766739969 32.7568257161114 21.2
      vertex 82.0844732304915 33.2745926690779 16.2
      vertex 82.0844732304915 33.2745926690779 21.2
   endloop
endfacet
facet normal -0.130526192220067 0.991444861373808 -0.0
   outer loop
      vertex 32.3522401834582 29.0068257161111 21.2
      vertex 32.9992877962145 29.0920111503885 16.2
      vertex 32.3522401834582 29.0068257161111 16.2
   endloop
endfacet
facet normal -0.130526192220067 0.991444861373808 -0.0
   outer loop
      vertex 32.9992877962145 29.0920111503885 16.2
      vertex 32.3522401834582 29.0068257161111 21.2
      vertex 32.9992877962145 29.0920111503885 21.2
   endloop
endfacet
facet normal -0.130526192220067 -0.991444861373808 0.0
   outer loop
      vertex 84.4992877962143 33.9216402818341 21.2
      vertex 83.8522401834581 34.0068257161114 16.2
      vertex 84.4992877962143 33.9216402818341 16.2
   endloop
endfacet
facet normal -0.130526192220067 -0.991444861373808 0.0
   outer loop
      vertex 83.8522401834581 34.0068257161114 16.2
      vertex 84.4992877962143 33.9216402818341 21.2
      vertex 83.8522401834581 34.0068257161114 21.2
   endloop
endfacet
facet normal 0.923879532511265 -0.382683432365142 -0.0
   outer loop
      vertex 81.6871766739969 32.7568257161114 16.2
      vertex 81.4374256177352 32.1538733288675 21.2
      vertex 81.4374256177352 32.1538733288675 16.2
   endloop
endfacet
facet normal 0.923879532511265 -0.382683432365142 -0.0
   outer loop
      vertex 81.4374256177352 32.1538733288675 21.2
      vertex 81.6871766739969 32.7568257161114 16.2
      vertex 81.6871766739969 32.7568257161114 21.2
   endloop
endfacet
facet normal 0.608761429008477 0.793353340291423 5.05511760599304e-019
   outer loop
      vertex 30.5844732304916 29.7390587631447 21.2
      vertex 31.1022401834581 29.3417622066501 16.2
      vertex 30.5844732304916 29.7390587631447 16.2
   endloop
endfacet
facet normal 0.608761429008477 0.793353340291423 5.05511760599304e-019
   outer loop
      vertex 31.1022401834581 29.3417622066501 16.2
      vertex 30.5844732304916 29.7390587631447 21.2
      vertex 31.1022401834581 29.3417622066501 21.2
   endloop
endfacet
facet normal 0.991444861373808 -0.130526192220067 -0.0
   outer loop
      vertex 81.4374256177352 32.1538733288675 16.2
      vertex 81.3522401834579 31.5068257161113 21.2
      vertex 81.3522401834579 31.5068257161113 16.2
   endloop
endfacet
facet normal 0.991444861373808 -0.130526192220067 -0.0
   outer loop
      vertex 81.3522401834579 31.5068257161113 21.2
      vertex 81.4374256177352 32.1538733288675 16.2
      vertex 81.4374256177352 32.1538733288675 21.2
   endloop
endfacet
facet normal 0.923879532511265 -0.382683432365142 -0.0
   outer loop
      vertex 30.1871766739971 32.7568257161114 16.2
      vertex 29.9374256177354 32.1538733288675 21.2
      vertex 29.9374256177354 32.1538733288675 16.2
   endloop
endfacet
facet normal 0.923879532511265 -0.382683432365142 -0.0
   outer loop
      vertex 29.9374256177354 32.1538733288675 21.2
      vertex 30.1871766739971 32.7568257161114 16.2
      vertex 30.1871766739971 32.7568257161114 21.2
   endloop
endfacet
facet normal -0.923879532511265 -0.382683432365142 0.0
   outer loop
      vertex 86.0173036929192 32.7568257161114 21.2
      vertex 86.2670547491809 32.1538733288675 16.2
      vertex 86.2670547491809 32.1538733288675 21.2
   endloop
endfacet
facet normal -0.923879532511265 -0.382683432365142 0.0
   outer loop
      vertex 86.2670547491809 32.1538733288675 16.2
      vertex 86.0173036929192 32.7568257161114 21.2
      vertex 86.0173036929192 32.7568257161114 16.2
   endloop
endfacet
facet normal -0.991444861373808 0.130526192220067 0.0
   outer loop
      vertex 86.3522401834582 31.5068257161113 21.2
      vertex 86.2670547491809 30.859778103355 16.2
      vertex 86.2670547491809 30.859778103355 21.2
   endloop
endfacet
facet normal -0.991444861373808 0.130526192220067 0.0
   outer loop
      vertex 86.2670547491809 30.859778103355 16.2
      vertex 86.3522401834582 31.5068257161113 21.2
      vertex 86.3522401834582 31.5068257161113 16.2
   endloop
endfacet
facet normal -1.0 0.0 0.0
   outer loop
      vertex 16.3522401834583 26.0068257161111 79.7
      vertex 16.3522401834583 18.0068257161111 16.2
      vertex 16.3522401834583 18.0068257161111 79.7
   endloop
endfacet
facet normal -1.0 0.0 0.0
   outer loop
      vertex 16.3522401834583 18.0068257161111 16.2
      vertex 16.3522401834583 26.0068257161111 79.7
      vertex 16.3522401834583 26.0068257161111 16.2
   endloop
endfacet
facet normal -1.0 0.0 -7.10542735760101e-016
   outer loop
      vertex 96.8522401834581 41.0068257161113 16.2
      vertex 96.8522401834581 37.0068257161111 16.2
      vertex 96.852240183458 37.0068257161111 79.7
   endloop
endfacet
facet normal -0.0 1.0 -0.0
   outer loop
      vertex 96.852240183458 26.0068257161111 79.7
      vertex 99.8522401834581 26.0068257161111 16.2
      vertex 96.852240183458 26.0068257161111 16.2
   endloop
endfacet
facet normal -0.0 1.0 -0.0
   outer loop
      vertex 99.8522401834581 26.0068257161111 16.2
      vertex 96.852240183458 26.0068257161111 79.7
      vertex 99.8522401834581 26.0068257161111 79.7
   endloop
endfacet
facet normal 1.0 -1.77856807198041e-015 3.55271367880045e-016
   outer loop
      vertex 92.8522401834583 41.0068257161113 16.2
      vertex 92.8522401834582 26.0068257161111 79.6999999999999
      vertex 92.8522401834582 22.0068257161113 16.2
   endloop
endfacet
facet normal 1.0 -1.77856807198041e-015 3.55271367880045e-016
   outer loop
      vertex 92.8522401834582 26.0068257161111 79.6999999999999
      vertex 92.8522401834583 41.0068257161113 16.2
      vertex 92.8522401834582 37.0068257161111 79.7
   endloop
endfacet
facet normal 8.7399947707007e-017 -0.998021880983209 -0.0628675200619371
   outer loop
      vertex 96.8522401834581 41.0068257161113 16.2
      vertex 92.8522401834582 37.0068257161111 79.7
      vertex 92.8522401834583 41.0068257161113 16.2
   endloop
endfacet
facet normal 8.7399947707007e-017 -0.998021880983209 -0.0628675200619371
   outer loop
      vertex 92.8522401834582 37.0068257161111 79.7
      vertex 96.8522401834581 41.0068257161113 16.2
      vertex 96.852240183458 37.0068257161111 79.7
   endloop
endfacet
facet normal -0.793353340291423 0.608761429008477 0.0
   outer loop
      vertex 34.5173036929194 30.2568257161112 21.2
      vertex 34.1200071364248 29.7390587631447 16.2
      vertex 34.1200071364248 29.7390587631447 21.2
   endloop
endfacet
facet normal -0.793353340291423 0.608761429008477 0.0
   outer loop
      vertex 34.1200071364248 29.7390587631447 16.2
      vertex 34.5173036929194 30.2568257161112 21.2
      vertex 34.5173036929194 30.2568257161112 16.2
   endloop
endfacet
facet normal -0.382683432365149 0.923879532511263 -1.59685358994498e-018
   outer loop
      vertex 84.4992877962143 29.0920111503885 21.2
      vertex 85.1022401834581 29.3417622066501 16.2
      vertex 84.4992877962143 29.0920111503885 16.2
   endloop
endfacet
facet normal -0.382683432365149 0.923879532511263 -1.59685358994498e-018
   outer loop
      vertex 85.1022401834581 29.3417622066501 16.2
      vertex 84.4992877962143 29.0920111503885 21.2
      vertex 85.1022401834581 29.3417622066501 21.2
   endloop
endfacet
facet normal 0.130526192220067 -0.991444861373808 0.0
   outer loop
      vertex 83.8522401834581 34.0068257161114 21.2
      vertex 83.2051925707018 33.9216402818341 16.2
      vertex 83.8522401834581 34.0068257161114 16.2
   endloop
endfacet
facet normal 0.130526192220067 -0.991444861373808 0.0
   outer loop
      vertex 83.2051925707018 33.9216402818341 16.2
      vertex 83.8522401834581 34.0068257161114 21.2
      vertex 83.2051925707018 33.9216402818341 21.2
   endloop
endfacet
facet normal -0.608761429008477 -0.793353340291423 0.0
   outer loop
      vertex 85.6200071364246 33.2745926690779 21.2
      vertex 85.1022401834581 33.6718892255724 16.2
      vertex 85.6200071364246 33.2745926690779 16.2
   endloop
endfacet
facet normal -0.608761429008477 -0.793353340291423 0.0
   outer loop
      vertex 85.1022401834581 33.6718892255724 16.2
      vertex 85.6200071364246 33.2745926690779 21.2
      vertex 85.1022401834581 33.6718892255724 21.2
   endloop
endfacet
facet normal 0.991444861373808 0.130526192220067 -0.0
   outer loop
      vertex 29.8522401834581 31.5068257161113 16.2
      vertex 29.9374256177354 30.859778103355 21.2
      vertex 29.9374256177354 30.859778103355 16.2
   endloop
endfacet
facet normal 0.991444861373808 0.130526192220067 -0.0
   outer loop
      vertex 29.9374256177354 30.859778103355 21.2
      vertex 29.8522401834581 31.5068257161113 16.2
      vertex 29.8522401834581 31.5068257161113 21.2
   endloop
endfacet
facet normal 1.81396117878216e-017 -0.998021880983209 -0.0628675200619315
   outer loop
      vertex 23.3522401834581 37.0068257161111 79.7
      vertex 19.3522401834583 41.0068257161109 16.2
      vertex 23.3522401834581 41.0068257161109 16.2
   endloop
endfacet
facet normal 1.81396117878216e-017 -0.998021880983209 -0.0628675200619315
   outer loop
      vertex 19.3522401834583 41.0068257161109 16.2
      vertex 23.3522401834581 37.0068257161111 79.7
      vertex 19.3522401834583 37.0068257161111 79.7
   endloop
endfacet
facet normal -1.0 1.0296973048308e-015 3.5527136788005e-016
   outer loop
      vertex 23.3522401834581 26.0068257161111 79.7
      vertex 23.3522401834581 41.0068257161109 16.2
      vertex 23.3522401834581 22.0068257161113 16.2
   endloop
endfacet
facet normal -1.0 1.0296973048308e-015 3.5527136788005e-016
   outer loop
      vertex 23.3522401834581 41.0068257161109 16.2
      vertex 23.3522401834581 26.0068257161111 79.7
      vertex 23.3522401834581 37.0068257161111 79.7
   endloop
endfacet
facet normal -0.382683432365142 0.923879532511265 5.44593527122832e-019
   outer loop
      vertex 32.9992877962145 29.0920111503885 21.2
      vertex 33.6022401834583 29.3417622066501 16.2
      vertex 32.9992877962145 29.0920111503885 16.2
   endloop
endfacet
facet normal -0.382683432365142 0.923879532511265 5.44593527122832e-019
   outer loop
      vertex 33.6022401834583 29.3417622066501 16.2
      vertex 32.9992877962145 29.0920111503885 21.2
      vertex 33.6022401834583 29.3417622066501 21.2
   endloop
endfacet
facet normal -0.923879532511265 -0.382683432365142 0.0
   outer loop
      vertex 34.5173036929194 32.7568257161114 21.2
      vertex 34.767054749181 32.1538733288675 16.2
      vertex 34.767054749181 32.1538733288675 21.2
   endloop
endfacet
facet normal -0.923879532511265 -0.382683432365142 0.0
   outer loop
      vertex 34.767054749181 32.1538733288675 16.2
      vertex 34.5173036929194 32.7568257161114 21.2
      vertex 34.5173036929194 32.7568257161114 16.2
   endloop
endfacet
facet normal -0.793353340291423 0.608761429008477 0.0
   outer loop
      vertex 86.0173036929192 30.2568257161112 21.2
      vertex 85.6200071364246 29.7390587631447 16.2
      vertex 85.6200071364246 29.7390587631447 21.2
   endloop
endfacet
facet normal -0.793353340291423 0.608761429008477 0.0
   outer loop
      vertex 85.6200071364246 29.7390587631447 16.2
      vertex 86.0173036929192 30.2568257161112 21.2
      vertex 86.0173036929192 30.2568257161112 16.2
   endloop
endfacet
facet normal 0.130526192220067 -0.991444861373808 -4.27390338255337e-019
   outer loop
      vertex 32.3522401834582 34.0068257161114 21.2
      vertex 31.705192570702 33.9216402818341 16.2
      vertex 32.3522401834582 34.0068257161114 16.2
   endloop
endfacet
facet normal 0.130526192220067 -0.991444861373808 -4.27390338255337e-019
   outer loop
      vertex 31.705192570702 33.9216402818341 16.2
      vertex 32.3522401834582 34.0068257161114 21.2
      vertex 31.705192570702 33.9216402818341 21.2
   endloop
endfacet
facet normal -0.991444861373808 -0.130526192220067 -4.27390338255337e-019
   outer loop
      vertex 86.2670547491809 32.1538733288675 21.2
      vertex 86.3522401834582 31.5068257161113 16.2
      vertex 86.3522401834582 31.5068257161113 21.2
   endloop
endfacet
facet normal -0.991444861373808 -0.130526192220067 -4.27390338255337e-019
   outer loop
      vertex 86.3522401834582 31.5068257161113 16.2
      vertex 86.2670547491809 32.1538733288675 21.2
      vertex 86.2670547491809 32.1538733288675 16.2
   endloop
endfacet
facet normal -0.608761429008477 0.793353340291423 -5.05511760599304e-019
   outer loop
      vertex 33.6022401834583 29.3417622066501 21.2
      vertex 34.1200071364248 29.7390587631447 16.2
      vertex 33.6022401834583 29.3417622066501 16.2
   endloop
endfacet
facet normal -0.608761429008477 0.793353340291423 -5.05511760599304e-019
   outer loop
      vertex 34.1200071364248 29.7390587631447 16.2
      vertex 33.6022401834583 29.3417622066501 21.2
      vertex 34.1200071364248 29.7390587631447 21.2
   endloop
endfacet
facet normal 0.382683432365142 -0.923879532511265 -5.44593527122832e-019
   outer loop
      vertex 31.705192570702 33.9216402818341 21.2
      vertex 31.1022401834581 33.6718892255724 16.2
      vertex 31.705192570702 33.9216402818341 16.2
   endloop
endfacet
facet normal 0.382683432365142 -0.923879532511265 -5.44593527122832e-019
   outer loop
      vertex 31.1022401834581 33.6718892255724 16.2
      vertex 31.705192570702 33.9216402818341 21.2
      vertex 31.1022401834581 33.6718892255724 21.2
   endloop
endfacet
facet normal -0.130526192220067 0.991444861373808 -0.0
   outer loop
      vertex 83.8522401834581 29.0068257161111 21.2
      vertex 84.4992877962143 29.0920111503885 16.2
      vertex 83.8522401834581 29.0068257161111 16.2
   endloop
endfacet
facet normal -0.130526192220067 0.991444861373808 -0.0
   outer loop
      vertex 84.4992877962143 29.0920111503885 16.2
      vertex 83.8522401834581 29.0068257161111 21.2
      vertex 84.4992877962143 29.0920111503885 21.2
   endloop
endfacet
facet normal 0.130526192220067 0.991444861373808 -0.0
   outer loop
      vertex 83.2051925707018 29.0920111503885 21.2
      vertex 83.8522401834581 29.0068257161111 16.2
      vertex 83.2051925707018 29.0920111503885 16.2
   endloop
endfacet
facet normal 0.130526192220067 0.991444861373808 -0.0
   outer loop
      vertex 83.8522401834581 29.0068257161111 16.2
      vertex 83.2051925707018 29.0920111503885 21.2
      vertex 83.8522401834581 29.0068257161111 21.2
   endloop
endfacet
facet normal -0.991444861373808 0.130526192220067 0.0
   outer loop
      vertex 34.8522401834584 31.5068257161113 21.2
      vertex 34.767054749181 30.859778103355 16.2
      vertex 34.767054749181 30.859778103355 21.2
   endloop
endfacet
facet normal -0.991444861373808 0.130526192220067 0.0
   outer loop
      vertex 34.767054749181 30.859778103355 16.2
      vertex 34.8522401834584 31.5068257161113 21.2
      vertex 34.8522401834584 31.5068257161113 16.2
   endloop
endfacet
facet normal 0.793353340291423 -0.608761429008477 -0.0
   outer loop
      vertex 30.5844732304916 33.2745926690779 16.2
      vertex 30.1871766739971 32.7568257161114 21.2
      vertex 30.1871766739971 32.7568257161114 16.2
   endloop
endfacet
facet normal 0.793353340291423 -0.608761429008477 -0.0
   outer loop
      vertex 30.1871766739971 32.7568257161114 21.2
      vertex 30.5844732304916 33.2745926690779 16.2
      vertex 30.5844732304916 33.2745926690779 21.2
   endloop
endfacet
facet normal 0.382683432365142 0.923879532511265 -0.0
   outer loop
      vertex 82.602240183458 29.3417622066501 21.2
      vertex 83.2051925707018 29.0920111503885 16.2
      vertex 82.602240183458 29.3417622066501 16.2
   endloop
endfacet
facet normal 0.382683432365142 0.923879532511265 -0.0
   outer loop
      vertex 83.2051925707018 29.0920111503885 16.2
      vertex 82.602240183458 29.3417622066501 21.2
      vertex 83.2051925707018 29.0920111503885 21.2
   endloop
endfacet
facet normal 0.382683432365142 -0.923879532511265 5.44593527122832e-019
   outer loop
      vertex 83.2051925707018 33.9216402818341 21.2
      vertex 82.602240183458 33.6718892255724 16.2
      vertex 83.2051925707018 33.9216402818341 16.2
   endloop
endfacet
facet normal 0.382683432365142 -0.923879532511265 5.44593527122832e-019
   outer loop
      vertex 82.602240183458 33.6718892255724 16.2
      vertex 83.2051925707018 33.9216402818341 21.2
      vertex 82.602240183458 33.6718892255724 21.2
   endloop
endfacet
facet normal 0.382683432365142 0.923879532511265 -0.0
   outer loop
      vertex 31.1022401834581 29.3417622066501 21.2
      vertex 31.705192570702 29.0920111503885 16.2
      vertex 31.1022401834581 29.3417622066501 16.2
   endloop
endfacet
facet normal 0.382683432365142 0.923879532511265 -0.0
   outer loop
      vertex 31.705192570702 29.0920111503885 16.2
      vertex 31.1022401834581 29.3417622066501 21.2
      vertex 31.705192570702 29.0920111503885 21.2
   endloop
endfacet
facet normal -2.3516476043037e-016 1.0 2.46254783992074e-016
   outer loop
      vertex 16.3522401834583 45.0068257161111 16.2
      vertex 25.8522401834582 45.0068257161111 21.2
      vertex 99.8522401834581 45.0068257161111 16.2
   endloop
endfacet
facet normal -2.3516476043037e-016 1.0 2.46254783992074e-016
   outer loop
      vertex 25.8522401834582 45.0068257161111 21.2
      vertex 16.3522401834583 45.0068257161111 16.2
      vertex 16.3522401834583 45.0068257161111 79.7
   endloop
endfacet
facet normal -2.3516476043037e-016 1.0 2.46254783992074e-016
   outer loop
      vertex 25.8522401834582 45.0068257161111 21.2
      vertex 16.3522401834583 45.0068257161111 79.7
      vertex 25.8522401834582 45.0068257161111 79.7
   endloop
endfacet
facet normal -2.3516476043037e-016 1.0 2.46254783992074e-016
   outer loop
      vertex 99.8522401834581 45.0068257161111 16.2
      vertex 90.3522401834582 45.0068257161112 21.2
      vertex 99.8522401834581 45.0068257161111 79.6999999999999
   endloop
endfacet
facet normal -2.3516476043037e-016 1.0 2.46254783992074e-016
   outer loop
      vertex 90.3522401834582 45.0068257161112 21.2
      vertex 99.8522401834581 45.0068257161111 16.2
      vertex 25.8522401834582 45.0068257161111 21.2
   endloop
endfacet
facet normal -2.3516476043037e-016 1.0 2.46254783992074e-016
   outer loop
      vertex 99.8522401834581 45.0068257161111 79.6999999999999
      vertex 90.3522401834582 45.0068257161112 21.2
      vertex 90.3522401834582 45.0068257161111 79.6999999999999
   endloop
endfacet
facet normal 2.42081371031263e-016 -1.0 -2.53497571756548e-016
   outer loop
      vertex 16.3522401834583 18.0068257161111 16.2
      vertex 25.8522401834581 18.0068257161111 21.2
      vertex 16.3522401834583 18.0068257161111 79.7
   endloop
endfacet
facet normal 2.42081371031263e-016 -1.0 -2.53497571756548e-016
   outer loop
      vertex 25.8522401834581 18.0068257161111 21.2
      vertex 16.3522401834583 18.0068257161111 16.2
      vertex 90.3522401834582 18.0068257161112 21.2
   endloop
endfacet
facet normal 2.42081371031263e-016 -1.0 -2.53497571756548e-016
   outer loop
      vertex 16.3522401834583 18.0068257161111 79.7
      vertex 25.8522401834581 18.0068257161111 21.2
      vertex 25.8522401834581 18.0068257161111 79.7
   endloop
endfacet
facet normal 2.42081371031263e-016 -1.0 -2.53497571756548e-016
   outer loop
      vertex 99.8522401834581 18.0068257161111 16.2
      vertex 90.3522401834582 18.0068257161112 21.2
      vertex 16.3522401834583 18.0068257161111 16.2
   endloop
endfacet
facet normal 2.42081371031263e-016 -1.0 -2.53497571756548e-016
   outer loop
      vertex 90.3522401834582 18.0068257161112 21.2
      vertex 99.8522401834581 18.0068257161111 16.2
      vertex 99.8522401834581 18.0068257161111 79.6999999999999
   endloop
endfacet
facet normal 2.42081371031263e-016 -1.0 -2.53497571756548e-016
   outer loop
      vertex 90.3522401834582 18.0068257161112 21.2
      vertex 99.8522401834581 18.0068257161111 79.6999999999999
      vertex 90.3522401834582 18.0068257161111 79.6999999999999
   endloop
endfacet
facet normal 0.608761429008477 0.793353340291423 -0.0
   outer loop
      vertex 82.0844732304915 29.7390587631447 21.2
      vertex 82.602240183458 29.3417622066501 16.2
      vertex 82.0844732304915 29.7390587631447 16.2
   endloop
endfacet
facet normal 0.608761429008477 0.793353340291423 -0.0
   outer loop
      vertex 82.602240183458 29.3417622066501 16.2
      vertex 82.0844732304915 29.7390587631447 21.2
      vertex 82.602240183458 29.3417622066501 21.2
   endloop
endfacet
facet normal 0.0 -1.0 0.0
   outer loop
      vertex 19.3522401834583 37.0068257161111 79.7
      vertex 16.3522401834583 37.0068257161111 16.2
      vertex 19.3522401834583 37.0068257161111 16.2
   endloop
endfacet
facet normal 0.0 -1.0 0.0
   outer loop
      vertex 16.3522401834583 37.0068257161111 16.2
      vertex 19.3522401834583 37.0068257161111 79.7
      vertex 16.3522401834583 37.0068257161111 79.7
   endloop
endfacet
facet normal 1.0 -1.9880527406734e-030 -7.10542735760101e-016
   outer loop
      vertex 99.8522401834581 45.0068257161111 16.2
      vertex 99.8522401834581 37.0068257161111 79.7
      vertex 99.8522401834581 37.0068257161111 16.2
   endloop
endfacet
facet normal 1.0 -1.9880527406734e-030 -7.10542735760101e-016
   outer loop
      vertex 99.8522401834581 37.0068257161111 79.7
      vertex 99.8522401834581 45.0068257161111 16.2
      vertex 99.8522401834581 45.0068257161111 79.6999999999999
   endloop
endfacet
facet normal -0.0 1.0 -0.0
   outer loop
      vertex 16.3522401834583 26.0068257161111 16.2
      vertex 19.3522401834583 26.0068257161111 79.7
      vertex 19.3522401834583 26.0068257161111 16.2
   endloop
endfacet
facet normal -0.0 1.0 -0.0
   outer loop
      vertex 19.3522401834583 26.0068257161111 79.7
      vertex 16.3522401834583 26.0068257161111 16.2
      vertex 16.3522401834583 26.0068257161111 79.7
   endloop
endfacet
facet normal -1.0 0.0 0.0
   outer loop
      vertex 96.852240183458 26.0068257161111 16.2
      vertex 96.852240183458 22.0068257161113 16.2
      vertex 96.852240183458 26.0068257161111 79.7
   endloop
endfacet
facet normal 4.57338091148612e-016 0.998021880983209 -0.0628675200619315
   outer loop
      vertex 92.8522401834582 26.0068257161111 79.6999999999999
      vertex 96.852240183458 22.0068257161113 16.2
      vertex 92.8522401834582 22.0068257161113 16.2
   endloop
endfacet
facet normal 4.57338091148612e-016 0.998021880983209 -0.0628675200619315
   outer loop
      vertex 96.852240183458 22.0068257161113 16.2
      vertex 92.8522401834582 26.0068257161111 79.6999999999999
      vertex 96.852240183458 26.0068257161111 79.7
   endloop
endfacet
facet normal 1.0 -0.0 -0.0
   outer loop
      vertex 19.3522401834583 26.0068257161111 79.7
      vertex 19.3522401834583 22.0068257161109 16.2
      vertex 19.3522401834583 26.0068257161111 16.2
   endloop
endfacet
facet normal -4.50274636255286e-014 0.998021880983209 -0.0628675200619343
   outer loop
      vertex 19.3522401834583 26.0068257161111 79.7
      vertex 23.3522401834581 22.0068257161113 16.2
      vertex 19.3522401834583 22.0068257161109 16.2
   endloop
endfacet
facet normal -4.50274636255286e-014 0.998021880983209 -0.0628675200619343
   outer loop
      vertex 23.3522401834581 22.0068257161113 16.2
      vertex 19.3522401834583 26.0068257161111 79.7
      vertex 23.3522401834581 26.0068257161111 79.7
   endloop
endfacet
facet normal 0.793353340291423 0.608761429008477 -5.05511760599304e-019
   outer loop
      vertex 81.6871766739969 30.2568257161112 16.2
      vertex 82.0844732304915 29.7390587631447 21.2
      vertex 82.0844732304915 29.7390587631447 16.2
   endloop
endfacet
facet normal 0.793353340291423 0.608761429008477 -5.05511760599304e-019
   outer loop
      vertex 82.0844732304915 29.7390587631447 21.2
      vertex 81.6871766739969 30.2568257161112 16.2
      vertex 81.6871766739969 30.2568257161112 21.2
   endloop
endfacet
facet normal -0.608761429008477 0.793353340291423 -5.05511760599304e-019
   outer loop
      vertex 85.1022401834581 29.3417622066501 21.2
      vertex 85.6200071364246 29.7390587631447 16.2
      vertex 85.1022401834581 29.3417622066501 16.2
   endloop
endfacet
facet normal -0.608761429008477 0.793353340291423 -5.05511760599304e-019
   outer loop
      vertex 85.6200071364246 29.7390587631447 16.2
      vertex 85.1022401834581 29.3417622066501 21.2
      vertex 85.6200071364246 29.7390587631447 21.2
   endloop
endfacet
facet normal 1.0 4.57252130354882e-030 -7.10542735760101e-016
   outer loop
      vertex 99.8522401834581 26.0068257161111 16.2
      vertex 99.8522401834581 18.0068257161111 79.6999999999999
      vertex 99.8522401834581 18.0068257161111 16.2
   endloop
endfacet
facet normal 1.0 4.57252130354882e-030 -7.10542735760101e-016
   outer loop
      vertex 99.8522401834581 18.0068257161111 79.6999999999999
      vertex 99.8522401834581 26.0068257161111 16.2
      vertex 99.8522401834581 26.0068257161111 79.7
   endloop
endfacet
facet normal 0.608761429008477 -0.793353340291423 0.0
   outer loop
      vertex 31.1022401834581 33.6718892255724 21.2
      vertex 30.5844732304916 33.2745926690779 16.2
      vertex 31.1022401834581 33.6718892255724 16.2
   endloop
endfacet
facet normal 0.608761429008477 -0.793353340291423 0.0
   outer loop
      vertex 30.5844732304916 33.2745926690779 16.2
      vertex 31.1022401834581 33.6718892255724 21.2
      vertex 30.5844732304916 33.2745926690779 21.2
   endloop
endfacet
facet normal 0.923879532511265 0.382683432365142 -0.0
   outer loop
      vertex 81.4374256177352 30.859778103355 16.2
      vertex 81.6871766739969 30.2568257161112 21.2
      vertex 81.6871766739969 30.2568257161112 16.2
   endloop
endfacet
facet normal 0.923879532511265 0.382683432365142 -0.0
   outer loop
      vertex 81.6871766739969 30.2568257161112 21.2
      vertex 81.4374256177352 30.859778103355 16.2
      vertex 81.4374256177352 30.859778103355 21.2
   endloop
endfacet
facet normal 0.923879532511265 0.382683432365142 -0.0
   outer loop
      vertex 29.9374256177354 30.859778103355 16.2
      vertex 30.1871766739971 30.2568257161112 21.2
      vertex 30.1871766739971 30.2568257161112 16.2
   endloop
endfacet
facet normal 0.923879532511265 0.382683432365142 -0.0
   outer loop
      vertex 30.1871766739971 30.2568257161112 21.2
      vertex 29.9374256177354 30.859778103355 16.2
      vertex 29.9374256177354 30.859778103355 21.2
   endloop
endfacet
facet normal 0.608761429008477 -0.793353340291423 -5.05511760599304e-019
   outer loop
      vertex 82.602240183458 33.6718892255724 21.2
      vertex 82.0844732304915 33.2745926690779 16.2
      vertex 82.602240183458 33.6718892255724 16.2
   endloop
endfacet
facet normal 0.608761429008477 -0.793353340291423 -5.05511760599304e-019
   outer loop
      vertex 82.0844732304915 33.2745926690779 16.2
      vertex 82.602240183458 33.6718892255724 21.2
      vertex 82.0844732304915 33.2745926690779 21.2
   endloop
endfacet
facet normal -0.923879532511265 0.382683432365142 0.0
   outer loop
      vertex 86.2670547491809 30.859778103355 21.2
      vertex 86.0173036929192 30.2568257161112 16.2
      vertex 86.0173036929192 30.2568257161112 21.2
   endloop
endfacet
facet normal -0.923879532511265 0.382683432365142 0.0
   outer loop
      vertex 86.0173036929192 30.2568257161112 16.2
      vertex 86.2670547491809 30.859778103355 21.2
      vertex 86.2670547491809 30.859778103355 16.2
   endloop
endfacet
facet normal 0.793353340291422 0.608761429008477 -0.0
   outer loop
      vertex 30.1871766739971 30.2568257161112 16.2
      vertex 30.5844732304916 29.7390587631447 21.2
      vertex 30.5844732304916 29.7390587631447 16.2
   endloop
endfacet
facet normal 0.793353340291422 0.608761429008477 -0.0
   outer loop
      vertex 30.5844732304916 29.7390587631447 21.2
      vertex 30.1871766739971 30.2568257161112 16.2
      vertex 30.1871766739971 30.2568257161112 21.2
   endloop
endfacet
facet normal -0.793353340291423 -0.608761429008477 -5.05511760599304e-019
   outer loop
      vertex 85.6200071364246 33.2745926690779 21.2
      vertex 86.0173036929192 32.7568257161114 16.2
      vertex 86.0173036929192 32.7568257161114 21.2
   endloop
endfacet
facet normal -0.793353340291423 -0.608761429008477 -5.05511760599304e-019
   outer loop
      vertex 86.0173036929192 32.7568257161114 16.2
      vertex 85.6200071364246 33.2745926690779 21.2
      vertex 85.6200071364246 33.2745926690779 16.2
   endloop
endfacet
facet normal -0.608761429008477 -0.793353340291423 0.0
   outer loop
      vertex 34.1200071364248 33.2745926690779 21.2
      vertex 33.6022401834583 33.6718892255724 16.2
      vertex 34.1200071364248 33.2745926690779 16.2
   endloop
endfacet
facet normal -0.608761429008477 -0.793353340291423 0.0
   outer loop
      vertex 33.6022401834583 33.6718892255724 16.2
      vertex 34.1200071364248 33.2745926690779 21.2
      vertex 33.6022401834583 33.6718892255724 21.2
   endloop
endfacet
facet normal -0.382683432365142 -0.923879532511265 0.0
   outer loop
      vertex 33.6022401834583 33.6718892255724 21.2
      vertex 32.9992877962145 33.9216402818341 16.2
      vertex 33.6022401834583 33.6718892255724 16.2
   endloop
endfacet
facet normal -0.382683432365142 -0.923879532511265 0.0
   outer loop
      vertex 32.9992877962145 33.9216402818341 16.2
      vertex 33.6022401834583 33.6718892255724 21.2
      vertex 32.9992877962145 33.9216402818341 21.2
   endloop
endfacet
facet normal 0.130526192220067 0.991444861373808 -0.0
   outer loop
      vertex 31.705192570702 29.0920111503885 21.2
      vertex 32.3522401834582 29.0068257161111 16.2
      vertex 31.705192570702 29.0920111503885 16.2
   endloop
endfacet
facet normal 0.130526192220067 0.991444861373808 -0.0
   outer loop
      vertex 32.3522401834582 29.0068257161111 16.2
      vertex 31.705192570702 29.0920111503885 21.2
      vertex 32.3522401834582 29.0068257161111 21.2
   endloop
endfacet
facet normal -0.991444861373808 -0.130526192220067 0.0
   outer loop
      vertex 34.767054749181 32.1538733288675 21.2
      vertex 34.8522401834584 31.5068257161113 16.2
      vertex 34.8522401834584 31.5068257161113 21.2
   endloop
endfacet
facet normal -0.991444861373808 -0.130526192220067 0.0
   outer loop
      vertex 34.8522401834584 31.5068257161113 16.2
      vertex 34.767054749181 32.1538733288675 21.2
      vertex 34.767054749181 32.1538733288675 16.2
   endloop
endfacet
facet normal 0.991444861373808 0.130526192220067 -4.27390338255337e-019
   outer loop
      vertex 81.3522401834579 31.5068257161113 16.2
      vertex 81.4374256177352 30.859778103355 21.2
      vertex 81.4374256177352 30.859778103355 16.2
   endloop
endfacet
facet normal 0.991444861373808 0.130526192220067 -4.27390338255337e-019
   outer loop
      vertex 81.4374256177352 30.859778103355 21.2
      vertex 81.3522401834579 31.5068257161113 16.2
      vertex 81.3522401834579 31.5068257161113 21.2
   endloop
endfacet
facet normal -1.0 0.0 7.105427357601e-016
   outer loop
      vertex 16.3522401834583 45.0068257161111 79.7
      vertex 16.3522401834583 37.0068257161111 16.2
      vertex 16.3522401834583 37.0068257161111 79.7
   endloop
endfacet
facet normal -1.0 0.0 7.105427357601e-016
   outer loop
      vertex 16.3522401834583 37.0068257161111 16.2
      vertex 16.3522401834583 45.0068257161111 79.7
      vertex 16.3522401834583 45.0068257161111 16.2
   endloop
endfacet
facet normal 5.78882107681027e-017 -1.15344412403546e-030 -1.0
   outer loop
      vertex 16.3522401834583 45.0068257161111 16.2
      vertex 19.3522401834583 41.0068257161109 16.2
      vertex 16.3522401834583 37.0068257161111 16.2
   endloop
endfacet
facet normal 5.78882107681027e-017 -1.15344412403546e-030 -1.0
   outer loop
      vertex 19.3522401834583 41.0068257161109 16.2
      vertex 16.3522401834583 45.0068257161111 16.2
      vertex 99.8522401834581 45.0068257161111 16.2
   endloop
endfacet
facet normal 5.78882107681027e-017 -1.15344412403546e-030 -1.0
   outer loop
      vertex 19.3522401834583 41.0068257161109 16.2
      vertex 99.8522401834581 45.0068257161111 16.2
      vertex 23.3522401834581 41.0068257161109 16.2
   endloop
endfacet
facet normal 5.78882107681027e-017 -1.15344412403546e-030 -1.0
   outer loop
      vertex 23.3522401834581 41.0068257161109 16.2
      vertex 99.8522401834581 45.0068257161111 16.2
      vertex 31.705192570702 33.9216402818341 16.2
   endloop
endfacet
facet normal 5.78882107681027e-017 -1.15344412403546e-030 -1.0
   outer loop
      vertex 23.3522401834581 41.0068257161109 16.2
      vertex 31.705192570702 33.9216402818341 16.2
      vertex 31.1022401834581 33.6718892255724 16.2
   endloop
endfacet
facet normal 5.78882107681027e-017 -1.15344412403546e-030 -1.0
   outer loop
      vertex 23.3522401834581 41.0068257161109 16.2
      vertex 31.1022401834581 33.6718892255724 16.2
      vertex 30.5844732304916 33.2745926690779 16.2
   endloop
endfacet
facet normal 5.78882107681027e-017 -1.15344412403546e-030 -1.0
   outer loop
      vertex 23.3522401834581 41.0068257161109 16.2
      vertex 30.5844732304916 33.2745926690779 16.2
      vertex 30.1871766739971 32.7568257161114 16.2
   endloop
endfacet
facet normal 5.78882107681027e-017 -1.15344412403546e-030 -1.0
   outer loop
      vertex 23.3522401834581 41.0068257161109 16.2
      vertex 30.1871766739971 32.7568257161114 16.2
      vertex 23.3522401834581 22.0068257161113 16.2
   endloop
endfacet
facet normal 5.78882107681027e-017 -1.15344412403546e-030 -1.0
   outer loop
      vertex 23.3522401834581 22.0068257161113 16.2
      vertex 30.1871766739971 32.7568257161114 16.2
      vertex 29.9374256177354 32.1538733288675 16.2
   endloop
endfacet
facet normal 5.78882107681027e-017 -1.15344412403546e-030 -1.0
   outer loop
      vertex 23.3522401834581 22.0068257161113 16.2
      vertex 29.9374256177354 32.1538733288675 16.2
      vertex 29.8522401834581 31.5068257161113 16.2
   endloop
endfacet
facet normal 5.78882107681027e-017 -1.15344412403546e-030 -1.0
   outer loop
      vertex 31.705192570702 33.9216402818341 16.2
      vertex 99.8522401834581 45.0068257161111 16.2
      vertex 32.3522401834582 34.0068257161114 16.2
   endloop
endfacet
facet normal 5.78882107681027e-017 -1.15344412403546e-030 -1.0
   outer loop
      vertex 32.3522401834582 34.0068257161114 16.2
      vertex 99.8522401834581 45.0068257161111 16.2
      vertex 32.9992877962145 33.9216402818341 16.2
   endloop
endfacet
facet normal 5.78882107681027e-017 -1.15344412403546e-030 -1.0
   outer loop
      vertex 32.9992877962145 33.9216402818341 16.2
      vertex 99.8522401834581 45.0068257161111 16.2
      vertex 33.6022401834583 33.6718892255724 16.2
   endloop
endfacet
facet normal 5.78882107681027e-017 -1.15344412403546e-030 -1.0
   outer loop
      vertex 33.6022401834583 33.6718892255724 16.2
      vertex 99.8522401834581 45.0068257161111 16.2
      vertex 34.1200071364248 33.2745926690779 16.2
   endloop
endfacet
facet normal 5.78882107681027e-017 -1.15344412403546e-030 -1.0
   outer loop
      vertex 34.1200071364248 33.2745926690779 16.2
      vertex 99.8522401834581 45.0068257161111 16.2
      vertex 34.5173036929194 32.7568257161114 16.2
   endloop
endfacet
facet normal 5.78882107681027e-017 -1.15344412403546e-030 -1.0
   outer loop
      vertex 34.5173036929194 32.7568257161114 16.2
      vertex 99.8522401834581 45.0068257161111 16.2
      vertex 34.767054749181 32.1538733288675 16.2
   endloop
endfacet
facet normal 5.78882107681027e-017 -1.15344412403546e-030 -1.0
   outer loop
      vertex 34.767054749181 32.1538733288675 16.2
      vertex 99.8522401834581 45.0068257161111 16.2
      vertex 34.8522401834584 31.5068257161113 16.2
   endloop
endfacet
facet normal 5.78882107681027e-017 -1.15344412403546e-030 -1.0
   outer loop
      vertex 34.8522401834584 31.5068257161113 16.2
      vertex 99.8522401834581 45.0068257161111 16.2
      vertex 92.8522401834583 41.0068257161113 16.2
   endloop
endfacet
facet normal 5.78882107681027e-017 -1.15344412403546e-030 -1.0
   outer loop
      vertex 34.8522401834584 31.5068257161113 16.2
      vertex 92.8522401834583 41.0068257161113 16.2
      vertex 82.602240183458 33.6718892255724 16.2
   endloop
endfacet
facet normal 5.78882107681027e-017 -1.15344412403546e-030 -1.0
   outer loop
      vertex 34.8522401834584 31.5068257161113 16.2
      vertex 82.602240183458 33.6718892255724 16.2
      vertex 82.0844732304915 33.2745926690779 16.2
   endloop
endfacet
facet normal 5.78882107681027e-017 -1.15344412403546e-030 -1.0
   outer loop
      vertex 34.8522401834584 31.5068257161113 16.2
      vertex 82.0844732304915 33.2745926690779 16.2
      vertex 81.6871766739969 32.7568257161114 16.2
   endloop
endfacet
facet normal 5.78882107681027e-017 -1.15344412403546e-030 -1.0
   outer loop
      vertex 34.8522401834584 31.5068257161113 16.2
      vertex 81.6871766739969 32.7568257161114 16.2
      vertex 81.4374256177352 32.1538733288675 16.2
   endloop
endfacet
facet normal 5.78882107681027e-017 -1.15344412403546e-030 -1.0
   outer loop
      vertex 34.8522401834584 31.5068257161113 16.2
      vertex 81.4374256177352 32.1538733288675 16.2
      vertex 81.3522401834579 31.5068257161113 16.2
   endloop
endfacet
facet normal 5.78882107681027e-017 -1.15344412403546e-030 -1.0
   outer loop
      vertex 82.602240183458 33.6718892255724 16.2
      vertex 92.8522401834583 41.0068257161113 16.2
      vertex 83.2051925707018 33.9216402818341 16.2
   endloop
endfacet
facet normal 5.78882107681027e-017 -1.15344412403546e-030 -1.0
   outer loop
      vertex 83.2051925707018 33.9216402818341 16.2
      vertex 92.8522401834583 41.0068257161113 16.2
      vertex 83.8522401834581 34.0068257161114 16.2
   endloop
endfacet
facet normal 5.78882107681027e-017 -1.15344412403546e-030 -1.0
   outer loop
      vertex 83.8522401834581 34.0068257161114 16.2
      vertex 92.8522401834583 41.0068257161113 16.2
      vertex 84.4992877962143 33.9216402818341 16.2
   endloop
endfacet
facet normal 5.78882107681027e-017 -1.15344412403546e-030 -1.0
   outer loop
      vertex 84.4992877962143 33.9216402818341 16.2
      vertex 92.8522401834583 41.0068257161113 16.2
      vertex 85.1022401834581 33.6718892255724 16.2
   endloop
endfacet
facet normal 5.78882107681027e-017 -1.15344412403546e-030 -1.0
   outer loop
      vertex 85.1022401834581 33.6718892255724 16.2
      vertex 92.8522401834583 41.0068257161113 16.2
      vertex 85.6200071364246 33.2745926690779 16.2
   endloop
endfacet
facet normal 5.78882107681027e-017 -1.15344412403546e-030 -1.0
   outer loop
      vertex 85.6200071364246 33.2745926690779 16.2
      vertex 92.8522401834583 41.0068257161113 16.2
      vertex 86.0173036929192 32.7568257161114 16.2
   endloop
endfacet
facet normal 5.78882107681027e-017 -1.15344412403546e-030 -1.0
   outer loop
      vertex 86.0173036929192 32.7568257161114 16.2
      vertex 92.8522401834583 41.0068257161113 16.2
      vertex 86.2670547491809 32.1538733288675 16.2
   endloop
endfacet
facet normal 5.78882107681027e-017 -1.15344412403546e-030 -1.0
   outer loop
      vertex 86.2670547491809 32.1538733288675 16.2
      vertex 92.8522401834583 41.0068257161113 16.2
      vertex 86.3522401834582 31.5068257161113 16.2
   endloop
endfacet
facet normal 5.78882107681027e-017 -1.15344412403546e-030 -1.0
   outer loop
      vertex 86.3522401834582 31.5068257161113 16.2
      vertex 92.8522401834583 41.0068257161113 16.2
      vertex 92.8522401834582 22.0068257161113 16.2
   endloop
endfacet
facet normal 5.78882107681027e-017 -1.15344412403546e-030 -1.0
   outer loop
      vertex 92.8522401834583 41.0068257161113 16.2
      vertex 99.8522401834581 45.0068257161111 16.2
      vertex 96.8522401834581 41.0068257161113 16.2
   endloop
endfacet
facet normal 5.78882107681027e-017 -1.15344412403546e-030 -1.0
   outer loop
      vertex 96.8522401834581 41.0068257161113 16.2
      vertex 99.8522401834581 45.0068257161111 16.2
      vertex 96.8522401834581 37.0068257161111 16.2
   endloop
endfacet
facet normal 5.78882107681027e-017 -1.15344412403546e-030 -1.0
   outer loop
      vertex 96.8522401834581 37.0068257161111 16.2
      vertex 99.8522401834581 45.0068257161111 16.2
      vertex 99.8522401834581 37.0068257161111 16.2
   endloop
endfacet
facet normal 5.78882107681027e-017 -1.15344412403546e-030 -1.0
   outer loop
      vertex 99.8522401834581 26.0068257161111 16.2
      vertex 96.852240183458 22.0068257161113 16.2
      vertex 96.852240183458 26.0068257161111 16.2
   endloop
endfacet
facet normal 5.78882107681027e-017 -1.15344412403546e-030 -1.0
   outer loop
      vertex 19.3522401834583 26.0068257161111 16.2
      vertex 16.3522401834583 18.0068257161111 16.2
      vertex 16.3522401834583 26.0068257161111 16.2
   endloop
endfacet
facet normal 5.78882107681027e-017 -1.15344412403546e-030 -1.0
   outer loop
      vertex 16.3522401834583 18.0068257161111 16.2
      vertex 19.3522401834583 26.0068257161111 16.2
      vertex 19.3522401834583 22.0068257161109 16.2
   endloop
endfacet
facet normal 5.78882107681027e-017 -1.15344412403546e-030 -1.0
   outer loop
      vertex 16.3522401834583 18.0068257161111 16.2
      vertex 19.3522401834583 22.0068257161109 16.2
      vertex 99.8522401834581 18.0068257161111 16.2
   endloop
endfacet
facet normal 5.78882107681027e-017 -1.15344412403546e-030 -1.0
   outer loop
      vertex 99.8522401834581 18.0068257161111 16.2
      vertex 19.3522401834583 22.0068257161109 16.2
      vertex 23.3522401834581 22.0068257161113 16.2
   endloop
endfacet
facet normal 5.78882107681027e-017 -1.15344412403546e-030 -1.0
   outer loop
      vertex 99.8522401834581 18.0068257161111 16.2
      vertex 23.3522401834581 22.0068257161113 16.2
      vertex 31.705192570702 29.0920111503885 16.2
   endloop
endfacet
facet normal 5.78882107681027e-017 -1.15344412403546e-030 -1.0
   outer loop
      vertex 31.705192570702 29.0920111503885 16.2
      vertex 23.3522401834581 22.0068257161113 16.2
      vertex 31.1022401834581 29.3417622066501 16.2
   endloop
endfacet
facet normal 5.78882107681027e-017 -1.15344412403546e-030 -1.0
   outer loop
      vertex 31.1022401834581 29.3417622066501 16.2
      vertex 23.3522401834581 22.0068257161113 16.2
      vertex 30.5844732304916 29.7390587631447 16.2
   endloop
endfacet
facet normal 5.78882107681027e-017 -1.15344412403546e-030 -1.0
   outer loop
      vertex 30.5844732304916 29.7390587631447 16.2
      vertex 23.3522401834581 22.0068257161113 16.2
      vertex 30.1871766739971 30.2568257161112 16.2
   endloop
endfacet
facet normal 5.78882107681027e-017 -1.15344412403546e-030 -1.0
   outer loop
      vertex 30.1871766739971 30.2568257161112 16.2
      vertex 23.3522401834581 22.0068257161113 16.2
      vertex 29.9374256177354 30.859778103355 16.2
   endloop
endfacet
facet normal 5.78882107681027e-017 -1.15344412403546e-030 -1.0
   outer loop
      vertex 29.9374256177354 30.859778103355 16.2
      vertex 23.3522401834581 22.0068257161113 16.2
      vertex 29.8522401834581 31.5068257161113 16.2
   endloop
endfacet
facet normal 5.78882107681027e-017 -1.15344412403546e-030 -1.0
   outer loop
      vertex 99.8522401834581 18.0068257161111 16.2
      vertex 31.705192570702 29.0920111503885 16.2
      vertex 32.3522401834582 29.0068257161111 16.2
   endloop
endfacet
facet normal 5.78882107681027e-017 -1.15344412403546e-030 -1.0
   outer loop
      vertex 99.8522401834581 18.0068257161111 16.2
      vertex 32.3522401834582 29.0068257161111 16.2
      vertex 32.9992877962145 29.0920111503885 16.2
   endloop
endfacet
facet normal 5.78882107681027e-017 -1.15344412403546e-030 -1.0
   outer loop
      vertex 99.8522401834581 18.0068257161111 16.2
      vertex 32.9992877962145 29.0920111503885 16.2
      vertex 33.6022401834583 29.3417622066501 16.2
   endloop
endfacet
facet normal 5.78882107681027e-017 -1.15344412403546e-030 -1.0
   outer loop
      vertex 99.8522401834581 18.0068257161111 16.2
      vertex 33.6022401834583 29.3417622066501 16.2
      vertex 34.1200071364248 29.7390587631447 16.2
   endloop
endfacet
facet normal 5.78882107681027e-017 -1.15344412403546e-030 -1.0
   outer loop
      vertex 99.8522401834581 18.0068257161111 16.2
      vertex 34.1200071364248 29.7390587631447 16.2
      vertex 34.5173036929194 30.2568257161112 16.2
   endloop
endfacet
facet normal 5.78882107681027e-017 -1.15344412403546e-030 -1.0
   outer loop
      vertex 99.8522401834581 18.0068257161111 16.2
      vertex 34.5173036929194 30.2568257161112 16.2
      vertex 34.767054749181 30.859778103355 16.2
   endloop
endfacet
facet normal 5.78882107681027e-017 -1.15344412403546e-030 -1.0
   outer loop
      vertex 99.8522401834581 18.0068257161111 16.2
      vertex 34.767054749181 30.859778103355 16.2
      vertex 34.8522401834584 31.5068257161113 16.2
   endloop
endfacet
facet normal 5.78882107681027e-017 -1.15344412403546e-030 -1.0
   outer loop
      vertex 99.8522401834581 18.0068257161111 16.2
      vertex 34.8522401834584 31.5068257161113 16.2
      vertex 92.8522401834582 22.0068257161113 16.2
   endloop
endfacet
facet normal 5.78882107681027e-017 -1.15344412403546e-030 -1.0
   outer loop
      vertex 92.8522401834582 22.0068257161113 16.2
      vertex 34.8522401834584 31.5068257161113 16.2
      vertex 82.602240183458 29.3417622066501 16.2
   endloop
endfacet
facet normal 5.78882107681027e-017 -1.15344412403546e-030 -1.0
   outer loop
      vertex 82.602240183458 29.3417622066501 16.2
      vertex 34.8522401834584 31.5068257161113 16.2
      vertex 82.0844732304915 29.7390587631447 16.2
   endloop
endfacet
facet normal 5.78882107681027e-017 -1.15344412403546e-030 -1.0
   outer loop
      vertex 82.0844732304915 29.7390587631447 16.2
      vertex 34.8522401834584 31.5068257161113 16.2
      vertex 81.6871766739969 30.2568257161112 16.2
   endloop
endfacet
facet normal 5.78882107681027e-017 -1.15344412403546e-030 -1.0
   outer loop
      vertex 81.6871766739969 30.2568257161112 16.2
      vertex 34.8522401834584 31.5068257161113 16.2
      vertex 81.4374256177352 30.859778103355 16.2
   endloop
endfacet
facet normal 5.78882107681027e-017 -1.15344412403546e-030 -1.0
   outer loop
      vertex 81.4374256177352 30.859778103355 16.2
      vertex 34.8522401834584 31.5068257161113 16.2
      vertex 81.3522401834579 31.5068257161113 16.2
   endloop
endfacet
facet normal 5.78882107681027e-017 -1.15344412403546e-030 -1.0
   outer loop
      vertex 92.8522401834582 22.0068257161113 16.2
      vertex 82.602240183458 29.3417622066501 16.2
      vertex 83.2051925707018 29.0920111503885 16.2
   endloop
endfacet
facet normal 5.78882107681027e-017 -1.15344412403546e-030 -1.0
   outer loop
      vertex 92.8522401834582 22.0068257161113 16.2
      vertex 83.2051925707018 29.0920111503885 16.2
      vertex 83.8522401834581 29.0068257161111 16.2
   endloop
endfacet
facet normal 5.78882107681027e-017 -1.15344412403546e-030 -1.0
   outer loop
      vertex 92.8522401834582 22.0068257161113 16.2
      vertex 83.8522401834581 29.0068257161111 16.2
      vertex 84.4992877962143 29.0920111503885 16.2
   endloop
endfacet
facet normal 5.78882107681027e-017 -1.15344412403546e-030 -1.0
   outer loop
      vertex 92.8522401834582 22.0068257161113 16.2
      vertex 84.4992877962143 29.0920111503885 16.2
      vertex 85.1022401834581 29.3417622066501 16.2
   endloop
endfacet
facet normal 5.78882107681027e-017 -1.15344412403546e-030 -1.0
   outer loop
      vertex 92.8522401834582 22.0068257161113 16.2
      vertex 85.1022401834581 29.3417622066501 16.2
      vertex 85.6200071364246 29.7390587631447 16.2
   endloop
endfacet
facet normal 5.78882107681027e-017 -1.15344412403546e-030 -1.0
   outer loop
      vertex 92.8522401834582 22.0068257161113 16.2
      vertex 85.6200071364246 29.7390587631447 16.2
      vertex 86.0173036929192 30.2568257161112 16.2
   endloop
endfacet
facet normal 5.78882107681027e-017 -1.15344412403546e-030 -1.0
   outer loop
      vertex 92.8522401834582 22.0068257161113 16.2
      vertex 86.0173036929192 30.2568257161112 16.2
      vertex 86.2670547491809 30.859778103355 16.2
   endloop
endfacet
facet normal 5.78882107681027e-017 -1.15344412403546e-030 -1.0
   outer loop
      vertex 92.8522401834582 22.0068257161113 16.2
      vertex 86.2670547491809 30.859778103355 16.2
      vertex 86.3522401834582 31.5068257161113 16.2
   endloop
endfacet
facet normal 5.78882107681027e-017 -1.15344412403546e-030 -1.0
   outer loop
      vertex 99.8522401834581 18.0068257161111 16.2
      vertex 92.8522401834582 22.0068257161113 16.2
      vertex 96.852240183458 22.0068257161113 16.2
   endloop
endfacet
facet normal 5.78882107681027e-017 -1.15344412403546e-030 -1.0
   outer loop
      vertex 99.8522401834581 18.0068257161111 16.2
      vertex 96.852240183458 22.0068257161113 16.2
      vertex 99.8522401834581 26.0068257161111 16.2
   endloop
endfacet
facet normal 5.78882107681027e-017 -1.15344412403546e-030 -1.0
   outer loop
      vertex 19.3522401834583 37.0068257161111 16.2
      vertex 16.3522401834583 37.0068257161111 16.2
      vertex 19.3522401834583 41.0068257161109 16.2
   endloop
endfacet
facet normal -0.0 -0.0 1.0
   outer loop
      vertex 25.8522401834581 18.0068257161111 79.7
      vertex 16.3522401834583 26.0068257161111 79.7
      vertex 16.3522401834583 18.0068257161111 79.7
   endloop
endfacet
facet normal -0.0 -0.0 1.0
   outer loop
      vertex 16.3522401834583 26.0068257161111 79.7
      vertex 25.8522401834581 18.0068257161111 79.7
      vertex 19.3522401834583 26.0068257161111 79.7
   endloop
endfacet
facet normal -0.0 -0.0 1.0
   outer loop
      vertex 19.3522401834583 26.0068257161111 79.7
      vertex 25.8522401834581 18.0068257161111 79.7
      vertex 23.3522401834581 26.0068257161111 79.7
   endloop
endfacet
facet normal -0.0 -0.0 1.0
   outer loop
      vertex 23.3522401834581 26.0068257161111 79.7
      vertex 25.8522401834581 18.0068257161111 79.7
      vertex 23.3522401834581 37.0068257161111 79.7
   endloop
endfacet
facet normal -0.0 -0.0 1.0
   outer loop
      vertex 19.3522401834583 37.0068257161111 79.7
      vertex 16.3522401834583 45.0068257161111 79.7
      vertex 16.3522401834583 37.0068257161111 79.7
   endloop
endfacet
facet normal -0.0 -0.0 1.0
   outer loop
      vertex 16.3522401834583 45.0068257161111 79.7
      vertex 19.3522401834583 37.0068257161111 79.7
      vertex 25.8522401834582 45.0068257161111 79.7
   endloop
endfacet
facet normal -0.0 -0.0 1.0
   outer loop
      vertex 25.8522401834582 45.0068257161111 79.7
      vertex 19.3522401834583 37.0068257161111 79.7
      vertex 23.3522401834581 37.0068257161111 79.7
   endloop
endfacet
facet normal -0.0 -0.0 1.0
   outer loop
      vertex 25.8522401834582 45.0068257161111 79.7
      vertex 23.3522401834581 37.0068257161111 79.7
      vertex 25.8522401834581 18.0068257161111 79.7
   endloop
endfacet
facet normal -1.0 0.0 -0.0
   outer loop
      vertex 90.3522401834582 45.0068257161111 79.6999999999999
      vertex 90.3522401834582 18.0068257161112 21.2
      vertex 90.3522401834582 18.0068257161111 79.6999999999999
   endloop
endfacet
facet normal -1.0 0.0 -0.0
   outer loop
      vertex 90.3522401834582 18.0068257161112 21.2
      vertex 90.3522401834582 45.0068257161111 79.6999999999999
      vertex 90.3522401834582 45.0068257161112 21.2
   endloop
endfacet
facet normal 1.0 -1.67109124891727e-015 -0.0
   outer loop
      vertex 25.8522401834582 45.0068257161111 21.2
      vertex 25.8522401834581 18.0068257161111 79.7
      vertex 25.8522401834581 18.0068257161111 21.2
   endloop
endfacet
facet normal 1.0 -1.67109124891727e-015 -0.0
   outer loop
      vertex 25.8522401834581 18.0068257161111 79.7
      vertex 25.8522401834582 45.0068257161111 21.2
      vertex 25.8522401834582 45.0068257161111 79.7
   endloop
endfacet
facet normal -2.19954994823574e-016 -5.57030416305758e-016 1.0
   outer loop
      vertex 25.8522401834581 18.0068257161111 21.2
      vertex 29.9374256177354 30.859778103355 21.2
      vertex 25.8522401834582 45.0068257161111 21.2
   endloop
endfacet
facet normal -2.19954994823574e-016 -5.57030416305758e-016 1.0
   outer loop
      vertex 29.9374256177354 30.859778103355 21.2
      vertex 25.8522401834581 18.0068257161111 21.2
      vertex 30.1871766739971 30.2568257161112 21.2
   endloop
endfacet
facet normal -2.19954994823574e-016 -5.57030416305758e-016 1.0
   outer loop
      vertex 30.1871766739971 30.2568257161112 21.2
      vertex 25.8522401834581 18.0068257161111 21.2
      vertex 30.5844732304916 29.7390587631447 21.2
   endloop
endfacet
facet normal -2.19954994823574e-016 -5.57030416305758e-016 1.0
   outer loop
      vertex 30.5844732304916 29.7390587631447 21.2
      vertex 25.8522401834581 18.0068257161111 21.2
      vertex 31.1022401834581 29.3417622066501 21.2
   endloop
endfacet
facet normal -2.19954994823574e-016 -5.57030416305758e-016 1.0
   outer loop
      vertex 31.1022401834581 29.3417622066501 21.2
      vertex 25.8522401834581 18.0068257161111 21.2
      vertex 31.705192570702 29.0920111503885 21.2
   endloop
endfacet
facet normal -2.19954994823574e-016 -5.57030416305758e-016 1.0
   outer loop
      vertex 31.705192570702 29.0920111503885 21.2
      vertex 25.8522401834581 18.0068257161111 21.2
      vertex 90.3522401834582 18.0068257161112 21.2
   endloop
endfacet
facet normal -2.19954994823574e-016 -5.57030416305758e-016 1.0
   outer loop
      vertex 25.8522401834582 45.0068257161111 21.2
      vertex 29.9374256177354 30.859778103355 21.2
      vertex 29.8522401834581 31.5068257161113 21.2
   endloop
endfacet
facet normal -2.19954994823574e-016 -5.57030416305758e-016 1.0
   outer loop
      vertex 31.705192570702 29.0920111503885 21.2
      vertex 90.3522401834582 18.0068257161112 21.2
      vertex 32.3522401834582 29.0068257161111 21.2
   endloop
endfacet
facet normal -2.19954994823574e-016 -5.57030416305758e-016 1.0
   outer loop
      vertex 32.3522401834582 29.0068257161111 21.2
      vertex 90.3522401834582 18.0068257161112 21.2
      vertex 32.9992877962145 29.0920111503885 21.2
   endloop
endfacet
facet normal -2.19954994823574e-016 -5.57030416305758e-016 1.0
   outer loop
      vertex 32.9992877962145 29.0920111503885 21.2
      vertex 90.3522401834582 18.0068257161112 21.2
      vertex 33.6022401834583 29.3417622066501 21.2
   endloop
endfacet
facet normal -2.19954994823574e-016 -5.57030416305758e-016 1.0
   outer loop
      vertex 33.6022401834583 29.3417622066501 21.2
      vertex 90.3522401834582 18.0068257161112 21.2
      vertex 34.1200071364248 29.7390587631447 21.2
   endloop
endfacet
facet normal -2.19954994823574e-016 -5.57030416305758e-016 1.0
   outer loop
      vertex 34.1200071364248 29.7390587631447 21.2
      vertex 90.3522401834582 18.0068257161112 21.2
      vertex 34.5173036929194 30.2568257161112 21.2
   endloop
endfacet
facet normal -2.19954994823574e-016 -5.57030416305758e-016 1.0
   outer loop
      vertex 34.5173036929194 30.2568257161112 21.2
      vertex 90.3522401834582 18.0068257161112 21.2
      vertex 34.767054749181 30.859778103355 21.2
   endloop
endfacet
facet normal -2.19954994823574e-016 -5.57030416305758e-016 1.0
   outer loop
      vertex 34.767054749181 30.859778103355 21.2
      vertex 90.3522401834582 18.0068257161112 21.2
      vertex 34.8522401834584 31.5068257161113 21.2
   endloop
endfacet
facet normal -2.19954994823574e-016 -5.57030416305758e-016 1.0
   outer loop
      vertex 34.8522401834584 31.5068257161113 21.2
      vertex 90.3522401834582 18.0068257161112 21.2
      vertex 81.6871766739969 30.2568257161112 21.2
   endloop
endfacet
facet normal -2.19954994823574e-016 -5.57030416305758e-016 1.0
   outer loop
      vertex 34.8522401834584 31.5068257161113 21.2
      vertex 81.6871766739969 30.2568257161112 21.2
      vertex 81.4374256177352 30.859778103355 21.2
   endloop
endfacet
facet normal -2.19954994823574e-016 -5.57030416305758e-016 1.0
   outer loop
      vertex 34.8522401834584 31.5068257161113 21.2
      vertex 81.4374256177352 30.859778103355 21.2
      vertex 81.3522401834579 31.5068257161113 21.2
   endloop
endfacet
facet normal -2.19954994823574e-016 -5.57030416305758e-016 1.0
   outer loop
      vertex 81.6871766739969 30.2568257161112 21.2
      vertex 90.3522401834582 18.0068257161112 21.2
      vertex 82.0844732304915 29.7390587631447 21.2
   endloop
endfacet
facet normal -2.19954994823574e-016 -5.57030416305758e-016 1.0
   outer loop
      vertex 82.0844732304915 29.7390587631447 21.2
      vertex 90.3522401834582 18.0068257161112 21.2
      vertex 82.602240183458 29.3417622066501 21.2
   endloop
endfacet
facet normal -2.19954994823574e-016 -5.57030416305758e-016 1.0
   outer loop
      vertex 82.602240183458 29.3417622066501 21.2
      vertex 90.3522401834582 18.0068257161112 21.2
      vertex 83.2051925707018 29.0920111503885 21.2
   endloop
endfacet
facet normal -2.19954994823574e-016 -5.57030416305758e-016 1.0
   outer loop
      vertex 83.2051925707018 29.0920111503885 21.2
      vertex 90.3522401834582 18.0068257161112 21.2
      vertex 83.8522401834581 29.0068257161111 21.2
   endloop
endfacet
facet normal -2.19954994823574e-016 -5.57030416305758e-016 1.0
   outer loop
      vertex 83.8522401834581 29.0068257161111 21.2
      vertex 90.3522401834582 18.0068257161112 21.2
      vertex 84.4992877962143 29.0920111503885 21.2
   endloop
endfacet
facet normal -2.19954994823574e-016 -5.57030416305758e-016 1.0
   outer loop
      vertex 84.4992877962143 29.0920111503885 21.2
      vertex 90.3522401834582 18.0068257161112 21.2
      vertex 85.1022401834581 29.3417622066501 21.2
   endloop
endfacet
facet normal -2.19954994823574e-016 -5.57030416305758e-016 1.0
   outer loop
      vertex 85.1022401834581 29.3417622066501 21.2
      vertex 90.3522401834582 18.0068257161112 21.2
      vertex 85.6200071364246 29.7390587631447 21.2
   endloop
endfacet
facet normal -2.19954994823574e-016 -5.57030416305758e-016 1.0
   outer loop
      vertex 85.6200071364246 29.7390587631447 21.2
      vertex 90.3522401834582 18.0068257161112 21.2
      vertex 86.0173036929192 30.2568257161112 21.2
   endloop
endfacet
facet normal -2.19954994823574e-016 -5.57030416305758e-016 1.0
   outer loop
      vertex 86.0173036929192 30.2568257161112 21.2
      vertex 90.3522401834582 18.0068257161112 21.2
      vertex 86.2670547491809 30.859778103355 21.2
   endloop
endfacet
facet normal -2.19954994823574e-016 -5.57030416305758e-016 1.0
   outer loop
      vertex 86.2670547491809 30.859778103355 21.2
      vertex 90.3522401834582 18.0068257161112 21.2
      vertex 86.3522401834582 31.5068257161113 21.2
   endloop
endfacet
facet normal -2.19954994823574e-016 -5.57030416305758e-016 1.0
   outer loop
      vertex 25.8522401834582 45.0068257161111 21.2
      vertex 31.705192570702 33.9216402818341 21.2
      vertex 90.3522401834582 45.0068257161112 21.2
   endloop
endfacet
facet normal -2.19954994823574e-016 -5.57030416305758e-016 1.0
   outer loop
      vertex 31.705192570702 33.9216402818341 21.2
      vertex 25.8522401834582 45.0068257161111 21.2
      vertex 31.1022401834581 33.6718892255724 21.2
   endloop
endfacet
facet normal -2.19954994823574e-016 -5.57030416305758e-016 1.0
   outer loop
      vertex 31.1022401834581 33.6718892255724 21.2
      vertex 25.8522401834582 45.0068257161111 21.2
      vertex 30.5844732304916 33.2745926690779 21.2
   endloop
endfacet
facet normal -2.19954994823574e-016 -5.57030416305758e-016 1.0
   outer loop
      vertex 30.5844732304916 33.2745926690779 21.2
      vertex 25.8522401834582 45.0068257161111 21.2
      vertex 30.1871766739971 32.7568257161114 21.2
   endloop
endfacet
facet normal -2.19954994823574e-016 -5.57030416305758e-016 1.0
   outer loop
      vertex 30.1871766739971 32.7568257161114 21.2
      vertex 25.8522401834582 45.0068257161111 21.2
      vertex 29.9374256177354 32.1538733288675 21.2
   endloop
endfacet
facet normal -2.19954994823574e-016 -5.57030416305758e-016 1.0
   outer loop
      vertex 29.9374256177354 32.1538733288675 21.2
      vertex 25.8522401834582 45.0068257161111 21.2
      vertex 29.8522401834581 31.5068257161113 21.2
   endloop
endfacet
facet normal -2.19954994823574e-016 -5.57030416305758e-016 1.0
   outer loop
      vertex 90.3522401834582 45.0068257161112 21.2
      vertex 31.705192570702 33.9216402818341 21.2
      vertex 32.3522401834582 34.0068257161114 21.2
   endloop
endfacet
facet normal -2.19954994823574e-016 -5.57030416305758e-016 1.0
   outer loop
      vertex 90.3522401834582 45.0068257161112 21.2
      vertex 32.3522401834582 34.0068257161114 21.2
      vertex 32.9992877962145 33.9216402818341 21.2
   endloop
endfacet
facet normal -2.19954994823574e-016 -5.57030416305758e-016 1.0
   outer loop
      vertex 90.3522401834582 45.0068257161112 21.2
      vertex 32.9992877962145 33.9216402818341 21.2
      vertex 33.6022401834583 33.6718892255724 21.2
   endloop
endfacet
facet normal -2.19954994823574e-016 -5.57030416305758e-016 1.0
   outer loop
      vertex 90.3522401834582 45.0068257161112 21.2
      vertex 33.6022401834583 33.6718892255724 21.2
      vertex 34.1200071364248 33.2745926690779 21.2
   endloop
endfacet
facet normal -2.19954994823574e-016 -5.57030416305758e-016 1.0
   outer loop
      vertex 90.3522401834582 45.0068257161112 21.2
      vertex 34.1200071364248 33.2745926690779 21.2
      vertex 34.5173036929194 32.7568257161114 21.2
   endloop
endfacet
facet normal -2.19954994823574e-016 -5.57030416305758e-016 1.0
   outer loop
      vertex 90.3522401834582 45.0068257161112 21.2
      vertex 34.5173036929194 32.7568257161114 21.2
      vertex 34.767054749181 32.1538733288675 21.2
   endloop
endfacet
facet normal -2.19954994823574e-016 -5.57030416305758e-016 1.0
   outer loop
      vertex 90.3522401834582 45.0068257161112 21.2
      vertex 34.767054749181 32.1538733288675 21.2
      vertex 34.8522401834584 31.5068257161113 21.2
   endloop
endfacet
facet normal -2.19954994823574e-016 -5.57030416305758e-016 1.0
   outer loop
      vertex 90.3522401834582 45.0068257161112 21.2
      vertex 34.8522401834584 31.5068257161113 21.2
      vertex 81.6871766739969 32.7568257161114 21.2
   endloop
endfacet
facet normal -2.19954994823574e-016 -5.57030416305758e-016 1.0
   outer loop
      vertex 81.6871766739969 32.7568257161114 21.2
      vertex 34.8522401834584 31.5068257161113 21.2
      vertex 81.4374256177352 32.1538733288675 21.2
   endloop
endfacet
facet normal -2.19954994823574e-016 -5.57030416305758e-016 1.0
   outer loop
      vertex 81.4374256177352 32.1538733288675 21.2
      vertex 34.8522401834584 31.5068257161113 21.2
      vertex 81.3522401834579 31.5068257161113 21.2
   endloop
endfacet
facet normal -2.19954994823574e-016 -5.57030416305758e-016 1.0
   outer loop
      vertex 90.3522401834582 45.0068257161112 21.2
      vertex 81.6871766739969 32.7568257161114 21.2
      vertex 82.0844732304915 33.2745926690779 21.2
   endloop
endfacet
facet normal -2.19954994823574e-016 -5.57030416305758e-016 1.0
   outer loop
      vertex 90.3522401834582 45.0068257161112 21.2
      vertex 82.0844732304915 33.2745926690779 21.2
      vertex 82.602240183458 33.6718892255724 21.2
   endloop
endfacet
facet normal -2.19954994823574e-016 -5.57030416305758e-016 1.0
   outer loop
      vertex 90.3522401834582 45.0068257161112 21.2
      vertex 82.602240183458 33.6718892255724 21.2
      vertex 83.2051925707018 33.9216402818341 21.2
   endloop
endfacet
facet normal -2.19954994823574e-016 -5.57030416305758e-016 1.0
   outer loop
      vertex 90.3522401834582 45.0068257161112 21.2
      vertex 83.2051925707018 33.9216402818341 21.2
      vertex 83.8522401834581 34.0068257161114 21.2
   endloop
endfacet
facet normal -2.19954994823574e-016 -5.57030416305758e-016 1.0
   outer loop
      vertex 90.3522401834582 45.0068257161112 21.2
      vertex 83.8522401834581 34.0068257161114 21.2
      vertex 84.4992877962143 33.9216402818341 21.2
   endloop
endfacet
facet normal -2.19954994823574e-016 -5.57030416305758e-016 1.0
   outer loop
      vertex 90.3522401834582 45.0068257161112 21.2
      vertex 84.4992877962143 33.9216402818341 21.2
      vertex 85.1022401834581 33.6718892255724 21.2
   endloop
endfacet
facet normal -2.19954994823574e-016 -5.57030416305758e-016 1.0
   outer loop
      vertex 90.3522401834582 45.0068257161112 21.2
      vertex 85.1022401834581 33.6718892255724 21.2
      vertex 85.6200071364246 33.2745926690779 21.2
   endloop
endfacet
facet normal -2.19954994823574e-016 -5.57030416305758e-016 1.0
   outer loop
      vertex 90.3522401834582 45.0068257161112 21.2
      vertex 85.6200071364246 33.2745926690779 21.2
      vertex 86.0173036929192 32.7568257161114 21.2
   endloop
endfacet
facet normal -2.19954994823574e-016 -5.57030416305758e-016 1.0
   outer loop
      vertex 90.3522401834582 45.0068257161112 21.2
      vertex 86.0173036929192 32.7568257161114 21.2
      vertex 86.2670547491809 32.1538733288675 21.2
   endloop
endfacet
facet normal -2.19954994823574e-016 -5.57030416305758e-016 1.0
   outer loop
      vertex 90.3522401834582 45.0068257161112 21.2
      vertex 86.2670547491809 32.1538733288675 21.2
      vertex 86.3522401834582 31.5068257161113 21.2
   endloop
endfacet
facet normal -2.19954994823574e-016 -5.57030416305758e-016 1.0
   outer loop
      vertex 90.3522401834582 45.0068257161112 21.2
      vertex 86.3522401834582 31.5068257161113 21.2
      vertex 90.3522401834582 18.0068257161112 21.2
   endloop
endfacet
endsolid footing 1 P-009
