solid footing 2 P-010
facet normal 1.0 5.9211894646675e-016 7.53384764369832e-046
   outer loop
      vertex 32.8576559514227 165.927653097767 7.60000000000009
      vertex 32.8576559514227 13.5276530977666 12.6000000000001
      vertex 32.8576559514227 13.5276530977666 7.60000000000009
   endloop
endfacet
facet normal 1.0 5.9211894646675e-016 7.53384764369832e-046
   outer loop
      vertex 32.8576559514227 13.5276530977666 12.6000000000001
      vertex 32.8576559514227 165.927653097767 7.60000000000009
      vertex 32.8576559514227 165.927653097767 12.6000000000001
   endloop
endfacet
facet normal -2.51784246346943e-016 -0.331232777166982 0.943549069911178
   outer loop
      vertex 13.8576559514227 13.5276530977666 17.6000000000001
      vertex 24.8576559514227 165.927653097767 71.1000000000001
      vertex 13.8576559514227 165.927653097767 71.1000000000001
   endloop
endfacet
facet normal -2.51784246346943e-016 -0.331232777166982 0.943549069911178
   outer loop
      vertex 24.8576559514227 165.927653097767 71.1000000000001
      vertex 13.8576559514227 13.5276530977666 17.6000000000001
      vertex 24.8576559514227 13.5276530977666 17.6000000000001
   endloop
endfacet
facet normal -0.0 -0.0 1.0
   outer loop
      vertex 32.8576559514227 13.5276530977666 12.6000000000001
      vertex 24.8576559514227 165.927653097767 12.6000000000001
      vertex 24.8576559514227 13.5276530977666 12.6000000000001
   endloop
endfacet
facet normal -0.0 -0.0 1.0
   outer loop
      vertex 24.8576559514227 165.927653097767 12.6000000000001
      vertex 32.8576559514227 13.5276530977666 12.6000000000001
      vertex 32.8576559514227 165.927653097767 12.6000000000001
   endloop
endfacet
facet normal -1.0 -2.96059473233375e-016 0.0
   outer loop
      vertex 5.85765595142269 165.927653097767 12.6000000000001
      vertex 5.85765595142273 13.5276530977666 7.60000000000009
      vertex 5.85765595142273 13.5276530977666 12.6000000000001
   endloop
endfacet
facet normal -1.0 -2.96059473233375e-016 0.0
   outer loop
      vertex 5.85765595142273 13.5276530977666 7.60000000000009
      vertex 5.85765595142269 165.927653097767 12.6000000000001
      vertex 5.85765595142269 165.927653097767 7.60000000000009
   endloop
endfacet
facet normal -0.0 -0.0 1.0
   outer loop
      vertex 24.8576559514227 165.927653097767 71.1000000000001
      vertex 13.8576559514227 168.927653097767 71.1000000000001
      vertex 13.8576559514227 165.927653097767 71.1000000000001
   endloop
endfacet
facet normal -0.0 -0.0 1.0
   outer loop
      vertex 13.8576559514227 168.927653097767 71.1000000000001
      vertex 24.8576559514227 172.927653097767 71.1000000000001
      vertex 13.8576559514227 172.927653097767 71.1000000000001
   endloop
endfacet
facet normal -0.0 -0.0 1.0
   outer loop
      vertex 24.8576559514227 172.927653097767 71.1000000000001
      vertex 13.8576559514227 168.927653097767 71.1000000000001
      vertex 24.8576559514227 165.927653097767 71.1000000000001
   endloop
endfacet
facet normal -0.0 -0.0 1.0
   outer loop
      vertex 24.8576559514227 172.927653097767 71.1000000000001
      vertex 24.8576559514227 165.927653097767 71.1000000000001
      vertex 24.8576559514227 168.927653097767 71.1000000000001
   endloop
endfacet
facet normal 1.22087960656191e-015 -1.0 1.41119000189729e-030
   outer loop
      vertex 24.8576559514227 13.5276530977666 17.6000000000001
      vertex 13.8576559514227 13.5276530977666 12.6000000000001
      vertex 24.8576559514227 13.5276530977666 12.6000000000001
   endloop
endfacet
facet normal 1.22087960656191e-015 -1.0 1.41119000189729e-030
   outer loop
      vertex 13.8576559514227 13.5276530977666 12.6000000000001
      vertex 24.8576559514227 13.5276530977666 17.6000000000001
      vertex 13.8576559514227 13.5276530977666 17.6000000000001
   endloop
endfacet
facet normal 1.22087960656191e-015 -1.0 1.41119000189729e-030
   outer loop
      vertex 32.8576559514227 13.5276530977666 12.6000000000001
      vertex 5.85765595142273 13.5276530977666 7.60000000000009
      vertex 32.8576559514227 13.5276530977666 7.60000000000009
   endloop
endfacet
facet normal 1.22087960656191e-015 -1.0 1.41119000189729e-030
   outer loop
      vertex 5.85765595142273 13.5276530977666 7.60000000000009
      vertex 32.8576559514227 13.5276530977666 12.6000000000001
      vertex 5.85765595142273 13.5276530977666 12.6000000000001
   endloop
endfacet
facet normal 1.22087960656191e-015 -1.0 1.41119000189729e-030
   outer loop
      vertex 5.85765595142273 13.5276530977666 12.6000000000001
      vertex 32.8576559514227 13.5276530977666 12.6000000000001
      vertex 24.8576559514227 13.5276530977666 12.6000000000001
   endloop
endfacet
facet normal 1.22087960656191e-015 -1.0 1.41119000189729e-030
   outer loop
      vertex 5.85765595142273 13.5276530977666 12.6000000000001
      vertex 24.8576559514227 13.5276530977666 12.6000000000001
      vertex 13.8576559514227 13.5276530977666 12.6000000000001
   endloop
endfacet
facet normal 0.0 0.0 -1.0
   outer loop
      vertex 28.8576559514227 172.927653097767 7.60000000000009
      vertex 9.85765595142266 168.927653097767 7.60000000000009
      vertex 9.85765595142263 172.927653097767 7.60000000000009
   endloop
endfacet
facet normal 0.0 0.0 -1.0
   outer loop
      vertex 9.85765595142266 168.927653097767 7.60000000000009
      vertex 28.8576559514227 172.927653097767 7.60000000000009
      vertex 13.8576559514227 168.927653097767 7.60000000000009
   endloop
endfacet
facet normal 0.0 0.0 -1.0
   outer loop
      vertex 13.8576559514227 168.927653097767 7.60000000000009
      vertex 28.8576559514227 172.927653097767 7.60000000000009
      vertex 13.8576559514227 165.927653097767 7.60000000000009
   endloop
endfacet
facet normal 0.0 0.0 -1.0
   outer loop
      vertex 13.8576559514227 165.927653097767 7.60000000000009
      vertex 28.8576559514227 172.927653097767 7.60000000000009
      vertex 24.8576559514227 168.927653097767 7.60000000000009
   endloop
endfacet
facet normal 0.0 0.0 -1.0
   outer loop
      vertex 13.8576559514227 165.927653097767 7.60000000000009
      vertex 24.8576559514227 168.927653097767 7.60000000000009
      vertex 17.1576559514227 28.5276530977666 7.60000000000009
   endloop
endfacet
facet normal 0.0 0.0 -1.0
   outer loop
      vertex 17.1576559514227 28.5276530977666 7.60000000000009
      vertex 24.8576559514227 168.927653097767 7.60000000000009
      vertex 17.2326191335868 29.0970549969922 7.60000000000009
   endloop
endfacet
facet normal 0.0 0.0 -1.0
   outer loop
      vertex 17.2326191335868 29.0970549969922 7.60000000000009
      vertex 24.8576559514227 168.927653097767 7.60000000000009
      vertex 17.452400063097 29.6276530977666 7.60000000000009
   endloop
endfacet
facet normal 0.0 0.0 -1.0
   outer loop
      vertex 17.452400063097 29.6276530977666 7.60000000000009
      vertex 24.8576559514227 168.927653097767 7.60000000000009
      vertex 17.8020210328123 30.083288016377 7.60000000000009
   endloop
endfacet
facet normal 0.0 0.0 -1.0
   outer loop
      vertex 17.8020210328123 30.083288016377 7.60000000000009
      vertex 24.8576559514227 168.927653097767 7.60000000000009
      vertex 18.2576559514227 30.4329089860924 7.60000000000009
   endloop
endfacet
facet normal 0.0 0.0 -1.0
   outer loop
      vertex 18.2576559514227 30.4329089860924 7.60000000000009
      vertex 24.8576559514227 168.927653097767 7.60000000000009
      vertex 18.7882540521972 30.6526899156026 7.60000000000009
   endloop
endfacet
facet normal 0.0 0.0 -1.0
   outer loop
      vertex 18.7882540521972 30.6526899156026 7.60000000000009
      vertex 24.8576559514227 168.927653097767 7.60000000000009
      vertex 19.3576559514227 30.7276530977666 7.60000000000009
   endloop
endfacet
facet normal 0.0 0.0 -1.0
   outer loop
      vertex 19.3576559514227 30.7276530977666 7.60000000000009
      vertex 24.8576559514227 168.927653097767 7.60000000000009
      vertex 19.9270578506483 30.6526899156026 7.60000000000009
   endloop
endfacet
facet normal 0.0 0.0 -1.0
   outer loop
      vertex 19.9270578506483 30.6526899156026 7.60000000000009
      vertex 24.8576559514227 168.927653097767 7.60000000000009
      vertex 20.4576559514227 30.4329089860924 7.60000000000009
   endloop
endfacet
facet normal 0.0 0.0 -1.0
   outer loop
      vertex 20.4576559514227 30.4329089860924 7.60000000000009
      vertex 24.8576559514227 168.927653097767 7.60000000000009
      vertex 20.9132908700331 30.083288016377 7.60000000000009
   endloop
endfacet
facet normal 0.0 0.0 -1.0
   outer loop
      vertex 20.9132908700331 30.083288016377 7.60000000000009
      vertex 24.8576559514227 168.927653097767 7.60000000000009
      vertex 21.2629118397485 29.6276530977666 7.60000000000009
   endloop
endfacet
facet normal 0.0 0.0 -1.0
   outer loop
      vertex 21.2629118397485 29.6276530977666 7.60000000000009
      vertex 24.8576559514227 168.927653097767 7.60000000000009
      vertex 21.4826927692587 29.0970549969922 7.60000000000009
   endloop
endfacet
facet normal 0.0 0.0 -1.0
   outer loop
      vertex 21.4826927692587 29.0970549969922 7.60000000000009
      vertex 24.8576559514227 168.927653097767 7.60000000000009
      vertex 21.5576559514227 28.5276530977666 7.60000000000009
   endloop
endfacet
facet normal 0.0 0.0 -1.0
   outer loop
      vertex 24.8576559514227 168.927653097767 7.60000000000009
      vertex 28.8576559514227 172.927653097767 7.60000000000009
      vertex 28.8576559514227 168.927653097767 7.60000000000009
   endloop
endfacet
facet normal 0.0 0.0 -1.0
   outer loop
      vertex 13.8576559514227 165.927653097767 7.60000000000009
      vertex 5.85765595142273 13.5276530977666 7.60000000000009
      vertex 5.85765595142269 165.927653097767 7.60000000000009
   endloop
endfacet
facet normal 0.0 0.0 -1.0
   outer loop
      vertex 5.85765595142273 13.5276530977666 7.60000000000009
      vertex 13.8576559514227 165.927653097767 7.60000000000009
      vertex 17.1576559514227 28.5276530977666 7.60000000000009
   endloop
endfacet
facet normal 0.0 0.0 -1.0
   outer loop
      vertex 5.85765595142273 13.5276530977666 7.60000000000009
      vertex 17.1576559514227 28.5276530977666 7.60000000000009
      vertex 17.2326191335868 27.9582511985411 7.60000000000009
   endloop
endfacet
facet normal 0.0 0.0 -1.0
   outer loop
      vertex 5.85765595142273 13.5276530977666 7.60000000000009
      vertex 17.2326191335868 27.9582511985411 7.60000000000009
      vertex 17.452400063097 27.4276530977666 7.60000000000009
   endloop
endfacet
facet normal 0.0 0.0 -1.0
   outer loop
      vertex 5.85765595142273 13.5276530977666 7.60000000000009
      vertex 17.452400063097 27.4276530977666 7.60000000000009
      vertex 17.8020210328123 26.9720181791562 7.60000000000009
   endloop
endfacet
facet normal 0.0 0.0 -1.0
   outer loop
      vertex 5.85765595142273 13.5276530977666 7.60000000000009
      vertex 17.8020210328123 26.9720181791562 7.60000000000009
      vertex 32.8576559514227 13.5276530977666 7.60000000000009
   endloop
endfacet
facet normal 0.0 0.0 -1.0
   outer loop
      vertex 32.8576559514227 13.5276530977666 7.60000000000009
      vertex 17.8020210328123 26.9720181791562 7.60000000000009
      vertex 18.2576559514227 26.6223972094409 7.60000000000009
   endloop
endfacet
facet normal 0.0 0.0 -1.0
   outer loop
      vertex 32.8576559514227 13.5276530977666 7.60000000000009
      vertex 18.2576559514227 26.6223972094409 7.60000000000009
      vertex 18.7882540521972 26.4026162799307 7.60000000000009
   endloop
endfacet
facet normal 0.0 0.0 -1.0
   outer loop
      vertex 32.8576559514227 13.5276530977666 7.60000000000009
      vertex 18.7882540521972 26.4026162799307 7.60000000000009
      vertex 19.3576559514227 26.3276530977666 7.60000000000009
   endloop
endfacet
facet normal 0.0 0.0 -1.0
   outer loop
      vertex 32.8576559514227 13.5276530977666 7.60000000000009
      vertex 19.3576559514227 26.3276530977666 7.60000000000009
      vertex 19.9270578506483 26.4026162799307 7.60000000000009
   endloop
endfacet
facet normal 0.0 0.0 -1.0
   outer loop
      vertex 32.8576559514227 13.5276530977666 7.60000000000009
      vertex 19.9270578506483 26.4026162799307 7.60000000000009
      vertex 20.4576559514227 26.6223972094409 7.60000000000009
   endloop
endfacet
facet normal 0.0 0.0 -1.0
   outer loop
      vertex 32.8576559514227 13.5276530977666 7.60000000000009
      vertex 20.4576559514227 26.6223972094409 7.60000000000009
      vertex 20.9132908700331 26.9720181791562 7.60000000000009
   endloop
endfacet
facet normal 0.0 0.0 -1.0
   outer loop
      vertex 32.8576559514227 13.5276530977666 7.60000000000009
      vertex 20.9132908700331 26.9720181791562 7.60000000000009
      vertex 21.2629118397485 27.4276530977666 7.60000000000009
   endloop
endfacet
facet normal 0.0 0.0 -1.0
   outer loop
      vertex 32.8576559514227 13.5276530977666 7.60000000000009
      vertex 21.2629118397485 27.4276530977666 7.60000000000009
      vertex 21.4826927692587 27.9582511985411 7.60000000000009
   endloop
endfacet
facet normal 0.0 0.0 -1.0
   outer loop
      vertex 32.8576559514227 13.5276530977666 7.60000000000009
      vertex 21.4826927692587 27.9582511985411 7.60000000000009
      vertex 21.5576559514227 28.5276530977666 7.60000000000009
   endloop
endfacet
facet normal 0.0 0.0 -1.0
   outer loop
      vertex 32.8576559514227 13.5276530977666 7.60000000000009
      vertex 21.5576559514227 28.5276530977666 7.60000000000009
      vertex 24.8576559514227 165.927653097767 7.60000000000009
   endloop
endfacet
facet normal 0.0 0.0 -1.0
   outer loop
      vertex 24.8576559514227 165.927653097767 7.60000000000009
      vertex 21.5576559514227 28.5276530977666 7.60000000000009
      vertex 24.8576559514227 168.927653097767 7.60000000000009
   endloop
endfacet
facet normal 0.0 0.0 -1.0
   outer loop
      vertex 32.8576559514227 13.5276530977666 7.60000000000009
      vertex 24.8576559514227 165.927653097767 7.60000000000009
      vertex 32.8576559514227 165.927653097767 7.60000000000009
   endloop
endfacet
facet normal -0.998021880983209 -5.58480168998754e-015 0.062867520061935
   outer loop
      vertex 13.8576559514227 172.927653097767 71.1000000000001
      vertex 9.85765595142266 168.927653097767 7.60000000000009
      vertex 13.8576559514227 168.927653097767 71.1000000000001
   endloop
endfacet
facet normal -0.998021880983209 -5.58480168998754e-015 0.062867520061935
   outer loop
      vertex 9.85765595142266 168.927653097767 7.60000000000009
      vertex 13.8576559514227 172.927653097767 71.1000000000001
      vertex 9.85765595142263 172.927653097767 7.60000000000009
   endloop
endfacet
facet normal 0.0 -1.0 0.0
   outer loop
      vertex 13.8576559514227 168.927653097767 71.1000000000001
      vertex 9.85765595142266 168.927653097767 7.60000000000009
      vertex 13.8576559514227 168.927653097767 7.60000000000009
   endloop
endfacet
facet normal -1.0 -4.18333871274839e-016 3.14575203716556e-016
   outer loop
      vertex 13.8576559514227 165.927653097767 71.1000000000001
      vertex 13.8576559514227 13.5276530977666 12.6000000000001
      vertex 13.8576559514227 13.5276530977666 17.6000000000001
   endloop
endfacet
facet normal -1.0 -4.18333871274839e-016 3.14575203716556e-016
   outer loop
      vertex 13.8576559514227 13.5276530977666 12.6000000000001
      vertex 13.8576559514227 165.927653097767 71.1000000000001
      vertex 13.8576559514226 165.927653097767 12.6000000000001
   endloop
endfacet
facet normal -1.0 -4.18333871274839e-016 3.14575203716556e-016
   outer loop
      vertex 13.8576559514226 165.927653097767 12.6000000000001
      vertex 13.8576559514227 165.927653097767 71.1000000000001
      vertex 13.8576559514227 168.927653097767 71.1000000000001
   endloop
endfacet
facet normal -1.0 -4.18333871274839e-016 3.14575203716556e-016
   outer loop
      vertex 13.8576559514226 165.927653097767 12.6000000000001
      vertex 13.8576559514227 168.927653097767 71.1000000000001
      vertex 13.8576559514227 165.927653097767 7.60000000000009
   endloop
endfacet
facet normal -1.0 -4.18333871274839e-016 3.14575203716556e-016
   outer loop
      vertex 13.8576559514227 165.927653097767 7.60000000000009
      vertex 13.8576559514227 168.927653097767 71.1000000000001
      vertex 13.8576559514227 168.927653097767 7.60000000000009
   endloop
endfacet
facet normal 0.0 -1.0 0.0
   outer loop
      vertex 24.8576559514227 168.927653097767 71.1000000000001
      vertex 24.8576559514227 168.927653097767 7.60000000000009
      vertex 28.8576559514227 168.927653097767 7.60000000000009
   endloop
endfacet
facet normal 1.0 2.1093644181482e-016 2.06449589218191e-016
   outer loop
      vertex 24.8576559514227 168.927653097767 7.60000000000009
      vertex 24.8576559514227 165.927653097767 12.6000000000001
      vertex 24.8576559514227 165.927653097767 7.60000000000009
   endloop
endfacet
facet normal 1.0 2.1093644181482e-016 2.06449589218191e-016
   outer loop
      vertex 24.8576559514227 165.927653097767 12.6000000000001
      vertex 24.8576559514227 168.927653097767 7.60000000000009
      vertex 24.8576559514227 165.927653097767 71.1000000000001
   endloop
endfacet
facet normal 1.0 2.1093644181482e-016 2.06449589218191e-016
   outer loop
      vertex 24.8576559514227 165.927653097767 71.1000000000001
      vertex 24.8576559514227 168.927653097767 7.60000000000009
      vertex 24.8576559514227 168.927653097767 71.1000000000001
   endloop
endfacet
facet normal 1.0 2.1093644181482e-016 2.06449589218191e-016
   outer loop
      vertex 24.8576559514227 165.927653097767 12.6000000000001
      vertex 24.8576559514227 13.5276530977666 17.6000000000001
      vertex 24.8576559514227 13.5276530977666 12.6000000000001
   endloop
endfacet
facet normal 1.0 2.1093644181482e-016 2.06449589218191e-016
   outer loop
      vertex 24.8576559514227 13.5276530977666 17.6000000000001
      vertex 24.8576559514227 165.927653097767 12.6000000000001
      vertex 24.8576559514227 165.927653097767 71.1000000000001
   endloop
endfacet
facet normal 0.998021880983209 -0.0 0.0628675200619343
   outer loop
      vertex 28.8576559514227 172.927653097767 7.60000000000009
      vertex 24.8576559514227 168.927653097767 71.1000000000001
      vertex 28.8576559514227 168.927653097767 7.60000000000009
   endloop
endfacet
facet normal 0.998021880983209 -0.0 0.0628675200619343
   outer loop
      vertex 24.8576559514227 168.927653097767 71.1000000000001
      vertex 28.8576559514227 172.927653097767 7.60000000000009
      vertex 24.8576559514227 172.927653097767 71.1000000000001
   endloop
endfacet
facet normal -0.0 1.0 -0.0
   outer loop
      vertex 24.8576559514227 165.927653097767 12.6000000000001
      vertex 32.8576559514227 165.927653097767 7.60000000000009
      vertex 24.8576559514227 165.927653097767 7.60000000000009
   endloop
endfacet
facet normal -0.0 1.0 -0.0
   outer loop
      vertex 32.8576559514227 165.927653097767 7.60000000000009
      vertex 24.8576559514227 165.927653097767 12.6000000000001
      vertex 32.8576559514227 165.927653097767 12.6000000000001
   endloop
endfacet
facet normal -0.0 1.0 -0.0
   outer loop
      vertex 13.8576559514227 172.927653097767 71.1000000000001
      vertex 28.8576559514227 172.927653097767 7.60000000000009
      vertex 9.85765595142263 172.927653097767 7.60000000000009
   endloop
endfacet
facet normal -0.0 1.0 -0.0
   outer loop
      vertex 28.8576559514227 172.927653097767 7.60000000000009
      vertex 13.8576559514227 172.927653097767 71.1000000000001
      vertex 24.8576559514227 172.927653097767 71.1000000000001
   endloop
endfacet
facet normal -0.0 1.0 -0.0
   outer loop
      vertex 5.85765595142269 165.927653097767 12.6000000000001
      vertex 13.8576559514227 165.927653097767 7.60000000000009
      vertex 5.85765595142269 165.927653097767 7.60000000000009
   endloop
endfacet
facet normal -0.0 1.0 -0.0
   outer loop
      vertex 13.8576559514227 165.927653097767 7.60000000000009
      vertex 5.85765595142269 165.927653097767 12.6000000000001
      vertex 13.8576559514226 165.927653097767 12.6000000000001
   endloop
endfacet
facet normal 0.382683432365094 -0.923879532511285 0.0
   outer loop
      vertex 18.7882540521972 30.6526899156026 14.6000000000001
      vertex 18.2576559514227 30.4329089860924 7.60000000000009
      vertex 18.7882540521972 30.6526899156026 7.60000000000009
   endloop
endfacet
facet normal 0.382683432365094 -0.923879532511285 0.0
   outer loop
      vertex 18.2576559514227 30.4329089860924 7.60000000000009
      vertex 18.7882540521972 30.6526899156026 14.6000000000001
      vertex 18.2576559514227 30.4329089860924 14.6000000000001
   endloop
endfacet
facet normal 0.608761429008695 -0.793353340291255 0.0
   outer loop
      vertex 18.2576559514227 30.4329089860924 14.6000000000001
      vertex 17.8020210328123 30.083288016377 7.60000000000009
      vertex 18.2576559514227 30.4329089860924 7.60000000000009
   endloop
endfacet
facet normal 0.608761429008695 -0.793353340291255 0.0
   outer loop
      vertex 17.8020210328123 30.083288016377 7.60000000000009
      vertex 18.2576559514227 30.4329089860924 14.6000000000001
      vertex 17.8020210328123 30.083288016377 14.6000000000001
   endloop
endfacet
facet normal 0.793353340291264 -0.608761429008683 -0.0
   outer loop
      vertex 17.8020210328123 30.083288016377 7.60000000000009
      vertex 17.452400063097 29.6276530977666 14.6000000000001
      vertex 17.452400063097 29.6276530977666 7.60000000000009
   endloop
endfacet
facet normal 0.793353340291264 -0.608761429008683 -0.0
   outer loop
      vertex 17.452400063097 29.6276530977666 14.6000000000001
      vertex 17.8020210328123 30.083288016377 7.60000000000009
      vertex 17.8020210328123 30.083288016377 14.6000000000001
   endloop
endfacet
facet normal -0.793353340291255 0.608761429008695 0.0
   outer loop
      vertex 21.2629118397485 27.4276530977666 14.6000000000001
      vertex 20.9132908700331 26.9720181791562 7.60000000000009
      vertex 20.9132908700331 26.9720181791562 14.6000000000001
   endloop
endfacet
facet normal -0.793353340291255 0.608761429008695 0.0
   outer loop
      vertex 20.9132908700331 26.9720181791562 7.60000000000009
      vertex 21.2629118397485 27.4276530977666 14.6000000000001
      vertex 21.2629118397485 27.4276530977666 7.60000000000009
   endloop
endfacet
facet normal -0.923879532511285 0.382683432365094 0.0
   outer loop
      vertex 21.4826927692587 27.9582511985411 14.6000000000001
      vertex 21.2629118397485 27.4276530977666 7.60000000000009
      vertex 21.2629118397485 27.4276530977666 14.6000000000001
   endloop
endfacet
facet normal -0.923879532511285 0.382683432365094 0.0
   outer loop
      vertex 21.2629118397485 27.4276530977666 7.60000000000009
      vertex 21.4826927692587 27.9582511985411 14.6000000000001
      vertex 21.4826927692587 27.9582511985411 7.60000000000009
   endloop
endfacet
facet normal -0.991444861373805 0.130526192220095 0.0
   outer loop
      vertex 21.5576559514227 28.5276530977666 14.6000000000001
      vertex 21.4826927692587 27.9582511985411 7.60000000000009
      vertex 21.4826927692587 27.9582511985411 14.6000000000001
   endloop
endfacet
facet normal -0.991444861373805 0.130526192220095 0.0
   outer loop
      vertex 21.4826927692587 27.9582511985411 7.60000000000009
      vertex 21.5576559514227 28.5276530977666 14.6000000000001
      vertex 21.5576559514227 28.5276530977666 7.60000000000009
   endloop
endfacet
facet normal -0.991444861373805 -0.130526192220095 0.0
   outer loop
      vertex 21.4826927692587 29.0970549969922 14.6000000000001
      vertex 21.5576559514227 28.5276530977666 7.60000000000009
      vertex 21.5576559514227 28.5276530977666 14.6000000000001
   endloop
endfacet
facet normal -0.991444861373805 -0.130526192220095 0.0
   outer loop
      vertex 21.5576559514227 28.5276530977666 7.60000000000009
      vertex 21.4826927692587 29.0970549969922 14.6000000000001
      vertex 21.4826927692587 29.0970549969922 7.60000000000009
   endloop
endfacet
facet normal -0.923879532511285 -0.382683432365094 0.0
   outer loop
      vertex 21.2629118397485 29.6276530977666 14.6000000000001
      vertex 21.4826927692587 29.0970549969922 7.60000000000009
      vertex 21.4826927692587 29.0970549969922 14.6000000000001
   endloop
endfacet
facet normal -0.923879532511285 -0.382683432365094 0.0
   outer loop
      vertex 21.4826927692587 29.0970549969922 7.60000000000009
      vertex 21.2629118397485 29.6276530977666 14.6000000000001
      vertex 21.2629118397485 29.6276530977666 7.60000000000009
   endloop
endfacet
facet normal -0.793353340291255 -0.608761429008695 0.0
   outer loop
      vertex 20.9132908700331 30.083288016377 14.6000000000001
      vertex 21.2629118397485 29.6276530977666 7.60000000000009
      vertex 21.2629118397485 29.6276530977666 14.6000000000001
   endloop
endfacet
facet normal -0.793353340291255 -0.608761429008695 0.0
   outer loop
      vertex 21.2629118397485 29.6276530977666 7.60000000000009
      vertex 20.9132908700331 30.083288016377 14.6000000000001
      vertex 20.9132908700331 30.083288016377 7.60000000000009
   endloop
endfacet
facet normal -0.608761429008695 -0.793353340291255 0.0
   outer loop
      vertex 20.9132908700331 30.083288016377 14.6000000000001
      vertex 20.4576559514227 30.4329089860924 7.60000000000009
      vertex 20.9132908700331 30.083288016377 7.60000000000009
   endloop
endfacet
facet normal -0.608761429008695 -0.793353340291255 0.0
   outer loop
      vertex 20.4576559514227 30.4329089860924 7.60000000000009
      vertex 20.9132908700331 30.083288016377 14.6000000000001
      vertex 20.4576559514227 30.4329089860924 14.6000000000001
   endloop
endfacet
facet normal -0.382683432365094 -0.923879532511285 0.0
   outer loop
      vertex 20.4576559514227 30.4329089860924 14.6000000000001
      vertex 19.9270578506483 30.6526899156026 7.60000000000009
      vertex 20.4576559514227 30.4329089860924 7.60000000000009
   endloop
endfacet
facet normal -0.382683432365094 -0.923879532511285 0.0
   outer loop
      vertex 19.9270578506483 30.6526899156026 7.60000000000009
      vertex 20.4576559514227 30.4329089860924 14.6000000000001
      vertex 19.9270578506483 30.6526899156026 14.6000000000001
   endloop
endfacet
facet normal -0.130526192220061 -0.991444861373809 0.0
   outer loop
      vertex 19.9270578506483 30.6526899156026 14.6000000000001
      vertex 19.3576559514227 30.7276530977666 7.60000000000009
      vertex 19.9270578506483 30.6526899156026 7.60000000000009
   endloop
endfacet
facet normal -0.130526192220061 -0.991444861373809 0.0
   outer loop
      vertex 19.3576559514227 30.7276530977666 7.60000000000009
      vertex 19.9270578506483 30.6526899156026 14.6000000000001
      vertex 19.3576559514227 30.7276530977666 14.6000000000001
   endloop
endfacet
facet normal 0.130526192220051 -0.99144486137381 0.0
   outer loop
      vertex 19.3576559514227 30.7276530977666 14.6000000000001
      vertex 18.7882540521972 30.6526899156026 7.60000000000009
      vertex 19.3576559514227 30.7276530977666 7.60000000000009
   endloop
endfacet
facet normal 0.130526192220051 -0.99144486137381 0.0
   outer loop
      vertex 18.7882540521972 30.6526899156026 7.60000000000009
      vertex 19.3576559514227 30.7276530977666 14.6000000000001
      vertex 18.7882540521972 30.6526899156026 14.6000000000001
   endloop
endfacet
facet normal 0.0 0.0 -1.0
   outer loop
      vertex 17.2326191335868 29.0970549969922 14.6000000000001
      vertex 17.2326191335868 27.9582511985411 14.6000000000001
      vertex 17.1576559514227 28.5276530977666 14.6000000000001
   endloop
endfacet
facet normal 0.0 0.0 -1.0
   outer loop
      vertex 17.2326191335868 27.9582511985411 14.6000000000001
      vertex 17.2326191335868 29.0970549969922 14.6000000000001
      vertex 17.452400063097 29.6276530977666 14.6000000000001
   endloop
endfacet
facet normal 0.0 0.0 -1.0
   outer loop
      vertex 17.2326191335868 27.9582511985411 14.6000000000001
      vertex 17.452400063097 29.6276530977666 14.6000000000001
      vertex 17.452400063097 27.4276530977666 14.6000000000001
   endloop
endfacet
facet normal 0.0 0.0 -1.0
   outer loop
      vertex 17.452400063097 27.4276530977666 14.6000000000001
      vertex 17.452400063097 29.6276530977666 14.6000000000001
      vertex 17.8020210328123 30.083288016377 14.6000000000001
   endloop
endfacet
facet normal 0.0 0.0 -1.0
   outer loop
      vertex 17.452400063097 27.4276530977666 14.6000000000001
      vertex 17.8020210328123 30.083288016377 14.6000000000001
      vertex 17.8020210328123 26.9720181791562 14.6000000000001
   endloop
endfacet
facet normal 0.0 0.0 -1.0
   outer loop
      vertex 17.8020210328123 26.9720181791562 14.6000000000001
      vertex 17.8020210328123 30.083288016377 14.6000000000001
      vertex 18.2576559514227 30.4329089860924 14.6000000000001
   endloop
endfacet
facet normal 0.0 0.0 -1.0
   outer loop
      vertex 17.8020210328123 26.9720181791562 14.6000000000001
      vertex 18.2576559514227 30.4329089860924 14.6000000000001
      vertex 18.2576559514227 26.6223972094409 14.6000000000001
   endloop
endfacet
facet normal 0.0 0.0 -1.0
   outer loop
      vertex 18.2576559514227 26.6223972094409 14.6000000000001
      vertex 18.2576559514227 30.4329089860924 14.6000000000001
      vertex 18.7882540521972 30.6526899156026 14.6000000000001
   endloop
endfacet
facet normal 0.0 0.0 -1.0
   outer loop
      vertex 18.2576559514227 26.6223972094409 14.6000000000001
      vertex 18.7882540521972 30.6526899156026 14.6000000000001
      vertex 18.7882540521972 26.4026162799307 14.6000000000001
   endloop
endfacet
facet normal 0.0 0.0 -1.0
   outer loop
      vertex 18.7882540521972 26.4026162799307 14.6000000000001
      vertex 18.7882540521972 30.6526899156026 14.6000000000001
      vertex 19.3576559514227 30.7276530977666 14.6000000000001
   endloop
endfacet
facet normal 0.0 0.0 -1.0
   outer loop
      vertex 18.7882540521972 26.4026162799307 14.6000000000001
      vertex 19.3576559514227 30.7276530977666 14.6000000000001
      vertex 19.3576559514227 26.3276530977666 14.6000000000001
   endloop
endfacet
facet normal 0.0 0.0 -1.0
   outer loop
      vertex 19.3576559514227 26.3276530977666 14.6000000000001
      vertex 19.3576559514227 30.7276530977666 14.6000000000001
      vertex 19.9270578506483 30.6526899156026 14.6000000000001
   endloop
endfacet
facet normal 0.0 0.0 -1.0
   outer loop
      vertex 19.3576559514227 26.3276530977666 14.6000000000001
      vertex 19.9270578506483 30.6526899156026 14.6000000000001
      vertex 19.9270578506483 26.4026162799307 14.6000000000001
   endloop
endfacet
facet normal 0.0 0.0 -1.0
   outer loop
      vertex 19.9270578506483 26.4026162799307 14.6000000000001
      vertex 19.9270578506483 30.6526899156026 14.6000000000001
      vertex 20.4576559514227 30.4329089860924 14.6000000000001
   endloop
endfacet
facet normal 0.0 0.0 -1.0
   outer loop
      vertex 19.9270578506483 26.4026162799307 14.6000000000001
      vertex 20.4576559514227 30.4329089860924 14.6000000000001
      vertex 20.4576559514227 26.6223972094409 14.6000000000001
   endloop
endfacet
facet normal 0.0 0.0 -1.0
   outer loop
      vertex 20.4576559514227 26.6223972094409 14.6000000000001
      vertex 20.4576559514227 30.4329089860924 14.6000000000001
      vertex 20.9132908700331 30.083288016377 14.6000000000001
   endloop
endfacet
facet normal 0.0 0.0 -1.0
   outer loop
      vertex 20.4576559514227 26.6223972094409 14.6000000000001
      vertex 20.9132908700331 30.083288016377 14.6000000000001
      vertex 20.9132908700331 26.9720181791562 14.6000000000001
   endloop
endfacet
facet normal 0.0 0.0 -1.0
   outer loop
      vertex 20.9132908700331 26.9720181791562 14.6000000000001
      vertex 20.9132908700331 30.083288016377 14.6000000000001
      vertex 21.2629118397485 29.6276530977666 14.6000000000001
   endloop
endfacet
facet normal 0.0 0.0 -1.0
   outer loop
      vertex 20.9132908700331 26.9720181791562 14.6000000000001
      vertex 21.2629118397485 29.6276530977666 14.6000000000001
      vertex 21.2629118397485 27.4276530977666 14.6000000000001
   endloop
endfacet
facet normal 0.0 0.0 -1.0
   outer loop
      vertex 21.2629118397485 27.4276530977666 14.6000000000001
      vertex 21.2629118397485 29.6276530977666 14.6000000000001
      vertex 21.4826927692587 29.0970549969922 14.6000000000001
   endloop
endfacet
facet normal 0.0 0.0 -1.0
   outer loop
      vertex 21.2629118397485 27.4276530977666 14.6000000000001
      vertex 21.4826927692587 29.0970549969922 14.6000000000001
      vertex 21.4826927692587 27.9582511985411 14.6000000000001
   endloop
endfacet
facet normal 0.0 0.0 -1.0
   outer loop
      vertex 21.4826927692587 27.9582511985411 14.6000000000001
      vertex 21.4826927692587 29.0970549969922 14.6000000000001
      vertex 21.5576559514227 28.5276530977666 14.6000000000001
   endloop
endfacet
facet normal 0.923879532511285 -0.382683432365094 -0.0
   outer loop
      vertex 17.452400063097 29.6276530977666 7.60000000000009
      vertex 17.2326191335868 29.0970549969922 14.6000000000001
      vertex 17.2326191335868 29.0970549969922 7.60000000000009
   endloop
endfacet
facet normal 0.923879532511285 -0.382683432365094 -0.0
   outer loop
      vertex 17.2326191335868 29.0970549969922 14.6000000000001
      vertex 17.452400063097 29.6276530977666 7.60000000000009
      vertex 17.452400063097 29.6276530977666 14.6000000000001
   endloop
endfacet
facet normal 0.99144486137381 -0.130526192220056 -0.0
   outer loop
      vertex 17.2326191335868 29.0970549969922 7.60000000000009
      vertex 17.1576559514227 28.5276530977666 14.6000000000001
      vertex 17.1576559514227 28.5276530977666 7.60000000000009
   endloop
endfacet
facet normal 0.99144486137381 -0.130526192220056 -0.0
   outer loop
      vertex 17.1576559514227 28.5276530977666 14.6000000000001
      vertex 17.2326191335868 29.0970549969922 7.60000000000009
      vertex 17.2326191335868 29.0970549969922 14.6000000000001
   endloop
endfacet
facet normal 0.99144486137381 0.130526192220056 -0.0
   outer loop
      vertex 17.1576559514227 28.5276530977666 7.60000000000009
      vertex 17.2326191335868 27.9582511985411 14.6000000000001
      vertex 17.2326191335868 27.9582511985411 7.60000000000009
   endloop
endfacet
facet normal 0.99144486137381 0.130526192220056 -0.0
   outer loop
      vertex 17.2326191335868 27.9582511985411 14.6000000000001
      vertex 17.1576559514227 28.5276530977666 7.60000000000009
      vertex 17.1576559514227 28.5276530977666 14.6000000000001
   endloop
endfacet
facet normal 0.923879532511285 0.382683432365094 -0.0
   outer loop
      vertex 17.2326191335868 27.9582511985411 7.60000000000009
      vertex 17.452400063097 27.4276530977666 14.6000000000001
      vertex 17.452400063097 27.4276530977666 7.60000000000009
   endloop
endfacet
facet normal 0.923879532511285 0.382683432365094 -0.0
   outer loop
      vertex 17.452400063097 27.4276530977666 14.6000000000001
      vertex 17.2326191335868 27.9582511985411 7.60000000000009
      vertex 17.2326191335868 27.9582511985411 14.6000000000001
   endloop
endfacet
facet normal -0.0 -0.0 1.0
   outer loop
      vertex 5.85765595142273 13.5276530977666 12.6000000000001
      vertex 13.8576559514226 165.927653097767 12.6000000000001
      vertex 5.85765595142269 165.927653097767 12.6000000000001
   endloop
endfacet
facet normal -0.0 -0.0 1.0
   outer loop
      vertex 13.8576559514226 165.927653097767 12.6000000000001
      vertex 5.85765595142273 13.5276530977666 12.6000000000001
      vertex 13.8576559514227 13.5276530977666 12.6000000000001
   endloop
endfacet
facet normal 0.793353340291264 0.608761429008683 -0.0
   outer loop
      vertex 17.452400063097 27.4276530977666 7.60000000000009
      vertex 17.8020210328123 26.9720181791562 14.6000000000001
      vertex 17.8020210328123 26.9720181791562 7.60000000000009
   endloop
endfacet
facet normal 0.793353340291264 0.608761429008683 -0.0
   outer loop
      vertex 17.8020210328123 26.9720181791562 14.6000000000001
      vertex 17.452400063097 27.4276530977666 7.60000000000009
      vertex 17.452400063097 27.4276530977666 14.6000000000001
   endloop
endfacet
facet normal 0.608761429008695 0.793353340291255 -0.0
   outer loop
      vertex 17.8020210328123 26.9720181791562 14.6000000000001
      vertex 18.2576559514227 26.6223972094409 7.60000000000009
      vertex 17.8020210328123 26.9720181791562 7.60000000000009
   endloop
endfacet
facet normal 0.608761429008695 0.793353340291255 -0.0
   outer loop
      vertex 18.2576559514227 26.6223972094409 7.60000000000009
      vertex 17.8020210328123 26.9720181791562 14.6000000000001
      vertex 18.2576559514227 26.6223972094409 14.6000000000001
   endloop
endfacet
facet normal 0.382683432365128 0.923879532511271 -0.0
   outer loop
      vertex 18.2576559514227 26.6223972094409 14.6000000000001
      vertex 18.7882540521972 26.4026162799307 7.60000000000009
      vertex 18.2576559514227 26.6223972094409 7.60000000000009
   endloop
endfacet
facet normal 0.382683432365128 0.923879532511271 -0.0
   outer loop
      vertex 18.7882540521972 26.4026162799307 7.60000000000009
      vertex 18.2576559514227 26.6223972094409 14.6000000000001
      vertex 18.7882540521972 26.4026162799307 14.6000000000001
   endloop
endfacet
facet normal 0.130526192220012 0.991444861373815 -0.0
   outer loop
      vertex 18.7882540521972 26.4026162799307 14.6000000000001
      vertex 19.3576559514227 26.3276530977666 7.60000000000009
      vertex 18.7882540521972 26.4026162799307 7.60000000000009
   endloop
endfacet
facet normal 0.130526192220012 0.991444861373815 -0.0
   outer loop
      vertex 19.3576559514227 26.3276530977666 7.60000000000009
      vertex 18.7882540521972 26.4026162799307 14.6000000000001
      vertex 19.3576559514227 26.3276530977666 14.6000000000001
   endloop
endfacet
facet normal -0.130526192220022 0.991444861373814 -0.0
   outer loop
      vertex 19.3576559514227 26.3276530977666 14.6000000000001
      vertex 19.9270578506483 26.4026162799307 7.60000000000009
      vertex 19.3576559514227 26.3276530977666 7.60000000000009
   endloop
endfacet
facet normal -0.130526192220022 0.991444861373814 -0.0
   outer loop
      vertex 19.9270578506483 26.4026162799307 7.60000000000009
      vertex 19.3576559514227 26.3276530977666 14.6000000000001
      vertex 19.9270578506483 26.4026162799307 14.6000000000001
   endloop
endfacet
facet normal -0.382683432365128 0.923879532511271 -0.0
   outer loop
      vertex 19.9270578506483 26.4026162799307 14.6000000000001
      vertex 20.4576559514227 26.6223972094409 7.60000000000009
      vertex 19.9270578506483 26.4026162799307 7.60000000000009
   endloop
endfacet
facet normal -0.382683432365128 0.923879532511271 -0.0
   outer loop
      vertex 20.4576559514227 26.6223972094409 7.60000000000009
      vertex 19.9270578506483 26.4026162799307 14.6000000000001
      vertex 20.4576559514227 26.6223972094409 14.6000000000001
   endloop
endfacet
facet normal -0.608761429008695 0.793353340291255 -0.0
   outer loop
      vertex 20.4576559514227 26.6223972094409 14.6000000000001
      vertex 20.9132908700331 26.9720181791562 7.60000000000009
      vertex 20.4576559514227 26.6223972094409 7.60000000000009
   endloop
endfacet
facet normal -0.608761429008695 0.793353340291255 -0.0
   outer loop
      vertex 20.9132908700331 26.9720181791562 7.60000000000009
      vertex 20.4576559514227 26.6223972094409 14.6000000000001
      vertex 20.9132908700331 26.9720181791562 14.6000000000001
   endloop
endfacet
endsolid footing 2 P-010
