solid spool holder P-011
facet normal -0.793353340291371 0.608761429008544 0.0
   outer loop
      vertex 35.875315885337 10.9651558255761 6.99999999999999
      vertex 35.4780193288424 10.4473888726097 1.12798659301916e-014
      vertex 35.4780193288424 10.4473888726097 6.99999999999999
   endloop
endfacet
facet normal -0.793353340291371 0.608761429008544 0.0
   outer loop
      vertex 35.4780193288424 10.4473888726097 1.12798659301916e-014
      vertex 35.875315885337 10.9651558255761 6.99999999999999
      vertex 35.875315885337 10.9651558255761 1.12798659301916e-014
   endloop
endfacet
facet normal -0.608761429008651 0.793353340291289 -0.0
   outer loop
      vertex 34.9602523758759 10.0500923161149 6.99999999999999
      vertex 35.4780193288424 10.4473888726097 1.12798659301916e-014
      vertex 34.9602523758759 10.0500923161149 1.12798659301916e-014
   endloop
endfacet
facet normal -0.608761429008651 0.793353340291289 -0.0
   outer loop
      vertex 35.4780193288424 10.4473888726097 1.12798659301916e-014
      vertex 34.9602523758759 10.0500923161149 6.99999999999999
      vertex 35.4780193288424 10.4473888726097 6.99999999999999
   endloop
endfacet
facet normal -0.382683432365024 0.923879532511314 -0.0
   outer loop
      vertex 34.3572999886321 9.80034125985337 6.99999999999999
      vertex 34.9602523758759 10.0500923161149 1.12798659301916e-014
      vertex 34.3572999886321 9.80034125985337 1.12798659301916e-014
   endloop
endfacet
facet normal -0.382683432365024 0.923879532511314 -0.0
   outer loop
      vertex 34.9602523758759 10.0500923161149 1.12798659301916e-014
      vertex 34.3572999886321 9.80034125985337 6.99999999999999
      vertex 34.9602523758759 10.0500923161149 6.99999999999999
   endloop
endfacet
facet normal -0.130526192220067 0.991444861373808 -0.0
   outer loop
      vertex 33.7102523758759 9.71515582557604 6.99999999999999
      vertex 34.3572999886321 9.80034125985337 1.12798659301916e-014
      vertex 33.7102523758759 9.71515582557604 1.12798659301916e-014
   endloop
endfacet
facet normal -0.130526192220067 0.991444861373808 -0.0
   outer loop
      vertex 34.3572999886321 9.80034125985337 1.12798659301916e-014
      vertex 33.7102523758759 9.71515582557604 6.99999999999999
      vertex 34.3572999886321 9.80034125985337 6.99999999999999
   endloop
endfacet
facet normal 0.130526192220067 0.991444861373808 -0.0
   outer loop
      vertex 33.0632047631196 9.80034125985337 6.99999999999999
      vertex 33.7102523758759 9.71515582557604 1.12798659301916e-014
      vertex 33.0632047631196 9.80034125985337 1.12798659301916e-014
   endloop
endfacet
facet normal 0.130526192220067 0.991444861373808 -0.0
   outer loop
      vertex 33.7102523758759 9.71515582557604 1.12798659301916e-014
      vertex 33.0632047631196 9.80034125985337 6.99999999999999
      vertex 33.7102523758759 9.71515582557604 6.99999999999999
   endloop
endfacet
facet normal 0.382683432365024 0.923879532511314 -0.0
   outer loop
      vertex 32.4602523758758 10.0500923161149 6.99999999999999
      vertex 33.0632047631196 9.80034125985337 1.12798659301916e-014
      vertex 32.4602523758758 10.0500923161149 1.12798659301916e-014
   endloop
endfacet
facet normal 0.382683432365024 0.923879532511314 -0.0
   outer loop
      vertex 33.0632047631196 9.80034125985337 1.12798659301916e-014
      vertex 32.4602523758758 10.0500923161149 6.99999999999999
      vertex 33.0632047631196 9.80034125985337 6.99999999999999
   endloop
endfacet
facet normal 0.608761429008651 0.793353340291289 -0.0
   outer loop
      vertex 31.9424854229093 10.4473888726097 6.99999999999999
      vertex 32.4602523758758 10.0500923161149 1.12798659301916e-014
      vertex 31.9424854229093 10.4473888726097 1.12798659301916e-014
   endloop
endfacet
facet normal 0.608761429008651 0.793353340291289 -0.0
   outer loop
      vertex 32.4602523758758 10.0500923161149 1.12798659301916e-014
      vertex 31.9424854229093 10.4473888726097 6.99999999999999
      vertex 32.4602523758758 10.0500923161149 6.99999999999999
   endloop
endfacet
facet normal 0.793353340291371 0.608761429008544 -0.0
   outer loop
      vertex 31.5451888664147 10.9651558255761 1.12798659301916e-014
      vertex 31.9424854229093 10.4473888726097 6.99999999999999
      vertex 31.9424854229093 10.4473888726097 1.12798659301916e-014
   endloop
endfacet
facet normal 0.793353340291371 0.608761429008544 -0.0
   outer loop
      vertex 31.9424854229093 10.4473888726097 6.99999999999999
      vertex 31.5451888664147 10.9651558255761 1.12798659301916e-014
      vertex 31.5451888664147 10.9651558255761 6.99999999999999
   endloop
endfacet
facet normal 0.923879532511245 0.382683432365191 -0.0
   outer loop
      vertex 31.295437810153 11.5681082128199 1.12798659301916e-014
      vertex 31.5451888664147 10.9651558255761 6.99999999999999
      vertex 31.5451888664147 10.9651558255761 1.12798659301916e-014
   endloop
endfacet
facet normal 0.923879532511245 0.382683432365191 -0.0
   outer loop
      vertex 31.5451888664147 10.9651558255761 6.99999999999999
      vertex 31.295437810153 11.5681082128199 1.12798659301916e-014
      vertex 31.295437810153 11.5681082128199 6.99999999999999
   endloop
endfacet
facet normal 0.991444861373811 0.130526192220049 -0.0
   outer loop
      vertex 31.2102523758757 12.2151558255762 1.12798659301916e-014
      vertex 31.295437810153 11.5681082128199 6.99999999999999
      vertex 31.295437810153 11.5681082128199 1.12798659301916e-014
   endloop
endfacet
facet normal 0.991444861373811 0.130526192220049 -0.0
   outer loop
      vertex 31.295437810153 11.5681082128199 6.99999999999999
      vertex 31.2102523758757 12.2151558255762 1.12798659301916e-014
      vertex 31.2102523758757 12.2151558255762 6.99999999999999
   endloop
endfacet
facet normal 0.991444861373811 -0.130526192220049 -0.0
   outer loop
      vertex 31.295437810153 12.8622034383325 1.12798659301916e-014
      vertex 31.2102523758757 12.2151558255762 6.99999999999999
      vertex 31.2102523758757 12.2151558255762 1.12798659301916e-014
   endloop
endfacet
facet normal 0.991444861373811 -0.130526192220049 -0.0
   outer loop
      vertex 31.2102523758757 12.2151558255762 6.99999999999999
      vertex 31.295437810153 12.8622034383325 1.12798659301916e-014
      vertex 31.295437810153 12.8622034383325 6.99999999999999
   endloop
endfacet
facet normal 0.923879532511245 -0.382683432365191 -0.0
   outer loop
      vertex 31.5451888664147 13.4651558255763 1.12798659301916e-014
      vertex 31.295437810153 12.8622034383325 6.99999999999999
      vertex 31.295437810153 12.8622034383325 1.12798659301916e-014
   endloop
endfacet
facet normal 0.923879532511245 -0.382683432365191 -0.0
   outer loop
      vertex 31.295437810153 12.8622034383325 6.99999999999999
      vertex 31.5451888664147 13.4651558255763 1.12798659301916e-014
      vertex 31.5451888664147 13.4651558255763 6.99999999999999
   endloop
endfacet
facet normal 0.793353340291371 -0.608761429008544 -0.0
   outer loop
      vertex 31.9424854229093 13.9829227785427 1.12798659301916e-014
      vertex 31.5451888664147 13.4651558255763 6.99999999999999
      vertex 31.5451888664147 13.4651558255763 1.12798659301916e-014
   endloop
endfacet
facet normal 0.793353340291371 -0.608761429008544 -0.0
   outer loop
      vertex 31.5451888664147 13.4651558255763 6.99999999999999
      vertex 31.9424854229093 13.9829227785427 1.12798659301916e-014
      vertex 31.9424854229093 13.9829227785427 6.99999999999999
   endloop
endfacet
facet normal 0.608761429008651 -0.793353340291289 0.0
   outer loop
      vertex 32.4602523758758 14.3802193350374 6.99999999999999
      vertex 31.9424854229093 13.9829227785427 1.12798659301916e-014
      vertex 32.4602523758758 14.3802193350374 1.12798659301916e-014
   endloop
endfacet
facet normal 0.608761429008651 -0.793353340291289 0.0
   outer loop
      vertex 31.9424854229093 13.9829227785427 1.12798659301916e-014
      vertex 32.4602523758758 14.3802193350374 6.99999999999999
      vertex 31.9424854229093 13.9829227785427 6.99999999999999
   endloop
endfacet
facet normal 0.382683432365024 -0.923879532511314 0.0
   outer loop
      vertex 33.0632047631196 14.629970391299 6.99999999999999
      vertex 32.4602523758758 14.3802193350374 1.12798659301916e-014
      vertex 33.0632047631196 14.629970391299 1.12798659301916e-014
   endloop
endfacet
facet normal 0.382683432365024 -0.923879532511314 0.0
   outer loop
      vertex 32.4602523758758 14.3802193350374 1.12798659301916e-014
      vertex 33.0632047631196 14.629970391299 6.99999999999999
      vertex 32.4602523758758 14.3802193350374 6.99999999999999
   endloop
endfacet
facet normal 0.130526192220067 -0.991444861373808 0.0
   outer loop
      vertex 33.7102523758759 14.7151558255763 6.99999999999999
      vertex 33.0632047631196 14.629970391299 1.12798659301916e-014
      vertex 33.7102523758759 14.7151558255763 1.12798659301916e-014
   endloop
endfacet
facet normal 0.130526192220067 -0.991444861373808 0.0
   outer loop
      vertex 33.0632047631196 14.629970391299 1.12798659301916e-014
      vertex 33.7102523758759 14.7151558255763 6.99999999999999
      vertex 33.0632047631196 14.629970391299 6.99999999999999
   endloop
endfacet
facet normal -0.130526192220067 -0.991444861373808 0.0
   outer loop
      vertex 34.3572999886321 14.629970391299 6.99999999999999
      vertex 33.7102523758759 14.7151558255763 1.12798659301916e-014
      vertex 34.3572999886321 14.629970391299 1.12798659301916e-014
   endloop
endfacet
facet normal -0.130526192220067 -0.991444861373808 0.0
   outer loop
      vertex 33.7102523758759 14.7151558255763 1.12798659301916e-014
      vertex 34.3572999886321 14.629970391299 6.99999999999999
      vertex 33.7102523758759 14.7151558255763 6.99999999999999
   endloop
endfacet
facet normal -0.382683432365024 -0.923879532511314 0.0
   outer loop
      vertex 34.9602523758759 14.3802193350374 6.99999999999999
      vertex 34.3572999886321 14.629970391299 1.12798659301916e-014
      vertex 34.9602523758759 14.3802193350374 1.12798659301916e-014
   endloop
endfacet
facet normal -0.382683432365024 -0.923879532511314 0.0
   outer loop
      vertex 34.3572999886321 14.629970391299 1.12798659301916e-014
      vertex 34.9602523758759 14.3802193350374 6.99999999999999
      vertex 34.3572999886321 14.629970391299 6.99999999999999
   endloop
endfacet
facet normal -0.608761429008651 -0.793353340291289 0.0
   outer loop
      vertex 35.4780193288424 13.9829227785427 6.99999999999999
      vertex 34.9602523758759 14.3802193350374 1.12798659301916e-014
      vertex 35.4780193288424 13.9829227785427 1.12798659301916e-014
   endloop
endfacet
facet normal -0.608761429008651 -0.793353340291289 0.0
   outer loop
      vertex 34.9602523758759 14.3802193350374 1.12798659301916e-014
      vertex 35.4780193288424 13.9829227785427 6.99999999999999
      vertex 34.9602523758759 14.3802193350374 6.99999999999999
   endloop
endfacet
facet normal -0.793353340291371 -0.608761429008544 0.0
   outer loop
      vertex 35.4780193288424 13.9829227785427 6.99999999999999
      vertex 35.875315885337 13.4651558255763 1.12798659301916e-014
      vertex 35.875315885337 13.4651558255763 6.99999999999999
   endloop
endfacet
facet normal -0.793353340291371 -0.608761429008544 0.0
   outer loop
      vertex 35.875315885337 13.4651558255763 1.12798659301916e-014
      vertex 35.4780193288424 13.9829227785427 6.99999999999999
      vertex 35.4780193288424 13.9829227785427 1.12798659301916e-014
   endloop
endfacet
facet normal -0.923879532511245 -0.382683432365191 0.0
   outer loop
      vertex 35.875315885337 13.4651558255763 6.99999999999999
      vertex 36.1250669415987 12.8622034383325 1.12798659301916e-014
      vertex 36.1250669415987 12.8622034383325 6.99999999999999
   endloop
endfacet
facet normal -0.923879532511245 -0.382683432365191 0.0
   outer loop
      vertex 36.1250669415987 12.8622034383325 1.12798659301916e-014
      vertex 35.875315885337 13.4651558255763 6.99999999999999
      vertex 35.875315885337 13.4651558255763 1.12798659301916e-014
   endloop
endfacet
facet normal -0.991444861373811 -0.130526192220049 0.0
   outer loop
      vertex 36.1250669415987 12.8622034383325 6.99999999999999
      vertex 36.210252375876 12.2151558255762 1.12798659301916e-014
      vertex 36.210252375876 12.2151558255762 6.99999999999999
   endloop
endfacet
facet normal -0.991444861373811 -0.130526192220049 0.0
   outer loop
      vertex 36.210252375876 12.2151558255762 1.12798659301916e-014
      vertex 36.1250669415987 12.8622034383325 6.99999999999999
      vertex 36.1250669415987 12.8622034383325 1.12798659301916e-014
   endloop
endfacet
facet normal -0.991444861373811 0.130526192220049 0.0
   outer loop
      vertex 36.210252375876 12.2151558255762 6.99999999999999
      vertex 36.1250669415987 11.5681082128199 1.12798659301916e-014
      vertex 36.1250669415987 11.5681082128199 6.99999999999999
   endloop
endfacet
facet normal -0.991444861373811 0.130526192220049 0.0
   outer loop
      vertex 36.1250669415987 11.5681082128199 1.12798659301916e-014
      vertex 36.210252375876 12.2151558255762 6.99999999999999
      vertex 36.210252375876 12.2151558255762 1.12798659301916e-014
   endloop
endfacet
facet normal -0.923879532511245 0.382683432365191 0.0
   outer loop
      vertex 36.1250669415987 11.5681082128199 6.99999999999999
      vertex 35.875315885337 10.9651558255761 1.12798659301916e-014
      vertex 35.875315885337 10.9651558255761 6.99999999999999
   endloop
endfacet
facet normal -0.923879532511245 0.382683432365191 0.0
   outer loop
      vertex 35.875315885337 10.9651558255761 1.12798659301916e-014
      vertex 36.1250669415987 11.5681082128199 6.99999999999999
      vertex 36.1250669415987 11.5681082128199 1.12798659301916e-014
   endloop
endfacet
facet normal 0.130526192220067 0.991444861373808 -0.0
   outer loop
      vertex 33.0632047631196 28.8003412598534 7.0
      vertex 33.7102523758759 28.715155825576 0.0
      vertex 33.0632047631196 28.8003412598534 0.0
   endloop
endfacet
facet normal 0.130526192220067 0.991444861373808 -0.0
   outer loop
      vertex 33.7102523758759 28.715155825576 0.0
      vertex 33.0632047631196 28.8003412598534 7.0
      vertex 33.7102523758759 28.715155825576 7.0
   endloop
endfacet
facet normal 0.382683432365024 0.923879532511314 -0.0
   outer loop
      vertex 32.4602523758758 29.050092316115 7.0
      vertex 33.0632047631196 28.8003412598534 0.0
      vertex 32.4602523758758 29.050092316115 0.0
   endloop
endfacet
facet normal 0.382683432365024 0.923879532511314 -0.0
   outer loop
      vertex 33.0632047631196 28.8003412598534 0.0
      vertex 32.4602523758758 29.050092316115 7.0
      vertex 33.0632047631196 28.8003412598534 7.0
   endloop
endfacet
facet normal 0.608761429008651 0.793353340291289 -0.0
   outer loop
      vertex 31.9424854229093 29.4473888726097 7.0
      vertex 32.4602523758758 29.050092316115 0.0
      vertex 31.9424854229093 29.4473888726097 0.0
   endloop
endfacet
facet normal 0.608761429008651 0.793353340291289 -0.0
   outer loop
      vertex 32.4602523758758 29.050092316115 0.0
      vertex 31.9424854229093 29.4473888726097 7.0
      vertex 32.4602523758758 29.050092316115 7.0
   endloop
endfacet
facet normal 0.793353340291371 0.608761429008544 -0.0
   outer loop
      vertex 31.5451888664147 29.9651558255761 0.0
      vertex 31.9424854229093 29.4473888726097 7.0
      vertex 31.9424854229093 29.4473888726097 0.0
   endloop
endfacet
facet normal 0.793353340291371 0.608761429008544 -0.0
   outer loop
      vertex 31.9424854229093 29.4473888726097 7.0
      vertex 31.5451888664147 29.9651558255761 0.0
      vertex 31.5451888664147 29.9651558255761 7.0
   endloop
endfacet
facet normal 0.923879532511265 0.382683432365142 -0.0
   outer loop
      vertex 31.295437810153 30.56810821282 0.0
      vertex 31.5451888664147 29.9651558255761 7.0
      vertex 31.5451888664147 29.9651558255761 0.0
   endloop
endfacet
facet normal 0.923879532511265 0.382683432365142 -0.0
   outer loop
      vertex 31.5451888664147 29.9651558255761 7.0
      vertex 31.295437810153 30.56810821282 0.0
      vertex 31.295437810153 30.56810821282 7.0
   endloop
endfacet
facet normal 0.991444861373808 0.130526192220067 -0.0
   outer loop
      vertex 31.2102523758757 31.2151558255762 0.0
      vertex 31.295437810153 30.56810821282 7.0
      vertex 31.295437810153 30.56810821282 0.0
   endloop
endfacet
facet normal 0.991444861373808 0.130526192220067 -0.0
   outer loop
      vertex 31.295437810153 30.56810821282 7.0
      vertex 31.2102523758757 31.2151558255762 0.0
      vertex 31.2102523758757 31.2151558255762 7.0
   endloop
endfacet
facet normal 0.991444861373813 -0.130526192220031 -0.0
   outer loop
      vertex 31.295437810153 31.8622034383326 0.0
      vertex 31.2102523758757 31.2151558255762 7.0
      vertex 31.2102523758757 31.2151558255762 0.0
   endloop
endfacet
facet normal 0.991444861373813 -0.130526192220031 -0.0
   outer loop
      vertex 31.2102523758757 31.2151558255762 7.0
      vertex 31.295437810153 31.8622034383326 0.0
      vertex 31.295437810153 31.8622034383326 7.0
   endloop
endfacet
facet normal 0.923879532511225 -0.38268343236524 -0.0
   outer loop
      vertex 31.5451888664147 32.4651558255763 0.0
      vertex 31.295437810153 31.8622034383326 7.0
      vertex 31.295437810153 31.8622034383326 0.0
   endloop
endfacet
facet normal 0.923879532511225 -0.38268343236524 -0.0
   outer loop
      vertex 31.295437810153 31.8622034383326 7.0
      vertex 31.5451888664147 32.4651558255763 0.0
      vertex 31.5451888664147 32.4651558255763 7.0
   endloop
endfacet
facet normal 0.793353340291422 -0.608761429008477 -0.0
   outer loop
      vertex 31.9424854229093 32.9829227785428 0.0
      vertex 31.5451888664147 32.4651558255763 7.0
      vertex 31.5451888664147 32.4651558255763 0.0
   endloop
endfacet
facet normal 0.793353340291422 -0.608761429008477 -0.0
   outer loop
      vertex 31.5451888664147 32.4651558255763 7.0
      vertex 31.9424854229093 32.9829227785428 0.0
      vertex 31.9424854229093 32.9829227785428 7.0
   endloop
endfacet
facet normal 0.608761429008651 -0.793353340291289 0.0
   outer loop
      vertex 32.4602523758758 33.3802193350375 7.0
      vertex 31.9424854229093 32.9829227785428 0.0
      vertex 32.4602523758758 33.3802193350375 0.0
   endloop
endfacet
facet normal 0.608761429008651 -0.793353340291289 0.0
   outer loop
      vertex 31.9424854229093 32.9829227785428 0.0
      vertex 32.4602523758758 33.3802193350375 7.0
      vertex 31.9424854229093 32.9829227785428 7.0
   endloop
endfacet
facet normal 0.382683432364906 -0.923879532511363 0.0
   outer loop
      vertex 33.0632047631196 33.629970391299 7.0
      vertex 32.4602523758758 33.3802193350375 0.0
      vertex 33.0632047631196 33.629970391299 0.0
   endloop
endfacet
facet normal 0.382683432364906 -0.923879532511363 0.0
   outer loop
      vertex 32.4602523758758 33.3802193350375 0.0
      vertex 33.0632047631196 33.629970391299 7.0
      vertex 32.4602523758758 33.3802193350375 7.0
   endloop
endfacet
facet normal 0.130526192220067 -0.991444861373808 0.0
   outer loop
      vertex 33.7102523758759 33.7151558255764 7.0
      vertex 33.0632047631196 33.629970391299 0.0
      vertex 33.7102523758759 33.7151558255764 0.0
   endloop
endfacet
facet normal 0.130526192220067 -0.991444861373808 0.0
   outer loop
      vertex 33.0632047631196 33.629970391299 0.0
      vertex 33.7102523758759 33.7151558255764 7.0
      vertex 33.0632047631196 33.629970391299 7.0
   endloop
endfacet
facet normal -0.130526192220067 -0.991444861373808 0.0
   outer loop
      vertex 34.3572999886321 33.629970391299 7.0
      vertex 33.7102523758759 33.7151558255764 0.0
      vertex 34.3572999886321 33.629970391299 0.0
   endloop
endfacet
facet normal -0.130526192220067 -0.991444861373808 0.0
   outer loop
      vertex 33.7102523758759 33.7151558255764 0.0
      vertex 34.3572999886321 33.629970391299 7.0
      vertex 33.7102523758759 33.7151558255764 7.0
   endloop
endfacet
facet normal -0.382683432364906 -0.923879532511363 0.0
   outer loop
      vertex 34.9602523758759 33.3802193350375 7.0
      vertex 34.3572999886321 33.629970391299 0.0
      vertex 34.9602523758759 33.3802193350375 0.0
   endloop
endfacet
facet normal -0.382683432364906 -0.923879532511363 0.0
   outer loop
      vertex 34.3572999886321 33.629970391299 0.0
      vertex 34.9602523758759 33.3802193350375 7.0
      vertex 34.3572999886321 33.629970391299 7.0
   endloop
endfacet
facet normal -0.608761429008651 -0.793353340291289 0.0
   outer loop
      vertex 35.4780193288424 32.9829227785428 7.0
      vertex 34.9602523758759 33.3802193350375 0.0
      vertex 35.4780193288424 32.9829227785428 0.0
   endloop
endfacet
facet normal -0.608761429008651 -0.793353340291289 0.0
   outer loop
      vertex 34.9602523758759 33.3802193350375 0.0
      vertex 35.4780193288424 32.9829227785428 7.0
      vertex 34.9602523758759 33.3802193350375 7.0
   endloop
endfacet
facet normal -0.793353340291422 -0.608761429008477 0.0
   outer loop
      vertex 35.4780193288424 32.9829227785428 7.0
      vertex 35.875315885337 32.4651558255763 0.0
      vertex 35.875315885337 32.4651558255763 7.0
   endloop
endfacet
facet normal -0.793353340291422 -0.608761429008477 0.0
   outer loop
      vertex 35.875315885337 32.4651558255763 0.0
      vertex 35.4780193288424 32.9829227785428 7.0
      vertex 35.4780193288424 32.9829227785428 0.0
   endloop
endfacet
facet normal -0.923879532511225 -0.38268343236524 0.0
   outer loop
      vertex 35.875315885337 32.4651558255763 7.0
      vertex 36.1250669415987 31.8622034383326 0.0
      vertex 36.1250669415987 31.8622034383326 7.0
   endloop
endfacet
facet normal -0.923879532511225 -0.38268343236524 0.0
   outer loop
      vertex 36.1250669415987 31.8622034383326 0.0
      vertex 35.875315885337 32.4651558255763 7.0
      vertex 35.875315885337 32.4651558255763 0.0
   endloop
endfacet
facet normal -0.991444861373813 -0.130526192220031 0.0
   outer loop
      vertex 36.1250669415987 31.8622034383326 7.0
      vertex 36.210252375876 31.2151558255762 0.0
      vertex 36.210252375876 31.2151558255762 7.0
   endloop
endfacet
facet normal -0.991444861373813 -0.130526192220031 0.0
   outer loop
      vertex 36.210252375876 31.2151558255762 0.0
      vertex 36.1250669415987 31.8622034383326 7.0
      vertex 36.1250669415987 31.8622034383326 0.0
   endloop
endfacet
facet normal -0.991444861373808 0.130526192220067 0.0
   outer loop
      vertex 36.210252375876 31.2151558255762 7.0
      vertex 36.1250669415987 30.56810821282 0.0
      vertex 36.1250669415987 30.56810821282 7.0
   endloop
endfacet
facet normal -0.991444861373808 0.130526192220067 0.0
   outer loop
      vertex 36.1250669415987 30.56810821282 0.0
      vertex 36.210252375876 31.2151558255762 7.0
      vertex 36.210252375876 31.2151558255762 0.0
   endloop
endfacet
facet normal -0.923879532511265 0.382683432365142 0.0
   outer loop
      vertex 36.1250669415987 30.56810821282 7.0
      vertex 35.875315885337 29.9651558255761 0.0
      vertex 35.875315885337 29.9651558255761 7.0
   endloop
endfacet
facet normal -0.923879532511265 0.382683432365142 0.0
   outer loop
      vertex 35.875315885337 29.9651558255761 0.0
      vertex 36.1250669415987 30.56810821282 7.0
      vertex 36.1250669415987 30.56810821282 0.0
   endloop
endfacet
facet normal -0.793353340291371 0.608761429008544 0.0
   outer loop
      vertex 35.875315885337 29.9651558255761 7.0
      vertex 35.4780193288424 29.4473888726097 0.0
      vertex 35.4780193288424 29.4473888726097 7.0
   endloop
endfacet
facet normal -0.793353340291371 0.608761429008544 0.0
   outer loop
      vertex 35.4780193288424 29.4473888726097 0.0
      vertex 35.875315885337 29.9651558255761 7.0
      vertex 35.875315885337 29.9651558255761 0.0
   endloop
endfacet
facet normal -0.608761429008651 0.793353340291289 -0.0
   outer loop
      vertex 34.9602523758759 29.050092316115 7.0
      vertex 35.4780193288424 29.4473888726097 0.0
      vertex 34.9602523758759 29.050092316115 0.0
   endloop
endfacet
facet normal -0.608761429008651 0.793353340291289 -0.0
   outer loop
      vertex 35.4780193288424 29.4473888726097 0.0
      vertex 34.9602523758759 29.050092316115 7.0
      vertex 35.4780193288424 29.4473888726097 7.0
   endloop
endfacet
facet normal -0.382683432365024 0.923879532511314 -0.0
   outer loop
      vertex 34.3572999886321 28.8003412598534 7.0
      vertex 34.9602523758759 29.050092316115 0.0
      vertex 34.3572999886321 28.8003412598534 0.0
   endloop
endfacet
facet normal -0.382683432365024 0.923879532511314 -0.0
   outer loop
      vertex 34.9602523758759 29.050092316115 0.0
      vertex 34.3572999886321 28.8003412598534 7.0
      vertex 34.9602523758759 29.050092316115 7.0
   endloop
endfacet
facet normal -0.130526192220067 0.991444861373808 -0.0
   outer loop
      vertex 33.7102523758759 28.715155825576 7.0
      vertex 34.3572999886321 28.8003412598534 0.0
      vertex 33.7102523758759 28.715155825576 0.0
   endloop
endfacet
facet normal -0.130526192220067 0.991444861373808 -0.0
   outer loop
      vertex 34.3572999886321 28.8003412598534 0.0
      vertex 33.7102523758759 28.715155825576 7.0
      vertex 34.3572999886321 28.8003412598534 7.0
   endloop
endfacet
facet normal -6.04028951475496e-032 9.96671851172582e-018 1.0
   outer loop
      vertex 15.3093653850686 19.2846530163731 7.0
      vertex 19.6602523758754 24.2151558255762 7.0
      vertex 14.6602523758755 24.2151558255762 6.99999999999999
   endloop
endfacet
facet normal -6.04028951475496e-032 9.96671851172582e-018 1.0
   outer loop
      vertex 19.6602523758754 24.2151558255762 7.0
      vertex 15.3093653850686 19.2846530163731 7.0
      vertex 17.2124684337819 14.6901558255762 7.0
   endloop
endfacet
facet normal -6.04028951475496e-032 9.96671851172582e-018 1.0
   outer loop
      vertex 19.6602523758754 24.2151558255762 7.0
      vertex 17.2124684337819 14.6901558255762 7.0
      vertex 20.2398681942717 10.7447716439724 7.0
   endloop
endfacet
facet normal -6.04028951475496e-032 9.96671851172582e-018 1.0
   outer loop
      vertex 19.6602523758754 24.2151558255762 7.0
      vertex 20.2398681942717 10.7447716439724 7.0
      vertex 20.1389945165143 27.8515634092665 7.0
   endloop
endfacet
facet normal -6.04028951475496e-032 9.96671851172582e-018 1.0
   outer loop
      vertex 20.1389945165143 27.8515634092665 7.0
      vertex 20.2398681942717 10.7447716439724 7.0
      vertex 21.5425954527042 31.2401558255762 7.0
   endloop
endfacet
facet normal -6.04028951475496e-032 9.96671851172582e-018 1.0
   outer loop
      vertex 21.5425954527042 31.2401558255762 7.0
      vertex 20.2398681942717 10.7447716439724 7.0
      vertex 24.1852523758755 7.71737188348261 7.0
   endloop
endfacet
facet normal -6.04028951475496e-032 9.96671851172582e-018 1.0
   outer loop
      vertex 21.5425954527042 31.2401558255762 7.0
      vertex 24.1852523758755 7.71737188348261 7.0
      vertex 23.7754021002045 34.1500061012472 7.0
   endloop
endfacet
facet normal -6.04028951475496e-032 9.96671851172582e-018 1.0
   outer loop
      vertex 23.7754021002045 34.1500061012472 7.0
      vertex 24.1852523758755 7.71737188348261 7.0
      vertex 26.6852523758757 36.3828127487478 7.0
   endloop
endfacet
facet normal -6.04028951475496e-032 9.96671851172582e-018 1.0
   outer loop
      vertex 26.6852523758757 36.3828127487478 7.0
      vertex 24.1852523758755 7.71737188348261 7.0
      vertex 28.7797495666725 5.81426883476946 7.0
   endloop
endfacet
facet normal -6.04028951475496e-032 9.96671851172582e-018 1.0
   outer loop
      vertex 26.6852523758757 36.3828127487478 7.0
      vertex 28.7797495666725 5.81426883476946 7.0
      vertex 30.0738447921849 37.7864136849378 7.0
   endloop
endfacet
facet normal -6.04028951475496e-032 9.96671851172582e-018 1.0
   outer loop
      vertex 30.0738447921849 37.7864136849378 7.0
      vertex 28.7797495666725 5.81426883476946 7.0
      vertex 31.2102523758757 12.2151558255762 6.99999999999999
   endloop
endfacet
facet normal -6.04028951475496e-032 9.96671851172582e-018 1.0
   outer loop
      vertex 31.2102523758757 12.2151558255762 6.99999999999999
      vertex 28.7797495666725 5.81426883476946 7.0
      vertex 31.295437810153 11.5681082128199 6.99999999999999
   endloop
endfacet
facet normal -6.04028951475496e-032 9.96671851172582e-018 1.0
   outer loop
      vertex 31.295437810153 11.5681082128199 6.99999999999999
      vertex 28.7797495666725 5.81426883476946 7.0
      vertex 33.7102523758755 5.16515582557617 7.0
   endloop
endfacet
facet normal -6.04028951475496e-032 9.96671851172582e-018 1.0
   outer loop
      vertex 31.295437810153 11.5681082128199 6.99999999999999
      vertex 33.7102523758755 5.16515582557617 7.0
      vertex 31.5451888664147 10.9651558255761 6.99999999999999
   endloop
endfacet
facet normal -6.04028951475496e-032 9.96671851172582e-018 1.0
   outer loop
      vertex 31.5451888664147 10.9651558255761 6.99999999999999
      vertex 33.7102523758755 5.16515582557617 7.0
      vertex 31.9424854229093 10.4473888726097 6.99999999999999
   endloop
endfacet
facet normal -6.04028951475496e-032 9.96671851172582e-018 1.0
   outer loop
      vertex 31.9424854229093 10.4473888726097 6.99999999999999
      vertex 33.7102523758755 5.16515582557617 7.0
      vertex 32.4602523758758 10.0500923161149 6.99999999999999
   endloop
endfacet
facet normal -6.04028951475496e-032 9.96671851172582e-018 1.0
   outer loop
      vertex 32.4602523758758 10.0500923161149 6.99999999999999
      vertex 33.7102523758755 5.16515582557617 7.0
      vertex 33.0632047631196 9.80034125985337 6.99999999999999
   endloop
endfacet
facet normal -6.04028951475496e-032 9.96671851172582e-018 1.0
   outer loop
      vertex 33.0632047631196 9.80034125985337 6.99999999999999
      vertex 33.7102523758755 5.16515582557617 7.0
      vertex 33.7102523758759 9.71515582557604 6.99999999999999
   endloop
endfacet
facet normal -6.04028951475496e-032 9.96671851172582e-018 1.0
   outer loop
      vertex 33.7102523758759 9.71515582557604 6.99999999999999
      vertex 33.7102523758755 5.16515582557617 7.0
      vertex 38.6407551850785 5.81426883476937 7.0
   endloop
endfacet
facet normal -6.04028951475496e-032 9.96671851172582e-018 1.0
   outer loop
      vertex 33.7102523758759 9.71515582557604 6.99999999999999
      vertex 38.6407551850785 5.81426883476937 7.0
      vertex 34.3572999886321 9.80034125985337 6.99999999999999
   endloop
endfacet
facet normal -6.04028951475496e-032 9.96671851172582e-018 1.0
   outer loop
      vertex 34.3572999886321 9.80034125985337 6.99999999999999
      vertex 38.6407551850785 5.81426883476937 7.0
      vertex 34.9602523758759 10.0500923161149 6.99999999999999
   endloop
endfacet
facet normal -6.04028951475496e-032 9.96671851172582e-018 1.0
   outer loop
      vertex 34.9602523758759 10.0500923161149 6.99999999999999
      vertex 38.6407551850785 5.81426883476937 7.0
      vertex 35.4780193288424 10.4473888726097 6.99999999999999
   endloop
endfacet
facet normal -6.04028951475496e-032 9.96671851172582e-018 1.0
   outer loop
      vertex 35.4780193288424 10.4473888726097 6.99999999999999
      vertex 38.6407551850785 5.81426883476937 7.0
      vertex 35.875315885337 10.9651558255761 6.99999999999999
   endloop
endfacet
facet normal -6.04028951475496e-032 9.96671851172582e-018 1.0
   outer loop
      vertex 35.875315885337 10.9651558255761 6.99999999999999
      vertex 38.6407551850785 5.81426883476937 7.0
      vertex 36.1250669415987 11.5681082128199 6.99999999999999
   endloop
endfacet
facet normal -6.04028951475496e-032 9.96671851172582e-018 1.0
   outer loop
      vertex 36.1250669415987 11.5681082128199 6.99999999999999
      vertex 38.6407551850785 5.81426883476937 7.0
      vertex 36.210252375876 12.2151558255762 6.99999999999999
   endloop
endfacet
facet normal -6.04028951475496e-032 9.96671851172582e-018 1.0
   outer loop
      vertex 36.210252375876 12.2151558255762 6.99999999999999
      vertex 38.6407551850785 5.81426883476937 7.0
      vertex 36.210252375876 31.2151558255762 7.0
   endloop
endfacet
facet normal -6.04028951475496e-032 9.96671851172582e-018 1.0
   outer loop
      vertex 36.210252375876 31.2151558255762 7.0
      vertex 38.6407551850785 5.81426883476937 7.0
      vertex 37.3466599595661 37.7864136849378 7.0
   endloop
endfacet
facet normal -6.04028951475496e-032 9.96671851172582e-018 1.0
   outer loop
      vertex 37.3466599595661 37.7864136849378 7.0
      vertex 38.6407551850785 5.81426883476937 7.0
      vertex 40.7352523758753 36.3828127487478 7.0
   endloop
endfacet
facet normal -6.04028951475496e-032 9.96671851172582e-018 1.0
   outer loop
      vertex 40.7352523758753 36.3828127487478 7.0
      vertex 38.6407551850785 5.81426883476937 7.0
      vertex 43.2352523758755 7.71737188348261 7.0
   endloop
endfacet
facet normal -6.04028951475496e-032 9.96671851172582e-018 1.0
   outer loop
      vertex 40.7352523758753 36.3828127487478 7.0
      vertex 43.2352523758755 7.71737188348261 7.0
      vertex 43.6451026515465 34.1500061012472 7.0
   endloop
endfacet
facet normal -6.04028951475496e-032 9.96671851172582e-018 1.0
   outer loop
      vertex 43.6451026515465 34.1500061012472 7.0
      vertex 43.2352523758755 7.71737188348261 7.0
      vertex 47.1806365574793 10.7447716439724 7.0
   endloop
endfacet
facet normal -6.04028951475496e-032 9.96671851172582e-018 1.0
   outer loop
      vertex 43.6451026515465 34.1500061012472 7.0
      vertex 47.1806365574793 10.7447716439724 7.0
      vertex 45.8779092990467 31.2401558255762 7.0
   endloop
endfacet
facet normal -6.04028951475496e-032 9.96671851172582e-018 1.0
   outer loop
      vertex 45.8779092990467 31.2401558255762 7.0
      vertex 47.1806365574793 10.7447716439724 7.0
      vertex 47.2815102352367 27.8515634092665 7.0
   endloop
endfacet
facet normal -6.04028951475496e-032 9.96671851172582e-018 1.0
   outer loop
      vertex 47.2815102352367 27.8515634092665 7.0
      vertex 47.1806365574793 10.7447716439724 7.0
      vertex 47.7602523758756 24.2151558255762 7.0
   endloop
endfacet
facet normal -6.04028951475496e-032 9.96671851172582e-018 1.0
   outer loop
      vertex 47.7602523758756 24.2151558255762 7.0
      vertex 47.1806365574793 10.7447716439724 7.0
      vertex 50.208036317969 14.6901558255762 7.0
   endloop
endfacet
facet normal -6.04028951475496e-032 9.96671851172582e-018 1.0
   outer loop
      vertex 47.7602523758756 24.2151558255762 7.0
      vertex 50.208036317969 14.6901558255762 7.0
      vertex 52.7602523758755 24.2151558255762 6.99999999999999
   endloop
endfacet
facet normal -6.04028951475496e-032 9.96671851172582e-018 1.0
   outer loop
      vertex 52.7602523758755 24.2151558255762 6.99999999999999
      vertex 50.208036317969 14.6901558255762 7.0
      vertex 52.1111393666824 19.2846530163731 7.0
   endloop
endfacet
facet normal -6.04028951475496e-032 9.96671851172582e-018 1.0
   outer loop
      vertex 30.0738447921849 37.7864136849378 7.0
      vertex 31.295437810153 31.8622034383326 7.0
      vertex 33.7102523758755 38.2651558255764 7.0
   endloop
endfacet
facet normal -6.04028951475496e-032 9.96671851172582e-018 1.0
   outer loop
      vertex 31.295437810153 31.8622034383326 7.0
      vertex 30.0738447921849 37.7864136849378 7.0
      vertex 31.2102523758757 31.2151558255762 7.0
   endloop
endfacet
facet normal -6.04028951475496e-032 9.96671851172582e-018 1.0
   outer loop
      vertex 31.2102523758757 31.2151558255762 7.0
      vertex 30.0738447921849 37.7864136849378 7.0
      vertex 31.2102523758757 12.2151558255762 6.99999999999999
   endloop
endfacet
facet normal -6.04028951475496e-032 9.96671851172582e-018 1.0
   outer loop
      vertex 33.7102523758755 38.2651558255764 7.0
      vertex 31.295437810153 31.8622034383326 7.0
      vertex 31.5451888664147 32.4651558255763 7.0
   endloop
endfacet
facet normal -6.04028951475496e-032 9.96671851172582e-018 1.0
   outer loop
      vertex 33.7102523758755 38.2651558255764 7.0
      vertex 31.5451888664147 32.4651558255763 7.0
      vertex 31.9424854229093 32.9829227785428 7.0
   endloop
endfacet
facet normal -6.04028951475496e-032 9.96671851172582e-018 1.0
   outer loop
      vertex 33.7102523758755 38.2651558255764 7.0
      vertex 31.9424854229093 32.9829227785428 7.0
      vertex 32.4602523758758 33.3802193350375 7.0
   endloop
endfacet
facet normal -6.04028951475496e-032 9.96671851172582e-018 1.0
   outer loop
      vertex 33.7102523758755 38.2651558255764 7.0
      vertex 32.4602523758758 33.3802193350375 7.0
      vertex 33.0632047631196 33.629970391299 7.0
   endloop
endfacet
facet normal -6.04028951475496e-032 9.96671851172582e-018 1.0
   outer loop
      vertex 33.7102523758755 38.2651558255764 7.0
      vertex 33.0632047631196 33.629970391299 7.0
      vertex 33.7102523758759 33.7151558255764 7.0
   endloop
endfacet
facet normal -6.04028951475496e-032 9.96671851172582e-018 1.0
   outer loop
      vertex 33.7102523758755 38.2651558255764 7.0
      vertex 33.7102523758759 33.7151558255764 7.0
      vertex 37.3466599595661 37.7864136849378 7.0
   endloop
endfacet
facet normal -6.04028951475496e-032 9.96671851172582e-018 1.0
   outer loop
      vertex 37.3466599595661 37.7864136849378 7.0
      vertex 33.7102523758759 33.7151558255764 7.0
      vertex 34.3572999886321 33.629970391299 7.0
   endloop
endfacet
facet normal -6.04028951475496e-032 9.96671851172582e-018 1.0
   outer loop
      vertex 37.3466599595661 37.7864136849378 7.0
      vertex 34.3572999886321 33.629970391299 7.0
      vertex 34.9602523758759 33.3802193350375 7.0
   endloop
endfacet
facet normal -6.04028951475496e-032 9.96671851172582e-018 1.0
   outer loop
      vertex 37.3466599595661 37.7864136849378 7.0
      vertex 34.9602523758759 33.3802193350375 7.0
      vertex 35.4780193288424 32.9829227785428 7.0
   endloop
endfacet
facet normal -6.04028951475496e-032 9.96671851172582e-018 1.0
   outer loop
      vertex 37.3466599595661 37.7864136849378 7.0
      vertex 35.4780193288424 32.9829227785428 7.0
      vertex 35.875315885337 32.4651558255763 7.0
   endloop
endfacet
facet normal -6.04028951475496e-032 9.96671851172582e-018 1.0
   outer loop
      vertex 37.3466599595661 37.7864136849378 7.0
      vertex 35.875315885337 32.4651558255763 7.0
      vertex 36.1250669415987 31.8622034383326 7.0
   endloop
endfacet
facet normal -6.04028951475496e-032 9.96671851172582e-018 1.0
   outer loop
      vertex 37.3466599595661 37.7864136849378 7.0
      vertex 36.1250669415987 31.8622034383326 7.0
      vertex 36.210252375876 31.2151558255762 7.0
   endloop
endfacet
facet normal -6.04028951475496e-032 9.96671851172582e-018 1.0
   outer loop
      vertex 31.295437810153 12.8622034383325 6.99999999999999
      vertex 31.2102523758757 31.2151558255762 7.0
      vertex 31.2102523758757 12.2151558255762 6.99999999999999
   endloop
endfacet
facet normal -6.04028951475496e-032 9.96671851172582e-018 1.0
   outer loop
      vertex 31.2102523758757 31.2151558255762 7.0
      vertex 31.295437810153 12.8622034383325 6.99999999999999
      vertex 31.295437810153 30.56810821282 7.0
   endloop
endfacet
facet normal -6.04028951475496e-032 9.96671851172582e-018 1.0
   outer loop
      vertex 31.295437810153 30.56810821282 7.0
      vertex 31.295437810153 12.8622034383325 6.99999999999999
      vertex 31.5451888664147 13.4651558255763 6.99999999999999
   endloop
endfacet
facet normal -6.04028951475496e-032 9.96671851172582e-018 1.0
   outer loop
      vertex 31.295437810153 30.56810821282 7.0
      vertex 31.5451888664147 13.4651558255763 6.99999999999999
      vertex 31.5451888664147 29.9651558255761 7.0
   endloop
endfacet
facet normal -6.04028951475496e-032 9.96671851172582e-018 1.0
   outer loop
      vertex 31.5451888664147 29.9651558255761 7.0
      vertex 31.5451888664147 13.4651558255763 6.99999999999999
      vertex 31.9424854229093 13.9829227785427 6.99999999999999
   endloop
endfacet
facet normal -6.04028951475496e-032 9.96671851172582e-018 1.0
   outer loop
      vertex 31.5451888664147 29.9651558255761 7.0
      vertex 31.9424854229093 13.9829227785427 6.99999999999999
      vertex 31.9424854229093 29.4473888726097 7.0
   endloop
endfacet
facet normal -6.04028951475496e-032 9.96671851172582e-018 1.0
   outer loop
      vertex 31.9424854229093 29.4473888726097 7.0
      vertex 31.9424854229093 13.9829227785427 6.99999999999999
      vertex 32.4602523758758 14.3802193350374 6.99999999999999
   endloop
endfacet
facet normal -6.04028951475496e-032 9.96671851172582e-018 1.0
   outer loop
      vertex 31.9424854229093 29.4473888726097 7.0
      vertex 32.4602523758758 14.3802193350374 6.99999999999999
      vertex 32.4602523758758 29.050092316115 7.0
   endloop
endfacet
facet normal -6.04028951475496e-032 9.96671851172582e-018 1.0
   outer loop
      vertex 32.4602523758758 29.050092316115 7.0
      vertex 32.4602523758758 14.3802193350374 6.99999999999999
      vertex 33.0632047631196 14.629970391299 6.99999999999999
   endloop
endfacet
facet normal -6.04028951475496e-032 9.96671851172582e-018 1.0
   outer loop
      vertex 32.4602523758758 29.050092316115 7.0
      vertex 33.0632047631196 14.629970391299 6.99999999999999
      vertex 33.0632047631196 28.8003412598534 7.0
   endloop
endfacet
facet normal -6.04028951475496e-032 9.96671851172582e-018 1.0
   outer loop
      vertex 33.0632047631196 28.8003412598534 7.0
      vertex 33.0632047631196 14.629970391299 6.99999999999999
      vertex 33.7102523758759 14.7151558255763 6.99999999999999
   endloop
endfacet
facet normal -6.04028951475496e-032 9.96671851172582e-018 1.0
   outer loop
      vertex 33.0632047631196 28.8003412598534 7.0
      vertex 33.7102523758759 14.7151558255763 6.99999999999999
      vertex 33.7102523758759 28.715155825576 7.0
   endloop
endfacet
facet normal -6.04028951475496e-032 9.96671851172582e-018 1.0
   outer loop
      vertex 33.7102523758759 28.715155825576 7.0
      vertex 33.7102523758759 14.7151558255763 6.99999999999999
      vertex 34.3572999886321 14.629970391299 6.99999999999999
   endloop
endfacet
facet normal -6.04028951475496e-032 9.96671851172582e-018 1.0
   outer loop
      vertex 33.7102523758759 28.715155825576 7.0
      vertex 34.3572999886321 14.629970391299 6.99999999999999
      vertex 34.3572999886321 28.8003412598534 7.0
   endloop
endfacet
facet normal -6.04028951475496e-032 9.96671851172582e-018 1.0
   outer loop
      vertex 34.3572999886321 28.8003412598534 7.0
      vertex 34.3572999886321 14.629970391299 6.99999999999999
      vertex 34.9602523758759 14.3802193350374 6.99999999999999
   endloop
endfacet
facet normal -6.04028951475496e-032 9.96671851172582e-018 1.0
   outer loop
      vertex 34.3572999886321 28.8003412598534 7.0
      vertex 34.9602523758759 14.3802193350374 6.99999999999999
      vertex 34.9602523758759 29.050092316115 7.0
   endloop
endfacet
facet normal -6.04028951475496e-032 9.96671851172582e-018 1.0
   outer loop
      vertex 34.9602523758759 29.050092316115 7.0
      vertex 34.9602523758759 14.3802193350374 6.99999999999999
      vertex 35.4780193288424 13.9829227785427 6.99999999999999
   endloop
endfacet
facet normal -6.04028951475496e-032 9.96671851172582e-018 1.0
   outer loop
      vertex 34.9602523758759 29.050092316115 7.0
      vertex 35.4780193288424 13.9829227785427 6.99999999999999
      vertex 35.4780193288424 29.4473888726097 7.0
   endloop
endfacet
facet normal -6.04028951475496e-032 9.96671851172582e-018 1.0
   outer loop
      vertex 35.4780193288424 29.4473888726097 7.0
      vertex 35.4780193288424 13.9829227785427 6.99999999999999
      vertex 35.875315885337 13.4651558255763 6.99999999999999
   endloop
endfacet
facet normal -6.04028951475496e-032 9.96671851172582e-018 1.0
   outer loop
      vertex 35.4780193288424 29.4473888726097 7.0
      vertex 35.875315885337 13.4651558255763 6.99999999999999
      vertex 35.875315885337 29.9651558255761 7.0
   endloop
endfacet
facet normal -6.04028951475496e-032 9.96671851172582e-018 1.0
   outer loop
      vertex 35.875315885337 29.9651558255761 7.0
      vertex 35.875315885337 13.4651558255763 6.99999999999999
      vertex 36.1250669415987 12.8622034383325 6.99999999999999
   endloop
endfacet
facet normal -6.04028951475496e-032 9.96671851172582e-018 1.0
   outer loop
      vertex 35.875315885337 29.9651558255761 7.0
      vertex 36.1250669415987 12.8622034383325 6.99999999999999
      vertex 36.1250669415987 30.56810821282 7.0
   endloop
endfacet
facet normal -6.04028951475496e-032 9.96671851172582e-018 1.0
   outer loop
      vertex 36.1250669415987 30.56810821282 7.0
      vertex 36.1250669415987 12.8622034383325 6.99999999999999
      vertex 36.210252375876 12.2151558255762 6.99999999999999
   endloop
endfacet
facet normal -6.04028951475496e-032 9.96671851172582e-018 1.0
   outer loop
      vertex 36.1250669415987 30.56810821282 7.0
      vertex 36.210252375876 12.2151558255762 6.99999999999999
      vertex 36.210252375876 31.2151558255762 7.0
   endloop
endfacet
facet normal -0.991444861373814 -0.130526192220024 -9.35515565736678e-019
   outer loop
      vertex 14.6602523758755 24.2151558255762 6.99999999999999
      vertex 15.3093653850686 19.2846530163731 0.0
      vertex 15.3093653850686 19.2846530163731 7.0
   endloop
endfacet
facet normal -0.991444861373814 -0.130526192220024 -9.35515565736678e-019
   outer loop
      vertex 15.3093653850686 19.2846530163731 0.0
      vertex 14.6602523758755 24.2151558255762 6.99999999999999
      vertex 14.6602523758755 24.2151558255762 0.0
   endloop
endfacet
facet normal -0.991444861373814 0.130526192220024 0.0
   outer loop
      vertex 15.3093653850686 29.1456586347792 83.2
      vertex 14.6602523758755 24.2151558255762 6.99999999999999
      vertex 14.6602523758755 24.2151558255762 83.2
   endloop
endfacet
facet normal -0.991444861373814 0.130526192220024 0.0
   outer loop
      vertex 14.6602523758755 24.2151558255762 6.99999999999999
      vertex 15.3093653850686 29.1456586347792 83.2
      vertex 14.6602523758755 24.2151558255762 0.0
   endloop
endfacet
facet normal -0.991444861373814 0.130526192220024 0.0
   outer loop
      vertex 14.6602523758755 24.2151558255762 0.0
      vertex 15.3093653850686 29.1456586347792 83.2
      vertex 15.3093653850686 29.1456586347792 0.0
   endloop
endfacet
facet normal -0.923879532511276 0.382683432365115 0.0
   outer loop
      vertex 17.2124684337819 33.7401558255762 83.2
      vertex 15.3093653850686 29.1456586347792 0.0
      vertex 15.3093653850686 29.1456586347792 83.2
   endloop
endfacet
facet normal -0.923879532511276 0.382683432365115 0.0
   outer loop
      vertex 15.3093653850686 29.1456586347792 0.0
      vertex 17.2124684337819 33.7401558255762 83.2
      vertex 17.2124684337819 33.7401558255762 0.0
   endloop
endfacet
facet normal -0.793353340291254 0.608761429008696 0.0
   outer loop
      vertex 20.2398681942717 37.68554000718 83.2
      vertex 17.2124684337819 33.7401558255762 0.0
      vertex 17.2124684337819 33.7401558255762 83.2
   endloop
endfacet
facet normal -0.793353340291254 0.608761429008696 0.0
   outer loop
      vertex 17.2124684337819 33.7401558255762 0.0
      vertex 20.2398681942717 37.68554000718 83.2
      vertex 20.2398681942717 37.68554000718 0.0
   endloop
endfacet
facet normal 0.608761429008711 0.793353340291243 -8.60933563086627e-016
   outer loop
      vertex 43.2352523758755 40.7129397676699 83.2
      vertex 47.1806365574793 37.68554000718 0.0
      vertex 43.2352523758755 40.7129397676697 0.0
   endloop
endfacet
facet normal 0.608761429008711 0.793353340291243 -8.60933563086627e-016
   outer loop
      vertex 47.1806365574793 37.68554000718 0.0
      vertex 43.2352523758755 40.7129397676699 83.2
      vertex 47.1806365574793 37.68554000718 83.2
   endloop
endfacet
facet normal 0.793353340291255 0.608761429008695 -0.0
   outer loop
      vertex 47.1806365574793 37.68554000718 0.0
      vertex 50.208036317969 33.7401558255762 83.2
      vertex 50.208036317969 33.7401558255762 0.0
   endloop
endfacet
facet normal 0.793353340291255 0.608761429008695 -0.0
   outer loop
      vertex 50.208036317969 33.7401558255762 83.2
      vertex 47.1806365574793 37.68554000718 0.0
      vertex 47.1806365574793 37.68554000718 83.2
   endloop
endfacet
facet normal 0.923879532511276 0.382683432365115 -0.0
   outer loop
      vertex 50.208036317969 33.7401558255762 0.0
      vertex 52.1111393666824 29.1456586347792 83.2
      vertex 52.1111393666824 29.1456586347792 0.0
   endloop
endfacet
facet normal 0.923879532511276 0.382683432365115 -0.0
   outer loop
      vertex 52.1111393666824 29.1456586347792 83.2
      vertex 50.208036317969 33.7401558255762 0.0
      vertex 50.208036317969 33.7401558255762 83.2
   endloop
endfacet
facet normal 0.991444861373814 -0.130526192220024 -3.91677161603607e-018
   outer loop
      vertex 52.7602523758755 24.2151558255762 0.0
      vertex 52.1111393666824 19.2846530163731 7.0
      vertex 52.1111393666824 19.2846530163731 0.0
   endloop
endfacet
facet normal 0.991444861373814 -0.130526192220024 -3.91677161603607e-018
   outer loop
      vertex 52.1111393666824 19.2846530163731 7.0
      vertex 52.7602523758755 24.2151558255762 0.0
      vertex 52.7602523758755 24.2151558255762 6.99999999999999
   endloop
endfacet
facet normal 0.923879532511276 -0.382683432365115 -0.0
   outer loop
      vertex 52.1111393666824 19.2846530163731 0.0
      vertex 50.208036317969 14.6901558255762 7.0
      vertex 50.208036317969 14.6901558255762 0.0
   endloop
endfacet
facet normal 0.923879532511276 -0.382683432365115 -0.0
   outer loop
      vertex 50.208036317969 14.6901558255762 7.0
      vertex 52.1111393666824 19.2846530163731 0.0
      vertex 52.1111393666824 19.2846530163731 7.0
   endloop
endfacet
facet normal 0.793353340291248 -0.608761429008704 -0.0
   outer loop
      vertex 50.208036317969 14.6901558255762 0.0
      vertex 47.1806365574793 10.7447716439724 7.0
      vertex 47.1806365574793 10.7447716439724 0.0
   endloop
endfacet
facet normal 0.793353340291248 -0.608761429008704 -0.0
   outer loop
      vertex 47.1806365574793 10.7447716439724 7.0
      vertex 50.208036317969 14.6901558255762 0.0
      vertex 50.208036317969 14.6901558255762 7.0
   endloop
endfacet
facet normal 0.608761429008708 -0.793353340291245 0.0
   outer loop
      vertex 47.1806365574793 10.7447716439724 7.0
      vertex 43.2352523758755 7.71737188348261 0.0
      vertex 47.1806365574793 10.7447716439724 0.0
   endloop
endfacet
facet normal 0.608761429008708 -0.793353340291245 0.0
   outer loop
      vertex 43.2352523758755 7.71737188348261 0.0
      vertex 47.1806365574793 10.7447716439724 7.0
      vertex 43.2352523758755 7.71737188348261 7.0
   endloop
endfacet
facet normal 0.3826834323651 -0.923879532511283 0.0
   outer loop
      vertex 43.2352523758755 7.71737188348261 7.0
      vertex 38.6407551850785 5.81426883476937 0.0
      vertex 43.2352523758755 7.71737188348261 0.0
   endloop
endfacet
facet normal 0.3826834323651 -0.923879532511283 0.0
   outer loop
      vertex 38.6407551850785 5.81426883476937 0.0
      vertex 43.2352523758755 7.71737188348261 7.0
      vertex 38.6407551850785 5.81426883476937 7.0
   endloop
endfacet
facet normal 0.130526192220042 -0.991444861373812 0.0
   outer loop
      vertex 38.6407551850785 5.81426883476937 7.0
      vertex 33.7102523758755 5.16515582557617 0.0
      vertex 38.6407551850785 5.81426883476937 0.0
   endloop
endfacet
facet normal 0.130526192220042 -0.991444861373812 0.0
   outer loop
      vertex 33.7102523758755 5.16515582557617 0.0
      vertex 38.6407551850785 5.81426883476937 7.0
      vertex 33.7102523758755 5.16515582557617 7.0
   endloop
endfacet
facet normal -0.13052619222006 -0.991444861373809 0.0
   outer loop
      vertex 33.7102523758755 5.16515582557617 7.0
      vertex 28.7797495666725 5.81426883476946 0.0
      vertex 33.7102523758755 5.16515582557617 0.0
   endloop
endfacet
facet normal -0.13052619222006 -0.991444861373809 0.0
   outer loop
      vertex 28.7797495666725 5.81426883476946 0.0
      vertex 33.7102523758755 5.16515582557617 7.0
      vertex 28.7797495666725 5.81426883476946 7.0
   endloop
endfacet
facet normal -0.382683432365084 -0.923879532511289 0.0
   outer loop
      vertex 28.7797495666725 5.81426883476946 7.0
      vertex 24.1852523758755 7.71737188348261 0.0
      vertex 28.7797495666725 5.81426883476946 0.0
   endloop
endfacet
facet normal -0.382683432365084 -0.923879532511289 0.0
   outer loop
      vertex 24.1852523758755 7.71737188348261 0.0
      vertex 28.7797495666725 5.81426883476946 7.0
      vertex 24.1852523758755 7.71737188348261 7.0
   endloop
endfacet
facet normal -0.608761429008708 -0.793353340291245 0.0
   outer loop
      vertex 24.1852523758755 7.71737188348261 7.0
      vertex 20.2398681942717 10.7447716439724 0.0
      vertex 24.1852523758755 7.71737188348261 0.0
   endloop
endfacet
facet normal -0.608761429008708 -0.793353340291245 0.0
   outer loop
      vertex 20.2398681942717 10.7447716439724 0.0
      vertex 24.1852523758755 7.71737188348261 7.0
      vertex 20.2398681942717 10.7447716439724 7.0
   endloop
endfacet
facet normal -0.793353340291247 -0.608761429008705 0.0
   outer loop
      vertex 17.2124684337819 14.6901558255762 7.0
      vertex 20.2398681942717 10.7447716439724 0.0
      vertex 20.2398681942717 10.7447716439724 7.0
   endloop
endfacet
facet normal -0.793353340291247 -0.608761429008705 0.0
   outer loop
      vertex 20.2398681942717 10.7447716439724 0.0
      vertex 17.2124684337819 14.6901558255762 7.0
      vertex 17.2124684337819 14.6901558255762 0.0
   endloop
endfacet
facet normal -0.923879532511276 -0.382683432365115 0.0
   outer loop
      vertex 15.3093653850686 19.2846530163731 7.0
      vertex 17.2124684337819 14.6901558255762 0.0
      vertex 17.2124684337819 14.6901558255762 7.0
   endloop
endfacet
facet normal -0.923879532511276 -0.382683432365115 0.0
   outer loop
      vertex 17.2124684337819 14.6901558255762 0.0
      vertex 15.3093653850686 19.2846530163731 7.0
      vertex 15.3093653850686 19.2846530163731 0.0
   endloop
endfacet
facet normal 0.0 0.0 -1.0
   outer loop
      vertex 15.3093653850686 29.1456586347792 0.0
      vertex 15.3093653850686 19.2846530163731 0.0
      vertex 14.6602523758755 24.2151558255762 0.0
   endloop
endfacet
facet normal 0.0 0.0 -1.0
   outer loop
      vertex 15.3093653850686 19.2846530163731 0.0
      vertex 15.3093653850686 29.1456586347792 0.0
      vertex 17.2124684337819 33.7401558255762 0.0
   endloop
endfacet
facet normal 0.0 0.0 -1.0
   outer loop
      vertex 15.3093653850686 19.2846530163731 0.0
      vertex 17.2124684337819 33.7401558255762 0.0
      vertex 17.2124684337819 14.6901558255762 0.0
   endloop
endfacet
facet normal 0.0 0.0 -1.0
   outer loop
      vertex 17.2124684337819 14.6901558255762 0.0
      vertex 17.2124684337819 33.7401558255762 0.0
      vertex 20.2398681942717 37.68554000718 0.0
   endloop
endfacet
facet normal 0.0 0.0 -1.0
   outer loop
      vertex 17.2124684337819 14.6901558255762 0.0
      vertex 20.2398681942717 37.68554000718 0.0
      vertex 20.2398681942717 10.7447716439724 0.0
   endloop
endfacet
facet normal 0.0 0.0 -1.0
   outer loop
      vertex 20.2398681942717 10.7447716439724 0.0
      vertex 20.2398681942717 37.68554000718 0.0
      vertex 24.1852523758755 40.7129397676697 0.0
   endloop
endfacet
facet normal 0.0 0.0 -1.0
   outer loop
      vertex 20.2398681942717 10.7447716439724 0.0
      vertex 24.1852523758755 40.7129397676697 0.0
      vertex 24.1852523758755 7.71737188348261 0.0
   endloop
endfacet
facet normal 0.0 0.0 -1.0
   outer loop
      vertex 24.1852523758755 7.71737188348261 0.0
      vertex 24.1852523758755 40.7129397676697 0.0
      vertex 28.7797495666725 42.6160428163831 0.0
   endloop
endfacet
facet normal 0.0 0.0 -1.0
   outer loop
      vertex 24.1852523758755 7.71737188348261 0.0
      vertex 28.7797495666725 42.6160428163831 0.0
      vertex 28.7797495666725 5.81426883476946 0.0
   endloop
endfacet
facet normal 0.0 0.0 -1.0
   outer loop
      vertex 28.7797495666725 5.81426883476946 0.0
      vertex 28.7797495666725 42.6160428163831 0.0
      vertex 31.2102523758757 31.2151558255762 0.0
   endloop
endfacet
facet normal 0.0 0.0 -1.0
   outer loop
      vertex 31.2102523758757 31.2151558255762 0.0
      vertex 28.7797495666725 42.6160428163831 0.0
      vertex 31.295437810153 31.8622034383326 0.0
   endloop
endfacet
facet normal 0.0 0.0 -1.0
   outer loop
      vertex 31.295437810153 31.8622034383326 0.0
      vertex 28.7797495666725 42.6160428163831 0.0
      vertex 33.7102523758755 43.2651558255762 0.0
   endloop
endfacet
facet normal 0.0 0.0 -1.0
   outer loop
      vertex 31.295437810153 31.8622034383326 0.0
      vertex 33.7102523758755 43.2651558255762 0.0
      vertex 31.5451888664147 32.4651558255763 0.0
   endloop
endfacet
facet normal 0.0 0.0 -1.0
   outer loop
      vertex 31.5451888664147 32.4651558255763 0.0
      vertex 33.7102523758755 43.2651558255762 0.0
      vertex 31.9424854229093 32.9829227785428 0.0
   endloop
endfacet
facet normal 0.0 0.0 -1.0
   outer loop
      vertex 31.9424854229093 32.9829227785428 0.0
      vertex 33.7102523758755 43.2651558255762 0.0
      vertex 32.4602523758758 33.3802193350375 0.0
   endloop
endfacet
facet normal 0.0 0.0 -1.0
   outer loop
      vertex 32.4602523758758 33.3802193350375 0.0
      vertex 33.7102523758755 43.2651558255762 0.0
      vertex 33.0632047631196 33.629970391299 0.0
   endloop
endfacet
facet normal 0.0 0.0 -1.0
   outer loop
      vertex 33.0632047631196 33.629970391299 0.0
      vertex 33.7102523758755 43.2651558255762 0.0
      vertex 33.7102523758759 33.7151558255764 0.0
   endloop
endfacet
facet normal 0.0 0.0 -1.0
   outer loop
      vertex 33.7102523758759 33.7151558255764 0.0
      vertex 33.7102523758755 43.2651558255762 0.0
      vertex 38.6407551850785 42.6160428163829 0.0
   endloop
endfacet
facet normal 0.0 0.0 -1.0
   outer loop
      vertex 33.7102523758759 33.7151558255764 0.0
      vertex 38.6407551850785 42.6160428163829 0.0
      vertex 34.3572999886321 33.629970391299 0.0
   endloop
endfacet
facet normal 0.0 0.0 -1.0
   outer loop
      vertex 34.3572999886321 33.629970391299 0.0
      vertex 38.6407551850785 42.6160428163829 0.0
      vertex 34.9602523758759 33.3802193350375 0.0
   endloop
endfacet
facet normal 0.0 0.0 -1.0
   outer loop
      vertex 34.9602523758759 33.3802193350375 0.0
      vertex 38.6407551850785 42.6160428163829 0.0
      vertex 35.4780193288424 32.9829227785428 0.0
   endloop
endfacet
facet normal 0.0 0.0 -1.0
   outer loop
      vertex 35.4780193288424 32.9829227785428 0.0
      vertex 38.6407551850785 42.6160428163829 0.0
      vertex 35.875315885337 32.4651558255763 0.0
   endloop
endfacet
facet normal 0.0 0.0 -1.0
   outer loop
      vertex 35.875315885337 32.4651558255763 0.0
      vertex 38.6407551850785 42.6160428163829 0.0
      vertex 36.1250669415987 31.8622034383326 0.0
   endloop
endfacet
facet normal 0.0 0.0 -1.0
   outer loop
      vertex 36.1250669415987 31.8622034383326 0.0
      vertex 38.6407551850785 42.6160428163829 0.0
      vertex 36.210252375876 31.2151558255762 0.0
   endloop
endfacet
facet normal 0.0 0.0 -1.0
   outer loop
      vertex 36.210252375876 31.2151558255762 0.0
      vertex 38.6407551850785 42.6160428163829 0.0
      vertex 36.210252375876 12.2151558255762 1.12798659301916e-014
   endloop
endfacet
facet normal 0.0 0.0 -1.0
   outer loop
      vertex 28.7797495666725 5.81426883476946 0.0
      vertex 31.295437810153 11.5681082128199 1.12798659301916e-014
      vertex 33.7102523758755 5.16515582557617 0.0
   endloop
endfacet
facet normal 0.0 0.0 -1.0
   outer loop
      vertex 31.295437810153 11.5681082128199 1.12798659301916e-014
      vertex 28.7797495666725 5.81426883476946 0.0
      vertex 31.2102523758757 12.2151558255762 1.12798659301916e-014
   endloop
endfacet
facet normal 0.0 0.0 -1.0
   outer loop
      vertex 31.2102523758757 12.2151558255762 1.12798659301916e-014
      vertex 28.7797495666725 5.81426883476946 0.0
      vertex 31.2102523758757 31.2151558255762 0.0
   endloop
endfacet
facet normal 0.0 0.0 -1.0
   outer loop
      vertex 33.7102523758755 5.16515582557617 0.0
      vertex 31.295437810153 11.5681082128199 1.12798659301916e-014
      vertex 31.5451888664147 10.9651558255761 1.12798659301916e-014
   endloop
endfacet
facet normal 0.0 0.0 -1.0
   outer loop
      vertex 33.7102523758755 5.16515582557617 0.0
      vertex 31.5451888664147 10.9651558255761 1.12798659301916e-014
      vertex 31.9424854229093 10.4473888726097 1.12798659301916e-014
   endloop
endfacet
facet normal 0.0 0.0 -1.0
   outer loop
      vertex 33.7102523758755 5.16515582557617 0.0
      vertex 31.9424854229093 10.4473888726097 1.12798659301916e-014
      vertex 32.4602523758758 10.0500923161149 1.12798659301916e-014
   endloop
endfacet
facet normal 0.0 0.0 -1.0
   outer loop
      vertex 33.7102523758755 5.16515582557617 0.0
      vertex 32.4602523758758 10.0500923161149 1.12798659301916e-014
      vertex 33.0632047631196 9.80034125985337 1.12798659301916e-014
   endloop
endfacet
facet normal 0.0 0.0 -1.0
   outer loop
      vertex 33.7102523758755 5.16515582557617 0.0
      vertex 33.0632047631196 9.80034125985337 1.12798659301916e-014
      vertex 33.7102523758759 9.71515582557604 1.12798659301916e-014
   endloop
endfacet
facet normal 0.0 0.0 -1.0
   outer loop
      vertex 33.7102523758755 5.16515582557617 0.0
      vertex 33.7102523758759 9.71515582557604 1.12798659301916e-014
      vertex 38.6407551850785 5.81426883476937 0.0
   endloop
endfacet
facet normal 0.0 0.0 -1.0
   outer loop
      vertex 38.6407551850785 5.81426883476937 0.0
      vertex 33.7102523758759 9.71515582557604 1.12798659301916e-014
      vertex 34.3572999886321 9.80034125985337 1.12798659301916e-014
   endloop
endfacet
facet normal 0.0 0.0 -1.0
   outer loop
      vertex 38.6407551850785 5.81426883476937 0.0
      vertex 34.3572999886321 9.80034125985337 1.12798659301916e-014
      vertex 34.9602523758759 10.0500923161149 1.12798659301916e-014
   endloop
endfacet
facet normal 0.0 0.0 -1.0
   outer loop
      vertex 38.6407551850785 5.81426883476937 0.0
      vertex 34.9602523758759 10.0500923161149 1.12798659301916e-014
      vertex 35.4780193288424 10.4473888726097 1.12798659301916e-014
   endloop
endfacet
facet normal 0.0 0.0 -1.0
   outer loop
      vertex 38.6407551850785 5.81426883476937 0.0
      vertex 35.4780193288424 10.4473888726097 1.12798659301916e-014
      vertex 35.875315885337 10.9651558255761 1.12798659301916e-014
   endloop
endfacet
facet normal 0.0 0.0 -1.0
   outer loop
      vertex 38.6407551850785 5.81426883476937 0.0
      vertex 35.875315885337 10.9651558255761 1.12798659301916e-014
      vertex 36.1250669415987 11.5681082128199 1.12798659301916e-014
   endloop
endfacet
facet normal 0.0 0.0 -1.0
   outer loop
      vertex 38.6407551850785 5.81426883476937 0.0
      vertex 36.1250669415987 11.5681082128199 1.12798659301916e-014
      vertex 36.210252375876 12.2151558255762 1.12798659301916e-014
   endloop
endfacet
facet normal 0.0 0.0 -1.0
   outer loop
      vertex 38.6407551850785 5.81426883476937 0.0
      vertex 36.210252375876 12.2151558255762 1.12798659301916e-014
      vertex 38.6407551850785 42.6160428163829 0.0
   endloop
endfacet
facet normal 0.0 0.0 -1.0
   outer loop
      vertex 38.6407551850785 5.81426883476937 0.0
      vertex 38.6407551850785 42.6160428163829 0.0
      vertex 43.2352523758755 40.7129397676697 0.0
   endloop
endfacet
facet normal 0.0 0.0 -1.0
   outer loop
      vertex 38.6407551850785 5.81426883476937 0.0
      vertex 43.2352523758755 40.7129397676697 0.0
      vertex 43.2352523758755 7.71737188348261 0.0
   endloop
endfacet
facet normal 0.0 0.0 -1.0
   outer loop
      vertex 43.2352523758755 7.71737188348261 0.0
      vertex 43.2352523758755 40.7129397676697 0.0
      vertex 47.1806365574793 37.68554000718 0.0
   endloop
endfacet
facet normal 0.0 0.0 -1.0
   outer loop
      vertex 43.2352523758755 7.71737188348261 0.0
      vertex 47.1806365574793 37.68554000718 0.0
      vertex 47.1806365574793 10.7447716439724 0.0
   endloop
endfacet
facet normal 0.0 0.0 -1.0
   outer loop
      vertex 47.1806365574793 10.7447716439724 0.0
      vertex 47.1806365574793 37.68554000718 0.0
      vertex 50.208036317969 33.7401558255762 0.0
   endloop
endfacet
facet normal 0.0 0.0 -1.0
   outer loop
      vertex 47.1806365574793 10.7447716439724 0.0
      vertex 50.208036317969 33.7401558255762 0.0
      vertex 50.208036317969 14.6901558255762 0.0
   endloop
endfacet
facet normal 0.0 0.0 -1.0
   outer loop
      vertex 50.208036317969 14.6901558255762 0.0
      vertex 50.208036317969 33.7401558255762 0.0
      vertex 52.1111393666824 29.1456586347792 0.0
   endloop
endfacet
facet normal 0.0 0.0 -1.0
   outer loop
      vertex 50.208036317969 14.6901558255762 0.0
      vertex 52.1111393666824 29.1456586347792 0.0
      vertex 52.1111393666824 19.2846530163731 0.0
   endloop
endfacet
facet normal 0.0 0.0 -1.0
   outer loop
      vertex 52.1111393666824 19.2846530163731 0.0
      vertex 52.1111393666824 29.1456586347792 0.0
      vertex 52.7602523758755 24.2151558255762 0.0
   endloop
endfacet
facet normal 0.0 0.0 -1.0
   outer loop
      vertex 31.295437810153 30.56810821282 0.0
      vertex 31.2102523758757 12.2151558255762 1.12798659301916e-014
      vertex 31.2102523758757 31.2151558255762 0.0
   endloop
endfacet
facet normal 0.0 0.0 -1.0
   outer loop
      vertex 31.2102523758757 12.2151558255762 1.12798659301916e-014
      vertex 31.295437810153 30.56810821282 0.0
      vertex 31.295437810153 12.8622034383325 1.12798659301916e-014
   endloop
endfacet
facet normal 0.0 0.0 -1.0
   outer loop
      vertex 31.295437810153 12.8622034383325 1.12798659301916e-014
      vertex 31.295437810153 30.56810821282 0.0
      vertex 31.5451888664147 29.9651558255761 0.0
   endloop
endfacet
facet normal 0.0 0.0 -1.0
   outer loop
      vertex 31.295437810153 12.8622034383325 1.12798659301916e-014
      vertex 31.5451888664147 29.9651558255761 0.0
      vertex 31.5451888664147 13.4651558255763 1.12798659301916e-014
   endloop
endfacet
facet normal 0.0 0.0 -1.0
   outer loop
      vertex 31.5451888664147 13.4651558255763 1.12798659301916e-014
      vertex 31.5451888664147 29.9651558255761 0.0
      vertex 31.9424854229093 29.4473888726097 0.0
   endloop
endfacet
facet normal 0.0 0.0 -1.0
   outer loop
      vertex 31.5451888664147 13.4651558255763 1.12798659301916e-014
      vertex 31.9424854229093 29.4473888726097 0.0
      vertex 31.9424854229093 13.9829227785427 1.12798659301916e-014
   endloop
endfacet
facet normal 0.0 0.0 -1.0
   outer loop
      vertex 31.9424854229093 13.9829227785427 1.12798659301916e-014
      vertex 31.9424854229093 29.4473888726097 0.0
      vertex 32.4602523758758 29.050092316115 0.0
   endloop
endfacet
facet normal 0.0 0.0 -1.0
   outer loop
      vertex 31.9424854229093 13.9829227785427 1.12798659301916e-014
      vertex 32.4602523758758 29.050092316115 0.0
      vertex 32.4602523758758 14.3802193350374 1.12798659301916e-014
   endloop
endfacet
facet normal 0.0 0.0 -1.0
   outer loop
      vertex 32.4602523758758 14.3802193350374 1.12798659301916e-014
      vertex 32.4602523758758 29.050092316115 0.0
      vertex 33.0632047631196 28.8003412598534 0.0
   endloop
endfacet
facet normal 0.0 0.0 -1.0
   outer loop
      vertex 32.4602523758758 14.3802193350374 1.12798659301916e-014
      vertex 33.0632047631196 28.8003412598534 0.0
      vertex 33.0632047631196 14.629970391299 1.12798659301916e-014
   endloop
endfacet
facet normal 0.0 0.0 -1.0
   outer loop
      vertex 33.0632047631196 14.629970391299 1.12798659301916e-014
      vertex 33.0632047631196 28.8003412598534 0.0
      vertex 33.7102523758759 28.715155825576 0.0
   endloop
endfacet
facet normal 0.0 0.0 -1.0
   outer loop
      vertex 33.0632047631196 14.629970391299 1.12798659301916e-014
      vertex 33.7102523758759 28.715155825576 0.0
      vertex 33.7102523758759 14.7151558255763 1.12798659301916e-014
   endloop
endfacet
facet normal 0.0 0.0 -1.0
   outer loop
      vertex 33.7102523758759 14.7151558255763 1.12798659301916e-014
      vertex 33.7102523758759 28.715155825576 0.0
      vertex 34.3572999886321 28.8003412598534 0.0
   endloop
endfacet
facet normal 0.0 0.0 -1.0
   outer loop
      vertex 33.7102523758759 14.7151558255763 1.12798659301916e-014
      vertex 34.3572999886321 28.8003412598534 0.0
      vertex 34.3572999886321 14.629970391299 1.12798659301916e-014
   endloop
endfacet
facet normal 0.0 0.0 -1.0
   outer loop
      vertex 34.3572999886321 14.629970391299 1.12798659301916e-014
      vertex 34.3572999886321 28.8003412598534 0.0
      vertex 34.9602523758759 29.050092316115 0.0
   endloop
endfacet
facet normal 0.0 0.0 -1.0
   outer loop
      vertex 34.3572999886321 14.629970391299 1.12798659301916e-014
      vertex 34.9602523758759 29.050092316115 0.0
      vertex 34.9602523758759 14.3802193350374 1.12798659301916e-014
   endloop
endfacet
facet normal 0.0 0.0 -1.0
   outer loop
      vertex 34.9602523758759 14.3802193350374 1.12798659301916e-014
      vertex 34.9602523758759 29.050092316115 0.0
      vertex 35.4780193288424 29.4473888726097 0.0
   endloop
endfacet
facet normal 0.0 0.0 -1.0
   outer loop
      vertex 34.9602523758759 14.3802193350374 1.12798659301916e-014
      vertex 35.4780193288424 29.4473888726097 0.0
      vertex 35.4780193288424 13.9829227785427 1.12798659301916e-014
   endloop
endfacet
facet normal 0.0 0.0 -1.0
   outer loop
      vertex 35.4780193288424 13.9829227785427 1.12798659301916e-014
      vertex 35.4780193288424 29.4473888726097 0.0
      vertex 35.875315885337 29.9651558255761 0.0
   endloop
endfacet
facet normal 0.0 0.0 -1.0
   outer loop
      vertex 35.4780193288424 13.9829227785427 1.12798659301916e-014
      vertex 35.875315885337 29.9651558255761 0.0
      vertex 35.875315885337 13.4651558255763 1.12798659301916e-014
   endloop
endfacet
facet normal 0.0 0.0 -1.0
   outer loop
      vertex 35.875315885337 13.4651558255763 1.12798659301916e-014
      vertex 35.875315885337 29.9651558255761 0.0
      vertex 36.1250669415987 30.56810821282 0.0
   endloop
endfacet
facet normal 0.0 0.0 -1.0
   outer loop
      vertex 35.875315885337 13.4651558255763 1.12798659301916e-014
      vertex 36.1250669415987 30.56810821282 0.0
      vertex 36.1250669415987 12.8622034383325 1.12798659301916e-014
   endloop
endfacet
facet normal 0.0 0.0 -1.0
   outer loop
      vertex 36.1250669415987 12.8622034383325 1.12798659301916e-014
      vertex 36.1250669415987 30.56810821282 0.0
      vertex 36.210252375876 31.2151558255762 0.0
   endloop
endfacet
facet normal 0.0 0.0 -1.0
   outer loop
      vertex 36.1250669415987 12.8622034383325 1.12798659301916e-014
      vertex 36.210252375876 31.2151558255762 0.0
      vertex 36.210252375876 12.2151558255762 1.12798659301916e-014
   endloop
endfacet
facet normal 0.991444861373814 0.130526192220024 -1.98661283368434e-019
   outer loop
      vertex 52.1111393666824 29.1456586347792 0.0
      vertex 52.7602523758755 24.2151558255762 6.99999999999999
      vertex 52.7602523758755 24.2151558255762 0.0
   endloop
endfacet
facet normal 0.991444861373814 0.130526192220024 -1.98661283368434e-019
   outer loop
      vertex 52.7602523758755 24.2151558255762 6.99999999999999
      vertex 52.1111393666824 29.1456586347792 0.0
      vertex 52.7602523758755 24.2151558255762 83.2
   endloop
endfacet
facet normal 0.991444861373814 0.130526192220024 -1.98661283368434e-019
   outer loop
      vertex 52.7602523758755 24.2151558255762 83.2
      vertex 52.1111393666824 29.1456586347792 0.0
      vertex 52.1111393666824 29.1456586347792 83.2
   endloop
endfacet
facet normal 0.382683432365084 0.923879532511289 -2.00396176933285e-015
   outer loop
      vertex 38.6407551850785 42.6160428163831 83.2
      vertex 43.2352523758755 40.7129397676697 0.0
      vertex 38.6407551850785 42.6160428163829 0.0
   endloop
endfacet
facet normal 0.382683432365084 0.923879532511289 -2.00396176933285e-015
   outer loop
      vertex 43.2352523758755 40.7129397676697 0.0
      vertex 38.6407551850785 42.6160428163831 83.2
      vertex 43.2352523758755 40.7129397676699 83.2
   endloop
endfacet
facet normal 0.13052619222006 0.991444861373809 -2.15115705157152e-015
   outer loop
      vertex 33.7102523758755 43.2651558255764 83.2
      vertex 38.6407551850785 42.6160428163829 0.0
      vertex 33.7102523758755 43.2651558255762 0.0
   endloop
endfacet
facet normal 0.13052619222006 0.991444861373809 -2.15115705157152e-015
   outer loop
      vertex 38.6407551850785 42.6160428163829 0.0
      vertex 33.7102523758755 43.2651558255764 83.2
      vertex 38.6407551850785 42.6160428163831 83.2
   endloop
endfacet
facet normal -0.130526192220042 0.991444861373812 -1.07525793606124e-015
   outer loop
      vertex 28.7797495666725 42.6160428163831 83.2
      vertex 33.7102523758755 43.2651558255762 0.0
      vertex 28.7797495666725 42.6160428163831 0.0
   endloop
endfacet
facet normal -0.130526192220042 0.991444861373812 -1.07525793606124e-015
   outer loop
      vertex 33.7102523758755 43.2651558255762 0.0
      vertex 28.7797495666725 42.6160428163831 83.2
      vertex 33.7102523758755 43.2651558255764 83.2
   endloop
endfacet
facet normal -0.3826834323651 0.923879532511283 -1.00198088466642e-015
   outer loop
      vertex 24.1852523758755 40.7129397676699 83.2
      vertex 28.7797495666725 42.6160428163831 0.0
      vertex 24.1852523758755 40.7129397676697 0.0
   endloop
endfacet
facet normal -0.3826834323651 0.923879532511283 -1.00198088466642e-015
   outer loop
      vertex 28.7797495666725 42.6160428163831 0.0
      vertex 24.1852523758755 40.7129397676699 83.2
      vertex 28.7797495666725 42.6160428163831 83.2
   endloop
endfacet
facet normal -0.608761429008711 0.793353340291243 -8.60933563086627e-016
   outer loop
      vertex 20.2398681942717 37.68554000718 83.2
      vertex 24.1852523758755 40.7129397676697 0.0
      vertex 20.2398681942717 37.68554000718 0.0
   endloop
endfacet
facet normal -0.608761429008711 0.793353340291243 -8.60933563086627e-016
   outer loop
      vertex 24.1852523758755 40.7129397676697 0.0
      vertex 20.2398681942717 37.68554000718 83.2
      vertex 24.1852523758755 40.7129397676699 83.2
   endloop
endfacet
facet normal -0.991444861373802 -0.130526192220112 0.0
   outer loop
      vertex 47.2815102352367 27.8515634092665 83.2
      vertex 47.7602523758756 24.2151558255762 7.0
      vertex 47.7602523758756 24.2151558255762 83.2
   endloop
endfacet
facet normal -0.991444861373802 -0.130526192220112 0.0
   outer loop
      vertex 47.7602523758756 24.2151558255762 7.0
      vertex 47.2815102352367 27.8515634092665 83.2
      vertex 47.2815102352367 27.8515634092665 7.0
   endloop
endfacet
facet normal -0.923879532511295 -0.382683432365071 0.0
   outer loop
      vertex 45.8779092990467 31.2401558255762 83.2
      vertex 47.2815102352367 27.8515634092665 7.0
      vertex 47.2815102352367 27.8515634092665 83.2
   endloop
endfacet
facet normal -0.923879532511295 -0.382683432365071 0.0
   outer loop
      vertex 47.2815102352367 27.8515634092665 7.0
      vertex 45.8779092990467 31.2401558255762 83.2
      vertex 45.8779092990467 31.2401558255762 7.0
   endloop
endfacet
facet normal -0.79335334029126 -0.608761429008689 0.0
   outer loop
      vertex 43.6451026515465 34.1500061012472 83.2
      vertex 45.8779092990467 31.2401558255762 7.0
      vertex 45.8779092990467 31.2401558255762 83.2
   endloop
endfacet
facet normal -0.79335334029126 -0.608761429008689 0.0
   outer loop
      vertex 45.8779092990467 31.2401558255762 7.0
      vertex 43.6451026515465 34.1500061012472 83.2
      vertex 43.6451026515465 34.1500061012472 7.0
   endloop
endfacet
facet normal -0.608761429008727 -0.79335334029123 0.0
   outer loop
      vertex 43.6451026515465 34.1500061012472 83.2
      vertex 40.7352523758753 36.3828127487478 7.0
      vertex 43.6451026515465 34.1500061012472 7.0
   endloop
endfacet
facet normal -0.608761429008727 -0.79335334029123 0.0
   outer loop
      vertex 40.7352523758753 36.3828127487478 7.0
      vertex 43.6451026515465 34.1500061012472 83.2
      vertex 40.7352523758753 36.3828127487478 83.2
   endloop
endfacet
facet normal -0.382683432365105 -0.92387953251128 0.0
   outer loop
      vertex 40.7352523758753 36.3828127487478 83.2
      vertex 37.3466599595661 37.7864136849378 7.0
      vertex 40.7352523758753 36.3828127487478 7.0
   endloop
endfacet
facet normal -0.382683432365105 -0.92387953251128 0.0
   outer loop
      vertex 37.3466599595661 37.7864136849378 7.0
      vertex 40.7352523758753 36.3828127487478 83.2
      vertex 37.3466599595661 37.7864136849378 83.2
   endloop
endfacet
facet normal -0.130526192220057 -0.99144486137381 0.0
   outer loop
      vertex 37.3466599595661 37.7864136849378 83.2
      vertex 33.7102523758755 38.2651558255764 7.0
      vertex 37.3466599595661 37.7864136849378 7.0
   endloop
endfacet
facet normal -0.130526192220057 -0.99144486137381 0.0
   outer loop
      vertex 33.7102523758755 38.2651558255764 7.0
      vertex 37.3466599595661 37.7864136849378 83.2
      vertex 33.7102523758755 38.2651558255764 83.2
   endloop
endfacet
facet normal 0.130526192220057 -0.99144486137381 0.0
   outer loop
      vertex 33.7102523758755 38.2651558255764 83.2
      vertex 30.0738447921849 37.7864136849378 7.0
      vertex 33.7102523758755 38.2651558255764 7.0
   endloop
endfacet
facet normal 0.130526192220057 -0.99144486137381 0.0
   outer loop
      vertex 30.0738447921849 37.7864136849378 7.0
      vertex 33.7102523758755 38.2651558255764 83.2
      vertex 30.0738447921849 37.7864136849378 83.2
   endloop
endfacet
facet normal 0.382683432365105 -0.92387953251128 0.0
   outer loop
      vertex 30.0738447921849 37.7864136849378 83.2
      vertex 26.6852523758757 36.3828127487478 7.0
      vertex 30.0738447921849 37.7864136849378 7.0
   endloop
endfacet
facet normal 0.382683432365105 -0.92387953251128 0.0
   outer loop
      vertex 26.6852523758757 36.3828127487478 7.0
      vertex 30.0738447921849 37.7864136849378 83.2
      vertex 26.6852523758757 36.3828127487478 83.2
   endloop
endfacet
facet normal 0.608761429008727 -0.79335334029123 0.0
   outer loop
      vertex 26.6852523758757 36.3828127487478 83.2
      vertex 23.7754021002045 34.1500061012472 7.0
      vertex 26.6852523758757 36.3828127487478 7.0
   endloop
endfacet
facet normal 0.608761429008727 -0.79335334029123 0.0
   outer loop
      vertex 23.7754021002045 34.1500061012472 7.0
      vertex 26.6852523758757 36.3828127487478 83.2
      vertex 23.7754021002045 34.1500061012472 83.2
   endloop
endfacet
facet normal 0.79335334029126 -0.608761429008689 -0.0
   outer loop
      vertex 23.7754021002045 34.1500061012472 7.0
      vertex 21.5425954527042 31.2401558255762 83.2
      vertex 21.5425954527042 31.2401558255762 7.0
   endloop
endfacet
facet normal 0.79335334029126 -0.608761429008689 -0.0
   outer loop
      vertex 21.5425954527042 31.2401558255762 83.2
      vertex 23.7754021002045 34.1500061012472 7.0
      vertex 23.7754021002045 34.1500061012472 83.2
   endloop
endfacet
facet normal 0.923879532511295 -0.382683432365071 -0.0
   outer loop
      vertex 21.5425954527042 31.2401558255762 7.0
      vertex 20.1389945165143 27.8515634092665 83.2
      vertex 20.1389945165143 27.8515634092665 7.0
   endloop
endfacet
facet normal 0.923879532511295 -0.382683432365071 -0.0
   outer loop
      vertex 20.1389945165143 27.8515634092665 83.2
      vertex 21.5425954527042 31.2401558255762 7.0
      vertex 21.5425954527042 31.2401558255762 83.2
   endloop
endfacet
facet normal 0.991444861373802 -0.130526192220112 -0.0
   outer loop
      vertex 20.1389945165143 27.8515634092665 7.0
      vertex 19.6602523758754 24.2151558255762 83.2
      vertex 19.6602523758754 24.2151558255762 7.0
   endloop
endfacet
facet normal 0.991444861373802 -0.130526192220112 -0.0
   outer loop
      vertex 19.6602523758754 24.2151558255762 83.2
      vertex 20.1389945165143 27.8515634092665 7.0
      vertex 20.1389945165143 27.8515634092665 83.2
   endloop
endfacet
facet normal 0.0 -1.0 0.0
   outer loop
      vertex 52.7602523758755 24.2151558255762 83.2
      vertex 47.7602523758756 24.2151558255762 7.0
      vertex 52.7602523758755 24.2151558255762 6.99999999999999
   endloop
endfacet
facet normal 0.0 -1.0 0.0
   outer loop
      vertex 47.7602523758756 24.2151558255762 7.0
      vertex 52.7602523758755 24.2151558255762 83.2
      vertex 47.7602523758756 24.2151558255762 83.2
   endloop
endfacet
facet normal 4.86605032984956e-031 8.20336182658813e-031 -1.0
   outer loop
      vertex 15.3093653850686 29.1456586347792 83.2
      vertex 19.6602523758754 24.2151558255762 83.2
      vertex 14.6602523758755 24.2151558255762 83.2
   endloop
endfacet
facet normal 4.86605032984956e-031 8.20336182658813e-031 -1.0
   outer loop
      vertex 19.6602523758754 24.2151558255762 83.2
      vertex 15.3093653850686 29.1456586347792 83.2
      vertex 17.2124684337819 33.7401558255762 83.2
   endloop
endfacet
facet normal 4.86605032984956e-031 8.20336182658813e-031 -1.0
   outer loop
      vertex 19.6602523758754 24.2151558255762 83.2
      vertex 17.2124684337819 33.7401558255762 83.2
      vertex 20.2398681942717 37.68554000718 83.2
   endloop
endfacet
facet normal 4.86605032984956e-031 8.20336182658813e-031 -1.0
   outer loop
      vertex 19.6602523758754 24.2151558255762 83.2
      vertex 20.2398681942717 37.68554000718 83.2
      vertex 20.1389945165143 27.8515634092665 83.2
   endloop
endfacet
facet normal 4.86605032984956e-031 8.20336182658813e-031 -1.0
   outer loop
      vertex 20.1389945165143 27.8515634092665 83.2
      vertex 20.2398681942717 37.68554000718 83.2
      vertex 21.5425954527042 31.2401558255762 83.2
   endloop
endfacet
facet normal 4.86605032984956e-031 8.20336182658813e-031 -1.0
   outer loop
      vertex 21.5425954527042 31.2401558255762 83.2
      vertex 20.2398681942717 37.68554000718 83.2
      vertex 24.1852523758755 40.7129397676699 83.2
   endloop
endfacet
facet normal 4.86605032984956e-031 8.20336182658813e-031 -1.0
   outer loop
      vertex 21.5425954527042 31.2401558255762 83.2
      vertex 24.1852523758755 40.7129397676699 83.2
      vertex 23.7754021002045 34.1500061012472 83.2
   endloop
endfacet
facet normal 4.86605032984956e-031 8.20336182658813e-031 -1.0
   outer loop
      vertex 23.7754021002045 34.1500061012472 83.2
      vertex 24.1852523758755 40.7129397676699 83.2
      vertex 26.6852523758757 36.3828127487478 83.2
   endloop
endfacet
facet normal 4.86605032984956e-031 8.20336182658813e-031 -1.0
   outer loop
      vertex 26.6852523758757 36.3828127487478 83.2
      vertex 24.1852523758755 40.7129397676699 83.2
      vertex 28.7797495666725 42.6160428163831 83.2
   endloop
endfacet
facet normal 4.86605032984956e-031 8.20336182658813e-031 -1.0
   outer loop
      vertex 26.6852523758757 36.3828127487478 83.2
      vertex 28.7797495666725 42.6160428163831 83.2
      vertex 30.0738447921849 37.7864136849378 83.2
   endloop
endfacet
facet normal 4.86605032984956e-031 8.20336182658813e-031 -1.0
   outer loop
      vertex 30.0738447921849 37.7864136849378 83.2
      vertex 28.7797495666725 42.6160428163831 83.2
      vertex 33.7102523758755 43.2651558255764 83.2
   endloop
endfacet
facet normal 4.86605032984956e-031 8.20336182658813e-031 -1.0
   outer loop
      vertex 30.0738447921849 37.7864136849378 83.2
      vertex 33.7102523758755 43.2651558255764 83.2
      vertex 33.7102523758755 38.2651558255764 83.2
   endloop
endfacet
facet normal 4.86605032984956e-031 8.20336182658813e-031 -1.0
   outer loop
      vertex 33.7102523758755 38.2651558255764 83.2
      vertex 33.7102523758755 43.2651558255764 83.2
      vertex 38.6407551850785 42.6160428163831 83.2
   endloop
endfacet
facet normal 4.86605032984956e-031 8.20336182658813e-031 -1.0
   outer loop
      vertex 33.7102523758755 38.2651558255764 83.2
      vertex 38.6407551850785 42.6160428163831 83.2
      vertex 37.3466599595661 37.7864136849378 83.2
   endloop
endfacet
facet normal 4.86605032984956e-031 8.20336182658813e-031 -1.0
   outer loop
      vertex 37.3466599595661 37.7864136849378 83.2
      vertex 38.6407551850785 42.6160428163831 83.2
      vertex 40.7352523758753 36.3828127487478 83.2
   endloop
endfacet
facet normal 4.86605032984956e-031 8.20336182658813e-031 -1.0
   outer loop
      vertex 40.7352523758753 36.3828127487478 83.2
      vertex 38.6407551850785 42.6160428163831 83.2
      vertex 43.2352523758755 40.7129397676699 83.2
   endloop
endfacet
facet normal 4.86605032984956e-031 8.20336182658813e-031 -1.0
   outer loop
      vertex 40.7352523758753 36.3828127487478 83.2
      vertex 43.2352523758755 40.7129397676699 83.2
      vertex 43.6451026515465 34.1500061012472 83.2
   endloop
endfacet
facet normal 4.86605032984956e-031 8.20336182658813e-031 -1.0
   outer loop
      vertex 43.6451026515465 34.1500061012472 83.2
      vertex 43.2352523758755 40.7129397676699 83.2
      vertex 47.1806365574793 37.68554000718 83.2
   endloop
endfacet
facet normal 4.86605032984956e-031 8.20336182658813e-031 -1.0
   outer loop
      vertex 43.6451026515465 34.1500061012472 83.2
      vertex 47.1806365574793 37.68554000718 83.2
      vertex 45.8779092990467 31.2401558255762 83.2
   endloop
endfacet
facet normal 4.86605032984956e-031 8.20336182658813e-031 -1.0
   outer loop
      vertex 45.8779092990467 31.2401558255762 83.2
      vertex 47.1806365574793 37.68554000718 83.2
      vertex 47.2815102352367 27.8515634092665 83.2
   endloop
endfacet
facet normal 4.86605032984956e-031 8.20336182658813e-031 -1.0
   outer loop
      vertex 47.2815102352367 27.8515634092665 83.2
      vertex 47.1806365574793 37.68554000718 83.2
      vertex 50.208036317969 33.7401558255762 83.2
   endloop
endfacet
facet normal 4.86605032984956e-031 8.20336182658813e-031 -1.0
   outer loop
      vertex 47.2815102352367 27.8515634092665 83.2
      vertex 50.208036317969 33.7401558255762 83.2
      vertex 47.7602523758756 24.2151558255762 83.2
   endloop
endfacet
facet normal 4.86605032984956e-031 8.20336182658813e-031 -1.0
   outer loop
      vertex 47.7602523758756 24.2151558255762 83.2
      vertex 50.208036317969 33.7401558255762 83.2
      vertex 52.7602523758755 24.2151558255762 83.2
   endloop
endfacet
facet normal 4.86605032984956e-031 8.20336182658813e-031 -1.0
   outer loop
      vertex 52.7602523758755 24.2151558255762 83.2
      vertex 50.208036317969 33.7401558255762 83.2
      vertex 52.1111393666824 29.1456586347792 83.2
   endloop
endfacet
facet normal 0.0 -1.0 0.0
   outer loop
      vertex 19.6602523758754 24.2151558255762 7.0
      vertex 14.6602523758755 24.2151558255762 83.2
      vertex 14.6602523758755 24.2151558255762 6.99999999999999
   endloop
endfacet
facet normal 0.0 -1.0 0.0
   outer loop
      vertex 14.6602523758755 24.2151558255762 83.2
      vertex 19.6602523758754 24.2151558255762 7.0
      vertex 19.6602523758754 24.2151558255762 83.2
   endloop
endfacet
endsolid spool holder P-011
